<?xml version="1.0" encoding="utf-8" standalone="no"?>
<!DOCTYPE svg PUBLIC "-//W3C//DTD SVG 1.1//EN"
  "http://www.w3.org/Graphics/SVG/1.1/DTD/svg11.dtd">
<svg xmlns:xlink="http://www.w3.org/1999/xlink" width="380.401966pt" height="298.690125pt" viewBox="0 0 380.401966 298.690125" xmlns="http://www.w3.org/2000/svg" version="1.1">
 <metadata>
  <rdf:RDF xmlns:dc="http://purl.org/dc/elements/1.1/" xmlns:cc="http://creativecommons.org/ns#" xmlns:rdf="http://www.w3.org/1999/02/22-rdf-syntax-ns#">
   <cc:Work>
    <dc:type rdf:resource="http://purl.org/dc/dcmitype/StillImage"/>
    <dc:date>2023-09-05T16:06:05.104865</dc:date>
    <dc:format>image/svg+xml</dc:format>
    <dc:creator>
     <cc:Agent>
      <dc:title>Matplotlib v3.7.2, https://matplotlib.org/</dc:title>
     </cc:Agent>
    </dc:creator>
   </cc:Work>
  </rdf:RDF>
 </metadata>
 <defs>
  <style type="text/css">*{stroke-linejoin: round; stroke-linecap: butt}</style>
 </defs>
 <g id="figure_1">
  <g id="patch_1">
   <path d="M 0 298.690125
L 380.401966 298.690125
L 380.401966 0
L 0 0
z
" style="fill: #ffffff"/>
  </g>
  <g id="axes_1">
   <g id="patch_2">
    <path d="M 7.2 273.312
L 364.32 273.312
L 364.32 7.2
L 7.2 7.2
z
" style="fill: #ffffff"/>
   </g>
   <g id="line2d_1">
    <path d="M -1 256.68
L 20.935385 256.68
L 20.935385 223.416
L 158.289231 223.416
L 158.289231 206.784
L 295.643077 206.784
L 295.643077 190.152
L 381.401966 190.152
" clip-path="url(#p774a071dec)" style="fill: none; stroke: #59b2d8; stroke-width: 1.5; stroke-linecap: square"/>
   </g>
   <g id="line2d_2">
    <path d="M 20.935385 57.096
L 350.584615 57.096
" clip-path="url(#p774a071dec)" style="fill: none; stroke: #000000; stroke-width: 1.5; stroke-linecap: square"/>
    <defs>
     <path id="m1028557b66" d="M 0 3
L 0 -3
" style="stroke: #000000"/>
    </defs>
    <g clip-path="url(#p774a071dec)">
     <use xlink:href="#m1028557b66" x="20.935385" y="57.096" style="stroke: #000000"/>
     <use xlink:href="#m1028557b66" x="350.584615" y="57.096" style="stroke: #000000"/>
    </g>
   </g>
   <g id="line2d_3">
    <path d="M 20.935385 261.6696
L 295.643077 261.6696
" clip-path="url(#p774a071dec)" style="fill: none; stroke: #000000; stroke-width: 1.5; stroke-linecap: square"/>
    <g clip-path="url(#p774a071dec)">
     <use xlink:href="#m1028557b66" x="20.935385" y="261.6696" style="stroke: #000000"/>
     <use xlink:href="#m1028557b66" x="295.643077" y="261.6696" style="stroke: #000000"/>
    </g>
   </g>
   <g id="line2d_4">
    <path d="M 20.935385 273.312
L 20.935385 -1
" clip-path="url(#p774a071dec)" style="fill: none; stroke-dasharray: 5.55,2.4; stroke-dashoffset: 0; stroke: #727d8b; stroke-opacity: 0.3; stroke-width: 1.5"/>
   </g>
   <g id="line2d_5">
    <path d="M 350.584615 273.312
L 350.584615 -1
" clip-path="url(#p774a071dec)" style="fill: none; stroke-dasharray: 1.5,2.475; stroke-dashoffset: 0; stroke: #727d8b; stroke-opacity: 0.3; stroke-width: 1.5"/>
   </g>
   <g id="line2d_6">
    <path d="M 295.643077 273.312
L 295.643077 190.152
" clip-path="url(#p774a071dec)" style="fill: none; stroke-dasharray: 5.55,2.4; stroke-dashoffset: 0; stroke: #727d8b; stroke-opacity: 0.3; stroke-width: 1.5"/>
   </g>
   <g id="mpl_toolkits.axisartist.axis_artist_1">
    <g id="patch_3">
     <path d="M 7.2 273.312
L 364.32 273.312
L 373.201966 273.312
" style="fill: none; stroke: #000000; stroke-linecap: round"/>
     <path d="M 369.201966 271.312
L 373.201966 273.312
L 369.201966 275.312
z
" style="stroke: #000000; stroke-linecap: round"/>
    </g>
    <g id="text_1">
     <!-- frame -->
     <g transform="translate(170.933438 289.410437) scale(0.1 -0.1)">
      <defs>
       <path id="DejaVuSans-66" d="M 2375 4863
L 2375 4384
L 1825 4384
Q 1516 4384 1395 4259
Q 1275 4134 1275 3809
L 1275 3500
L 2222 3500
L 2222 3053
L 1275 3053
L 1275 0
L 697 0
L 697 3053
L 147 3053
L 147 3500
L 697 3500
L 697 3744
Q 697 4328 969 4595
Q 1241 4863 1831 4863
L 2375 4863
z
" transform="scale(0.015625)"/>
       <path id="DejaVuSans-72" d="M 2631 2963
Q 2534 3019 2420 3045
Q 2306 3072 2169 3072
Q 1681 3072 1420 2755
Q 1159 2438 1159 1844
L 1159 0
L 581 0
L 581 3500
L 1159 3500
L 1159 2956
Q 1341 3275 1631 3429
Q 1922 3584 2338 3584
Q 2397 3584 2469 3576
Q 2541 3569 2628 3553
L 2631 2963
z
" transform="scale(0.015625)"/>
       <path id="DejaVuSans-61" d="M 2194 1759
Q 1497 1759 1228 1600
Q 959 1441 959 1056
Q 959 750 1161 570
Q 1363 391 1709 391
Q 2188 391 2477 730
Q 2766 1069 2766 1631
L 2766 1759
L 2194 1759
z
M 3341 1997
L 3341 0
L 2766 0
L 2766 531
Q 2569 213 2275 61
Q 1981 -91 1556 -91
Q 1019 -91 701 211
Q 384 513 384 1019
Q 384 1609 779 1909
Q 1175 2209 1959 2209
L 2766 2209
L 2766 2266
Q 2766 2663 2505 2880
Q 2244 3097 1772 3097
Q 1472 3097 1187 3025
Q 903 2953 641 2809
L 641 3341
Q 956 3463 1253 3523
Q 1550 3584 1831 3584
Q 2591 3584 2966 3190
Q 3341 2797 3341 1997
z
" transform="scale(0.015625)"/>
       <path id="DejaVuSans-6d" d="M 3328 2828
Q 3544 3216 3844 3400
Q 4144 3584 4550 3584
Q 5097 3584 5394 3201
Q 5691 2819 5691 2113
L 5691 0
L 5113 0
L 5113 2094
Q 5113 2597 4934 2840
Q 4756 3084 4391 3084
Q 3944 3084 3684 2787
Q 3425 2491 3425 1978
L 3425 0
L 2847 0
L 2847 2094
Q 2847 2600 2669 2842
Q 2491 3084 2119 3084
Q 1678 3084 1418 2786
Q 1159 2488 1159 1978
L 1159 0
L 581 0
L 581 3500
L 1159 3500
L 1159 2956
Q 1356 3278 1631 3431
Q 1906 3584 2284 3584
Q 2666 3584 2933 3390
Q 3200 3197 3328 2828
z
" transform="scale(0.015625)"/>
       <path id="DejaVuSans-65" d="M 3597 1894
L 3597 1613
L 953 1613
Q 991 1019 1311 708
Q 1631 397 2203 397
Q 2534 397 2845 478
Q 3156 559 3463 722
L 3463 178
Q 3153 47 2828 -22
Q 2503 -91 2169 -91
Q 1331 -91 842 396
Q 353 884 353 1716
Q 353 2575 817 3079
Q 1281 3584 2069 3584
Q 2775 3584 3186 3129
Q 3597 2675 3597 1894
z
M 3022 2063
Q 3016 2534 2758 2815
Q 2500 3097 2075 3097
Q 1594 3097 1305 2825
Q 1016 2553 972 2059
L 3022 2063
z
" transform="scale(0.015625)"/>
      </defs>
      <use xlink:href="#DejaVuSans-66"/>
      <use xlink:href="#DejaVuSans-72" x="35.205078"/>
      <use xlink:href="#DejaVuSans-61" x="76.318359"/>
      <use xlink:href="#DejaVuSans-6d" x="137.597656"/>
      <use xlink:href="#DejaVuSans-65" x="235.009766"/>
     </g>
    </g>
   </g>
   <g id="patch_4">
    <path d="M 63.668818 154.858795
Q 39.186922 183.219029 23.912213 217.714921
L 25.283767 218.322242
Q 23.139703 220.076718 21.016748 221.901502
Q 20.834739 219.108073 20.71192 216.297838
L 22.083474 216.905159
Q 37.478616 182.137288 62.154881 153.551893
L 63.668818 154.858795
z
" style="fill: #6cbea7; stroke: #6cbea7; stroke-linecap: round"/>
   </g>
   <g id="text_2">
    <!-- first frame the  -->
    <g transform="translate(38.308173 137.416469) scale(0.1 -0.1)">
     <defs>
      <path id="DejaVuSans-69" d="M 603 3500
L 1178 3500
L 1178 0
L 603 0
L 603 3500
z
M 603 4863
L 1178 4863
L 1178 4134
L 603 4134
L 603 4863
z
" transform="scale(0.015625)"/>
      <path id="DejaVuSans-73" d="M 2834 3397
L 2834 2853
Q 2591 2978 2328 3040
Q 2066 3103 1784 3103
Q 1356 3103 1142 2972
Q 928 2841 928 2578
Q 928 2378 1081 2264
Q 1234 2150 1697 2047
L 1894 2003
Q 2506 1872 2764 1633
Q 3022 1394 3022 966
Q 3022 478 2636 193
Q 2250 -91 1575 -91
Q 1294 -91 989 -36
Q 684 19 347 128
L 347 722
Q 666 556 975 473
Q 1284 391 1588 391
Q 1994 391 2212 530
Q 2431 669 2431 922
Q 2431 1156 2273 1281
Q 2116 1406 1581 1522
L 1381 1569
Q 847 1681 609 1914
Q 372 2147 372 2553
Q 372 3047 722 3315
Q 1072 3584 1716 3584
Q 2034 3584 2315 3537
Q 2597 3491 2834 3397
z
" transform="scale(0.015625)"/>
      <path id="DejaVuSans-74" d="M 1172 4494
L 1172 3500
L 2356 3500
L 2356 3053
L 1172 3053
L 1172 1153
Q 1172 725 1289 603
Q 1406 481 1766 481
L 2356 481
L 2356 0
L 1766 0
Q 1100 0 847 248
Q 594 497 594 1153
L 594 3053
L 172 3053
L 172 3500
L 594 3500
L 594 4494
L 1172 4494
z
" transform="scale(0.015625)"/>
      <path id="DejaVuSans-20" transform="scale(0.015625)"/>
      <path id="DejaVuSans-68" d="M 3513 2113
L 3513 0
L 2938 0
L 2938 2094
Q 2938 2591 2744 2837
Q 2550 3084 2163 3084
Q 1697 3084 1428 2787
Q 1159 2491 1159 1978
L 1159 0
L 581 0
L 581 4863
L 1159 4863
L 1159 2956
Q 1366 3272 1645 3428
Q 1925 3584 2291 3584
Q 2894 3584 3203 3211
Q 3513 2838 3513 2113
z
" transform="scale(0.015625)"/>
     </defs>
     <use xlink:href="#DejaVuSans-66"/>
     <use xlink:href="#DejaVuSans-69" x="35.205078"/>
     <use xlink:href="#DejaVuSans-72" x="62.988281"/>
     <use xlink:href="#DejaVuSans-73" x="104.101562"/>
     <use xlink:href="#DejaVuSans-74" x="156.201172"/>
     <use xlink:href="#DejaVuSans-20" x="195.410156"/>
     <use xlink:href="#DejaVuSans-66" x="227.197266"/>
     <use xlink:href="#DejaVuSans-72" x="262.402344"/>
     <use xlink:href="#DejaVuSans-61" x="303.515625"/>
     <use xlink:href="#DejaVuSans-6d" x="364.794922"/>
     <use xlink:href="#DejaVuSans-65" x="462.207031"/>
     <use xlink:href="#DejaVuSans-20" x="523.730469"/>
     <use xlink:href="#DejaVuSans-74" x="555.517578"/>
     <use xlink:href="#DejaVuSans-68" x="594.726562"/>
     <use xlink:href="#DejaVuSans-65" x="658.105469"/>
     <use xlink:href="#DejaVuSans-20" x="719.628906"/>
    </g>
    <!-- line was crossed -->
    <g transform="translate(34.705829 148.614281) scale(0.1 -0.1)">
     <defs>
      <path id="DejaVuSans-6c" d="M 603 4863
L 1178 4863
L 1178 0
L 603 0
L 603 4863
z
" transform="scale(0.015625)"/>
      <path id="DejaVuSans-6e" d="M 3513 2113
L 3513 0
L 2938 0
L 2938 2094
Q 2938 2591 2744 2837
Q 2550 3084 2163 3084
Q 1697 3084 1428 2787
Q 1159 2491 1159 1978
L 1159 0
L 581 0
L 581 3500
L 1159 3500
L 1159 2956
Q 1366 3272 1645 3428
Q 1925 3584 2291 3584
Q 2894 3584 3203 3211
Q 3513 2838 3513 2113
z
" transform="scale(0.015625)"/>
      <path id="DejaVuSans-77" d="M 269 3500
L 844 3500
L 1563 769
L 2278 3500
L 2956 3500
L 3675 769
L 4391 3500
L 4966 3500
L 4050 0
L 3372 0
L 2619 2869
L 1863 0
L 1184 0
L 269 3500
z
" transform="scale(0.015625)"/>
      <path id="DejaVuSans-63" d="M 3122 3366
L 3122 2828
Q 2878 2963 2633 3030
Q 2388 3097 2138 3097
Q 1578 3097 1268 2742
Q 959 2388 959 1747
Q 959 1106 1268 751
Q 1578 397 2138 397
Q 2388 397 2633 464
Q 2878 531 3122 666
L 3122 134
Q 2881 22 2623 -34
Q 2366 -91 2075 -91
Q 1284 -91 818 406
Q 353 903 353 1747
Q 353 2603 823 3093
Q 1294 3584 2113 3584
Q 2378 3584 2631 3529
Q 2884 3475 3122 3366
z
" transform="scale(0.015625)"/>
      <path id="DejaVuSans-6f" d="M 1959 3097
Q 1497 3097 1228 2736
Q 959 2375 959 1747
Q 959 1119 1226 758
Q 1494 397 1959 397
Q 2419 397 2687 759
Q 2956 1122 2956 1747
Q 2956 2369 2687 2733
Q 2419 3097 1959 3097
z
M 1959 3584
Q 2709 3584 3137 3096
Q 3566 2609 3566 1747
Q 3566 888 3137 398
Q 2709 -91 1959 -91
Q 1206 -91 779 398
Q 353 888 353 1747
Q 353 2609 779 3096
Q 1206 3584 1959 3584
z
" transform="scale(0.015625)"/>
      <path id="DejaVuSans-64" d="M 2906 2969
L 2906 4863
L 3481 4863
L 3481 0
L 2906 0
L 2906 525
Q 2725 213 2448 61
Q 2172 -91 1784 -91
Q 1150 -91 751 415
Q 353 922 353 1747
Q 353 2572 751 3078
Q 1150 3584 1784 3584
Q 2172 3584 2448 3432
Q 2725 3281 2906 2969
z
M 947 1747
Q 947 1113 1208 752
Q 1469 391 1925 391
Q 2381 391 2643 752
Q 2906 1113 2906 1747
Q 2906 2381 2643 2742
Q 2381 3103 1925 3103
Q 1469 3103 1208 2742
Q 947 2381 947 1747
z
" transform="scale(0.015625)"/>
     </defs>
     <use xlink:href="#DejaVuSans-6c"/>
     <use xlink:href="#DejaVuSans-69" x="27.783203"/>
     <use xlink:href="#DejaVuSans-6e" x="55.566406"/>
     <use xlink:href="#DejaVuSans-65" x="118.945312"/>
     <use xlink:href="#DejaVuSans-20" x="180.46875"/>
     <use xlink:href="#DejaVuSans-77" x="212.255859"/>
     <use xlink:href="#DejaVuSans-61" x="294.042969"/>
     <use xlink:href="#DejaVuSans-73" x="355.322266"/>
     <use xlink:href="#DejaVuSans-20" x="407.421875"/>
     <use xlink:href="#DejaVuSans-63" x="439.208984"/>
     <use xlink:href="#DejaVuSans-72" x="494.189453"/>
     <use xlink:href="#DejaVuSans-6f" x="533.052734"/>
     <use xlink:href="#DejaVuSans-73" x="594.234375"/>
     <use xlink:href="#DejaVuSans-73" x="646.333984"/>
     <use xlink:href="#DejaVuSans-65" x="698.433594"/>
     <use xlink:href="#DejaVuSans-64" x="759.957031"/>
    </g>
   </g>
   <g id="patch_5">
    <path d="M 303.400941 121.453606
Q 302.627323 152.825841 297.205101 183.77737
L 298.682601 184.036204
Q 297.017799 186.295091 295.328732 188.522302
Q 294.560471 185.834688 293.757602 183.173422
L 295.235102 183.432257
Q 300.631605 152.627538 301.401549 121.404303
L 303.400941 121.453606
z
" style="fill: #6cbea7; stroke: #6cbea7; stroke-linecap: round"/>
   </g>
   <g id="text_3">
    <!-- last frame the  -->
    <g transform="translate(265.693582 104.152469) scale(0.1 -0.1)">
     <use xlink:href="#DejaVuSans-6c"/>
     <use xlink:href="#DejaVuSans-61" x="27.783203"/>
     <use xlink:href="#DejaVuSans-73" x="89.0625"/>
     <use xlink:href="#DejaVuSans-74" x="141.162109"/>
     <use xlink:href="#DejaVuSans-20" x="180.371094"/>
     <use xlink:href="#DejaVuSans-66" x="212.158203"/>
     <use xlink:href="#DejaVuSans-72" x="247.363281"/>
     <use xlink:href="#DejaVuSans-61" x="288.476562"/>
     <use xlink:href="#DejaVuSans-6d" x="349.755859"/>
     <use xlink:href="#DejaVuSans-65" x="447.167969"/>
     <use xlink:href="#DejaVuSans-20" x="508.691406"/>
     <use xlink:href="#DejaVuSans-74" x="540.478516"/>
     <use xlink:href="#DejaVuSans-68" x="579.6875"/>
     <use xlink:href="#DejaVuSans-65" x="643.066406"/>
     <use xlink:href="#DejaVuSans-20" x="704.589844"/>
    </g>
    <!-- line was crossed -->
    <g transform="translate(261.339675 115.350281) scale(0.1 -0.1)">
     <use xlink:href="#DejaVuSans-6c"/>
     <use xlink:href="#DejaVuSans-69" x="27.783203"/>
     <use xlink:href="#DejaVuSans-6e" x="55.566406"/>
     <use xlink:href="#DejaVuSans-65" x="118.945312"/>
     <use xlink:href="#DejaVuSans-20" x="180.46875"/>
     <use xlink:href="#DejaVuSans-77" x="212.255859"/>
     <use xlink:href="#DejaVuSans-61" x="294.042969"/>
     <use xlink:href="#DejaVuSans-73" x="355.322266"/>
     <use xlink:href="#DejaVuSans-20" x="407.421875"/>
     <use xlink:href="#DejaVuSans-63" x="439.208984"/>
     <use xlink:href="#DejaVuSans-72" x="494.189453"/>
     <use xlink:href="#DejaVuSans-6f" x="533.052734"/>
     <use xlink:href="#DejaVuSans-73" x="594.234375"/>
     <use xlink:href="#DejaVuSans-73" x="646.333984"/>
     <use xlink:href="#DejaVuSans-65" x="698.433594"/>
     <use xlink:href="#DejaVuSans-64" x="759.957031"/>
    </g>
   </g>
   <g id="text_4">
    <!-- $\Delta frame$ -->
    <g transform="translate(167.51 48.78) scale(0.1 -0.1)">
     <defs>
      <path id="DejaVuSans-394" d="M 2188 4044
L 906 525
L 3472 525
L 2188 4044
z
M 50 0
L 1831 4666
L 2547 4666
L 4325 0
L 50 0
z
" transform="scale(0.015625)"/>
      <path id="DejaVuSans-Oblique-66" d="M 3059 4863
L 2969 4384
L 2419 4384
Q 2106 4384 1964 4261
Q 1822 4138 1753 3809
L 1691 3500
L 2638 3500
L 2553 3053
L 1606 3053
L 1013 0
L 434 0
L 1031 3053
L 481 3053
L 563 3500
L 1113 3500
L 1159 3744
Q 1278 4363 1576 4613
Q 1875 4863 2516 4863
L 3059 4863
z
" transform="scale(0.015625)"/>
      <path id="DejaVuSans-Oblique-72" d="M 2853 2969
Q 2766 3016 2653 3041
Q 2541 3066 2413 3066
Q 1953 3066 1609 2717
Q 1266 2369 1153 1784
L 800 0
L 225 0
L 909 3500
L 1484 3500
L 1375 2956
Q 1603 3259 1920 3421
Q 2238 3584 2597 3584
Q 2691 3584 2781 3573
Q 2872 3563 2963 3538
L 2853 2969
z
" transform="scale(0.015625)"/>
      <path id="DejaVuSans-Oblique-61" d="M 3438 1997
L 3047 0
L 2472 0
L 2578 531
Q 2325 219 2001 64
Q 1678 -91 1281 -91
Q 834 -91 548 182
Q 263 456 263 884
Q 263 1497 752 1853
Q 1241 2209 2100 2209
L 2900 2209
L 2931 2363
Q 2938 2388 2941 2417
Q 2944 2447 2944 2509
Q 2944 2788 2717 2942
Q 2491 3097 2081 3097
Q 1800 3097 1504 3025
Q 1209 2953 897 2809
L 997 3341
Q 1322 3463 1633 3523
Q 1944 3584 2234 3584
Q 2853 3584 3176 3315
Q 3500 3047 3500 2534
Q 3500 2431 3484 2292
Q 3469 2153 3438 1997
z
M 2816 1759
L 2241 1759
Q 1534 1759 1195 1570
Q 856 1381 856 984
Q 856 709 1029 553
Q 1203 397 1509 397
Q 1978 397 2328 733
Q 2678 1069 2791 1631
L 2816 1759
z
" transform="scale(0.015625)"/>
      <path id="DejaVuSans-Oblique-6d" d="M 5747 2113
L 5338 0
L 4763 0
L 5166 2094
Q 5191 2228 5203 2325
Q 5216 2422 5216 2491
Q 5216 2772 5059 2928
Q 4903 3084 4622 3084
Q 4203 3084 3875 2770
Q 3547 2456 3450 1953
L 3066 0
L 2491 0
L 2900 2094
Q 2925 2209 2937 2307
Q 2950 2406 2950 2484
Q 2950 2769 2794 2926
Q 2638 3084 2363 3084
Q 1938 3084 1609 2770
Q 1281 2456 1184 1953
L 800 0
L 225 0
L 909 3500
L 1484 3500
L 1375 2956
Q 1609 3263 1923 3423
Q 2238 3584 2597 3584
Q 2978 3584 3223 3384
Q 3469 3184 3519 2828
Q 3781 3197 4126 3390
Q 4472 3584 4856 3584
Q 5306 3584 5551 3325
Q 5797 3066 5797 2591
Q 5797 2488 5784 2364
Q 5772 2241 5747 2113
z
" transform="scale(0.015625)"/>
      <path id="DejaVuSans-Oblique-65" d="M 3078 2063
Q 3088 2113 3092 2166
Q 3097 2219 3097 2272
Q 3097 2653 2873 2875
Q 2650 3097 2266 3097
Q 1838 3097 1509 2826
Q 1181 2556 1013 2059
L 3078 2063
z
M 3578 1613
L 903 1613
Q 884 1494 878 1425
Q 872 1356 872 1306
Q 872 872 1139 634
Q 1406 397 1894 397
Q 2269 397 2603 481
Q 2938 566 3225 728
L 3116 159
Q 2806 34 2476 -28
Q 2147 -91 1806 -91
Q 1078 -91 686 257
Q 294 606 294 1247
Q 294 1794 489 2264
Q 684 2734 1063 3103
Q 1306 3334 1642 3459
Q 1978 3584 2356 3584
Q 2950 3584 3301 3228
Q 3653 2872 3653 2272
Q 3653 2128 3634 1964
Q 3616 1800 3578 1613
z
" transform="scale(0.015625)"/>
     </defs>
     <use xlink:href="#DejaVuSans-394" transform="translate(0 0.015625)"/>
     <use xlink:href="#DejaVuSans-Oblique-66" transform="translate(68.408203 0.015625)"/>
     <use xlink:href="#DejaVuSans-Oblique-72" transform="translate(103.613281 0.015625)"/>
     <use xlink:href="#DejaVuSans-Oblique-61" transform="translate(144.726562 0.015625)"/>
     <use xlink:href="#DejaVuSans-Oblique-6d" transform="translate(206.005859 0.015625)"/>
     <use xlink:href="#DejaVuSans-Oblique-65" transform="translate(303.417969 0.015625)"/>
    </g>
   </g>
   <g id="text_5">
    <!-- $\Delta f$ -->
    <g transform="translate(153.089231 253.3536) scale(0.1 -0.1)">
     <use xlink:href="#DejaVuSans-394" transform="translate(0 0.015625)"/>
     <use xlink:href="#DejaVuSans-Oblique-66" transform="translate(68.408203 0.015625)"/>
    </g>
   </g>
  </g>
 </g>
 <defs>
  <clipPath id="p774a071dec">
   <rect x="7.2" y="7.2" width="357.12" height="266.112"/>
  </clipPath>
 </defs>
</svg>
