<?xml version="1.0" encoding="UTF-8" standalone="no"?>
<svg
   width="280.512pt"
   height="280.512pt"
   viewBox="0 0 280.512 280.512"
   version="1.1"
   id="svg8"
   sodipodi:docname="crossing_frames.svg"
   inkscape:version="1.3 (0e150ed6c4, 2023-07-21)"
   xmlns:inkscape="http://www.inkscape.org/namespaces/inkscape"
   xmlns:sodipodi="http://sodipodi.sourceforge.net/DTD/sodipodi-0.dtd"
   xmlns:xlink="http://www.w3.org/1999/xlink"
   xmlns="http://www.w3.org/2000/svg"
   xmlns:svg="http://www.w3.org/2000/svg"
   xmlns:rdf="http://www.w3.org/1999/02/22-rdf-syntax-ns#"
   xmlns:cc="http://creativecommons.org/ns#"
   xmlns:dc="http://purl.org/dc/elements/1.1/">
  <sodipodi:namedview
     id="namedview8"
     pagecolor="#505050"
     bordercolor="#eeeeee"
     borderopacity="1"
     inkscape:showpageshadow="0"
     inkscape:pageopacity="0"
     inkscape:pagecheckerboard="0"
     inkscape:deskcolor="#d1d1d1"
     inkscape:document-units="pt"
     showgrid="false"
     inkscape:zoom="3.1415769"
     inkscape:cx="114.11467"
     inkscape:cy="182.86995"
     inkscape:window-width="2556"
     inkscape:window-height="1381"
     inkscape:window-x="0"
     inkscape:window-y="0"
     inkscape:window-maximized="1"
     inkscape:current-layer="svg8" />
  <metadata
     id="metadata1">
    <rdf:RDF>
      <cc:Work>
        <dc:type
           rdf:resource="http://purl.org/dc/dcmitype/StillImage" />
        <dc:date>2023-08-22T15:13:47.936065</dc:date>
        <dc:format>image/svg+xml</dc:format>
        <dc:creator>
          <cc:Agent>
            <dc:title>Matplotlib v3.7.2, https://matplotlib.org/</dc:title>
          </cc:Agent>
        </dc:creator>
      </cc:Work>
    </rdf:RDF>
  </metadata>
  <defs
     id="defs1">
    <inkscape:path-effect
       effect="spiro"
       id="path-effect12"
       is_visible="true"
       lpeversion="1" />
    <inkscape:path-effect
       effect="spiro"
       id="path-effect11"
       is_visible="true"
       lpeversion="1" />
    <inkscape:path-effect
       effect="spiro"
       id="path-effect10"
       is_visible="true"
       lpeversion="1" />
    <inkscape:path-effect
       effect="spiro"
       id="path-effect9"
       is_visible="true"
       lpeversion="1" />
    <inkscape:path-effect
       effect="spiro"
       id="path-effect8"
       is_visible="true"
       lpeversion="1" />
    <style
       type="text/css"
       id="style1">*{stroke-linejoin: round; stroke-linecap: butt}</style>
    <inkscape:path-effect
       effect="spiro"
       id="path-effect8-6"
       is_visible="true"
       lpeversion="1" />
    <inkscape:path-effect
       effect="spiro"
       id="path-effect9-3"
       is_visible="true"
       lpeversion="1" />
    <clipPath
       clipPathUnits="userSpaceOnUse"
       id="clipPath16">
      <path
         style="opacity:0.1;fill:none;stroke:#727d8b;stroke-width:1.945;stroke-dasharray:none;stroke-opacity:1"
         d="m 21.125215,133.55267 v 12.80995 l 180.937075,10.82015 63.98292,-23.82579 v -30.61794 z"
         id="path16" />
    </clipPath>
    <clipPath
       clipPathUnits="userSpaceOnUse"
       id="clipPath17">
      <path
         style="opacity:0.1;fill:none;stroke:#e97586;stroke-width:1.945;stroke-dasharray:none;stroke-opacity:1"
         d="M 17.356767,48.770927 V 30.941014 l 118.632273,-6.03826 126.28773,5.289165 -10e-6,26.05809 -115.85841,10.839458 z"
         id="path18" />
    </clipPath>
  </defs>
  <g
     id="figure_1"
     clip-path="none">
    <g
       id="patch_1">
      <path
         d="M 0 280.512  L 280.512 280.512  L 280.512 0  L 0 0  z "
         style="fill: #ffffff"
         id="path1" />
    </g>
    <g
       id="axes_1">
      <g
         id="patch_2">
        <path
           d="M 19.296 261.216  L 19.296 19.296  L 261.216 19.296  L 261.216 261.216  z "
           clip-path="url(#p2ea3c360c6)"
           style="fill:#6cbea7;opacity:0.1;stroke:#6cbea7;stroke-linejoin:miter"
           id="path2" />
      </g>
      <g
         id="line2d_1">
        <path
           d="M 19.296 261.216  L 261.216 261.216  "
           clip-path="url(#p2ea3c360c6)"
           style="fill: none; stroke-dasharray: 5.55,2.4; stroke-dashoffset: 0; stroke: #6cbea7; stroke-width: 1.5"
           id="path3" />
      </g>
      <g
         id="line2d_2">
        <path
           d="M 19.296 19.296  L 261.216 19.296  "
           clip-path="url(#p2ea3c360c6)"
           style="fill: none; stroke-dasharray: 5.55,2.4; stroke-dashoffset: 0; stroke: #6cbea7; stroke-width: 1.5"
           id="path4" />
      </g>
      <g
         id="line2d_3">
        <path
           d="M 19.296 261.216  L 19.296 19.296  "
           clip-path="url(#p2ea3c360c6)"
           style="fill: none; stroke: #59b2d8; stroke-width: 3; stroke-linecap: square"
           id="path5" />
        <defs
           id="defs5">
          <path
             id="m6f6ee7a884"
             d="M 0 3.5  C 0.928211 3.5 1.81853 3.131218 2.474874 2.474874  C 3.131218 1.81853 3.5 0.928211 3.5 0  C 3.5 -0.928211 3.131218 -1.81853 2.474874 -2.474874  C 1.81853 -3.131218 0.928211 -3.5 0 -3.5  C -0.928211 -3.5 -1.81853 -3.131218 -2.474874 -2.474874  C -3.131218 -1.81853 -3.5 -0.928211 -3.5 0  C -3.5 0.928211 -3.131218 1.81853 -2.474874 2.474874  C -1.81853 3.131218 -0.928211 3.5 0 3.5  z "
             style="stroke: #59b2d8" />
        </defs>
        <g
           clip-path="url(#p2ea3c360c6)"
           id="g6">
          <use
             xlink:href="#m6f6ee7a884"
             x="19.296"
             y="261.216"
             style="fill: #59b2d8; stroke: #59b2d8"
             id="use5" />
          <use
             xlink:href="#m6f6ee7a884"
             x="19.296"
             y="19.296"
             style="fill: #59b2d8; stroke: #59b2d8"
             id="use6" />
        </g>
      </g>
      <g
         id="line2d_4">
        <path
           d="M 261.216 261.216  L 261.216 19.296  "
           clip-path="url(#p2ea3c360c6)"
           style="fill: none; stroke: #dca049; stroke-width: 3; stroke-linecap: square"
           id="path6" />
        <defs
           id="defs6">
          <path
             id="m2079a5b1a2"
             d="M 0 3.5  C 0.928211 3.5 1.81853 3.131218 2.474874 2.474874  C 3.131218 1.81853 3.5 0.928211 3.5 0  C 3.5 -0.928211 3.131218 -1.81853 2.474874 -2.474874  C 1.81853 -3.131218 0.928211 -3.5 0 -3.5  C -0.928211 -3.5 -1.81853 -3.131218 -2.474874 -2.474874  C -3.131218 -1.81853 -3.5 -0.928211 -3.5 0  C -3.5 0.928211 -3.131218 1.81853 -2.474874 2.474874  C -1.81853 3.131218 -0.928211 3.5 0 3.5  z "
             style="stroke: #dca049" />
        </defs>
        <g
           clip-path="url(#p2ea3c360c6)"
           id="g8">
          <use
             xlink:href="#m2079a5b1a2"
             x="261.216"
             y="261.216"
             style="fill: #dca049; stroke: #dca049"
             id="use7" />
          <use
             xlink:href="#m2079a5b1a2"
             x="261.216"
             y="19.296"
             style="fill: #dca049; stroke: #dca049"
             id="use8" />
        </g>
      </g>
    </g>
  </g>
  <defs
     id="defs8">
    <clipPath
       id="p2ea3c360c6">
      <rect
         x="7.2"
         y="7.2"
         width="266.112"
         height="266.112"
         id="rect8" />
    </clipPath>
  </defs>
  <path
     style="fill:none;stroke:#727d8b;stroke-width:1.945;stroke-opacity:1;stroke-dasharray:none"
     d="M 5.3267437,41.324228 C 12.012125,38.924361 18.97634,37.302252 26.034087,36.501064 c 8.231465,-0.934428 16.692692,-0.734019 24.627797,1.645956 6.91117,2.072867 13.434078,5.78553 20.629941,6.31525 7.765396,0.571645 15.237717,-2.628602 22.815842,-4.417504 8.510373,-2.008969 17.516353,-2.233154 25.970673,0 8.34077,2.203161 15.96551,6.717412 24.39186,8.566433 9.09638,1.996048 18.71301,0.742607 27.44784,-2.487119 3.49543,-1.292445 6.87533,-2.894392 10.41726,-4.053349 3.54193,-1.158957 7.31613,-1.869273 10.99976,-1.304169 4.44442,0.681817 8.43603,3.159182 12.84592,4.037023 3.57206,0.71106 7.27968,0.341612 10.84303,-0.411849 3.56336,-0.753461 7.03617,-1.884545 10.58237,-2.715003 6.02232,-1.410321 12.22617,-1.944995 18.4114,-1.962091 6.7913,-0.01877 13.59771,0.580536 20.36417,0 3.33454,-0.28609 6.64446,-0.858672 9.88133,-1.70937"
     id="path8"
     inkscape:path-effect="#path-effect8"
     inkscape:original-d="m 5.3267437,41.324228 c 6.8228703,-1.607721 13.8048953,-3.215443 20.7073433,-4.823164 6.902447,-1.607722 16.418531,1.097304 24.627797,1.645956 8.209265,0.548652 13.753294,4.210167 20.629941,6.31525 6.876648,2.105083 15.210565,-2.945003 22.815842,-4.417504 7.605283,-1.472501 17.313783,0 25.970673,0 8.65689,0 16.26124,5.710955 24.39186,8.566433 8.13063,2.855478 18.29856,-1.65808 27.44784,-2.487119 9.14928,-0.82904 14.27801,-3.571679 21.41702,-5.357518 7.139,-1.785839 8.56394,2.691348 12.84592,4.037023 4.28197,1.345674 14.2836,-2.084568 21.4254,-3.126852 7.14181,-1.042283 12.27427,-1.30806 18.4114,-1.962091 6.13714,-0.654031 13.57611,0 20.36417,0 6.78805,0 6.58755,-1.13958 9.88133,-1.70937"
     transform="translate(0.43923254,2.8909148)" />
  <path
     style="fill:none;stroke:#e97586;stroke-width:1.94456693;stroke-linecap:butt;stroke-linejoin:round;stroke-opacity:1;stroke-dasharray:none"
     d="M 5.3267437,41.324228 C 12.012125,38.924361 18.97634,37.302252 26.034087,36.501064 c 8.231465,-0.934428 16.692692,-0.734019 24.627797,1.645956 6.91117,2.072867 13.434078,5.78553 20.629941,6.31525 7.765396,0.571645 15.237717,-2.628602 22.815842,-4.417504 8.510373,-2.008969 17.516353,-2.233154 25.970673,0 8.34077,2.203161 15.96551,6.717412 24.39186,8.566433 9.09638,1.996048 18.71301,0.742607 27.44784,-2.487119 3.49543,-1.292445 6.87533,-2.894392 10.41726,-4.053349 3.54193,-1.158957 7.31613,-1.869273 10.99976,-1.304169 4.44442,0.681817 8.43603,3.159182 12.84592,4.037023 3.57206,0.71106 7.27968,0.341612 10.84303,-0.411849 3.56336,-0.753461 7.03617,-1.884545 10.58237,-2.715003 6.02232,-1.410321 12.22617,-1.944995 18.4114,-1.962091 6.7913,-0.01877 13.59771,0.580536 20.36417,0 3.33454,-0.28609 6.64446,-0.858672 9.88133,-1.70937"
     id="path8-7"
     transform="translate(0.43923254,2.8909148)"
     inkscape:original-d="m 5.3267437,41.324228 c 6.8228703,-1.607721 13.8048953,-3.215443 20.7073433,-4.823164 6.902447,-1.607722 16.418531,1.097304 24.627797,1.645956 8.209265,0.548652 13.753294,4.210167 20.629941,6.31525 6.876648,2.105083 15.210565,-2.945003 22.815842,-4.417504 7.605283,-1.472501 17.313783,0 25.970673,0 8.65689,0 16.26124,5.710955 24.39186,8.566433 8.13063,2.855478 18.29856,-1.65808 27.44784,-2.487119 9.14928,-0.82904 14.27801,-3.571679 21.41702,-5.357518 7.139,-1.785839 8.56394,2.691348 12.84592,4.037023 4.28197,1.345674 14.2836,-2.084568 21.4254,-3.126852 7.14181,-1.042283 12.27427,-1.30806 18.4114,-1.962091 6.13714,-0.654031 13.57611,0 20.36417,0 6.78805,0 6.58755,-1.13958 9.88133,-1.70937"
     inkscape:path-effect="#path-effect8-6"
     clip-path="url(#clipPath17)" />
  <path
     style="fill:none;stroke:#727d8b;stroke-width:1.945;stroke-opacity:1;stroke-dasharray:none"
     d="m 9.2770387,89.17353 c 2.9191153,-2.171708 6.3970553,-3.585639 10.0034403,-4.066826 3.606384,-0.481186 7.333369,-0.02858 10.719756,1.301808 2.517657,0.989096 4.824253,2.441958 7.27205,3.593131 2.946839,1.385867 6.121573,2.347158 8.809552,4.185434 1.34399,0.919137 2.556526,2.061538 3.405071,3.451176 0.848545,1.389638 1.316299,3.039507 1.148864,4.659097 -0.202331,1.95715 -1.309244,3.73227 -2.720251,5.10356 -1.411007,1.37128 -3.11912,2.39088 -4.815711,3.38734 -3.628167,2.13094 -7.300883,4.22472 -11.227008,5.738 -4.477653,1.72586 -9.335863,2.72557 -13.243187,5.51139 -1.659949,1.1835 -3.119685,2.68974 -4.055724,4.5008 -0.936039,1.81106 -1.320319,3.94156 -0.861629,5.92794 0.385242,1.66831 1.343263,3.16988 2.558896,4.37566 1.215633,1.20578 2.682301,2.13262 4.209575,2.90664 7.405323,3.753 16.329552,3.93919 24.241719,1.42495 4.92374,-1.56461 9.485444,-4.10242 14.358945,-5.81712 2.43675,-0.85736 4.961161,-1.50898 7.537073,-1.70259 2.575912,-0.19362 5.210957,0.0826 7.61556,1.02634 4.234921,1.66214 7.450655,5.23572 11.546875,7.21517 2.554579,1.23447 5.395094,1.81363 8.230355,1.91895 2.835261,0.10533 5.671779,-0.25222 8.45161,-0.81996 5.55967,-1.13548 10.93604,-3.10986 16.5421,-3.98805 6.71377,-1.05171 13.6096,-0.49854 20.24574,0.9652 3.70974,0.81826 7.35757,1.91859 11.09708,2.5878 3.7395,0.66922 7.62674,0.89646 11.3103,-0.0326 3.62575,-0.91449 6.87739,-2.89797 10.03855,-4.89533 3.16117,-1.99735 6.3464,-4.06014 9.91902,-5.16412 4.16154,-1.28597 8.62675,-1.19757 12.95253,-0.68788 4.32578,0.5097 8.60194,1.42738 12.94447,1.76592 9.7712,0.76176 19.67104,-1.47252 28.47551,-5.7781 6.01326,-2.94062 11.51567,-6.80706 17.12634,-10.45766 4.1699,-2.71315 8.60285,-5.38208 13.55094,-5.89746 2.95939,-0.30824 5.99899,0.19201 8.70351,1.4324"
     id="path9"
     inkscape:path-effect="#path-effect9"
     inkscape:original-d="m 9.2770387,89.17353 c 6.9077323,-0.921675 13.8154643,-1.843343 20.7231963,-2.765018 6.907733,-0.921674 4.848033,2.395418 7.27205,3.593131 2.424016,1.197705 8.908991,8.19714 13.363487,12.295707 4.454496,4.09857 -5.023974,5.6606 -7.535962,8.4909 -2.511987,2.8303 -7.484672,3.82533 -11.227008,5.738 -3.742336,1.91266 -8.828792,3.67425 -13.243187,5.51139 -4.414396,1.83713 -3.278235,6.95249 -4.917353,10.42874 -1.639118,3.47625 4.512313,4.85487 6.768471,7.2823 2.256157,2.42744 16.161146,0.94997 24.241719,1.42495 8.080573,0.47498 19.674386,-4.32892 29.511578,-6.49337 9.83719,-2.16446 7.697913,4.81011 11.546875,7.21517 3.848955,2.40505 22.149385,-1.92603 33.224065,-2.88906 11.07469,-0.96301 13.49715,0.64346 20.24574,0.9652 6.74857,0.32173 14.93825,1.70346 22.40738,2.55519 7.46913,0.85174 13.30505,-6.7063 19.95757,-10.05945 6.65253,-3.35314 17.26467,0.71869 25.897,1.07804 8.63234,0.35934 18.98368,-3.85207 28.47551,-5.7781 9.49184,-1.92604 11.41756,-6.97177 17.12634,-10.45766 5.70878,-3.48588 9.03396,-3.93164 13.55094,-5.89746 4.51697,-1.96582 5.80234,0.95493 8.70351,1.4324"
     transform="translate(-3.3292148,-16.926773)" />
  <path
     style="fill:none;stroke:#e97586;stroke-width:1.945;stroke-linecap:butt;stroke-linejoin:round;stroke-dasharray:none;stroke-opacity:1"
     d="m 9.2770387,89.17353 c 2.9191153,-2.171708 6.3970553,-3.585639 10.0034403,-4.066826 3.606384,-0.481186 7.333369,-0.02858 10.719756,1.301808 2.517657,0.989096 4.824253,2.441958 7.27205,3.593131 2.946839,1.385867 6.121573,2.347158 8.809552,4.185434 1.34399,0.919137 2.556526,2.061538 3.405071,3.451176 0.848545,1.389638 1.316299,3.039507 1.148864,4.659097 -0.202331,1.95715 -1.309244,3.73227 -2.720251,5.10356 -1.411007,1.37128 -3.11912,2.39088 -4.815711,3.38734 -3.628167,2.13094 -7.300883,4.22472 -11.227008,5.738 -4.477653,1.72586 -9.335863,2.72557 -13.243187,5.51139 -1.659949,1.1835 -3.119685,2.68974 -4.055724,4.5008 -0.936039,1.81106 -1.320319,3.94156 -0.861629,5.92794 0.385242,1.66831 1.343263,3.16988 2.558896,4.37566 1.215633,1.20578 2.682301,2.13262 4.209575,2.90664 7.405323,3.753 16.329552,3.93919 24.241719,1.42495 4.92374,-1.56461 9.485444,-4.10242 14.358945,-5.81712 2.43675,-0.85736 4.961161,-1.50898 7.537073,-1.70259 2.575912,-0.19362 5.210957,0.0826 7.61556,1.02634 4.234921,1.66214 7.450655,5.23572 11.546875,7.21517 2.554579,1.23447 5.395094,1.81363 8.230355,1.91895 2.835261,0.10533 5.671779,-0.25222 8.45161,-0.81996 5.55967,-1.13548 10.93604,-3.10986 16.5421,-3.98805 6.71377,-1.05171 13.6096,-0.49854 20.24574,0.9652 3.70974,0.81826 7.35757,1.91859 11.09708,2.5878 3.7395,0.66922 7.62674,0.89646 11.3103,-0.0326 3.62575,-0.91449 6.87739,-2.89797 10.03855,-4.89533 3.16117,-1.99735 6.3464,-4.06014 9.91902,-5.16412 4.16154,-1.28597 8.62675,-1.19757 12.95253,-0.68788 4.32578,0.5097 8.60194,1.42738 12.94447,1.76592 9.7712,0.76176 19.67104,-1.47252 28.47551,-5.7781 6.01326,-2.94062 11.51567,-6.80706 17.12634,-10.45766 4.1699,-2.71315 8.60285,-5.38208 13.55094,-5.89746 2.95939,-0.30824 5.99899,0.19201 8.70351,1.4324"
     id="path9-5"
     inkscape:path-effect="#path-effect9-3"
     inkscape:original-d="m 9.2770387,89.17353 c 6.9077323,-0.921675 13.8154643,-1.843343 20.7231963,-2.765018 6.907733,-0.921674 4.848033,2.395418 7.27205,3.593131 2.424016,1.197705 8.908991,8.19714 13.363487,12.295707 4.454496,4.09857 -5.023974,5.6606 -7.535962,8.4909 -2.511987,2.8303 -7.484672,3.82533 -11.227008,5.738 -3.742336,1.91266 -8.828792,3.67425 -13.243187,5.51139 -4.414396,1.83713 -3.278235,6.95249 -4.917353,10.42874 -1.639118,3.47625 4.512313,4.85487 6.768471,7.2823 2.256157,2.42744 16.161146,0.94997 24.241719,1.42495 8.080573,0.47498 19.674386,-4.32892 29.511578,-6.49337 9.83719,-2.16446 7.697913,4.81011 11.546875,7.21517 3.848955,2.40505 22.149385,-1.92603 33.224065,-2.88906 11.07469,-0.96301 13.49715,0.64346 20.24574,0.9652 6.74857,0.32173 14.93825,1.70346 22.40738,2.55519 7.46913,0.85174 13.30505,-6.7063 19.95757,-10.05945 6.65253,-3.35314 17.26467,0.71869 25.897,1.07804 8.63234,0.35934 18.98368,-3.85207 28.47551,-5.7781 9.49184,-1.92604 11.41756,-6.97177 17.12634,-10.45766 5.70878,-3.48588 9.03396,-3.93164 13.55094,-5.89746 4.51697,-1.96582 5.80234,0.95493 8.70351,1.4324"
     transform="translate(-3.3292148,-16.926773)"
     clip-path="url(#clipPath16)" />
  <path
     style="fill:none;stroke:#727d8b;stroke-width:1.94456693;stroke-opacity:1;stroke-dasharray:none"
     d="m 9.372159,165.88629 c 5.443707,-2.52561 11.653577,-3.36985 17.573965,-2.3892 5.958409,0.98695 11.455715,3.73003 16.926772,6.2882 3.156431,1.47589 6.3934,2.93764 8.971756,5.28144 1.289177,1.1719 2.39835,2.56115 3.129872,4.14235 0.731523,1.5812 1.073699,3.36077 0.843143,5.08767 -0.219943,1.6474 -0.947216,3.19289 -1.869838,4.5753 -0.922622,1.38242 -2.040868,2.62109 -3.133309,3.87364 -1.880937,2.1566 -3.701506,4.37413 -5.76559,6.35615 -2.064085,1.98202 -4.396618,3.73697 -7.054219,4.79811 -3.656452,1.45996 -7.713844,1.53056 -11.641994,1.26454 -7.706309,-0.52189 -15.328339,-2.26947 -22.4922499,-5.15702"
     id="path10"
     inkscape:path-effect="#path-effect10"
     inkscape:original-d="m 9.372159,165.88629 c 5.857988,-0.7964 11.715976,-1.59281 17.573965,-2.3892 5.857988,-0.7964 11.284515,4.19213 16.926772,6.2882 5.642258,2.09607 8.629847,9.67431 12.944771,14.51146 4.314924,4.83716 -3.335432,5.63263 -5.003147,8.44894 -1.667717,2.81631 -8.54654,7.43617 -12.819809,11.15426 -4.27327,3.7181 -7.761329,0.84303 -11.641994,1.26454 -3.880664,0.42152 -14.994833,-3.43801 -22.4922499,-5.15702" />
  <path
     style="fill:none;stroke:#727d8b;stroke-width:1.94456693;stroke-opacity:1;stroke-dasharray:none"
     d="m 270.88804,154.88122 c -4.33183,-2.61413 -9.05991,-4.5703 -13.97244,-5.78089 -2.32168,-0.57213 -4.71142,-0.98025 -7.0972,-0.82032 -2.38579,0.15993 -4.78329,0.92572 -6.60014,2.48026 -1.35596,1.16019 -2.33547,2.70783 -3.06057,4.33844 -0.72509,1.63062 -1.21192,3.35482 -1.72053,5.06537 -0.50862,1.71056 -1.04542,3.42399 -1.86132,5.01112 -0.8159,1.58714 -1.93066,3.0551 -3.40864,4.05522 -0.70169,0.47482 -1.47217,0.83652 -2.21794,1.23858 -0.74577,0.40206 -1.4789,0.85375 -2.05782,1.47235 -0.77705,0.83031 -1.23648,1.93314 -1.36733,3.06279 -0.13084,1.12964 0.0558,2.28373 0.452,3.34969 0.79233,2.13192 2.3732,3.86799 4.00582,5.45147 3.66127,3.55106 7.7638,6.62841 11.36782,10.23756 1.54943,1.55164 3.00511,3.2 4.64258,4.65843 1.63746,1.45843 3.48474,2.7365 5.5754,3.3979 2.4885,0.78726 5.16307,0.65885 7.76707,0.48117 2.60401,-0.17768 5.25912,-0.39267 7.79258,0.23503 1.39229,0.34496 2.72157,0.9426 3.90367,1.75507"
     id="path11"
     inkscape:path-effect="#path-effect11"
     inkscape:original-d="m 270.88804,154.88122 c -4.65748,-1.92696 -9.31496,-3.85392 -13.97244,-5.78089 -4.65748,-1.92697 -9.13156,1.10663 -13.69734,1.65994 -4.56578,0.55332 -6.70071,12.31344 -10.05106,18.47015 -3.35035,6.15672 -2.8505,1.80729 -4.27576,2.71093 -1.42525,0.90365 2.06033,7.9093 3.09049,11.86395 1.03015,3.95464 7.57855,6.82504 11.36782,10.23756 3.78927,3.41253 6.81199,5.37089 10.21798,8.05633 3.406,2.68544 10.3731,0.47747 15.55965,0.7162 5.18655,0.23874 2.60245,1.17004 3.90367,1.75507"
     transform="translate(0.11563659,1.8613761)" />
  <path
     style="fill:none;stroke:#727d8b;stroke-width:1.94456693;stroke-opacity:1;stroke-dasharray:none"
     d="m 7.463223,232.56011 c 7.587893,-1.81034 15.78775,-0.93829 22.825172,2.42744 5.211415,2.49242 9.802971,6.29795 15.30413,8.06098 3.835158,1.2291 7.926089,1.39944 11.952765,1.3287 4.026677,-0.0707 8.061278,-0.37195 12.075399,-0.0464 5.702315,0.46241 11.230128,2.17814 16.900661,2.93661 8.313108,1.11193 16.92885,0.17001 24.9831,2.5095 3.96374,1.15133 7.72161,3.08243 11.80892,3.65748 4.09185,0.57569 8.23144,-0.24533 12.32429,-0.81383 4.09285,-0.56851 8.40098,-0.86085 12.23076,0.69073 2.1673,0.87804 4.07528,2.31261 5.7325,3.96238 1.65722,1.64978 3.07971,3.51737 4.47244,5.39579 2.11648,2.85457 4.17793,5.74993 6.18283,8.68394"
     id="path12"
     inkscape:path-effect="#path-effect12"
     inkscape:original-d="m 7.463223,232.56011 c 7.528813,0.80915 15.216781,1.61829 22.825172,2.42744 7.60839,0.80914 10.202753,5.37399 15.30413,8.06098 5.101376,2.687 16.018776,0.85484 24.028164,1.28226 8.009388,0.42743 11.267111,1.95774 16.900661,2.93661 5.633557,0.97887 16.6554,1.673 24.9831,2.5095 8.3277,0.83651 7.87262,2.43832 11.80892,3.65748 3.93631,1.21916 16.37004,-0.0821 24.55505,-0.1231 8.18502,-0.041 6.80329,6.23878 10.20494,9.35817 3.40164,3.1194 4.12188,5.78929 6.18283,8.68394"
     transform="translate(-0.93814849,-2.7911316)" />
</svg>
