<?xml version="1.0" encoding="utf-8" standalone="no"?>
<!DOCTYPE svg PUBLIC "-//W3C//DTD SVG 1.1//EN"
  "http://www.w3.org/Graphics/SVG/1.1/DTD/svg11.dtd">
<svg xmlns:xlink="http://www.w3.org/1999/xlink" width="405pt" height="360pt" viewBox="0 0 405 360" xmlns="http://www.w3.org/2000/svg" version="1.1">
 <metadata>
  <rdf:RDF xmlns:dc="http://purl.org/dc/elements/1.1/" xmlns:cc="http://creativecommons.org/ns#" xmlns:rdf="http://www.w3.org/1999/02/22-rdf-syntax-ns#">
   <cc:Work>
    <dc:type rdf:resource="http://purl.org/dc/dcmitype/StillImage"/>
    <dc:date>2023-11-22T15:33:17.882771</dc:date>
    <dc:format>image/svg+xml</dc:format>
    <dc:creator>
     <cc:Agent>
      <dc:title>Matplotlib v3.7.2, https://matplotlib.org/</dc:title>
     </cc:Agent>
    </dc:creator>
   </cc:Work>
  </rdf:RDF>
 </metadata>
 <defs>
  <style type="text/css">*{stroke-linejoin: round; stroke-linecap: butt}</style>
 </defs>
 <g id="figure_1">
  <g id="patch_1">
   <path d="M 0 360 
L 405 360 
L 405 0 
L 0 0 
z
" style="fill: #ffffff"/>
  </g>
  <g id="axes_1">
   <g id="patch_2">
    <path d="M 332.92378 257.777511 
L 380.856394 254.059919 
L 382.080894 269.461423 
L 364.174016 313.8 
L 331.813741 313.8 
L 328.89497 262.83331 
z
" clip-path="url(#p5eba710d13)" style="fill: #ffffff"/>
   </g>
   <g id="patch_3">
    <path d="M 438.248292 94.288376 
L 454.377013 91.217227 
L 454.893119 91.555623 
L 455.354836 135.9514 
L 429.766139 137.742314 
L 424.63369 135.391891 
L 421.762969 121.929269 
z
" clip-path="url(#p5eba710d13)" style="fill: #ffffff"/>
   </g>
   <g id="patch_4">
    <path d="M 454.893119 91.555623 
L 515.505021 97.199605 
L 518.483829 108.316666 
L 461.621239 138.958658 
L 455.354836 135.9514 
z
" clip-path="url(#p5eba710d13)" style="fill: #ffffff"/>
   </g>
   <g id="patch_5">
    <path d="M 414.120057 78.608303 
L 438.248292 94.288376 
L 421.762969 121.929269 
L 394.144656 100.580213 
L 392.616025 90.094751 
z
" clip-path="url(#p5eba710d13)" style="fill: #ffffff"/>
   </g>
   <g id="patch_6">
    <path d="M 394.144656 100.580213 
L 421.762969 121.929269 
L 424.63369 135.391891 
L 403.719586 146.934076 
L 389.186764 143.966277 
L 381.238204 121.902154 
z
" clip-path="url(#p5eba710d13)" style="fill: #ffffff"/>
   </g>
   <g id="patch_7">
    <path d="M 354.92867 84.345447 
L 385.475756 85.516907 
L 392.616025 90.094751 
L 394.144656 100.580213 
L 381.238204 121.902154 
L 352.912939 119.423825 
L 349.814546 86.71699 
z
" clip-path="url(#p5eba710d13)" style="fill: #ffffff"/>
   </g>
   <g id="patch_8">
    <path d="M 381.238204 121.902154 
L 389.186764 143.966277 
L 372.584736 155.772855 
L 342.146346 138.563436 
L 342.005991 135.160026 
L 352.912939 119.423825 
z
" clip-path="url(#p5eba710d13)" style="fill: #ffffff"/>
   </g>
   <g id="patch_9">
    <path d="M 325.598696 74.703504 
L 335.147297 82.411524 
L 316.290219 118.765898 
L 294.668385 119.878365 
L 285.01981 109.801653 
L 282.460314 98.66819 
z
" clip-path="url(#p5eba710d13)" style="fill: #ffffff"/>
   </g>
   <g id="patch_10">
    <path d="M -205.7625 122.478998 
L -149.291309 118.97989 
L -138.051756 131.664019 
L -141.854288 154.039055 
L -205.7625 155.50137 
z
" clip-path="url(#p5eba710d13)" style="fill: #ffffff"/>
   </g>
   <g id="patch_11">
    <path d="M 316.290219 118.765898 
L 342.005991 135.160026 
L 342.146346 138.563436 
L 334.414529 149.758366 
L 295.290163 152.924194 
L 294.668385 119.878365 
z
" clip-path="url(#p5eba710d13)" style="fill: #ffffff"/>
   </g>
   <g id="patch_12">
    <path d="M 285.01981 109.801653 
L 294.668385 119.878365 
L 295.290163 152.924194 
L 291.025611 159.768277 
L 274.592439 165.119183 
L 260.822224 160.268507 
L 255.902962 133.050732 
z
" clip-path="url(#p5eba710d13)" style="fill: #ffffff"/>
   </g>
   <g id="patch_13">
    <path d="M -99.220962 164.936515 
L -108.210763 173.192445 
L -121.707012 162.448586 
L -106.837864 131.528204 
L -97.870825 133.08166 
z
" clip-path="url(#p5eba710d13)" style="fill: #ffffff"/>
   </g>
   <g id="patch_14">
    <path d="M -139.023124 157.70303 
L -141.854288 154.039055 
L -138.051756 131.664019 
L -116.351608 125.168107 
L -106.837864 131.528204 
L -121.707012 162.448586 
z
" clip-path="url(#p5eba710d13)" style="fill: #ffffff"/>
   </g>
   <g id="patch_15">
    <path d="M 275.860404 92.120678 
L 282.460314 98.66819 
L 285.01981 109.801653 
L 255.902962 133.050732 
L 232.961875 121.838863 
L 240.305947 92.198328 
z
" clip-path="url(#p5eba710d13)" style="fill: #ffffff"/>
   </g>
   <g id="patch_16">
    <path d="M -110.641242 236.783821 
L -106.05331 258.239026 
L -110.806855 261.363596 
L -139.863239 263.042384 
L -161.902518 243.137373 
L -149.161406 218.67046 
L -125.164037 213.666908 
z
" clip-path="url(#p5eba710d13)" style="fill: #ffffff"/>
   </g>
   <g id="patch_17">
    <path d="M -32.537371 213.520167 
L -63.138811 240.856855 
L -74.241875 204.367876 
L -73.759674 199.692169 
L -44.712611 198.980098 
z
" clip-path="url(#p5eba710d13)" style="fill: #ffffff"/>
   </g>
   <g id="patch_18">
    <path d="M -99.220962 164.936515 
L -97.870825 133.08166 
L -93.585336 131.755452 
L -61.702238 142.129016 
L -56.831202 148.377605 
L -56.908631 148.668003 
L -64.88429 157.951339 
z
" clip-path="url(#p5eba710d13)" style="fill: #ffffff"/>
   </g>
   <g id="patch_19">
    <path d="M -63.548651 243.579209 
L -85.864169 261.808237 
L -87.474095 262.383208 
L -106.05331 258.239026 
L -110.641242 236.783821 
L -74.241875 204.367876 
L -63.138811 240.856855 
z
" clip-path="url(#p5eba710d13)" style="fill: #ffffff"/>
   </g>
   <g id="patch_20">
    <path d="M -21.82649 212.544338 
L -25.912456 215.623503 
L -32.537371 213.520167 
L -44.712611 198.980098 
L -37.170565 181.698455 
L -14.123599 178.467619 
L -9.579454 191.127278 
z
" clip-path="url(#p5eba710d13)" style="fill: #ffffff"/>
   </g>
   <g id="patch_21">
    <path d="M 349.814546 86.71699 
L 352.912939 119.423825 
L 342.005991 135.160026 
L 316.290219 118.765898 
L 335.147297 82.411524 
z
" clip-path="url(#p5eba710d13)" style="fill: #ffffff"/>
   </g>
   <g id="patch_22">
    <path d="M -21.82649 212.544338 
L -9.579454 191.127278 
L 7.953396 197.419948 
L 9.649299 205.051509 
L 1.835507 214.276898 
z
" clip-path="url(#p5eba710d13)" style="fill: #ffffff"/>
   </g>
   <g id="patch_23">
    <path d="M -205.7625 94.666228 
L -205.7625 49.8 
L -135.389769 49.8 
L -135.229281 83.840637 
L -138.226595 86.635791 
z
" clip-path="url(#p5eba710d13)" style="fill: #ffffff"/>
   </g>
   <g id="patch_24">
    <path d="M 514.234124 242.393903 
L 520.2375 248.397279 
L 520.2375 313.8 
L 441.451509 313.8 
L 445.863256 269.549113 
z
" clip-path="url(#p5eba710d13)" style="fill: #ffffff"/>
   </g>
   <g id="patch_25">
    <path d="M -21.894997 226.53697 
L -25.912456 215.623503 
L -21.82649 212.544338 
L 1.835507 214.276898 
L 5.391031 234.210203 
L -0.985096 237.957544 
z
" clip-path="url(#p5eba710d13)" style="fill: #ffffff"/>
   </g>
   <g id="patch_26">
    <path d="M 204.718062 125.158191 
L 199.186871 121.103538 
L 200.132247 97.28445 
L 230.205399 80.928898 
L 240.305947 92.198328 
L 232.961875 121.838863 
L 226.620981 125.547274 
z
" clip-path="url(#p5eba710d13)" style="fill: #ffffff"/>
   </g>
   <g id="patch_27">
    <path d="M 5.391031 234.210203 
L 1.835507 214.276898 
L 9.649299 205.051509 
L 27.135427 216.471022 
L 25.772537 233.530699 
z
" clip-path="url(#p5eba710d13)" style="fill: #ffffff"/>
   </g>
   <g id="patch_28">
    <path d="M -114.778345 96.982012 
L -135.229281 83.840637 
L -135.389769 49.8 
L -92.136679 49.8 
L -85.11692 92.204037 
z
" clip-path="url(#p5eba710d13)" style="fill: #ffffff"/>
   </g>
   <g id="patch_29">
    <path d="M 23.533018 163.654793 
L 30.614953 154.724121 
L 55.905456 164.058212 
L 51.182194 202.345322 
L 40.344034 203.205827 
L 22.478682 182.547345 
z
" clip-path="url(#p5eba710d13)" style="fill: #ffffff"/>
   </g>
   <g id="patch_30">
    <path d="M -9.579454 191.127278 
L -14.123599 178.467619 
L -9.967926 169.790103 
L 23.533018 163.654793 
L 22.478682 182.547345 
L 7.953396 197.419948 
z
" clip-path="url(#p5eba710d13)" style="fill: #ffffff"/>
   </g>
   <g id="patch_31">
    <path d="M 156.963526 95.864041 
L 178.020514 78.225824 
L 200.132247 97.28445 
L 199.186871 121.103538 
L 180.518941 123.908651 
L 159.7921 106.635087 
z
" clip-path="url(#p5eba710d13)" style="fill: #ffffff"/>
   </g>
   <g id="patch_32">
    <path d="M 7.953396 197.419948 
L 22.478682 182.547345 
L 40.344034 203.205827 
L 27.135427 216.471022 
L 9.649299 205.051509 
z
" clip-path="url(#p5eba710d13)" style="fill: #ffffff"/>
   </g>
   <g id="patch_33">
    <path d="M 51.182194 202.345322 
L 55.905456 164.058212 
L 75.756493 160.769245 
L 76.664666 161.517568 
L 85.538076 197.168364 
L 56.471428 206.017671 
z
" clip-path="url(#p5eba710d13)" style="fill: #ffffff"/>
   </g>
   <g id="patch_34">
    <path d="M 380.856394 254.059919 
L 384.244465 249.941362 
L 389.985102 248.821503 
L 444.07413 267.092492 
L 445.863256 269.549113 
L 441.518381 313.129259 
L 440.847639 313.8 
L 434.64589 313.8 
L 382.080894 269.461423 
z
" clip-path="url(#p5eba710d13)" style="fill: #ffffff"/>
   </g>
   <g id="patch_35">
    <path d="M 434.64589 313.8 
L 364.174016 313.8 
L 382.080894 269.461423 
z
" clip-path="url(#p5eba710d13)" style="fill: #ffffff"/>
   </g>
   <g id="patch_36">
    <path d="M 51.182194 202.345322 
L 56.471428 206.017671 
L 61.658803 234.60697 
L 26.164468 233.966065 
L 25.772537 233.530699 
L 27.135427 216.471022 
L 40.344034 203.205827 
z
" clip-path="url(#p5eba710d13)" style="fill: #ffffff"/>
   </g>
   <g id="patch_37">
    <path d="M 85.538076 197.168364 
L 76.664666 161.517568 
L 113.335947 163.894902 
L 117.047281 189.429517 
L 91.335375 201.155108 
z
" clip-path="url(#p5eba710d13)" style="fill: #ffffff"/>
   </g>
   <g id="patch_38">
    <path d="M 180.518941 123.908651 
L 165.192804 156.283289 
L 164.807367 156.450626 
L 144.169838 129.905948 
L 159.7921 106.635087 
z
" clip-path="url(#p5eba710d13)" style="fill: #ffffff"/>
   </g>
   <g id="patch_39">
    <path d="M 328.89497 262.83331 
L 331.813741 313.8 
L 273.99954 313.8 
L 274.091438 286.610445 
L 295.062176 259.267123 
z
" clip-path="url(#p5eba710d13)" style="fill: #ffffff"/>
   </g>
   <g id="patch_40">
    <path d="M 164.859136 208.55823 
L 141.177825 227.561411 
L 127.634153 214.519304 
L 127.459559 195.529729 
L 141.464061 190.945046 
z
" clip-path="url(#p5eba710d13)" style="fill: #ffffff"/>
   </g>
   <g id="patch_41">
    <path d="M 200.364689 163.780436 
L 204.718062 125.158191 
L 226.620981 125.547274 
L 229.860717 163.11736 
L 201.566187 165.113154 
z
" clip-path="url(#p5eba710d13)" style="fill: #ffffff"/>
   </g>
   <g id="patch_42">
    <path d="M 204.718062 125.158191 
L 200.364689 163.780436 
L 165.192804 156.283289 
L 180.518941 123.908651 
L 199.186871 121.103538 
z
" clip-path="url(#p5eba710d13)" style="fill: #ffffff"/>
   </g>
   <g id="patch_43">
    <path d="M 141.457052 243.728043 
L 137.944425 246.448932 
L 100.129992 235.151425 
L 96.741964 230.674763 
L 127.634153 214.519304 
L 141.177825 227.561411 
z
" clip-path="url(#p5eba710d13)" style="fill: #ffffff"/>
   </g>
   <g id="patch_44">
    <path d="M 118.622251 100.911344 
L 118.939468 98.466455 
L 132.948819 87.303127 
L 156.963526 95.864041 
L 159.7921 106.635087 
L 144.169838 129.905948 
L 135.142033 130.468379 
z
" clip-path="url(#p5eba710d13)" style="fill: #ffffff"/>
   </g>
   <g id="patch_45">
    <path d="M 61.658803 234.60697 
L 56.471428 206.017671 
L 85.538076 197.168364 
L 91.335375 201.155108 
L 95.997956 230.308224 
L 67.863993 240.760547 
z
" clip-path="url(#p5eba710d13)" style="fill: #ffffff"/>
   </g>
   <g id="patch_46">
    <path d="M 177.812782 199.461403 
L 170.581141 208.543256 
L 164.859136 208.55823 
L 141.464061 190.945046 
L 153.091642 165.041728 
L 160.940476 161.405515 
z
" clip-path="url(#p5eba710d13)" style="fill: #ffffff"/>
   </g>
   <g id="patch_47">
    <path d="M 248.112886 259.744312 
L 274.091438 286.610445 
L 273.99954 313.8 
L 235.188883 313.8 
L 225.964029 279.661571 
z
" clip-path="url(#p5eba710d13)" style="fill: #ffffff"/>
   </g>
   <g id="patch_48">
    <path d="M 27.435799 95.995584 
L 3.089616 75.249569 
L 3.216182 49.8 
L 45.687134 49.8 
L 41.611538 89.663066 
z
" clip-path="url(#p5eba710d13)" style="fill: #ffffff"/>
   </g>
   <g id="patch_49">
    <path d="M 283.324419 239.865452 
L 295.062176 259.267123 
L 274.091438 286.610445 
L 248.112886 259.744312 
L 248.153251 255.591772 
L 260.203439 236.007678 
z
" clip-path="url(#p5eba710d13)" style="fill: #ffffff"/>
   </g>
   <g id="patch_50">
    <path d="M 75.756493 160.769245 
L 55.905456 164.058212 
L 30.614953 154.724121 
L 30.237388 153.173954 
L 36.620316 135.553443 
L 58.446929 121.92012 
L 81.17584 129.37341 
L 81.487878 129.794773 
z
" clip-path="url(#p5eba710d13)" style="fill: #ffffff"/>
   </g>
   <g id="patch_51">
    <path d="M 141.464061 190.945046 
L 127.459559 195.529729 
L 117.047281 189.429517 
L 113.335947 163.894902 
L 120.513877 156.251311 
L 153.091642 165.041728 
z
" clip-path="url(#p5eba710d13)" style="fill: #ffffff"/>
   </g>
   <g id="patch_52">
    <path d="M 127.634153 214.519304 
L 96.741964 230.674763 
L 95.997956 230.308224 
L 91.335375 201.155108 
L 117.047281 189.429517 
L 127.459559 195.529729 
z
" clip-path="url(#p5eba710d13)" style="fill: #ffffff"/>
   </g>
   <g id="patch_53">
    <path d="M 113.335947 163.894902 
L 76.664666 161.517568 
L 75.756493 160.769245 
L 81.487878 129.794773 
L 101.699347 127.245352 
L 120.429602 144.444397 
L 120.513877 156.251311 
z
" clip-path="url(#p5eba710d13)" style="fill: #ffffff"/>
   </g>
   <g id="patch_54">
    <path d="M 169.057166 313.8 
L 207.487237 270.928297 
L 225.964029 279.661571 
L 235.188883 313.8 
z
" clip-path="url(#p5eba710d13)" style="fill: #ffffff"/>
   </g>
   <g id="patch_55">
    <path d="M 81.487878 129.794773 
L 81.17584 129.37341 
L 82.308354 89.488022 
L 84.798639 87.093183 
L 118.939468 98.466455 
L 118.622251 100.911344 
L 101.699347 127.245352 
z
" clip-path="url(#p5eba710d13)" style="fill: #ffffff"/>
   </g>
   <g id="patch_56">
    <path d="M 160.940476 161.405515 
L 153.091642 165.041728 
L 120.513877 156.251311 
L 120.429602 144.444397 
L 135.142033 130.468379 
L 144.169838 129.905948 
L 164.807367 156.450626 
z
" clip-path="url(#p5eba710d13)" style="fill: #ffffff"/>
   </g>
   <g id="patch_57">
    <path d="M 100.129992 235.151425 
L 104.611401 265.872875 
L 86.894971 271.380562 
L 65.81411 252.237682 
L 67.863993 240.760547 
L 95.997956 230.308224 
L 96.741964 230.674763 
z
" clip-path="url(#p5eba710d13)" style="fill: #ffffff"/>
   </g>
   <g id="patch_58">
    <path d="M 185.467872 242.454832 
L 170.724572 251.718774 
L 141.457052 243.728043 
L 141.177825 227.561411 
L 164.859136 208.55823 
L 170.581141 208.543256 
z
" clip-path="url(#p5eba710d13)" style="fill: #ffffff"/>
   </g>
   <g id="patch_59">
    <path d="M 58.446929 121.92012 
L 36.620316 135.553443 
L 25.071571 101.104632 
L 27.435799 95.995584 
L 41.611538 89.663066 
L 49.959373 93.607661 
z
" clip-path="url(#p5eba710d13)" style="fill: #ffffff"/>
   </g>
   <g id="patch_60">
    <path d="M 200.364689 163.780436 
L 201.566187 165.113154 
L 198.761472 192.502085 
L 177.812782 199.461403 
L 160.940476 161.405515 
L 164.807367 156.450626 
L 165.192804 156.283289 
z
" clip-path="url(#p5eba710d13)" style="fill: #ffffff"/>
   </g>
   <g id="patch_61">
    <path d="M 49.959373 93.607661 
L 82.308354 89.488022 
L 81.17584 129.37341 
L 58.446929 121.92012 
z
" clip-path="url(#p5eba710d13)" style="fill: #ffffff"/>
   </g>
   <g id="patch_62">
    <path d="M 209.187058 235.006295 
L 207.508783 238.114656 
L 198.965158 244.29803 
L 185.467872 242.454832 
L 170.581141 208.543256 
L 177.812782 199.461403 
L 198.761472 192.502085 
L 207.422102 199.137032 
z
" clip-path="url(#p5eba710d13)" style="fill: #ffffff"/>
   </g>
   <g id="patch_63">
    <path d="M 169.057166 313.8 
L 166.477303 313.8 
L 162.168937 300.664247 
L 170.724572 251.718774 
L 185.467872 242.454832 
L 198.965158 244.29803 
L 207.487237 270.928297 
z
" clip-path="url(#p5eba710d13)" style="fill: #ffffff"/>
   </g>
   <g id="patch_64">
    <path d="M 250.367732 214.148969 
L 260.203439 236.007678 
L 248.153251 255.591772 
L 207.508783 238.114656 
L 209.187058 235.006295 
z
" clip-path="url(#p5eba710d13)" style="fill: #ffffff"/>
   </g>
   <g id="patch_65">
    <path d="M 100.129992 235.151425 
L 137.944425 246.448932 
L 128.692263 269.601881 
L 115.879583 272.639208 
L 104.611401 265.872875 
z
" clip-path="url(#p5eba710d13)" style="fill: #ffffff"/>
   </g>
   <g id="patch_66">
    <path d="M 236.833228 195.469821 
L 207.422102 199.137032 
L 198.761472 192.502085 
L 201.566187 165.113154 
L 229.860717 163.11736 
L 239.87049 168.856227 
z
" clip-path="url(#p5eba710d13)" style="fill: #ffffff"/>
   </g>
   <g id="patch_67">
    <path d="M 250.465454 212.907551 
L 250.367732 214.148969 
L 209.187058 235.006295 
L 207.422102 199.137032 
L 236.833228 195.469821 
z
" clip-path="url(#p5eba710d13)" style="fill: #ffffff"/>
   </g>
   <g id="patch_68">
    <path d="M -49.12977 89.361948 
L -64.043798 96.622658 
L -85.099204 92.216975 
L -85.11692 92.204037 
L -92.136679 49.8 
L -43.239173 49.8 
L -43.417506 81.040785 
z
" clip-path="url(#p5eba710d13)" style="fill: #ffffff"/>
   </g>
   <g id="patch_69">
    <path d="M 274.592439 165.119183 
L 273.587921 198.001137 
L 250.465454 212.907551 
L 236.833228 195.469821 
L 239.87049 168.856227 
L 260.822224 160.268507 
z
" clip-path="url(#p5eba710d13)" style="fill: #ffffff"/>
   </g>
   <g id="patch_70">
    <path d="M 170.724572 251.718774 
L 162.168937 300.664247 
L 128.692263 269.601881 
L 137.944425 246.448932 
L 141.457052 243.728043 
z
" clip-path="url(#p5eba710d13)" style="fill: #ffffff"/>
   </g>
   <g id="patch_71">
    <path d="M 248.112886 259.744312 
L 225.964029 279.661571 
L 207.487237 270.928297 
L 198.965158 244.29803 
L 207.508783 238.114656 
L 248.153251 255.591772 
z
" clip-path="url(#p5eba710d13)" style="fill: #ffffff"/>
   </g>
   <g id="patch_72">
    <path d="M 65.81411 252.237682 
L 50.981249 267.632545 
L 28.219109 264.308783 
L 26.164468 233.966065 
L 61.658803 234.60697 
L 67.863993 240.760547 
z
" clip-path="url(#p5eba710d13)" style="fill: #ffffff"/>
   </g>
   <g id="patch_73">
    <path d="M 85.907392 49.8 
L 127.492288 49.8 
L 132.948819 87.303127 
L 118.939468 98.466455 
L 84.798639 87.093183 
z
" clip-path="url(#p5eba710d13)" style="fill: #ffffff"/>
   </g>
   <g id="patch_74">
    <path d="M 50.981249 267.632545 
L 65.81411 252.237682 
L 86.894971 271.380562 
L 79.527754 296.220167 
L 53.978285 278.522629 
z
" clip-path="url(#p5eba710d13)" style="fill: #ffffff"/>
   </g>
   <g id="patch_75">
    <path d="M 128.692263 269.601881 
L 162.168937 300.664247 
L 166.477303 313.8 
L 104.019795 313.8 
L 115.879583 272.639208 
z
" clip-path="url(#p5eba710d13)" style="fill: #ffffff"/>
   </g>
   <g id="patch_76">
    <path d="M 127.492288 49.8 
L 183.761425 49.8 
L 178.020514 78.225824 
L 156.963526 95.864041 
L 132.948819 87.303127 
z
" clip-path="url(#p5eba710d13)" style="fill: #ffffff"/>
   </g>
   <g id="patch_77">
    <path d="M 86.894971 271.380562 
L 104.611401 265.872875 
L 115.879583 272.639208 
L 104.019795 313.8 
L 85.20914 313.8 
L 79.527754 296.220167 
z
" clip-path="url(#p5eba710d13)" style="fill: #ffffff"/>
   </g>
   <g id="patch_78">
    <path d="M 2.332139 133.417243 
L -0.953674 117.116867 
L 25.071571 101.104632 
L 36.620316 135.553443 
L 30.237388 153.173954 
z
" clip-path="url(#p5eba710d13)" style="fill: #ffffff"/>
   </g>
   <g id="patch_79">
    <path d="M -6.761411 266.351877 
L -0.985096 237.957544 
L 5.391031 234.210203 
L 25.772537 233.530699 
L 26.164468 233.966065 
L 28.219109 264.308783 
L 23.462313 267.768538 
z
" clip-path="url(#p5eba710d13)" style="fill: #ffffff"/>
   </g>
   <g id="patch_80">
    <path d="M -28.893021 118.311741 
L -8.31052 113.181384 
L -0.953674 117.116867 
L 2.332139 133.417243 
L -20.176835 149.968538 
L -40.448334 142.745411 
z
" clip-path="url(#p5eba710d13)" style="fill: #ffffff"/>
   </g>
   <g id="patch_81">
    <path d="M 329.046267 221.807775 
L 297.481958 219.926151 
L 290.457517 204.982302 
L 309.964831 183.407782 
L 329.75031 188.385302 
L 330.22623 219.931668 
z
" clip-path="url(#p5eba710d13)" style="fill: #ffffff"/>
   </g>
   <g id="patch_82">
    <path d="M 250.465454 212.907551 
L 273.587921 198.001137 
L 290.457517 204.982302 
L 297.481958 219.926151 
L 283.324419 239.865452 
L 260.203439 236.007678 
L 250.367732 214.148969 
z
" clip-path="url(#p5eba710d13)" style="fill: #ffffff"/>
   </g>
   <g id="patch_83">
    <path d="M 2.332139 133.417243 
L 30.237388 153.173954 
L 30.614953 154.724121 
L 23.533018 163.654793 
L -9.967926 169.790103 
L -20.176835 149.968538 
z
" clip-path="url(#p5eba710d13)" style="fill: #ffffff"/>
   </g>
   <g id="patch_84">
    <path d="M -13.225777 87.56727 
L -43.417506 81.040785 
L -43.239173 49.8 
L 3.216182 49.8 
L 3.089616 75.249569 
z
" clip-path="url(#p5eba710d13)" style="fill: #ffffff"/>
   </g>
   <g id="patch_85">
    <path d="M -61.702238 142.129016 
L -64.043798 96.622658 
L -49.12977 89.361948 
L -28.893021 118.311741 
L -40.448334 142.745411 
L -56.831202 148.377605 
z
" clip-path="url(#p5eba710d13)" style="fill: #ffffff"/>
   </g>
   <g id="patch_86">
    <path d="M 200.132247 97.28445 
L 178.020514 78.225824 
L 183.761425 49.8 
L 224.952737 49.8 
L 230.205399 80.928898 
z
" clip-path="url(#p5eba710d13)" style="fill: #ffffff"/>
   </g>
   <g id="patch_87">
    <path d="M -6.761411 266.351877 
L -20.250575 275.217884 
L -35.142334 254.281803 
L -21.894997 226.53697 
L -0.985096 237.957544 
z
" clip-path="url(#p5eba710d13)" style="fill: #ffffff"/>
   </g>
   <g id="patch_88">
    <path d="M 332.92378 257.777511 
L 328.89497 262.83331 
L 295.062176 259.267123 
L 283.324419 239.865452 
L 297.481958 219.926151 
L 329.046267 221.807775 
z
" clip-path="url(#p5eba710d13)" style="fill: #ffffff"/>
   </g>
   <g id="patch_89">
    <path d="M -37.170565 181.698455 
L -56.908631 148.668003 
L -56.831202 148.377605 
L -40.448334 142.745411 
L -20.176835 149.968538 
L -9.967926 169.790103 
L -14.123599 178.467619 
z
" clip-path="url(#p5eba710d13)" style="fill: #ffffff"/>
   </g>
   <g id="patch_90">
    <path d="M -20.250575 275.217884 
L -6.761411 266.351877 
L 23.462313 267.768538 
L 23.823035 313.8 
L -25.039294 313.8 
L -25.932764 295.592767 
z
" clip-path="url(#p5eba710d13)" style="fill: #ffffff"/>
   </g>
   <g id="patch_91">
    <path d="M 342.146346 138.563436 
L 372.584736 155.772855 
L 370.416779 179.464942 
L 362.206184 183.038626 
L 336.44077 182.345786 
L 334.414529 149.758366 
z
" clip-path="url(#p5eba710d13)" style="fill: #ffffff"/>
   </g>
   <g id="patch_92">
    <path d="M 362.206184 183.038626 
L 360.318659 216.830081 
L 330.22623 219.931668 
L 329.75031 188.385302 
L 336.44077 182.345786 
z
" clip-path="url(#p5eba710d13)" style="fill: #ffffff"/>
   </g>
   <g id="patch_93">
    <path d="M -25.912456 215.623503 
L -21.894997 226.53697 
L -35.142334 254.281803 
L -63.548651 243.579209 
L -63.138811 240.856855 
L -32.537371 213.520167 
z
" clip-path="url(#p5eba710d13)" style="fill: #ffffff"/>
   </g>
   <g id="patch_94">
    <path d="M 375.192458 224.921082 
L 384.244465 249.941362 
L 380.856394 254.059919 
L 332.92378 257.777511 
L 329.046267 221.807775 
L 330.22623 219.931668 
L 360.318659 216.830081 
z
" clip-path="url(#p5eba710d13)" style="fill: #ffffff"/>
   </g>
   <g id="patch_95">
    <path d="M 79.527754 296.220167 
L 85.20914 313.8 
L 33.585184 313.8 
L 53.978285 278.522629 
z
" clip-path="url(#p5eba710d13)" style="fill: #ffffff"/>
   </g>
   <g id="patch_96">
    <path d="M -73.759674 199.692169 
L -74.306722 198.919573 
L -64.88429 157.951339 
L -56.908631 148.668003 
L -37.170565 181.698455 
L -44.712611 198.980098 
z
" clip-path="url(#p5eba710d13)" style="fill: #ffffff"/>
   </g>
   <g id="patch_97">
    <path d="M 240.305947 92.198328 
L 230.205399 80.928898 
L 224.952737 49.8 
L 276.636448 49.8 
L 275.860404 92.120678 
z
" clip-path="url(#p5eba710d13)" style="fill: #ffffff"/>
   </g>
   <g id="patch_98">
    <path d="M -13.225777 87.56727 
L -8.31052 113.181384 
L -28.893021 118.311741 
L -49.12977 89.361948 
L -43.417506 81.040785 
z
" clip-path="url(#p5eba710d13)" style="fill: #ffffff"/>
   </g>
   <g id="patch_99">
    <path d="M 360.318659 216.830081 
L 362.206184 183.038626 
L 370.416779 179.464942 
L 393.470411 192.037087 
L 375.192458 224.921082 
z
" clip-path="url(#p5eba710d13)" style="fill: #ffffff"/>
   </g>
   <g id="patch_100">
    <path d="M 282.460314 98.66819 
L 275.860404 92.120678 
L 276.636448 49.8 
L 318.941337 49.8 
L 325.598696 74.703504 
z
" clip-path="url(#p5eba710d13)" style="fill: #ffffff"/>
   </g>
   <g id="patch_101">
    <path d="M 393.470411 192.037087 
L 370.416779 179.464942 
L 372.584736 155.772855 
L 389.186764 143.966277 
L 403.719586 146.934076 
L 408.367122 185.611851 
L 404.181752 191.000337 
z
" clip-path="url(#p5eba710d13)" style="fill: #ffffff"/>
   </g>
   <g id="patch_102">
    <path d="M 349.814546 86.71699 
L 335.147297 82.411524 
L 325.598696 74.703504 
L 318.941337 49.8 
L 362.906443 49.8 
L 354.92867 84.345447 
z
" clip-path="url(#p5eba710d13)" style="fill: #ffffff"/>
   </g>
   <g id="patch_103">
    <path d="M -64.88429 157.951339 
L -74.306722 198.919573 
L -106.614962 188.274863 
L -108.210763 173.192445 
L -99.220962 164.936515 
z
" clip-path="url(#p5eba710d13)" style="fill: #ffffff"/>
   </g>
   <g id="patch_104">
    <path d="M 389.985102 248.821503 
L 384.244465 249.941362 
L 375.192458 224.921082 
L 393.470411 192.037087 
L 404.181752 191.000337 
L 417.942014 215.725499 
z
" clip-path="url(#p5eba710d13)" style="fill: #ffffff"/>
   </g>
   <g id="patch_105">
    <path d="M 447.86888 181.787545 
L 455.417249 197.447262 
L 455.661302 208.86555 
L 440.453129 222.250546 
L 417.942014 215.725499 
L 404.181752 191.000337 
L 408.367122 185.611851 
L 436.136637 177.375763 
z
" clip-path="url(#p5eba710d13)" style="fill: #ffffff"/>
   </g>
   <g id="patch_106">
    <path d="M -77.190375 313.8 
L -123.021572 313.8 
L -110.806855 261.363596 
L -106.05331 258.239026 
L -87.474095 262.383208 
z
" clip-path="url(#p5eba710d13)" style="fill: #ffffff"/>
   </g>
   <g id="patch_107">
    <path d="M 28.219109 264.308783 
L 50.981249 267.632545 
L 53.978285 278.522629 
L 33.585184 313.8 
L 23.823035 313.8 
L 23.462313 267.768538 
z
" clip-path="url(#p5eba710d13)" style="fill: #ffffff"/>
   </g>
   <g id="patch_108">
    <path d="M -114.778345 96.982012 
L -85.11692 92.204037 
L -85.099204 92.216975 
L -93.585336 131.755452 
L -97.870825 133.08166 
L -106.837864 131.528204 
L -116.351608 125.168107 
z
" clip-path="url(#p5eba710d13)" style="fill: #ffffff"/>
   </g>
   <g id="patch_109">
    <path d="M 354.92867 84.345447 
L 362.906443 49.8 
L 385.783668 49.8 
L 385.475756 85.516907 
z
" clip-path="url(#p5eba710d13)" style="fill: #ffffff"/>
   </g>
   <g id="patch_110">
    <path d="M -61.702238 142.129016 
L -93.585336 131.755452 
L -85.099204 92.216975 
L -64.043798 96.622658 
z
" clip-path="url(#p5eba710d13)" style="fill: #ffffff"/>
   </g>
   <g id="patch_111">
    <path d="M -85.864169 261.808237 
L -63.548651 243.579209 
L -35.142334 254.281803 
L -20.250575 275.217884 
L -25.932764 295.592767 
z
" clip-path="url(#p5eba710d13)" style="fill: #ffffff"/>
   </g>
   <g id="patch_112">
    <path d="M 424.63369 135.391891 
L 429.766139 137.742314 
L 436.136637 177.375763 
L 408.367122 185.611851 
L 403.719586 146.934076 
z
" clip-path="url(#p5eba710d13)" style="fill: #ffffff"/>
   </g>
   <g id="patch_113">
    <path d="M -121.707012 162.448586 
L -108.210763 173.192445 
L -106.614962 188.274863 
L -122.002649 203.683703 
L -145.72312 181.471502 
L -139.023124 157.70303 
z
" clip-path="url(#p5eba710d13)" style="fill: #ffffff"/>
   </g>
   <g id="patch_114">
    <path d="M 417.942014 215.725499 
L 440.453129 222.250546 
L 444.07413 267.092492 
L 389.985102 248.821503 
z
" clip-path="url(#p5eba710d13)" style="fill: #ffffff"/>
   </g>
   <g id="patch_115">
    <path d="M -125.164037 213.666908 
L -149.161406 218.67046 
L -174.533748 193.420157 
L -145.72312 181.471502 
L -122.002649 203.683703 
z
" clip-path="url(#p5eba710d13)" style="fill: #ffffff"/>
   </g>
   <g id="patch_116">
    <path d="M 436.136637 177.375763 
L 429.766139 137.742314 
L 455.354836 135.9514 
L 461.621239 138.958658 
L 467.044026 158.192641 
L 447.86888 181.787545 
z
" clip-path="url(#p5eba710d13)" style="fill: #ffffff"/>
   </g>
   <g id="patch_117">
    <path d="M 422.106424 49.8 
L 451.831723 49.8 
L 454.377013 91.217227 
L 438.248292 94.288376 
L 414.120057 78.608303 
z
" clip-path="url(#p5eba710d13)" style="fill: #ffffff"/>
   </g>
   <g id="patch_118">
    <path d="M -175.938964 313.8 
L -139.863239 263.042384 
L -110.806855 261.363596 
L -123.021572 313.8 
z
" clip-path="url(#p5eba710d13)" style="fill: #ffffff"/>
   </g>
   <g id="patch_119">
    <path d="M 455.417249 197.447262 
L 502.4501 174.627722 
L 520.2375 176.703981 
L 520.2375 228.275901 
L 514.468947 234.044454 
L 455.661302 208.86555 
z
" clip-path="url(#p5eba710d13)" style="fill: #ffffff"/>
   </g>
   <g id="patch_120">
    <path d="M 392.616025 90.094751 
L 385.475756 85.516907 
L 385.783668 49.8 
L 422.106424 49.8 
L 414.120057 78.608303 
z
" clip-path="url(#p5eba710d13)" style="fill: #ffffff"/>
   </g>
   <g id="patch_121">
    <path d="M 455.661302 208.86555 
L 516.149571 234.764025 
L 514.08979 242.451229 
L 445.863256 269.549113 
L 444.07413 267.092492 
L 440.453129 222.250546 
z
" clip-path="url(#p5eba710d13)" style="fill: #ffffff"/>
   </g>
   <g id="patch_122">
    <path d="M -139.023124 157.70303 
L -145.72312 181.471502 
L -174.533748 193.420157 
L -205.7625 184.663404 
L -205.7625 155.50137 
L -141.854288 154.039055 
z
" clip-path="url(#p5eba710d13)" style="fill: #ffffff"/>
   </g>
   <g id="patch_123">
    <path d="M 454.377013 91.217227 
L 451.831723 49.8 
L 518.338626 49.8 
L 520.2375 56.886695 
L 520.2375 85.887865 
L 517.165108 97.354187 
L 454.893119 91.555623 
z
" clip-path="url(#p5eba710d13)" style="fill: #ffffff"/>
   </g>
   <g id="patch_124">
    <path d="M -149.291309 118.97989 
L -205.7625 122.478998 
L -205.7625 94.666228 
L -138.226595 86.635791 
z
" clip-path="url(#p5eba710d13)" style="fill: #ffffff"/>
   </g>
   <g id="patch_125">
    <path d="M -116.351608 125.168107 
L -138.051756 131.664019 
L -149.291309 118.97989 
L -138.226595 86.635791 
L -135.229281 83.840637 
L -114.778345 96.982012 
z
" clip-path="url(#p5eba710d13)" style="fill: #ffffff"/>
   </g>
   <g id="patch_126">
    <path d="M -149.161406 218.67046 
L -161.902518 243.137373 
L -205.7625 249.375463 
L -205.7625 184.663404 
L -174.533748 193.420157 
z
" clip-path="url(#p5eba710d13)" style="fill: #ffffff"/>
   </g>
   <g id="patch_127">
    <path d="M 467.044026 158.192641 
L 461.621239 138.958658 
L 518.168052 108.486831 
L 520.2375 110.556279 
L 520.2375 176.703981 
L 502.4501 174.627722 
z
" clip-path="url(#p5eba710d13)" style="fill: #ffffff"/>
   </g>
   <g id="patch_128">
    <path d="M 291.025611 159.768277 
L 295.290163 152.924194 
L 334.414529 149.758366 
L 336.44077 182.345786 
L 329.75031 188.385302 
L 309.964831 183.407782 
z
" clip-path="url(#p5eba710d13)" style="fill: #ffffff"/>
   </g>
   <g id="patch_129">
    <path d="M 455.417249 197.447262 
L 447.86888 181.787545 
L 467.044026 158.192641 
L 502.4501 174.627722 
z
" clip-path="url(#p5eba710d13)" style="fill: #ffffff"/>
   </g>
   <g id="patch_130">
    <path d="M 41.611538 89.663066 
L 45.687134 49.8 
L 85.907392 49.8 
L 84.798639 87.093183 
L 82.308354 89.488022 
L 49.959373 93.607661 
z
" clip-path="url(#p5eba710d13)" style="fill: #ffffff"/>
   </g>
   <g id="patch_131">
    <path d="M -187.213031 313.8 
L -191.02074 312.779727 
L -205.7625 298.037967 
L -205.7625 249.375463 
L -161.902518 243.137373 
L -139.863239 263.042384 
L -175.938964 313.8 
z
" clip-path="url(#p5eba710d13)" style="fill: #ffffff"/>
   </g>
   <g id="patch_132">
    <path d="M 232.961875 121.838863 
L 255.902962 133.050732 
L 260.822224 160.268507 
L 239.87049 168.856227 
L 229.860717 163.11736 
L 226.620981 125.547274 
z
" clip-path="url(#p5eba710d13)" style="fill: #ffffff"/>
   </g>
   <g id="patch_133">
    <path d="M -85.864169 261.808237 
L -25.932764 295.592767 
L -25.039294 313.8 
L -77.190375 313.8 
L -87.474095 262.383208 
z
" clip-path="url(#p5eba710d13)" style="fill: #ffffff"/>
   </g>
   <g id="patch_134">
    <path d="M 101.699347 127.245352 
L 118.622251 100.911344 
L 135.142033 130.468379 
L 120.429602 144.444397 
z
" clip-path="url(#p5eba710d13)" style="fill: #ffffff"/>
   </g>
   <g id="patch_135">
    <path d="M 290.457517 204.982302 
L 273.587921 198.001137 
L 274.592439 165.119183 
L 291.025611 159.768277 
L 309.964831 183.407782 
z
" clip-path="url(#p5eba710d13)" style="fill: #ffffff"/>
   </g>
   <g id="patch_136">
    <path d="M 25.071571 101.104632 
L -0.953674 117.116867 
L -8.31052 113.181384 
L -13.225777 87.56727 
L 3.089616 75.249569 
L 27.435799 95.995584 
z
" clip-path="url(#p5eba710d13)" style="fill: #ffffff"/>
   </g>
   <g id="patch_137">
    <path d="M -106.614962 188.274863 
L -74.306722 198.919573 
L -73.759674 199.692169 
L -74.241875 204.367876 
L -110.641242 236.783821 
L -125.164037 213.666908 
L -122.002649 203.683703 
z
" clip-path="url(#p5eba710d13)" style="fill: #ffffff"/>
   </g>
   <g id="line2d_1">
    <path d="M 332.92378 257.777511 
L 380.856394 254.059919 
L 382.080894 269.461423 
L 364.174016 313.8 
L 331.813741 313.8 
L 328.89497 262.83331 
L 332.92378 257.777511 
" clip-path="url(#p5eba710d13)" style="fill: none; stroke: #727d8b; stroke-width: 1.5; stroke-linecap: square"/>
   </g>
   <g id="line2d_2">
    <path clip-path="url(#p5eba710d13)" style="fill: none; stroke: #727d8b; stroke-width: 1.5; stroke-linecap: square"/>
   </g>
   <g id="line2d_3">
    <path clip-path="url(#p5eba710d13)" style="fill: none; stroke: #727d8b; stroke-width: 1.5; stroke-linecap: square"/>
   </g>
   <g id="line2d_4">
    <path d="M 406 109.744437 
L 394.144656 100.580213 
L 392.616025 90.094751 
L 406 82.945658 
" clip-path="url(#p5eba710d13)" style="fill: none; stroke: #727d8b; stroke-width: 1.5; stroke-linecap: square"/>
   </g>
   <g id="line2d_5">
    <path d="M 394.144656 100.580213 
L 406 109.744437 
M 406 145.675549 
L 403.719586 146.934076 
L 389.186764 143.966277 
L 381.238204 121.902154 
L 394.144656 100.580213 
" clip-path="url(#p5eba710d13)" style="fill: none; stroke: #727d8b; stroke-width: 1.5; stroke-linecap: square"/>
   </g>
   <g id="line2d_6">
    <path d="M 354.92867 84.345447 
L 385.475756 85.516907 
L 392.616025 90.094751 
L 394.144656 100.580213 
L 381.238204 121.902154 
L 352.912939 119.423825 
L 349.814546 86.71699 
L 354.92867 84.345447 
" clip-path="url(#p5eba710d13)" style="fill: none; stroke: #727d8b; stroke-width: 1.5; stroke-linecap: square"/>
   </g>
   <g id="line2d_7">
    <path d="M 381.238204 121.902154 
L 389.186764 143.966277 
L 372.584736 155.772855 
L 342.146346 138.563436 
L 342.005991 135.160026 
L 352.912939 119.423825 
L 381.238204 121.902154 
" clip-path="url(#p5eba710d13)" style="fill: none; stroke: #727d8b; stroke-width: 1.5; stroke-linecap: square"/>
   </g>
   <g id="line2d_8">
    <path d="M 325.598696 74.703504 
L 335.147297 82.411524 
L 316.290219 118.765898 
L 294.668385 119.878365 
L 285.01981 109.801653 
L 282.460314 98.66819 
L 325.598696 74.703504 
" clip-path="url(#p5eba710d13)" style="fill: none; stroke: #727d8b; stroke-width: 1.5; stroke-linecap: square"/>
   </g>
   <g id="line2d_9">
    <path clip-path="url(#p5eba710d13)" style="fill: none; stroke: #727d8b; stroke-width: 1.5; stroke-linecap: square"/>
   </g>
   <g id="line2d_10">
    <path d="M 316.290219 118.765898 
L 342.005991 135.160026 
L 342.146346 138.563436 
L 334.414529 149.758366 
L 295.290163 152.924194 
L 294.668385 119.878365 
L 316.290219 118.765898 
" clip-path="url(#p5eba710d13)" style="fill: none; stroke: #727d8b; stroke-width: 1.5; stroke-linecap: square"/>
   </g>
   <g id="line2d_11">
    <path d="M 285.01981 109.801653 
L 294.668385 119.878365 
L 295.290163 152.924194 
L 291.025611 159.768277 
L 274.592439 165.119183 
L 260.822224 160.268507 
L 255.902962 133.050732 
L 285.01981 109.801653 
" clip-path="url(#p5eba710d13)" style="fill: none; stroke: #727d8b; stroke-width: 1.5; stroke-linecap: square"/>
   </g>
   <g id="line2d_12">
    <path clip-path="url(#p5eba710d13)" style="fill: none; stroke: #727d8b; stroke-width: 1.5; stroke-linecap: square"/>
   </g>
   <g id="line2d_13">
    <path clip-path="url(#p5eba710d13)" style="fill: none; stroke: #727d8b; stroke-width: 1.5; stroke-linecap: square"/>
   </g>
   <g id="line2d_14">
    <path d="M 275.860404 92.120678 
L 282.460314 98.66819 
L 285.01981 109.801653 
L 255.902962 133.050732 
L 232.961875 121.838863 
L 240.305947 92.198328 
L 275.860404 92.120678 
" clip-path="url(#p5eba710d13)" style="fill: none; stroke: #727d8b; stroke-width: 1.5; stroke-linecap: square"/>
   </g>
   <g id="line2d_15">
    <path clip-path="url(#p5eba710d13)" style="fill: none; stroke: #727d8b; stroke-width: 1.5; stroke-linecap: square"/>
   </g>
   <g id="line2d_16">
    <path clip-path="url(#p5eba710d13)" style="fill: none; stroke: #727d8b; stroke-width: 1.5; stroke-linecap: square"/>
   </g>
   <g id="line2d_17">
    <path clip-path="url(#p5eba710d13)" style="fill: none; stroke: #727d8b; stroke-width: 1.5; stroke-linecap: square"/>
   </g>
   <g id="line2d_18">
    <path clip-path="url(#p5eba710d13)" style="fill: none; stroke: #727d8b; stroke-width: 1.5; stroke-linecap: square"/>
   </g>
   <g id="line2d_19">
    <path clip-path="url(#p5eba710d13)" style="fill: none; stroke: #727d8b; stroke-width: 1.5; stroke-linecap: square"/>
   </g>
   <g id="line2d_20">
    <path d="M 349.814546 86.71699 
L 352.912939 119.423825 
L 342.005991 135.160026 
L 316.290219 118.765898 
L 335.147297 82.411524 
L 349.814546 86.71699 
" clip-path="url(#p5eba710d13)" style="fill: none; stroke: #727d8b; stroke-width: 1.5; stroke-linecap: square"/>
   </g>
   <g id="line2d_21">
    <path d="M -1 194.206508 
L 7.953396 197.419948 
L 9.649299 205.051509 
L 1.835507 214.276898 
L -1 214.069279 
" clip-path="url(#p5eba710d13)" style="fill: none; stroke: #727d8b; stroke-width: 1.5; stroke-linecap: square"/>
   </g>
   <g id="line2d_22">
    <path clip-path="url(#p5eba710d13)" style="fill: none; stroke: #727d8b; stroke-width: 1.5; stroke-linecap: square"/>
   </g>
   <g id="line2d_23">
    <path clip-path="url(#p5eba710d13)" style="fill: none; stroke: #727d8b; stroke-width: 1.5; stroke-linecap: square"/>
   </g>
   <g id="line2d_24">
    <path d="M -1 214.069279 
L 1.835507 214.276898 
L 5.391031 234.210203 
L -0.985096 237.957544 
L -1 237.949404 
" clip-path="url(#p5eba710d13)" style="fill: none; stroke: #727d8b; stroke-width: 1.5; stroke-linecap: square"/>
   </g>
   <g id="line2d_25">
    <path d="M 204.718062 125.158191 
L 199.186871 121.103538 
L 200.132247 97.28445 
L 230.205399 80.928898 
L 240.305947 92.198328 
L 232.961875 121.838863 
L 226.620981 125.547274 
L 204.718062 125.158191 
" clip-path="url(#p5eba710d13)" style="fill: none; stroke: #727d8b; stroke-width: 1.5; stroke-linecap: square"/>
   </g>
   <g id="line2d_26">
    <path d="M 5.391031 234.210203 
L 1.835507 214.276898 
L 9.649299 205.051509 
L 27.135427 216.471022 
L 25.772537 233.530699 
L 5.391031 234.210203 
" clip-path="url(#p5eba710d13)" style="fill: none; stroke: #727d8b; stroke-width: 1.5; stroke-linecap: square"/>
   </g>
   <g id="line2d_27">
    <path clip-path="url(#p5eba710d13)" style="fill: none; stroke: #727d8b; stroke-width: 1.5; stroke-linecap: square"/>
   </g>
   <g id="line2d_28">
    <path d="M 23.533018 163.654793 
L 30.614953 154.724121 
L 55.905456 164.058212 
L 51.182194 202.345322 
L 40.344034 203.205827 
L 22.478682 182.547345 
L 23.533018 163.654793 
" clip-path="url(#p5eba710d13)" style="fill: none; stroke: #727d8b; stroke-width: 1.5; stroke-linecap: square"/>
   </g>
   <g id="line2d_29">
    <path d="M -1 168.147731 
L 23.533018 163.654793 
L 22.478682 182.547345 
L 7.953396 197.419948 
L -1 194.206508 
" clip-path="url(#p5eba710d13)" style="fill: none; stroke: #727d8b; stroke-width: 1.5; stroke-linecap: square"/>
   </g>
   <g id="line2d_30">
    <path d="M 156.963526 95.864041 
L 178.020514 78.225824 
L 200.132247 97.28445 
L 199.186871 121.103538 
L 180.518941 123.908651 
L 159.7921 106.635087 
L 156.963526 95.864041 
" clip-path="url(#p5eba710d13)" style="fill: none; stroke: #727d8b; stroke-width: 1.5; stroke-linecap: square"/>
   </g>
   <g id="line2d_31">
    <path d="M 7.953396 197.419948 
L 22.478682 182.547345 
L 40.344034 203.205827 
L 27.135427 216.471022 
L 9.649299 205.051509 
L 7.953396 197.419948 
" clip-path="url(#p5eba710d13)" style="fill: none; stroke: #727d8b; stroke-width: 1.5; stroke-linecap: square"/>
   </g>
   <g id="line2d_32">
    <path d="M 51.182194 202.345322 
L 55.905456 164.058212 
L 75.756493 160.769245 
L 76.664666 161.517568 
L 85.538076 197.168364 
L 56.471428 206.017671 
L 51.182194 202.345322 
" clip-path="url(#p5eba710d13)" style="fill: none; stroke: #727d8b; stroke-width: 1.5; stroke-linecap: square"/>
   </g>
   <g id="line2d_33">
    <path d="M 380.856394 254.059919 
L 384.244465 249.941362 
L 389.985102 248.821503 
L 406 254.231251 
M 406 289.63719 
L 382.080894 269.461423 
L 380.856394 254.059919 
" clip-path="url(#p5eba710d13)" style="fill: none; stroke: #727d8b; stroke-width: 1.5; stroke-linecap: square"/>
   </g>
   <g id="line2d_34">
    <path d="M 406 313.8 
L 364.174016 313.8 
L 382.080894 269.461423 
L 406 289.63719 
" clip-path="url(#p5eba710d13)" style="fill: none; stroke: #727d8b; stroke-width: 1.5; stroke-linecap: square"/>
   </g>
   <g id="line2d_35">
    <path d="M 51.182194 202.345322 
L 56.471428 206.017671 
L 61.658803 234.60697 
L 26.164468 233.966065 
L 25.772537 233.530699 
L 27.135427 216.471022 
L 40.344034 203.205827 
L 51.182194 202.345322 
" clip-path="url(#p5eba710d13)" style="fill: none; stroke: #727d8b; stroke-width: 1.5; stroke-linecap: square"/>
   </g>
   <g id="line2d_36">
    <path d="M 85.538076 197.168364 
L 76.664666 161.517568 
L 113.335947 163.894902 
L 117.047281 189.429517 
L 91.335375 201.155108 
L 85.538076 197.168364 
" clip-path="url(#p5eba710d13)" style="fill: none; stroke: #727d8b; stroke-width: 1.5; stroke-linecap: square"/>
   </g>
   <g id="line2d_37">
    <path d="M 180.518941 123.908651 
L 165.192804 156.283289 
L 164.807367 156.450626 
L 144.169838 129.905948 
L 159.7921 106.635087 
L 180.518941 123.908651 
" clip-path="url(#p5eba710d13)" style="fill: none; stroke: #727d8b; stroke-width: 1.5; stroke-linecap: square"/>
   </g>
   <g id="line2d_38">
    <path d="M 328.89497 262.83331 
L 331.813741 313.8 
L 273.99954 313.8 
L 274.091438 286.610445 
L 295.062176 259.267123 
L 328.89497 262.83331 
" clip-path="url(#p5eba710d13)" style="fill: none; stroke: #727d8b; stroke-width: 1.5; stroke-linecap: square"/>
   </g>
   <g id="line2d_39">
    <path d="M 164.859136 208.55823 
L 141.177825 227.561411 
L 127.634153 214.519304 
L 127.459559 195.529729 
L 141.464061 190.945046 
L 164.859136 208.55823 
" clip-path="url(#p5eba710d13)" style="fill: none; stroke: #727d8b; stroke-width: 1.5; stroke-linecap: square"/>
   </g>
   <g id="line2d_40">
    <path d="M 200.364689 163.780436 
L 204.718062 125.158191 
L 226.620981 125.547274 
L 229.860717 163.11736 
L 201.566187 165.113154 
L 200.364689 163.780436 
" clip-path="url(#p5eba710d13)" style="fill: none; stroke: #727d8b; stroke-width: 1.5; stroke-linecap: square"/>
   </g>
   <g id="line2d_41">
    <path d="M 204.718062 125.158191 
L 200.364689 163.780436 
L 165.192804 156.283289 
L 180.518941 123.908651 
L 199.186871 121.103538 
L 204.718062 125.158191 
" clip-path="url(#p5eba710d13)" style="fill: none; stroke: #727d8b; stroke-width: 1.5; stroke-linecap: square"/>
   </g>
   <g id="line2d_42">
    <path d="M 141.457052 243.728043 
L 137.944425 246.448932 
L 100.129992 235.151425 
L 96.741964 230.674763 
L 127.634153 214.519304 
L 141.177825 227.561411 
L 141.457052 243.728043 
" clip-path="url(#p5eba710d13)" style="fill: none; stroke: #727d8b; stroke-width: 1.5; stroke-linecap: square"/>
   </g>
   <g id="line2d_43">
    <path d="M 118.622251 100.911344 
L 118.939468 98.466455 
L 132.948819 87.303127 
L 156.963526 95.864041 
L 159.7921 106.635087 
L 144.169838 129.905948 
L 135.142033 130.468379 
L 118.622251 100.911344 
" clip-path="url(#p5eba710d13)" style="fill: none; stroke: #727d8b; stroke-width: 1.5; stroke-linecap: square"/>
   </g>
   <g id="line2d_44">
    <path d="M 61.658803 234.60697 
L 56.471428 206.017671 
L 85.538076 197.168364 
L 91.335375 201.155108 
L 95.997956 230.308224 
L 67.863993 240.760547 
L 61.658803 234.60697 
" clip-path="url(#p5eba710d13)" style="fill: none; stroke: #727d8b; stroke-width: 1.5; stroke-linecap: square"/>
   </g>
   <g id="line2d_45">
    <path d="M 177.812782 199.461403 
L 170.581141 208.543256 
L 164.859136 208.55823 
L 141.464061 190.945046 
L 153.091642 165.041728 
L 160.940476 161.405515 
L 177.812782 199.461403 
" clip-path="url(#p5eba710d13)" style="fill: none; stroke: #727d8b; stroke-width: 1.5; stroke-linecap: square"/>
   </g>
   <g id="line2d_46">
    <path d="M 248.112886 259.744312 
L 274.091438 286.610445 
L 273.99954 313.8 
L 235.188883 313.8 
L 225.964029 279.661571 
L 248.112886 259.744312 
" clip-path="url(#p5eba710d13)" style="fill: none; stroke: #727d8b; stroke-width: 1.5; stroke-linecap: square"/>
   </g>
   <g id="line2d_47">
    <path d="M 27.435799 95.995584 
L 3.089616 75.249569 
L 3.216182 49.8 
L 45.687134 49.8 
L 41.611538 89.663066 
L 27.435799 95.995584 
" clip-path="url(#p5eba710d13)" style="fill: none; stroke: #727d8b; stroke-width: 1.5; stroke-linecap: square"/>
   </g>
   <g id="line2d_48">
    <path d="M 283.324419 239.865452 
L 295.062176 259.267123 
L 274.091438 286.610445 
L 248.112886 259.744312 
L 248.153251 255.591772 
L 260.203439 236.007678 
L 283.324419 239.865452 
" clip-path="url(#p5eba710d13)" style="fill: none; stroke: #727d8b; stroke-width: 1.5; stroke-linecap: square"/>
   </g>
   <g id="line2d_49">
    <path d="M 75.756493 160.769245 
L 55.905456 164.058212 
L 30.614953 154.724121 
L 30.237388 153.173954 
L 36.620316 135.553443 
L 58.446929 121.92012 
L 81.17584 129.37341 
L 81.487878 129.794773 
L 75.756493 160.769245 
" clip-path="url(#p5eba710d13)" style="fill: none; stroke: #727d8b; stroke-width: 1.5; stroke-linecap: square"/>
   </g>
   <g id="line2d_50">
    <path d="M 141.464061 190.945046 
L 127.459559 195.529729 
L 117.047281 189.429517 
L 113.335947 163.894902 
L 120.513877 156.251311 
L 153.091642 165.041728 
L 141.464061 190.945046 
" clip-path="url(#p5eba710d13)" style="fill: none; stroke: #727d8b; stroke-width: 1.5; stroke-linecap: square"/>
   </g>
   <g id="line2d_51">
    <path d="M 127.634153 214.519304 
L 96.741964 230.674763 
L 95.997956 230.308224 
L 91.335375 201.155108 
L 117.047281 189.429517 
L 127.459559 195.529729 
L 127.634153 214.519304 
" clip-path="url(#p5eba710d13)" style="fill: none; stroke: #727d8b; stroke-width: 1.5; stroke-linecap: square"/>
   </g>
   <g id="line2d_52">
    <path d="M 113.335947 163.894902 
L 76.664666 161.517568 
L 75.756493 160.769245 
L 81.487878 129.794773 
L 101.699347 127.245352 
L 120.429602 144.444397 
L 120.513877 156.251311 
L 113.335947 163.894902 
" clip-path="url(#p5eba710d13)" style="fill: none; stroke: #727d8b; stroke-width: 1.5; stroke-linecap: square"/>
   </g>
   <g id="line2d_53">
    <path d="M 169.057166 313.8 
L 207.487237 270.928297 
L 225.964029 279.661571 
L 235.188883 313.8 
L 169.057166 313.8 
" clip-path="url(#p5eba710d13)" style="fill: none; stroke: #727d8b; stroke-width: 1.5; stroke-linecap: square"/>
   </g>
   <g id="line2d_54">
    <path d="M 81.487878 129.794773 
L 81.17584 129.37341 
L 82.308354 89.488022 
L 84.798639 87.093183 
L 118.939468 98.466455 
L 118.622251 100.911344 
L 101.699347 127.245352 
L 81.487878 129.794773 
" clip-path="url(#p5eba710d13)" style="fill: none; stroke: #727d8b; stroke-width: 1.5; stroke-linecap: square"/>
   </g>
   <g id="line2d_55">
    <path d="M 160.940476 161.405515 
L 153.091642 165.041728 
L 120.513877 156.251311 
L 120.429602 144.444397 
L 135.142033 130.468379 
L 144.169838 129.905948 
L 164.807367 156.450626 
L 160.940476 161.405515 
" clip-path="url(#p5eba710d13)" style="fill: none; stroke: #727d8b; stroke-width: 1.5; stroke-linecap: square"/>
   </g>
   <g id="line2d_56">
    <path d="M 100.129992 235.151425 
L 104.611401 265.872875 
L 86.894971 271.380562 
L 65.81411 252.237682 
L 67.863993 240.760547 
L 95.997956 230.308224 
L 96.741964 230.674763 
L 100.129992 235.151425 
" clip-path="url(#p5eba710d13)" style="fill: none; stroke: #727d8b; stroke-width: 1.5; stroke-linecap: square"/>
   </g>
   <g id="line2d_57">
    <path d="M 185.467872 242.454832 
L 170.724572 251.718774 
L 141.457052 243.728043 
L 141.177825 227.561411 
L 164.859136 208.55823 
L 170.581141 208.543256 
L 185.467872 242.454832 
" clip-path="url(#p5eba710d13)" style="fill: none; stroke: #727d8b; stroke-width: 1.5; stroke-linecap: square"/>
   </g>
   <g id="line2d_58">
    <path d="M 58.446929 121.92012 
L 36.620316 135.553443 
L 25.071571 101.104632 
L 27.435799 95.995584 
L 41.611538 89.663066 
L 49.959373 93.607661 
L 58.446929 121.92012 
" clip-path="url(#p5eba710d13)" style="fill: none; stroke: #727d8b; stroke-width: 1.5; stroke-linecap: square"/>
   </g>
   <g id="line2d_59">
    <path d="M 200.364689 163.780436 
L 201.566187 165.113154 
L 198.761472 192.502085 
L 177.812782 199.461403 
L 160.940476 161.405515 
L 164.807367 156.450626 
L 165.192804 156.283289 
L 200.364689 163.780436 
" clip-path="url(#p5eba710d13)" style="fill: none; stroke: #727d8b; stroke-width: 1.5; stroke-linecap: square"/>
   </g>
   <g id="line2d_60">
    <path d="M 49.959373 93.607661 
L 82.308354 89.488022 
L 81.17584 129.37341 
L 58.446929 121.92012 
L 49.959373 93.607661 
" clip-path="url(#p5eba710d13)" style="fill: none; stroke: #727d8b; stroke-width: 1.5; stroke-linecap: square"/>
   </g>
   <g id="line2d_61">
    <path d="M 209.187058 235.006295 
L 207.508783 238.114656 
L 198.965158 244.29803 
L 185.467872 242.454832 
L 170.581141 208.543256 
L 177.812782 199.461403 
L 198.761472 192.502085 
L 207.422102 199.137032 
L 209.187058 235.006295 
" clip-path="url(#p5eba710d13)" style="fill: none; stroke: #727d8b; stroke-width: 1.5; stroke-linecap: square"/>
   </g>
   <g id="line2d_62">
    <path d="M 169.057166 313.8 
L 166.477303 313.8 
L 162.168937 300.664247 
L 170.724572 251.718774 
L 185.467872 242.454832 
L 198.965158 244.29803 
L 207.487237 270.928297 
L 169.057166 313.8 
" clip-path="url(#p5eba710d13)" style="fill: none; stroke: #727d8b; stroke-width: 1.5; stroke-linecap: square"/>
   </g>
   <g id="line2d_63">
    <path d="M 250.367732 214.148969 
L 260.203439 236.007678 
L 248.153251 255.591772 
L 207.508783 238.114656 
L 209.187058 235.006295 
L 250.367732 214.148969 
" clip-path="url(#p5eba710d13)" style="fill: none; stroke: #727d8b; stroke-width: 1.5; stroke-linecap: square"/>
   </g>
   <g id="line2d_64">
    <path d="M 100.129992 235.151425 
L 137.944425 246.448932 
L 128.692263 269.601881 
L 115.879583 272.639208 
L 104.611401 265.872875 
L 100.129992 235.151425 
" clip-path="url(#p5eba710d13)" style="fill: none; stroke: #727d8b; stroke-width: 1.5; stroke-linecap: square"/>
   </g>
   <g id="line2d_65">
    <path d="M 236.833228 195.469821 
L 207.422102 199.137032 
L 198.761472 192.502085 
L 201.566187 165.113154 
L 229.860717 163.11736 
L 239.87049 168.856227 
L 236.833228 195.469821 
" clip-path="url(#p5eba710d13)" style="fill: none; stroke: #727d8b; stroke-width: 1.5; stroke-linecap: square"/>
   </g>
   <g id="line2d_66">
    <path d="M 250.465454 212.907551 
L 250.367732 214.148969 
L 209.187058 235.006295 
L 207.422102 199.137032 
L 236.833228 195.469821 
L 250.465454 212.907551 
" clip-path="url(#p5eba710d13)" style="fill: none; stroke: #727d8b; stroke-width: 1.5; stroke-linecap: square"/>
   </g>
   <g id="line2d_67">
    <path clip-path="url(#p5eba710d13)" style="fill: none; stroke: #727d8b; stroke-width: 1.5; stroke-linecap: square"/>
   </g>
   <g id="line2d_68">
    <path d="M 274.592439 165.119183 
L 273.587921 198.001137 
L 250.465454 212.907551 
L 236.833228 195.469821 
L 239.87049 168.856227 
L 260.822224 160.268507 
L 274.592439 165.119183 
" clip-path="url(#p5eba710d13)" style="fill: none; stroke: #727d8b; stroke-width: 1.5; stroke-linecap: square"/>
   </g>
   <g id="line2d_69">
    <path d="M 170.724572 251.718774 
L 162.168937 300.664247 
L 128.692263 269.601881 
L 137.944425 246.448932 
L 141.457052 243.728043 
L 170.724572 251.718774 
" clip-path="url(#p5eba710d13)" style="fill: none; stroke: #727d8b; stroke-width: 1.5; stroke-linecap: square"/>
   </g>
   <g id="line2d_70">
    <path d="M 248.112886 259.744312 
L 225.964029 279.661571 
L 207.487237 270.928297 
L 198.965158 244.29803 
L 207.508783 238.114656 
L 248.153251 255.591772 
L 248.112886 259.744312 
" clip-path="url(#p5eba710d13)" style="fill: none; stroke: #727d8b; stroke-width: 1.5; stroke-linecap: square"/>
   </g>
   <g id="line2d_71">
    <path d="M 65.81411 252.237682 
L 50.981249 267.632545 
L 28.219109 264.308783 
L 26.164468 233.966065 
L 61.658803 234.60697 
L 67.863993 240.760547 
L 65.81411 252.237682 
" clip-path="url(#p5eba710d13)" style="fill: none; stroke: #727d8b; stroke-width: 1.5; stroke-linecap: square"/>
   </g>
   <g id="line2d_72">
    <path d="M 85.907392 49.8 
L 127.492288 49.8 
L 132.948819 87.303127 
L 118.939468 98.466455 
L 84.798639 87.093183 
L 85.907392 49.8 
" clip-path="url(#p5eba710d13)" style="fill: none; stroke: #727d8b; stroke-width: 1.5; stroke-linecap: square"/>
   </g>
   <g id="line2d_73">
    <path d="M 50.981249 267.632545 
L 65.81411 252.237682 
L 86.894971 271.380562 
L 79.527754 296.220167 
L 53.978285 278.522629 
L 50.981249 267.632545 
" clip-path="url(#p5eba710d13)" style="fill: none; stroke: #727d8b; stroke-width: 1.5; stroke-linecap: square"/>
   </g>
   <g id="line2d_74">
    <path d="M 128.692263 269.601881 
L 162.168937 300.664247 
L 166.477303 313.8 
L 104.019795 313.8 
L 115.879583 272.639208 
L 128.692263 269.601881 
" clip-path="url(#p5eba710d13)" style="fill: none; stroke: #727d8b; stroke-width: 1.5; stroke-linecap: square"/>
   </g>
   <g id="line2d_75">
    <path d="M 127.492288 49.8 
L 183.761425 49.8 
L 178.020514 78.225824 
L 156.963526 95.864041 
L 132.948819 87.303127 
L 127.492288 49.8 
" clip-path="url(#p5eba710d13)" style="fill: none; stroke: #727d8b; stroke-width: 1.5; stroke-linecap: square"/>
   </g>
   <g id="line2d_76">
    <path d="M 86.894971 271.380562 
L 104.611401 265.872875 
L 115.879583 272.639208 
L 104.019795 313.8 
L 85.20914 313.8 
L 79.527754 296.220167 
L 86.894971 271.380562 
" clip-path="url(#p5eba710d13)" style="fill: none; stroke: #727d8b; stroke-width: 1.5; stroke-linecap: square"/>
   </g>
   <g id="line2d_77">
    <path d="M 2.332139 133.417243 
L -0.953674 117.116867 
L 25.071571 101.104632 
L 36.620316 135.553443 
L 30.237388 153.173954 
L 2.332139 133.417243 
" clip-path="url(#p5eba710d13)" style="fill: none; stroke: #727d8b; stroke-width: 1.5; stroke-linecap: square"/>
   </g>
   <g id="line2d_78">
    <path d="M -1 238.030808 
L -0.985096 237.957544 
L 5.391031 234.210203 
L 25.772537 233.530699 
L 26.164468 233.966065 
L 28.219109 264.308783 
L 23.462313 267.768538 
L -1 266.621929 
" clip-path="url(#p5eba710d13)" style="fill: none; stroke: #727d8b; stroke-width: 1.5; stroke-linecap: square"/>
   </g>
   <g id="line2d_79">
    <path d="M -1 117.092085 
L -0.953674 117.116867 
L 2.332139 133.417243 
L -1 135.867431 
" clip-path="url(#p5eba710d13)" style="fill: none; stroke: #727d8b; stroke-width: 1.5; stroke-linecap: square"/>
   </g>
   <g id="line2d_80">
    <path d="M 329.046267 221.807775 
L 297.481958 219.926151 
L 290.457517 204.982302 
L 309.964831 183.407782 
L 329.75031 188.385302 
L 330.22623 219.931668 
L 329.046267 221.807775 
" clip-path="url(#p5eba710d13)" style="fill: none; stroke: #727d8b; stroke-width: 1.5; stroke-linecap: square"/>
   </g>
   <g id="line2d_81">
    <path d="M 250.465454 212.907551 
L 273.587921 198.001137 
L 290.457517 204.982302 
L 297.481958 219.926151 
L 283.324419 239.865452 
L 260.203439 236.007678 
L 250.367732 214.148969 
L 250.465454 212.907551 
" clip-path="url(#p5eba710d13)" style="fill: none; stroke: #727d8b; stroke-width: 1.5; stroke-linecap: square"/>
   </g>
   <g id="line2d_82">
    <path d="M 2.332139 133.417243 
L 30.237388 153.173954 
L 30.614953 154.724121 
L 23.533018 163.654793 
L -1 168.147731 
M -1 135.867431 
L 2.332139 133.417243 
" clip-path="url(#p5eba710d13)" style="fill: none; stroke: #727d8b; stroke-width: 1.5; stroke-linecap: square"/>
   </g>
   <g id="line2d_83">
    <path d="M -1 49.8 
L 3.216182 49.8 
L 3.089616 75.249569 
L -1 78.337124 
" clip-path="url(#p5eba710d13)" style="fill: none; stroke: #727d8b; stroke-width: 1.5; stroke-linecap: square"/>
   </g>
   <g id="line2d_84">
    <path clip-path="url(#p5eba710d13)" style="fill: none; stroke: #727d8b; stroke-width: 1.5; stroke-linecap: square"/>
   </g>
   <g id="line2d_85">
    <path d="M 200.132247 97.28445 
L 178.020514 78.225824 
L 183.761425 49.8 
L 224.952737 49.8 
L 230.205399 80.928898 
L 200.132247 97.28445 
" clip-path="url(#p5eba710d13)" style="fill: none; stroke: #727d8b; stroke-width: 1.5; stroke-linecap: square"/>
   </g>
   <g id="line2d_86">
    <path d="M -1 237.949404 
L -0.985096 237.957544 
L -1 238.030808 
" clip-path="url(#p5eba710d13)" style="fill: none; stroke: #727d8b; stroke-width: 1.5; stroke-linecap: square"/>
   </g>
   <g id="line2d_87">
    <path d="M 332.92378 257.777511 
L 328.89497 262.83331 
L 295.062176 259.267123 
L 283.324419 239.865452 
L 297.481958 219.926151 
L 329.046267 221.807775 
L 332.92378 257.777511 
" clip-path="url(#p5eba710d13)" style="fill: none; stroke: #727d8b; stroke-width: 1.5; stroke-linecap: square"/>
   </g>
   <g id="line2d_88">
    <path clip-path="url(#p5eba710d13)" style="fill: none; stroke: #727d8b; stroke-width: 1.5; stroke-linecap: square"/>
   </g>
   <g id="line2d_89">
    <path d="M -1 266.621929 
L 23.462313 267.768538 
L 23.823035 313.8 
L -1 313.8 
" clip-path="url(#p5eba710d13)" style="fill: none; stroke: #727d8b; stroke-width: 1.5; stroke-linecap: square"/>
   </g>
   <g id="line2d_90">
    <path d="M 342.146346 138.563436 
L 372.584736 155.772855 
L 370.416779 179.464942 
L 362.206184 183.038626 
L 336.44077 182.345786 
L 334.414529 149.758366 
L 342.146346 138.563436 
" clip-path="url(#p5eba710d13)" style="fill: none; stroke: #727d8b; stroke-width: 1.5; stroke-linecap: square"/>
   </g>
   <g id="line2d_91">
    <path d="M 362.206184 183.038626 
L 360.318659 216.830081 
L 330.22623 219.931668 
L 329.75031 188.385302 
L 336.44077 182.345786 
L 362.206184 183.038626 
" clip-path="url(#p5eba710d13)" style="fill: none; stroke: #727d8b; stroke-width: 1.5; stroke-linecap: square"/>
   </g>
   <g id="line2d_92">
    <path clip-path="url(#p5eba710d13)" style="fill: none; stroke: #727d8b; stroke-width: 1.5; stroke-linecap: square"/>
   </g>
   <g id="line2d_93">
    <path d="M 375.192458 224.921082 
L 384.244465 249.941362 
L 380.856394 254.059919 
L 332.92378 257.777511 
L 329.046267 221.807775 
L 330.22623 219.931668 
L 360.318659 216.830081 
L 375.192458 224.921082 
" clip-path="url(#p5eba710d13)" style="fill: none; stroke: #727d8b; stroke-width: 1.5; stroke-linecap: square"/>
   </g>
   <g id="line2d_94">
    <path d="M 79.527754 296.220167 
L 85.20914 313.8 
L 33.585184 313.8 
L 53.978285 278.522629 
L 79.527754 296.220167 
" clip-path="url(#p5eba710d13)" style="fill: none; stroke: #727d8b; stroke-width: 1.5; stroke-linecap: square"/>
   </g>
   <g id="line2d_95">
    <path clip-path="url(#p5eba710d13)" style="fill: none; stroke: #727d8b; stroke-width: 1.5; stroke-linecap: square"/>
   </g>
   <g id="line2d_96">
    <path d="M 240.305947 92.198328 
L 230.205399 80.928898 
L 224.952737 49.8 
L 276.636448 49.8 
L 275.860404 92.120678 
L 240.305947 92.198328 
" clip-path="url(#p5eba710d13)" style="fill: none; stroke: #727d8b; stroke-width: 1.5; stroke-linecap: square"/>
   </g>
   <g id="line2d_97">
    <path clip-path="url(#p5eba710d13)" style="fill: none; stroke: #727d8b; stroke-width: 1.5; stroke-linecap: square"/>
   </g>
   <g id="line2d_98">
    <path d="M 360.318659 216.830081 
L 362.206184 183.038626 
L 370.416779 179.464942 
L 393.470411 192.037087 
L 375.192458 224.921082 
L 360.318659 216.830081 
" clip-path="url(#p5eba710d13)" style="fill: none; stroke: #727d8b; stroke-width: 1.5; stroke-linecap: square"/>
   </g>
   <g id="line2d_99">
    <path d="M 282.460314 98.66819 
L 275.860404 92.120678 
L 276.636448 49.8 
L 318.941337 49.8 
L 325.598696 74.703504 
L 282.460314 98.66819 
" clip-path="url(#p5eba710d13)" style="fill: none; stroke: #727d8b; stroke-width: 1.5; stroke-linecap: square"/>
   </g>
   <g id="line2d_100">
    <path d="M 393.470411 192.037087 
L 370.416779 179.464942 
L 372.584736 155.772855 
L 389.186764 143.966277 
L 403.719586 146.934076 
L 406 165.912161 
M 406 188.65942 
L 404.181752 191.000337 
L 393.470411 192.037087 
" clip-path="url(#p5eba710d13)" style="fill: none; stroke: #727d8b; stroke-width: 1.5; stroke-linecap: square"/>
   </g>
   <g id="line2d_101">
    <path d="M 349.814546 86.71699 
L 335.147297 82.411524 
L 325.598696 74.703504 
L 318.941337 49.8 
L 362.906443 49.8 
L 354.92867 84.345447 
L 349.814546 86.71699 
" clip-path="url(#p5eba710d13)" style="fill: none; stroke: #727d8b; stroke-width: 1.5; stroke-linecap: square"/>
   </g>
   <g id="line2d_102">
    <path clip-path="url(#p5eba710d13)" style="fill: none; stroke: #727d8b; stroke-width: 1.5; stroke-linecap: square"/>
   </g>
   <g id="line2d_103">
    <path d="M 389.985102 248.821503 
L 384.244465 249.941362 
L 375.192458 224.921082 
L 393.470411 192.037087 
L 404.181752 191.000337 
L 406 194.267461 
M 406 229.862716 
L 389.985102 248.821503 
" clip-path="url(#p5eba710d13)" style="fill: none; stroke: #727d8b; stroke-width: 1.5; stroke-linecap: square"/>
   </g>
   <g id="line2d_104">
    <path d="M 406 194.267461 
L 404.181752 191.000337 
L 406 188.65942 
" clip-path="url(#p5eba710d13)" style="fill: none; stroke: #727d8b; stroke-width: 1.5; stroke-linecap: square"/>
   </g>
   <g id="line2d_105">
    <path clip-path="url(#p5eba710d13)" style="fill: none; stroke: #727d8b; stroke-width: 1.5; stroke-linecap: square"/>
   </g>
   <g id="line2d_106">
    <path d="M 28.219109 264.308783 
L 50.981249 267.632545 
L 53.978285 278.522629 
L 33.585184 313.8 
L 23.823035 313.8 
L 23.462313 267.768538 
L 28.219109 264.308783 
" clip-path="url(#p5eba710d13)" style="fill: none; stroke: #727d8b; stroke-width: 1.5; stroke-linecap: square"/>
   </g>
   <g id="line2d_107">
    <path clip-path="url(#p5eba710d13)" style="fill: none; stroke: #727d8b; stroke-width: 1.5; stroke-linecap: square"/>
   </g>
   <g id="line2d_108">
    <path d="M 354.92867 84.345447 
L 362.906443 49.8 
L 385.783668 49.8 
L 385.475756 85.516907 
L 354.92867 84.345447 
" clip-path="url(#p5eba710d13)" style="fill: none; stroke: #727d8b; stroke-width: 1.5; stroke-linecap: square"/>
   </g>
   <g id="line2d_109">
    <path clip-path="url(#p5eba710d13)" style="fill: none; stroke: #727d8b; stroke-width: 1.5; stroke-linecap: square"/>
   </g>
   <g id="line2d_110">
    <path clip-path="url(#p5eba710d13)" style="fill: none; stroke: #727d8b; stroke-width: 1.5; stroke-linecap: square"/>
   </g>
   <g id="line2d_111">
    <path d="M 406 165.912161 
L 403.719586 146.934076 
L 406 145.675549 
" clip-path="url(#p5eba710d13)" style="fill: none; stroke: #727d8b; stroke-width: 1.5; stroke-linecap: square"/>
   </g>
   <g id="line2d_112">
    <path clip-path="url(#p5eba710d13)" style="fill: none; stroke: #727d8b; stroke-width: 1.5; stroke-linecap: square"/>
   </g>
   <g id="line2d_113">
    <path d="M 406 254.231251 
L 389.985102 248.821503 
L 406 229.862716 
" clip-path="url(#p5eba710d13)" style="fill: none; stroke: #727d8b; stroke-width: 1.5; stroke-linecap: square"/>
   </g>
   <g id="line2d_114">
    <path clip-path="url(#p5eba710d13)" style="fill: none; stroke: #727d8b; stroke-width: 1.5; stroke-linecap: square"/>
   </g>
   <g id="line2d_115">
    <path clip-path="url(#p5eba710d13)" style="fill: none; stroke: #727d8b; stroke-width: 1.5; stroke-linecap: square"/>
   </g>
   <g id="line2d_116">
    <path clip-path="url(#p5eba710d13)" style="fill: none; stroke: #727d8b; stroke-width: 1.5; stroke-linecap: square"/>
   </g>
   <g id="line2d_117">
    <path clip-path="url(#p5eba710d13)" style="fill: none; stroke: #727d8b; stroke-width: 1.5; stroke-linecap: square"/>
   </g>
   <g id="line2d_118">
    <path clip-path="url(#p5eba710d13)" style="fill: none; stroke: #727d8b; stroke-width: 1.5; stroke-linecap: square"/>
   </g>
   <g id="line2d_119">
    <path d="M 392.616025 90.094751 
L 385.475756 85.516907 
L 385.783668 49.8 
L 406 49.8 
M 406 82.945658 
L 392.616025 90.094751 
" clip-path="url(#p5eba710d13)" style="fill: none; stroke: #727d8b; stroke-width: 1.5; stroke-linecap: square"/>
   </g>
   <g id="line2d_120">
    <path clip-path="url(#p5eba710d13)" style="fill: none; stroke: #727d8b; stroke-width: 1.5; stroke-linecap: square"/>
   </g>
   <g id="line2d_121">
    <path clip-path="url(#p5eba710d13)" style="fill: none; stroke: #727d8b; stroke-width: 1.5; stroke-linecap: square"/>
   </g>
   <g id="line2d_122">
    <path clip-path="url(#p5eba710d13)" style="fill: none; stroke: #727d8b; stroke-width: 1.5; stroke-linecap: square"/>
   </g>
   <g id="line2d_123">
    <path clip-path="url(#p5eba710d13)" style="fill: none; stroke: #727d8b; stroke-width: 1.5; stroke-linecap: square"/>
   </g>
   <g id="line2d_124">
    <path clip-path="url(#p5eba710d13)" style="fill: none; stroke: #727d8b; stroke-width: 1.5; stroke-linecap: square"/>
   </g>
   <g id="line2d_125">
    <path clip-path="url(#p5eba710d13)" style="fill: none; stroke: #727d8b; stroke-width: 1.5; stroke-linecap: square"/>
   </g>
   <g id="line2d_126">
    <path clip-path="url(#p5eba710d13)" style="fill: none; stroke: #727d8b; stroke-width: 1.5; stroke-linecap: square"/>
   </g>
   <g id="line2d_127">
    <path d="M 291.025611 159.768277 
L 295.290163 152.924194 
L 334.414529 149.758366 
L 336.44077 182.345786 
L 329.75031 188.385302 
L 309.964831 183.407782 
L 291.025611 159.768277 
" clip-path="url(#p5eba710d13)" style="fill: none; stroke: #727d8b; stroke-width: 1.5; stroke-linecap: square"/>
   </g>
   <g id="line2d_128">
    <path clip-path="url(#p5eba710d13)" style="fill: none; stroke: #727d8b; stroke-width: 1.5; stroke-linecap: square"/>
   </g>
   <g id="line2d_129">
    <path d="M 41.611538 89.663066 
L 45.687134 49.8 
L 85.907392 49.8 
L 84.798639 87.093183 
L 82.308354 89.488022 
L 49.959373 93.607661 
L 41.611538 89.663066 
" clip-path="url(#p5eba710d13)" style="fill: none; stroke: #727d8b; stroke-width: 1.5; stroke-linecap: square"/>
   </g>
   <g id="line2d_130">
    <path clip-path="url(#p5eba710d13)" style="fill: none; stroke: #727d8b; stroke-width: 1.5; stroke-linecap: square"/>
   </g>
   <g id="line2d_131">
    <path d="M 232.961875 121.838863 
L 255.902962 133.050732 
L 260.822224 160.268507 
L 239.87049 168.856227 
L 229.860717 163.11736 
L 226.620981 125.547274 
L 232.961875 121.838863 
" clip-path="url(#p5eba710d13)" style="fill: none; stroke: #727d8b; stroke-width: 1.5; stroke-linecap: square"/>
   </g>
   <g id="line2d_132">
    <path clip-path="url(#p5eba710d13)" style="fill: none; stroke: #727d8b; stroke-width: 1.5; stroke-linecap: square"/>
   </g>
   <g id="line2d_133">
    <path d="M 101.699347 127.245352 
L 118.622251 100.911344 
L 135.142033 130.468379 
L 120.429602 144.444397 
L 101.699347 127.245352 
" clip-path="url(#p5eba710d13)" style="fill: none; stroke: #727d8b; stroke-width: 1.5; stroke-linecap: square"/>
   </g>
   <g id="line2d_134">
    <path d="M 290.457517 204.982302 
L 273.587921 198.001137 
L 274.592439 165.119183 
L 291.025611 159.768277 
L 309.964831 183.407782 
L 290.457517 204.982302 
" clip-path="url(#p5eba710d13)" style="fill: none; stroke: #727d8b; stroke-width: 1.5; stroke-linecap: square"/>
   </g>
   <g id="line2d_135">
    <path d="M 25.071571 101.104632 
L -0.953674 117.116867 
L -1 117.092085 
M -1 78.337124 
L 3.089616 75.249569 
L 27.435799 95.995584 
L 25.071571 101.104632 
" clip-path="url(#p5eba710d13)" style="fill: none; stroke: #727d8b; stroke-width: 1.5; stroke-linecap: square"/>
   </g>
   <g id="line2d_136">
    <path clip-path="url(#p5eba710d13)" style="fill: none; stroke: #727d8b; stroke-width: 1.5; stroke-linecap: square"/>
   </g>
   <g id="line2d_137">
    <path d="M 190.2375 313.8 
L 190.2375 49.8 
" clip-path="url(#p5eba710d13)" style="fill: none; stroke: #59b2d8; stroke-width: 2; stroke-linecap: square"/>
   </g>
   <g id="line2d_138">
    <path d="M 190.2375 313.8 
" clip-path="url(#p5eba710d13)" style="fill: none; stroke: #59b2d8; stroke-width: 1.5; stroke-linecap: square"/>
   </g>
   <g id="line2d_139">
    <path d="M 209.187058 235.006295 
L 207.508783 238.114656 
L 198.965158 244.29803 
L 185.467872 242.454832 
L 170.581141 208.543256 
L 177.812782 199.461403 
L 198.761472 192.502085 
L 207.422102 199.137032 
L 209.187058 235.006295 
" clip-path="url(#p5eba710d13)" style="fill: none; stroke: #ffa500; stroke-width: 1.5; stroke-linecap: square"/>
   </g>
   <g id="line2d_140">
    <path d="M 190.2375 243.106176 
L 190.2375 195.333815 
" clip-path="url(#p5eba710d13)" style="fill: none; stroke: #ff0000; stroke-width: 1.5; stroke-linecap: square"/>
   </g>
   <g id="legend_1">
    <g id="patch_138">
     <path d="M 219.554688 95.234375 
L 356.4875 95.234375 
Q 358.4875 95.234375 358.4875 93.234375 
L 358.4875 50.2 
Q 358.4875 48.2 356.4875 48.2 
L 219.554688 48.2 
Q 217.554688 48.2 217.554688 50.2 
L 217.554688 93.234375 
Q 217.554688 95.234375 219.554688 95.234375 
z
" style="fill: #ffffff; opacity: 0.8; stroke: #cccccc; stroke-linejoin: miter"/>
    </g>
    <g id="line2d_141">
     <path d="M 221.554688 56.298437 
L 231.554688 56.298437 
L 241.554688 56.298437 
" style="fill: none; stroke: #59b2d8; stroke-width: 1.5; stroke-linecap: square"/>
    </g>
    <g id="text_1">
     <!-- measurement line -->
     <g transform="translate(249.554688 59.798437) scale(0.1 -0.1)">
      <defs>
       <path id="DejaVuSans-6d" d="M 3328 2828 
Q 3544 3216 3844 3400 
Q 4144 3584 4550 3584 
Q 5097 3584 5394 3201 
Q 5691 2819 5691 2113 
L 5691 0 
L 5113 0 
L 5113 2094 
Q 5113 2597 4934 2840 
Q 4756 3084 4391 3084 
Q 3944 3084 3684 2787 
Q 3425 2491 3425 1978 
L 3425 0 
L 2847 0 
L 2847 2094 
Q 2847 2600 2669 2842 
Q 2491 3084 2119 3084 
Q 1678 3084 1418 2786 
Q 1159 2488 1159 1978 
L 1159 0 
L 581 0 
L 581 3500 
L 1159 3500 
L 1159 2956 
Q 1356 3278 1631 3431 
Q 1906 3584 2284 3584 
Q 2666 3584 2933 3390 
Q 3200 3197 3328 2828 
z
" transform="scale(0.015625)"/>
       <path id="DejaVuSans-65" d="M 3597 1894 
L 3597 1613 
L 953 1613 
Q 991 1019 1311 708 
Q 1631 397 2203 397 
Q 2534 397 2845 478 
Q 3156 559 3463 722 
L 3463 178 
Q 3153 47 2828 -22 
Q 2503 -91 2169 -91 
Q 1331 -91 842 396 
Q 353 884 353 1716 
Q 353 2575 817 3079 
Q 1281 3584 2069 3584 
Q 2775 3584 3186 3129 
Q 3597 2675 3597 1894 
z
M 3022 2063 
Q 3016 2534 2758 2815 
Q 2500 3097 2075 3097 
Q 1594 3097 1305 2825 
Q 1016 2553 972 2059 
L 3022 2063 
z
" transform="scale(0.015625)"/>
       <path id="DejaVuSans-61" d="M 2194 1759 
Q 1497 1759 1228 1600 
Q 959 1441 959 1056 
Q 959 750 1161 570 
Q 1363 391 1709 391 
Q 2188 391 2477 730 
Q 2766 1069 2766 1631 
L 2766 1759 
L 2194 1759 
z
M 3341 1997 
L 3341 0 
L 2766 0 
L 2766 531 
Q 2569 213 2275 61 
Q 1981 -91 1556 -91 
Q 1019 -91 701 211 
Q 384 513 384 1019 
Q 384 1609 779 1909 
Q 1175 2209 1959 2209 
L 2766 2209 
L 2766 2266 
Q 2766 2663 2505 2880 
Q 2244 3097 1772 3097 
Q 1472 3097 1187 3025 
Q 903 2953 641 2809 
L 641 3341 
Q 956 3463 1253 3523 
Q 1550 3584 1831 3584 
Q 2591 3584 2966 3190 
Q 3341 2797 3341 1997 
z
" transform="scale(0.015625)"/>
       <path id="DejaVuSans-73" d="M 2834 3397 
L 2834 2853 
Q 2591 2978 2328 3040 
Q 2066 3103 1784 3103 
Q 1356 3103 1142 2972 
Q 928 2841 928 2578 
Q 928 2378 1081 2264 
Q 1234 2150 1697 2047 
L 1894 2003 
Q 2506 1872 2764 1633 
Q 3022 1394 3022 966 
Q 3022 478 2636 193 
Q 2250 -91 1575 -91 
Q 1294 -91 989 -36 
Q 684 19 347 128 
L 347 722 
Q 666 556 975 473 
Q 1284 391 1588 391 
Q 1994 391 2212 530 
Q 2431 669 2431 922 
Q 2431 1156 2273 1281 
Q 2116 1406 1581 1522 
L 1381 1569 
Q 847 1681 609 1914 
Q 372 2147 372 2553 
Q 372 3047 722 3315 
Q 1072 3584 1716 3584 
Q 2034 3584 2315 3537 
Q 2597 3491 2834 3397 
z
" transform="scale(0.015625)"/>
       <path id="DejaVuSans-75" d="M 544 1381 
L 544 3500 
L 1119 3500 
L 1119 1403 
Q 1119 906 1312 657 
Q 1506 409 1894 409 
Q 2359 409 2629 706 
Q 2900 1003 2900 1516 
L 2900 3500 
L 3475 3500 
L 3475 0 
L 2900 0 
L 2900 538 
Q 2691 219 2414 64 
Q 2138 -91 1772 -91 
Q 1169 -91 856 284 
Q 544 659 544 1381 
z
M 1991 3584 
L 1991 3584 
z
" transform="scale(0.015625)"/>
       <path id="DejaVuSans-72" d="M 2631 2963 
Q 2534 3019 2420 3045 
Q 2306 3072 2169 3072 
Q 1681 3072 1420 2755 
Q 1159 2438 1159 1844 
L 1159 0 
L 581 0 
L 581 3500 
L 1159 3500 
L 1159 2956 
Q 1341 3275 1631 3429 
Q 1922 3584 2338 3584 
Q 2397 3584 2469 3576 
Q 2541 3569 2628 3553 
L 2631 2963 
z
" transform="scale(0.015625)"/>
       <path id="DejaVuSans-6e" d="M 3513 2113 
L 3513 0 
L 2938 0 
L 2938 2094 
Q 2938 2591 2744 2837 
Q 2550 3084 2163 3084 
Q 1697 3084 1428 2787 
Q 1159 2491 1159 1978 
L 1159 0 
L 581 0 
L 581 3500 
L 1159 3500 
L 1159 2956 
Q 1366 3272 1645 3428 
Q 1925 3584 2291 3584 
Q 2894 3584 3203 3211 
Q 3513 2838 3513 2113 
z
" transform="scale(0.015625)"/>
       <path id="DejaVuSans-74" d="M 1172 4494 
L 1172 3500 
L 2356 3500 
L 2356 3053 
L 1172 3053 
L 1172 1153 
Q 1172 725 1289 603 
Q 1406 481 1766 481 
L 2356 481 
L 2356 0 
L 1766 0 
Q 1100 0 847 248 
Q 594 497 594 1153 
L 594 3053 
L 172 3053 
L 172 3500 
L 594 3500 
L 594 4494 
L 1172 4494 
z
" transform="scale(0.015625)"/>
       <path id="DejaVuSans-20" transform="scale(0.015625)"/>
       <path id="DejaVuSans-6c" d="M 603 4863 
L 1178 4863 
L 1178 0 
L 603 0 
L 603 4863 
z
" transform="scale(0.015625)"/>
       <path id="DejaVuSans-69" d="M 603 3500 
L 1178 3500 
L 1178 0 
L 603 0 
L 603 3500 
z
M 603 4863 
L 1178 4863 
L 1178 4134 
L 603 4134 
L 603 4863 
z
" transform="scale(0.015625)"/>
      </defs>
      <use xlink:href="#DejaVuSans-6d"/>
      <use xlink:href="#DejaVuSans-65" x="97.412109"/>
      <use xlink:href="#DejaVuSans-61" x="158.935547"/>
      <use xlink:href="#DejaVuSans-73" x="220.214844"/>
      <use xlink:href="#DejaVuSans-75" x="272.314453"/>
      <use xlink:href="#DejaVuSans-72" x="335.693359"/>
      <use xlink:href="#DejaVuSans-65" x="374.556641"/>
      <use xlink:href="#DejaVuSans-6d" x="436.080078"/>
      <use xlink:href="#DejaVuSans-65" x="533.492188"/>
      <use xlink:href="#DejaVuSans-6e" x="595.015625"/>
      <use xlink:href="#DejaVuSans-74" x="658.394531"/>
      <use xlink:href="#DejaVuSans-20" x="697.603516"/>
      <use xlink:href="#DejaVuSans-6c" x="729.390625"/>
      <use xlink:href="#DejaVuSans-69" x="757.173828"/>
      <use xlink:href="#DejaVuSans-6e" x="784.957031"/>
      <use xlink:href="#DejaVuSans-65" x="848.335938"/>
     </g>
    </g>
    <g id="line2d_142">
     <path d="M 221.554688 70.976562 
L 231.554688 70.976562 
L 241.554688 70.976562 
" style="fill: none; stroke: #ffa500; stroke-width: 1.5; stroke-linecap: square"/>
    </g>
    <g id="text_2">
     <!-- voronoi cell -->
     <g transform="translate(249.554688 74.476562) scale(0.1 -0.1)">
      <defs>
       <path id="DejaVuSans-76" d="M 191 3500 
L 800 3500 
L 1894 563 
L 2988 3500 
L 3597 3500 
L 2284 0 
L 1503 0 
L 191 3500 
z
" transform="scale(0.015625)"/>
       <path id="DejaVuSans-6f" d="M 1959 3097 
Q 1497 3097 1228 2736 
Q 959 2375 959 1747 
Q 959 1119 1226 758 
Q 1494 397 1959 397 
Q 2419 397 2687 759 
Q 2956 1122 2956 1747 
Q 2956 2369 2687 2733 
Q 2419 3097 1959 3097 
z
M 1959 3584 
Q 2709 3584 3137 3096 
Q 3566 2609 3566 1747 
Q 3566 888 3137 398 
Q 2709 -91 1959 -91 
Q 1206 -91 779 398 
Q 353 888 353 1747 
Q 353 2609 779 3096 
Q 1206 3584 1959 3584 
z
" transform="scale(0.015625)"/>
       <path id="DejaVuSans-63" d="M 3122 3366 
L 3122 2828 
Q 2878 2963 2633 3030 
Q 2388 3097 2138 3097 
Q 1578 3097 1268 2742 
Q 959 2388 959 1747 
Q 959 1106 1268 751 
Q 1578 397 2138 397 
Q 2388 397 2633 464 
Q 2878 531 3122 666 
L 3122 134 
Q 2881 22 2623 -34 
Q 2366 -91 2075 -91 
Q 1284 -91 818 406 
Q 353 903 353 1747 
Q 353 2603 823 3093 
Q 1294 3584 2113 3584 
Q 2378 3584 2631 3529 
Q 2884 3475 3122 3366 
z
" transform="scale(0.015625)"/>
      </defs>
      <use xlink:href="#DejaVuSans-76"/>
      <use xlink:href="#DejaVuSans-6f" x="59.179688"/>
      <use xlink:href="#DejaVuSans-72" x="120.361328"/>
      <use xlink:href="#DejaVuSans-6f" x="159.224609"/>
      <use xlink:href="#DejaVuSans-6e" x="220.40625"/>
      <use xlink:href="#DejaVuSans-6f" x="283.785156"/>
      <use xlink:href="#DejaVuSans-69" x="344.966797"/>
      <use xlink:href="#DejaVuSans-20" x="372.75"/>
      <use xlink:href="#DejaVuSans-63" x="404.537109"/>
      <use xlink:href="#DejaVuSans-65" x="459.517578"/>
      <use xlink:href="#DejaVuSans-6c" x="521.041016"/>
      <use xlink:href="#DejaVuSans-6c" x="548.824219"/>
     </g>
    </g>
    <g id="line2d_143">
     <path d="M 221.554688 85.654687 
L 231.554688 85.654687 
L 241.554688 85.654687 
" style="fill: none; stroke: #ff0000; stroke-width: 1.5; stroke-linecap: square"/>
    </g>
    <g id="text_3">
     <!-- intersection with line -->
     <g transform="translate(249.554688 89.154687) scale(0.1 -0.1)">
      <defs>
       <path id="DejaVuSans-77" d="M 269 3500 
L 844 3500 
L 1563 769 
L 2278 3500 
L 2956 3500 
L 3675 769 
L 4391 3500 
L 4966 3500 
L 4050 0 
L 3372 0 
L 2619 2869 
L 1863 0 
L 1184 0 
L 269 3500 
z
" transform="scale(0.015625)"/>
       <path id="DejaVuSans-68" d="M 3513 2113 
L 3513 0 
L 2938 0 
L 2938 2094 
Q 2938 2591 2744 2837 
Q 2550 3084 2163 3084 
Q 1697 3084 1428 2787 
Q 1159 2491 1159 1978 
L 1159 0 
L 581 0 
L 581 4863 
L 1159 4863 
L 1159 2956 
Q 1366 3272 1645 3428 
Q 1925 3584 2291 3584 
Q 2894 3584 3203 3211 
Q 3513 2838 3513 2113 
z
" transform="scale(0.015625)"/>
      </defs>
      <use xlink:href="#DejaVuSans-69"/>
      <use xlink:href="#DejaVuSans-6e" x="27.783203"/>
      <use xlink:href="#DejaVuSans-74" x="91.162109"/>
      <use xlink:href="#DejaVuSans-65" x="130.371094"/>
      <use xlink:href="#DejaVuSans-72" x="191.894531"/>
      <use xlink:href="#DejaVuSans-73" x="233.007812"/>
      <use xlink:href="#DejaVuSans-65" x="285.107422"/>
      <use xlink:href="#DejaVuSans-63" x="346.630859"/>
      <use xlink:href="#DejaVuSans-74" x="401.611328"/>
      <use xlink:href="#DejaVuSans-69" x="440.820312"/>
      <use xlink:href="#DejaVuSans-6f" x="468.603516"/>
      <use xlink:href="#DejaVuSans-6e" x="529.785156"/>
      <use xlink:href="#DejaVuSans-20" x="593.164062"/>
      <use xlink:href="#DejaVuSans-77" x="624.951172"/>
      <use xlink:href="#DejaVuSans-69" x="706.738281"/>
      <use xlink:href="#DejaVuSans-74" x="734.521484"/>
      <use xlink:href="#DejaVuSans-68" x="773.730469"/>
      <use xlink:href="#DejaVuSans-20" x="837.109375"/>
      <use xlink:href="#DejaVuSans-6c" x="868.896484"/>
      <use xlink:href="#DejaVuSans-69" x="896.679688"/>
      <use xlink:href="#DejaVuSans-6e" x="924.462891"/>
      <use xlink:href="#DejaVuSans-65" x="987.841797"/>
     </g>
    </g>
   </g>
  </g>
 </g>
 <defs>
  <clipPath id="p5eba710d13">
   <rect x="51.6375" y="43.2" width="311.85" height="277.2"/>
  </clipPath>
 </defs>
</svg>
