<?xml version="1.0" encoding="utf-8" standalone="no"?>
<!DOCTYPE svg PUBLIC "-//W3C//DTD SVG 1.1//EN"
  "http://www.w3.org/Graphics/SVG/1.1/DTD/svg11.dtd">
<svg xmlns:xlink="http://www.w3.org/1999/xlink" width="460.8pt" height="345.6pt" viewBox="0 0 460.8 345.6" xmlns="http://www.w3.org/2000/svg" version="1.1">
 <metadata>
  <rdf:RDF xmlns:dc="http://purl.org/dc/elements/1.1/" xmlns:cc="http://creativecommons.org/ns#" xmlns:rdf="http://www.w3.org/1999/02/22-rdf-syntax-ns#">
   <cc:Work>
    <dc:type rdf:resource="http://purl.org/dc/dcmitype/StillImage"/>
    <dc:date>2023-11-02T15:05:34.956817</dc:date>
    <dc:format>image/svg+xml</dc:format>
    <dc:creator>
     <cc:Agent>
      <dc:title>Matplotlib v3.7.2, https://matplotlib.org/</dc:title>
     </cc:Agent>
    </dc:creator>
   </cc:Work>
  </rdf:RDF>
 </metadata>
 <defs>
  <style type="text/css">*{stroke-linejoin: round; stroke-linecap: butt}</style>
 </defs>
 <g id="figure_1">
  <g id="patch_1">
   <path d="M 0 345.6 
L 460.8 345.6 
L 460.8 0 
L 0 0 
z
" style="fill: #ffffff"/>
  </g>
  <g id="axes_1">
   <g id="PathCollection_1">
    <defs>
     <path id="m3e6a8b4b62" style="stroke: #e97586; stroke-width: 1.5"/>
    </defs>
    <g clip-path="url(#pd47eb569cd)"/>
   </g>
   <g id="PathCollection_2">
    <g clip-path="url(#pd47eb569cd)">
     <use xlink:href="#m3e6a8b4b62" x="1368.26135" y="352.787558" style="fill: #e97586; stroke: #e97586; stroke-width: 1.5"/>
    </g>
   </g>
   <g id="PathCollection_3">
    <defs>
     <path id="md7d90c4c08" d="M 0 3 
C 0.795609 3 1.55874 2.683901 2.12132 2.12132 
C 2.683901 1.55874 3 0.795609 3 0 
C 3 -0.795609 2.683901 -1.55874 2.12132 -2.12132 
C 1.55874 -2.683901 0.795609 -3 0 -3 
C -0.795609 -3 -1.55874 -2.683901 -2.12132 -2.12132 
C -2.683901 -1.55874 -3 -0.795609 -3 0 
C -3 0.795609 -2.683901 1.55874 -2.12132 2.12132 
C -1.55874 2.683901 -0.795609 3 0 3 
z
" style="stroke: #dca049"/>
    </defs>
    <g clip-path="url(#pd47eb569cd)">
     <use xlink:href="#md7d90c4c08" x="191.470479" y="176.208054" style="fill: #dca049; stroke: #dca049"/>
    </g>
   </g>
   <g id="patch_2">
    <path d="M 280.55814 176.208054 
L 253.77414 182.860854 
L 253.77414 176.296758 
L 191.470479 176.296758 
L 191.470479 176.11935 
L 253.77414 176.11935 
L 253.77414 169.555254 
z
" clip-path="url(#pd47eb569cd)" style="fill: #bfbf00; stroke: #bfbf00; stroke-linejoin: miter"/>
   </g>
   <g id="line2d_1">
    <path clip-path="url(#pd47eb569cd)" style="fill: none; stroke: #727d8b; stroke-linecap: square"/>
   </g>
   <g id="line2d_2">
    <path d="M -1 157.372758 
L 5.910451 157.479091 
L 16.209792 157.883581 
L 26.130586 158.594988 
L 36.139469 159.458964 
L 56.204851 161.910743 
L 76.261663 164.942646 
L 86.305782 166.659955 
L 106.58996 170.775821 
L 116.705741 172.883428 
L 126.442975 174.765727 
L 136.154972 176.296758 
L 145.612462 177.334595 
L 155.063048 177.826015 
L 164.293409 177.895204 
L 173.499249 177.602481 
L 182.512243 177.009938 
L 191.470479 176.208054 
L 200.361815 175.099254 
L 209.251484 173.73676 
L 218.291144 171.968003 
L 227.57674 169.911844 
L 237.015898 167.637473 
L 256.266094 162.700209 
L 265.745011 160.477286 
L 275.37749 158.351939 
L 285.232121 156.471414 
L 295.064194 154.96522 
L 304.960954 153.829809 
L 324.725998 152.408771 
L 334.440376 152.027343 
L 344.371407 151.752361 
L 354.511711 151.716879 
L 375.890819 152.247329 
L 408.971082 153.671916 
L 431.030623 154.044472 
L 442.315139 153.884805 
L 453.506803 153.588534 
L 461.8 153.13458 
L 461.8 153.13458 
" clip-path="url(#pd47eb569cd)" style="fill: none; stroke: #e97586; stroke-linecap: square"/>
   </g>
   <g id="line2d_3">
    <path d="M 295.68 346.6 
L 295.68 -1 
" clip-path="url(#pd47eb569cd)" style="fill: none; stroke: #59b2d8; stroke-linecap: square"/>
   </g>
   <g id="line2d_4">
    <path d="M 90.482216 197.782889 
L 71.727585 101.840741 
L 72.774497 99.615494 
L 119.049406 70.98198 
L 304.294196 115.845282 
L 304.620375 207.797013 
L 254.156377 277.632922 
L 248.601048 277.07483 
L 90.482216 197.782889 
" clip-path="url(#pd47eb569cd)" style="fill: none; stroke: #6cbea7; stroke-width: 1.5; stroke-linecap: square"/>
   </g>
   <g id="line2d_5">
    <path clip-path="url(#pd47eb569cd)" style="fill: none; stroke: #e97586; stroke-width: 1.5; stroke-linecap: square"/>
   </g>
   <g id="line2d_6">
    <path clip-path="url(#pd47eb569cd)" style="fill: none; stroke: #59b2d8; stroke-width: 1.5; stroke-linecap: square"/>
   </g>
   <g id="legend_1">
    <g id="patch_3">
     <path d="M 249.1825 302.584 
L 407.72 302.584 
Q 409.72 302.584 409.72 300.584 
L 409.72 228.193375 
Q 409.72 226.193375 407.72 226.193375 
L 249.1825 226.193375 
Q 247.1825 226.193375 247.1825 228.193375 
L 247.1825 300.584 
Q 247.1825 302.584 249.1825 302.584 
z
" style="fill: #ffffff; opacity: 0.8; stroke: #cccccc; stroke-linejoin: miter"/>
    </g>
    <g id="PathCollection_4">
     <g>
      <use xlink:href="#md7d90c4c08" x="261.1825" y="235.166812" style="fill: #dca049; stroke: #dca049"/>
     </g>
    </g>
    <g id="text_1">
     <!-- Position of Pedestrian -->
     <g transform="translate(279.1825 237.791812) scale(0.1 -0.1)">
      <defs>
       <path id="DejaVuSans-50" d="M 1259 4147 
L 1259 2394 
L 2053 2394 
Q 2494 2394 2734 2622 
Q 2975 2850 2975 3272 
Q 2975 3691 2734 3919 
Q 2494 4147 2053 4147 
L 1259 4147 
z
M 628 4666 
L 2053 4666 
Q 2838 4666 3239 4311 
Q 3641 3956 3641 3272 
Q 3641 2581 3239 2228 
Q 2838 1875 2053 1875 
L 1259 1875 
L 1259 0 
L 628 0 
L 628 4666 
z
" transform="scale(0.015625)"/>
       <path id="DejaVuSans-6f" d="M 1959 3097 
Q 1497 3097 1228 2736 
Q 959 2375 959 1747 
Q 959 1119 1226 758 
Q 1494 397 1959 397 
Q 2419 397 2687 759 
Q 2956 1122 2956 1747 
Q 2956 2369 2687 2733 
Q 2419 3097 1959 3097 
z
M 1959 3584 
Q 2709 3584 3137 3096 
Q 3566 2609 3566 1747 
Q 3566 888 3137 398 
Q 2709 -91 1959 -91 
Q 1206 -91 779 398 
Q 353 888 353 1747 
Q 353 2609 779 3096 
Q 1206 3584 1959 3584 
z
" transform="scale(0.015625)"/>
       <path id="DejaVuSans-73" d="M 2834 3397 
L 2834 2853 
Q 2591 2978 2328 3040 
Q 2066 3103 1784 3103 
Q 1356 3103 1142 2972 
Q 928 2841 928 2578 
Q 928 2378 1081 2264 
Q 1234 2150 1697 2047 
L 1894 2003 
Q 2506 1872 2764 1633 
Q 3022 1394 3022 966 
Q 3022 478 2636 193 
Q 2250 -91 1575 -91 
Q 1294 -91 989 -36 
Q 684 19 347 128 
L 347 722 
Q 666 556 975 473 
Q 1284 391 1588 391 
Q 1994 391 2212 530 
Q 2431 669 2431 922 
Q 2431 1156 2273 1281 
Q 2116 1406 1581 1522 
L 1381 1569 
Q 847 1681 609 1914 
Q 372 2147 372 2553 
Q 372 3047 722 3315 
Q 1072 3584 1716 3584 
Q 2034 3584 2315 3537 
Q 2597 3491 2834 3397 
z
" transform="scale(0.015625)"/>
       <path id="DejaVuSans-69" d="M 603 3500 
L 1178 3500 
L 1178 0 
L 603 0 
L 603 3500 
z
M 603 4863 
L 1178 4863 
L 1178 4134 
L 603 4134 
L 603 4863 
z
" transform="scale(0.015625)"/>
       <path id="DejaVuSans-74" d="M 1172 4494 
L 1172 3500 
L 2356 3500 
L 2356 3053 
L 1172 3053 
L 1172 1153 
Q 1172 725 1289 603 
Q 1406 481 1766 481 
L 2356 481 
L 2356 0 
L 1766 0 
Q 1100 0 847 248 
Q 594 497 594 1153 
L 594 3053 
L 172 3053 
L 172 3500 
L 594 3500 
L 594 4494 
L 1172 4494 
z
" transform="scale(0.015625)"/>
       <path id="DejaVuSans-6e" d="M 3513 2113 
L 3513 0 
L 2938 0 
L 2938 2094 
Q 2938 2591 2744 2837 
Q 2550 3084 2163 3084 
Q 1697 3084 1428 2787 
Q 1159 2491 1159 1978 
L 1159 0 
L 581 0 
L 581 3500 
L 1159 3500 
L 1159 2956 
Q 1366 3272 1645 3428 
Q 1925 3584 2291 3584 
Q 2894 3584 3203 3211 
Q 3513 2838 3513 2113 
z
" transform="scale(0.015625)"/>
       <path id="DejaVuSans-20" transform="scale(0.015625)"/>
       <path id="DejaVuSans-66" d="M 2375 4863 
L 2375 4384 
L 1825 4384 
Q 1516 4384 1395 4259 
Q 1275 4134 1275 3809 
L 1275 3500 
L 2222 3500 
L 2222 3053 
L 1275 3053 
L 1275 0 
L 697 0 
L 697 3053 
L 147 3053 
L 147 3500 
L 697 3500 
L 697 3744 
Q 697 4328 969 4595 
Q 1241 4863 1831 4863 
L 2375 4863 
z
" transform="scale(0.015625)"/>
       <path id="DejaVuSans-65" d="M 3597 1894 
L 3597 1613 
L 953 1613 
Q 991 1019 1311 708 
Q 1631 397 2203 397 
Q 2534 397 2845 478 
Q 3156 559 3463 722 
L 3463 178 
Q 3153 47 2828 -22 
Q 2503 -91 2169 -91 
Q 1331 -91 842 396 
Q 353 884 353 1716 
Q 353 2575 817 3079 
Q 1281 3584 2069 3584 
Q 2775 3584 3186 3129 
Q 3597 2675 3597 1894 
z
M 3022 2063 
Q 3016 2534 2758 2815 
Q 2500 3097 2075 3097 
Q 1594 3097 1305 2825 
Q 1016 2553 972 2059 
L 3022 2063 
z
" transform="scale(0.015625)"/>
       <path id="DejaVuSans-64" d="M 2906 2969 
L 2906 4863 
L 3481 4863 
L 3481 0 
L 2906 0 
L 2906 525 
Q 2725 213 2448 61 
Q 2172 -91 1784 -91 
Q 1150 -91 751 415 
Q 353 922 353 1747 
Q 353 2572 751 3078 
Q 1150 3584 1784 3584 
Q 2172 3584 2448 3432 
Q 2725 3281 2906 2969 
z
M 947 1747 
Q 947 1113 1208 752 
Q 1469 391 1925 391 
Q 2381 391 2643 752 
Q 2906 1113 2906 1747 
Q 2906 2381 2643 2742 
Q 2381 3103 1925 3103 
Q 1469 3103 1208 2742 
Q 947 2381 947 1747 
z
" transform="scale(0.015625)"/>
       <path id="DejaVuSans-72" d="M 2631 2963 
Q 2534 3019 2420 3045 
Q 2306 3072 2169 3072 
Q 1681 3072 1420 2755 
Q 1159 2438 1159 1844 
L 1159 0 
L 581 0 
L 581 3500 
L 1159 3500 
L 1159 2956 
Q 1341 3275 1631 3429 
Q 1922 3584 2338 3584 
Q 2397 3584 2469 3576 
Q 2541 3569 2628 3553 
L 2631 2963 
z
" transform="scale(0.015625)"/>
       <path id="DejaVuSans-61" d="M 2194 1759 
Q 1497 1759 1228 1600 
Q 959 1441 959 1056 
Q 959 750 1161 570 
Q 1363 391 1709 391 
Q 2188 391 2477 730 
Q 2766 1069 2766 1631 
L 2766 1759 
L 2194 1759 
z
M 3341 1997 
L 3341 0 
L 2766 0 
L 2766 531 
Q 2569 213 2275 61 
Q 1981 -91 1556 -91 
Q 1019 -91 701 211 
Q 384 513 384 1019 
Q 384 1609 779 1909 
Q 1175 2209 1959 2209 
L 2766 2209 
L 2766 2266 
Q 2766 2663 2505 2880 
Q 2244 3097 1772 3097 
Q 1472 3097 1187 3025 
Q 903 2953 641 2809 
L 641 3341 
Q 956 3463 1253 3523 
Q 1550 3584 1831 3584 
Q 2591 3584 2966 3190 
Q 3341 2797 3341 1997 
z
" transform="scale(0.015625)"/>
      </defs>
      <use xlink:href="#DejaVuSans-50"/>
      <use xlink:href="#DejaVuSans-6f" x="56.677734"/>
      <use xlink:href="#DejaVuSans-73" x="117.859375"/>
      <use xlink:href="#DejaVuSans-69" x="169.958984"/>
      <use xlink:href="#DejaVuSans-74" x="197.742188"/>
      <use xlink:href="#DejaVuSans-69" x="236.951172"/>
      <use xlink:href="#DejaVuSans-6f" x="264.734375"/>
      <use xlink:href="#DejaVuSans-6e" x="325.916016"/>
      <use xlink:href="#DejaVuSans-20" x="389.294922"/>
      <use xlink:href="#DejaVuSans-6f" x="421.082031"/>
      <use xlink:href="#DejaVuSans-66" x="482.263672"/>
      <use xlink:href="#DejaVuSans-20" x="517.46875"/>
      <use xlink:href="#DejaVuSans-50" x="549.255859"/>
      <use xlink:href="#DejaVuSans-65" x="605.933594"/>
      <use xlink:href="#DejaVuSans-64" x="667.457031"/>
      <use xlink:href="#DejaVuSans-65" x="730.933594"/>
      <use xlink:href="#DejaVuSans-73" x="792.457031"/>
      <use xlink:href="#DejaVuSans-74" x="844.556641"/>
      <use xlink:href="#DejaVuSans-72" x="883.765625"/>
      <use xlink:href="#DejaVuSans-69" x="924.878906"/>
      <use xlink:href="#DejaVuSans-61" x="952.662109"/>
      <use xlink:href="#DejaVuSans-6e" x="1013.941406"/>
     </g>
    </g>
    <g id="line2d_7">
     <path d="M 251.1825 248.969937 
L 261.1825 248.969937 
L 271.1825 248.969937 
" style="fill: none; stroke: #6cbea7; stroke-width: 1.5; stroke-linecap: square"/>
    </g>
    <g id="text_2">
     <!-- Voronoi Polygon -->
     <g transform="translate(279.1825 252.469937) scale(0.1 -0.1)">
      <defs>
       <path id="DejaVuSans-56" d="M 1831 0 
L 50 4666 
L 709 4666 
L 2188 738 
L 3669 4666 
L 4325 4666 
L 2547 0 
L 1831 0 
z
" transform="scale(0.015625)"/>
       <path id="DejaVuSans-6c" d="M 603 4863 
L 1178 4863 
L 1178 0 
L 603 0 
L 603 4863 
z
" transform="scale(0.015625)"/>
       <path id="DejaVuSans-79" d="M 2059 -325 
Q 1816 -950 1584 -1140 
Q 1353 -1331 966 -1331 
L 506 -1331 
L 506 -850 
L 844 -850 
Q 1081 -850 1212 -737 
Q 1344 -625 1503 -206 
L 1606 56 
L 191 3500 
L 800 3500 
L 1894 763 
L 2988 3500 
L 3597 3500 
L 2059 -325 
z
" transform="scale(0.015625)"/>
       <path id="DejaVuSans-67" d="M 2906 1791 
Q 2906 2416 2648 2759 
Q 2391 3103 1925 3103 
Q 1463 3103 1205 2759 
Q 947 2416 947 1791 
Q 947 1169 1205 825 
Q 1463 481 1925 481 
Q 2391 481 2648 825 
Q 2906 1169 2906 1791 
z
M 3481 434 
Q 3481 -459 3084 -895 
Q 2688 -1331 1869 -1331 
Q 1566 -1331 1297 -1286 
Q 1028 -1241 775 -1147 
L 775 -588 
Q 1028 -725 1275 -790 
Q 1522 -856 1778 -856 
Q 2344 -856 2625 -561 
Q 2906 -266 2906 331 
L 2906 616 
Q 2728 306 2450 153 
Q 2172 0 1784 0 
Q 1141 0 747 490 
Q 353 981 353 1791 
Q 353 2603 747 3093 
Q 1141 3584 1784 3584 
Q 2172 3584 2450 3431 
Q 2728 3278 2906 2969 
L 2906 3500 
L 3481 3500 
L 3481 434 
z
" transform="scale(0.015625)"/>
      </defs>
      <use xlink:href="#DejaVuSans-56"/>
      <use xlink:href="#DejaVuSans-6f" x="60.658203"/>
      <use xlink:href="#DejaVuSans-72" x="121.839844"/>
      <use xlink:href="#DejaVuSans-6f" x="160.703125"/>
      <use xlink:href="#DejaVuSans-6e" x="221.884766"/>
      <use xlink:href="#DejaVuSans-6f" x="285.263672"/>
      <use xlink:href="#DejaVuSans-69" x="346.445312"/>
      <use xlink:href="#DejaVuSans-20" x="374.228516"/>
      <use xlink:href="#DejaVuSans-50" x="406.015625"/>
      <use xlink:href="#DejaVuSans-6f" x="462.693359"/>
      <use xlink:href="#DejaVuSans-6c" x="523.875"/>
      <use xlink:href="#DejaVuSans-79" x="551.658203"/>
      <use xlink:href="#DejaVuSans-67" x="610.837891"/>
      <use xlink:href="#DejaVuSans-6f" x="674.314453"/>
      <use xlink:href="#DejaVuSans-6e" x="735.496094"/>
     </g>
    </g>
    <g id="patch_4">
     <path d="M 251.1825 267.148062 
L 271.1825 267.148062 
L 271.1825 260.148062 
L 251.1825 260.148062 
z
" style="fill: #bfbf00; stroke: #bfbf00; stroke-linejoin: miter"/>
    </g>
    <g id="text_3">
     <!-- velocity in main direction -->
     <g transform="translate(279.1825 267.148062) scale(0.1 -0.1)">
      <defs>
       <path id="DejaVuSans-76" d="M 191 3500 
L 800 3500 
L 1894 563 
L 2988 3500 
L 3597 3500 
L 2284 0 
L 1503 0 
L 191 3500 
z
" transform="scale(0.015625)"/>
       <path id="DejaVuSans-63" d="M 3122 3366 
L 3122 2828 
Q 2878 2963 2633 3030 
Q 2388 3097 2138 3097 
Q 1578 3097 1268 2742 
Q 959 2388 959 1747 
Q 959 1106 1268 751 
Q 1578 397 2138 397 
Q 2388 397 2633 464 
Q 2878 531 3122 666 
L 3122 134 
Q 2881 22 2623 -34 
Q 2366 -91 2075 -91 
Q 1284 -91 818 406 
Q 353 903 353 1747 
Q 353 2603 823 3093 
Q 1294 3584 2113 3584 
Q 2378 3584 2631 3529 
Q 2884 3475 3122 3366 
z
" transform="scale(0.015625)"/>
       <path id="DejaVuSans-6d" d="M 3328 2828 
Q 3544 3216 3844 3400 
Q 4144 3584 4550 3584 
Q 5097 3584 5394 3201 
Q 5691 2819 5691 2113 
L 5691 0 
L 5113 0 
L 5113 2094 
Q 5113 2597 4934 2840 
Q 4756 3084 4391 3084 
Q 3944 3084 3684 2787 
Q 3425 2491 3425 1978 
L 3425 0 
L 2847 0 
L 2847 2094 
Q 2847 2600 2669 2842 
Q 2491 3084 2119 3084 
Q 1678 3084 1418 2786 
Q 1159 2488 1159 1978 
L 1159 0 
L 581 0 
L 581 3500 
L 1159 3500 
L 1159 2956 
Q 1356 3278 1631 3431 
Q 1906 3584 2284 3584 
Q 2666 3584 2933 3390 
Q 3200 3197 3328 2828 
z
" transform="scale(0.015625)"/>
      </defs>
      <use xlink:href="#DejaVuSans-76"/>
      <use xlink:href="#DejaVuSans-65" x="59.179688"/>
      <use xlink:href="#DejaVuSans-6c" x="120.703125"/>
      <use xlink:href="#DejaVuSans-6f" x="148.486328"/>
      <use xlink:href="#DejaVuSans-63" x="209.667969"/>
      <use xlink:href="#DejaVuSans-69" x="264.648438"/>
      <use xlink:href="#DejaVuSans-74" x="292.431641"/>
      <use xlink:href="#DejaVuSans-79" x="331.640625"/>
      <use xlink:href="#DejaVuSans-20" x="390.820312"/>
      <use xlink:href="#DejaVuSans-69" x="422.607422"/>
      <use xlink:href="#DejaVuSans-6e" x="450.390625"/>
      <use xlink:href="#DejaVuSans-20" x="513.769531"/>
      <use xlink:href="#DejaVuSans-6d" x="545.556641"/>
      <use xlink:href="#DejaVuSans-61" x="642.96875"/>
      <use xlink:href="#DejaVuSans-69" x="704.248047"/>
      <use xlink:href="#DejaVuSans-6e" x="732.03125"/>
      <use xlink:href="#DejaVuSans-20" x="795.410156"/>
      <use xlink:href="#DejaVuSans-64" x="827.197266"/>
      <use xlink:href="#DejaVuSans-69" x="890.673828"/>
      <use xlink:href="#DejaVuSans-72" x="918.457031"/>
      <use xlink:href="#DejaVuSans-65" x="957.320312"/>
      <use xlink:href="#DejaVuSans-63" x="1018.84375"/>
      <use xlink:href="#DejaVuSans-74" x="1073.824219"/>
      <use xlink:href="#DejaVuSans-69" x="1113.033203"/>
      <use xlink:href="#DejaVuSans-6f" x="1140.816406"/>
      <use xlink:href="#DejaVuSans-6e" x="1201.998047"/>
     </g>
    </g>
    <g id="line2d_8">
     <path d="M 251.1825 278.326188 
L 261.1825 278.326188 
L 271.1825 278.326188 
" style="fill: none; stroke: #e97586; stroke-width: 1.5; stroke-linecap: square"/>
    </g>
    <g id="text_4">
     <!-- trajectory -->
     <g transform="translate(279.1825 281.826188) scale(0.1 -0.1)">
      <defs>
       <path id="DejaVuSans-6a" d="M 603 3500 
L 1178 3500 
L 1178 -63 
Q 1178 -731 923 -1031 
Q 669 -1331 103 -1331 
L -116 -1331 
L -116 -844 
L 38 -844 
Q 366 -844 484 -692 
Q 603 -541 603 -63 
L 603 3500 
z
M 603 4863 
L 1178 4863 
L 1178 4134 
L 603 4134 
L 603 4863 
z
" transform="scale(0.015625)"/>
      </defs>
      <use xlink:href="#DejaVuSans-74"/>
      <use xlink:href="#DejaVuSans-72" x="39.208984"/>
      <use xlink:href="#DejaVuSans-61" x="80.322266"/>
      <use xlink:href="#DejaVuSans-6a" x="141.601562"/>
      <use xlink:href="#DejaVuSans-65" x="169.384766"/>
      <use xlink:href="#DejaVuSans-63" x="230.908203"/>
      <use xlink:href="#DejaVuSans-74" x="285.888672"/>
      <use xlink:href="#DejaVuSans-6f" x="325.097656"/>
      <use xlink:href="#DejaVuSans-72" x="386.279297"/>
      <use xlink:href="#DejaVuSans-79" x="427.392578"/>
     </g>
    </g>
    <g id="line2d_9">
     <path d="M 251.1825 293.004312 
L 261.1825 293.004312 
L 271.1825 293.004312 
" style="fill: none; stroke: #59b2d8; stroke-width: 1.5; stroke-linecap: square"/>
    </g>
    <g id="text_5">
     <!-- measurement line -->
     <g transform="translate(279.1825 296.504312) scale(0.1 -0.1)">
      <defs>
       <path id="DejaVuSans-75" d="M 544 1381 
L 544 3500 
L 1119 3500 
L 1119 1403 
Q 1119 906 1312 657 
Q 1506 409 1894 409 
Q 2359 409 2629 706 
Q 2900 1003 2900 1516 
L 2900 3500 
L 3475 3500 
L 3475 0 
L 2900 0 
L 2900 538 
Q 2691 219 2414 64 
Q 2138 -91 1772 -91 
Q 1169 -91 856 284 
Q 544 659 544 1381 
z
M 1991 3584 
L 1991 3584 
z
" transform="scale(0.015625)"/>
      </defs>
      <use xlink:href="#DejaVuSans-6d"/>
      <use xlink:href="#DejaVuSans-65" x="97.412109"/>
      <use xlink:href="#DejaVuSans-61" x="158.935547"/>
      <use xlink:href="#DejaVuSans-73" x="220.214844"/>
      <use xlink:href="#DejaVuSans-75" x="272.314453"/>
      <use xlink:href="#DejaVuSans-72" x="335.693359"/>
      <use xlink:href="#DejaVuSans-65" x="374.556641"/>
      <use xlink:href="#DejaVuSans-6d" x="436.080078"/>
      <use xlink:href="#DejaVuSans-65" x="533.492188"/>
      <use xlink:href="#DejaVuSans-6e" x="595.015625"/>
      <use xlink:href="#DejaVuSans-74" x="658.394531"/>
      <use xlink:href="#DejaVuSans-20" x="697.603516"/>
      <use xlink:href="#DejaVuSans-6c" x="729.390625"/>
      <use xlink:href="#DejaVuSans-69" x="757.173828"/>
      <use xlink:href="#DejaVuSans-6e" x="784.957031"/>
      <use xlink:href="#DejaVuSans-65" x="848.335938"/>
     </g>
    </g>
   </g>
  </g>
 </g>
 <defs>
  <clipPath id="pd47eb569cd">
   <rect x="57.6" y="41.472" width="357.12" height="266.112"/>
  </clipPath>
 </defs>
</svg>
