<?xml version="1.0" encoding="utf-8" standalone="no"?>
<!DOCTYPE svg PUBLIC "-//W3C//DTD SVG 1.1//EN"
  "http://www.w3.org/Graphics/SVG/1.1/DTD/svg11.dtd">
<svg xmlns:xlink="http://www.w3.org/1999/xlink" width="1116pt" height="339.202268pt" viewBox="0 0 1116 339.202268" xmlns="http://www.w3.org/2000/svg" version="1.1">
 <metadata>
  <rdf:RDF xmlns:dc="http://purl.org/dc/elements/1.1/" xmlns:cc="http://creativecommons.org/ns#" xmlns:rdf="http://www.w3.org/1999/02/22-rdf-syntax-ns#">
   <cc:Work>
    <dc:type rdf:resource="http://purl.org/dc/dcmitype/StillImage"/>
    <dc:date>2023-09-04T11:36:27.260220</dc:date>
    <dc:format>image/svg+xml</dc:format>
    <dc:creator>
     <cc:Agent>
      <dc:title>Matplotlib v3.7.2, https://matplotlib.org/</dc:title>
     </cc:Agent>
    </dc:creator>
   </cc:Work>
  </rdf:RDF>
 </metadata>
 <defs>
  <style type="text/css">*{stroke-linejoin: round; stroke-linecap: butt}</style>
 </defs>
 <g id="figure_1">
  <g id="patch_1">
   <path d="M 0 339.202268 
L 1116 339.202268 
L 1116 0 
L 0 0 
z
" style="fill: #ffffff"/>
  </g>
  <g id="axes_1">
   <g id="patch_2">
    <path d="M 629.896643 323.783983 
C 654.430505 312.343656 670.387342 285.124676 674.252847 248.12171 
C 678.118352 211.118743 669.576922 167.352918 650.509709 126.463148 
C 631.442497 85.573379 603.406254 50.898134 572.575639 30.074233 
C 541.745023 9.250333 510.637218 3.977957 486.103357 15.418285 
C 461.569495 26.858613 445.612658 54.077592 441.747153 91.080558 
C 437.881648 128.083525 446.423078 171.84935 465.490291 212.73912 
C 484.557503 253.62889 512.593746 288.304135 543.424361 309.128035 
C 574.254977 329.951935 605.362782 335.224311 629.896643 323.783983 
z
" clip-path="url(#p9b2d80a42d)" style="fill: #808080; opacity: 0.5; stroke: #808080; stroke-linejoin: miter"/>
   </g>
   <g id="patch_3">
    <path d="M 586.758657 231.274274 
C 609.248031 220.787307 627.789131 204.230176 638.298498 185.249397 
C 648.807864 166.268618 650.427452 146.413888 642.800567 130.05798 
C 635.173682 113.702072 618.923025 102.180374 597.627614 98.030407 
C 576.332204 93.880439 551.730716 97.441027 529.241343 107.927994 
C 506.751969 118.414961 488.210869 134.972092 477.701502 153.952871 
C 467.192136 172.93365 465.572548 192.78838 473.199433 209.144288 
C 480.826318 225.500196 497.076975 237.021894 518.372386 241.171862 
C 539.667796 245.321829 564.269284 241.761241 586.758657 231.274274 
z
" clip-path="url(#p9b2d80a42d)" style="opacity: 0.5; stroke: #000000; stroke-linejoin: miter"/>
   </g>
   <g id="PathCollection_1">
    <defs>
     <path id="m31698ea7fb" d="M 0 3 
C 0.795609 3 1.55874 2.683901 2.12132 2.12132 
C 2.683901 1.55874 3 0.795609 3 0 
C 3 -0.795609 2.683901 -1.55874 2.12132 -2.12132 
C 1.55874 -2.683901 0.795609 -3 0 -3 
C -0.795609 -3 -1.55874 -2.683901 -2.12132 -2.12132 
C -2.683901 -1.55874 -3 -0.795609 -3 0 
C -3 0.795609 -2.683901 1.55874 -2.12132 2.12132 
C -1.55874 2.683901 -0.795609 3 0 3 
z
" style="stroke: #ffffff"/>
    </defs>
    <g clip-path="url(#p9b2d80a42d)">
     <use xlink:href="#m31698ea7fb" x="558" y="169.601134" style="fill: #ffffff; stroke: #ffffff"/>
    </g>
   </g>
   <g id="patch_4">
    <path d="M 721.486667 87.857801 
L 698.662412 110.682055 
L 695.619178 104.595588 
L 559.521617 172.644368 
L 556.478383 166.5579 
L 692.575944 98.50912 
L 689.53271 92.422652 
z
" clip-path="url(#p9b2d80a42d)" style="fill: #dca049; stroke: #dca049; stroke-linejoin: miter"/>
   </g>
   <g id="line2d_1">
    <path d="M -1 147.342747 
L 4.209624 141.722618 
L 8.296638 137.641036 
L 12.383652 133.917138 
L 15.108328 131.663151 
L 17.833004 129.611418 
L 20.55768 127.777159 
L 23.282356 126.174243 
L 26.007031 124.815078 
L 28.731707 123.710519 
L 31.456383 122.86978 
L 34.181059 122.300363 
L 36.905735 122.00799 
L 39.630411 121.996564 
L 42.355087 122.268123 
L 45.079763 122.822823 
L 47.804439 123.658926 
L 50.529114 124.772807 
L 53.25379 126.158967 
L 55.978466 127.810071 
L 58.703142 129.716985 
L 61.427818 131.868841 
L 64.152494 134.253101 
L 66.87717 136.855644 
L 70.964184 141.134201 
L 75.051198 145.810013 
L 79.138211 150.818532 
L 84.587563 157.893059 
L 92.761591 168.993653 
L 102.297956 181.939957 
L 107.747308 188.975524 
L 111.834322 193.943692 
L 115.921336 198.570347 
L 120.00835 202.791764 
L 122.733026 205.352244 
L 125.457702 207.69163 
L 128.182377 209.796131 
L 130.907053 211.653562 
L 133.631729 213.253421 
L 136.356405 214.586954 
L 139.081081 215.647215 
L 141.805757 216.429103 
L 144.530433 216.929392 
L 147.255109 217.146744 
L 149.979785 217.081716 
L 152.704461 216.736739 
L 155.429136 216.1161 
L 158.153812 215.225897 
L 160.878488 214.073992 
L 163.603164 212.669942 
L 166.32784 211.024927 
L 169.052516 209.15166 
L 171.777192 207.064286 
L 175.864206 203.565958 
L 179.95122 199.67818 
L 184.038233 195.463289 
L 189.487585 189.449879 
L 196.299275 181.534195 
L 208.560316 167.170969 
L 214.009668 161.142115 
L 218.096682 156.897621 
L 222.183696 152.954421 
L 226.27071 149.363549 
L 230.357724 146.169392 
L 233.082399 144.278997 
L 235.807075 142.590672 
L 238.531751 141.111925 
L 241.256427 139.848639 
L 243.981103 138.805045 
L 246.705779 137.983711 
L 249.430455 137.385539 
L 252.155131 137.009784 
L 254.879807 136.85407 
L 257.604483 136.914437 
L 260.329158 137.185383 
L 263.053834 137.659929 
L 265.77851 138.32969 
L 268.503186 139.184955 
L 271.227862 140.214781 
L 275.314876 142.060122 
L 279.40189 144.225859 
L 283.488904 146.662747 
L 288.938255 150.242479 
L 295.749945 155.063811 
L 309.373325 164.876675 
L 314.822676 168.51521 
L 318.90969 171.03148 
L 322.996704 173.320746 
L 327.083718 175.348745 
L 331.170732 177.087367 
L 335.257746 178.515076 
L 339.344759 179.617224 
L 343.431773 180.386217 
L 347.518787 180.821554 
L 351.605801 180.929734 
L 355.692815 180.724025 
L 359.779829 180.224111 
L 363.866842 179.455619 
L 367.953856 178.449535 
L 372.04087 177.241521 
L 377.490222 175.385569 
L 385.66425 172.285635 
L 396.562953 168.132335 
L 402.012305 166.288478 
L 406.099319 165.089137 
L 410.186333 164.088369 
L 414.273347 163.318545 
L 418.36036 162.806915 
L 422.447374 162.575021 
L 426.534388 162.638221 
L 430.621402 163.00533 
L 434.708416 163.678383 
L 438.79543 164.652531 
L 442.882443 165.916075 
L 446.969457 167.450619 
L 451.056471 169.23137 
L 455.143485 171.227546 
L 460.592837 174.160892 
L 467.404526 178.12302 
L 481.027906 186.180556 
L 486.477258 189.114054 
L 490.564272 191.091746 
L 494.651285 192.82444 
L 498.738299 194.266646 
L 501.462975 195.046117 
L 504.187651 195.666947 
L 506.912327 196.119173 
L 509.637003 196.394018 
L 512.361679 196.48398 
L 515.086355 196.382907 
L 517.811031 196.086066 
L 520.535706 195.590199 
L 523.260382 194.893568 
L 525.985058 193.995991 
L 528.709734 192.898858 
L 531.43441 191.605148 
L 534.159086 190.119419 
L 536.883762 188.447796 
L 540.970776 185.608983 
L 545.057789 182.401629 
L 549.144803 178.865009 
L 553.231817 175.045001 
L 558.681169 169.601134 
L 564.130521 164.157267 
L 568.217535 160.337259 
L 572.304548 156.80064 
L 576.391562 153.593285 
L 580.478576 150.754472 
L 583.203252 149.082849 
L 585.927928 147.59712 
L 588.652604 146.30341 
L 591.37728 145.206278 
L 594.101956 144.3087 
L 596.826632 143.61207 
L 599.551307 143.116202 
L 602.275983 142.819361 
L 605.000659 142.718288 
L 607.725335 142.80825 
L 610.450011 143.083096 
L 613.174687 143.535321 
L 615.899363 144.156151 
L 619.986377 145.381434 
L 624.07339 146.925286 
L 628.160404 148.744879 
L 632.247418 150.793544 
L 637.69677 153.79546 
L 645.870798 158.627966 
L 655.407163 164.269643 
L 660.856515 167.267575 
L 664.943529 169.32776 
L 669.030543 171.18402 
L 673.117557 172.803693 
L 677.20457 174.159938 
L 681.291584 175.232186 
L 685.378598 176.006483 
L 689.465612 176.475686 
L 693.552626 176.639542 
L 697.63964 176.504623 
L 701.726653 176.084141 
L 705.813667 175.397624 
L 709.900681 174.470481 
L 713.987695 173.333445 
L 719.437047 171.55268 
L 726.248737 169.035894 
L 741.234454 163.331124 
L 746.683806 161.53801 
L 750.77082 160.393086 
L 754.857833 159.462453 
L 758.944847 158.780296 
L 763.031861 158.375885 
L 767.118875 158.272926 
L 771.205889 158.489012 
L 775.292903 159.035188 
L 779.379917 159.915638 
L 783.46693 161.127501 
L 787.553944 162.66082 
L 791.640958 164.498626 
L 795.727972 166.617151 
L 799.814986 168.986181 
L 805.264338 172.471215 
L 810.713689 176.236255 
L 821.612393 184.138457 
L 828.424083 188.959789 
L 831.148759 190.79015 
L 831.148759 190.79015 
" clip-path="url(#p9b2d80a42d)" style="fill: none; stroke: #59b2d8; stroke-width: 5; stroke-linecap: square"/>
    <defs>
     <path id="m3e422a0ca8" d="M 0 5 
C 1.326016 5 2.597899 4.473168 3.535534 3.535534 
C 4.473168 2.597899 5 1.326016 5 0 
C 5 -1.326016 4.473168 -2.597899 3.535534 -3.535534 
C 2.597899 -4.473168 1.326016 -5 0 -5 
C -1.326016 -5 -2.597899 -4.473168 -3.535534 -3.535534 
C -4.473168 -2.597899 -5 -1.326016 -5 0 
C -5 1.326016 -4.473168 2.597899 -3.535534 3.535534 
C -2.597899 4.473168 -1.326016 5 0 5 
z
" style="stroke: #59b2d8"/>
    </defs>
    <g clip-path="url(#p9b2d80a42d)">
     <use xlink:href="#m3e422a0ca8" x="-1" y="148.850032" style="fill: #59b2d8; stroke: #59b2d8"/>
     <use xlink:href="#m3e422a0ca8" x="13.74599" y="132.765863" style="fill: #59b2d8; stroke: #59b2d8"/>
     <use xlink:href="#m3e422a0ca8" x="47.804439" y="123.658926" style="fill: #59b2d8; stroke: #59b2d8"/>
     <use xlink:href="#m3e422a0ca8" x="81.862887" y="154.308151" style="fill: #59b2d8; stroke: #59b2d8"/>
     <use xlink:href="#m3e422a0ca8" x="115.921336" y="198.570347" style="fill: #59b2d8; stroke: #59b2d8"/>
     <use xlink:href="#m3e422a0ca8" x="149.979785" y="217.081716" style="fill: #59b2d8; stroke: #59b2d8"/>
     <use xlink:href="#m3e422a0ca8" x="184.038233" y="195.463289" style="fill: #59b2d8; stroke: #59b2d8"/>
     <use xlink:href="#m3e422a0ca8" x="218.096682" y="156.897621" style="fill: #59b2d8; stroke: #59b2d8"/>
     <use xlink:href="#m3e422a0ca8" x="252.155131" y="137.009784" style="fill: #59b2d8; stroke: #59b2d8"/>
     <use xlink:href="#m3e422a0ca8" x="286.213579" y="148.412118" style="fill: #59b2d8; stroke: #59b2d8"/>
     <use xlink:href="#m3e422a0ca8" x="320.272028" y="171.821604" style="fill: #59b2d8; stroke: #59b2d8"/>
     <use xlink:href="#m3e422a0ca8" x="354.330477" y="180.826383" style="fill: #59b2d8; stroke: #59b2d8"/>
     <use xlink:href="#m3e422a0ca8" x="388.388926" y="171.222119" style="fill: #59b2d8; stroke: #59b2d8"/>
     <use xlink:href="#m3e422a0ca8" x="422.447374" y="162.575021" style="fill: #59b2d8; stroke: #59b2d8"/>
     <use xlink:href="#m3e422a0ca8" x="456.505823" y="171.934693" style="fill: #59b2d8; stroke: #59b2d8"/>
     <use xlink:href="#m3e422a0ca8" x="490.564272" y="191.091746" style="fill: #59b2d8; stroke: #59b2d8"/>
     <use xlink:href="#m3e422a0ca8" x="524.62272" y="194.469848" style="fill: #59b2d8; stroke: #59b2d8"/>
     <use xlink:href="#m3e422a0ca8" x="558.681169" y="169.601134" style="fill: #59b2d8; stroke: #59b2d8"/>
     <use xlink:href="#m3e422a0ca8" x="592.739618" y="144.73242" style="fill: #59b2d8; stroke: #59b2d8"/>
     <use xlink:href="#m3e422a0ca8" x="626.798066" y="148.110522" style="fill: #59b2d8; stroke: #59b2d8"/>
     <use xlink:href="#m3e422a0ca8" x="660.856515" y="167.267575" style="fill: #59b2d8; stroke: #59b2d8"/>
     <use xlink:href="#m3e422a0ca8" x="694.914964" y="176.627248" style="fill: #59b2d8; stroke: #59b2d8"/>
     <use xlink:href="#m3e422a0ca8" x="728.973412" y="167.980149" style="fill: #59b2d8; stroke: #59b2d8"/>
     <use xlink:href="#m3e422a0ca8" x="763.031861" y="158.375885" style="fill: #59b2d8; stroke: #59b2d8"/>
     <use xlink:href="#m3e422a0ca8" x="797.09031" y="167.380664" style="fill: #59b2d8; stroke: #59b2d8"/>
     <use xlink:href="#m3e422a0ca8" x="831.148759" y="190.79015" style="fill: #59b2d8; stroke: #59b2d8"/>
    </g>
   </g>
   <g id="line2d_2">
    <path d="M 558.681169 169.601134 
L 218.096682 156.897621 
" clip-path="url(#p9b2d80a42d)" style="fill: none; stroke: #e97586; stroke-width: 5; stroke-linecap: square"/>
    <defs>
     <path id="mb6fefc91b7" d="M 0 5 
C 1.326016 5 2.597899 4.473168 3.535534 3.535534 
C 4.473168 2.597899 5 1.326016 5 0 
C 5 -1.326016 4.473168 -2.597899 3.535534 -3.535534 
C 2.597899 -4.473168 1.326016 -5 0 -5 
C -1.326016 -5 -2.597899 -4.473168 -3.535534 -3.535534 
C -4.473168 -2.597899 -5 -1.326016 -5 0 
C -5 1.326016 -4.473168 2.597899 -3.535534 3.535534 
C -2.597899 4.473168 -1.326016 5 0 5 
z
" style="stroke: #e97586"/>
    </defs>
    <g clip-path="url(#p9b2d80a42d)">
     <use xlink:href="#mb6fefc91b7" x="558.681169" y="169.601134" style="fill: #e97586; stroke: #e97586"/>
     <use xlink:href="#mb6fefc91b7" x="218.096682" y="156.897621" style="fill: #e97586; stroke: #e97586"/>
    </g>
   </g>
   <g id="patch_5">
    <path d="M 388.388926 279.925019 
Q 388.388926 246.405087 388.388926 212.885154 
" style="fill: none; stroke: #000000; stroke-width: 2; stroke-linecap: round"/>
    <path d="M 556.388926 197.885154 
L 556.388926 212.885154 
L 220.388926 212.885154 
L 220.388926 197.885154 
" style="fill: none; stroke: #000000; stroke-width: 2; stroke-linecap: round"/>
   </g>
   <g id="text_1">
    <!-- n frames before current frame -->
    <g transform="translate(160.667832 306.717632) scale(0.3 -0.3)">
     <defs>
      <path id="DejaVuSans-6e" d="M 3513 2113 
L 3513 0 
L 2938 0 
L 2938 2094 
Q 2938 2591 2744 2837 
Q 2550 3084 2163 3084 
Q 1697 3084 1428 2787 
Q 1159 2491 1159 1978 
L 1159 0 
L 581 0 
L 581 3500 
L 1159 3500 
L 1159 2956 
Q 1366 3272 1645 3428 
Q 1925 3584 2291 3584 
Q 2894 3584 3203 3211 
Q 3513 2838 3513 2113 
z
" transform="scale(0.015625)"/>
      <path id="DejaVuSans-20" transform="scale(0.015625)"/>
      <path id="DejaVuSans-66" d="M 2375 4863 
L 2375 4384 
L 1825 4384 
Q 1516 4384 1395 4259 
Q 1275 4134 1275 3809 
L 1275 3500 
L 2222 3500 
L 2222 3053 
L 1275 3053 
L 1275 0 
L 697 0 
L 697 3053 
L 147 3053 
L 147 3500 
L 697 3500 
L 697 3744 
Q 697 4328 969 4595 
Q 1241 4863 1831 4863 
L 2375 4863 
z
" transform="scale(0.015625)"/>
      <path id="DejaVuSans-72" d="M 2631 2963 
Q 2534 3019 2420 3045 
Q 2306 3072 2169 3072 
Q 1681 3072 1420 2755 
Q 1159 2438 1159 1844 
L 1159 0 
L 581 0 
L 581 3500 
L 1159 3500 
L 1159 2956 
Q 1341 3275 1631 3429 
Q 1922 3584 2338 3584 
Q 2397 3584 2469 3576 
Q 2541 3569 2628 3553 
L 2631 2963 
z
" transform="scale(0.015625)"/>
      <path id="DejaVuSans-61" d="M 2194 1759 
Q 1497 1759 1228 1600 
Q 959 1441 959 1056 
Q 959 750 1161 570 
Q 1363 391 1709 391 
Q 2188 391 2477 730 
Q 2766 1069 2766 1631 
L 2766 1759 
L 2194 1759 
z
M 3341 1997 
L 3341 0 
L 2766 0 
L 2766 531 
Q 2569 213 2275 61 
Q 1981 -91 1556 -91 
Q 1019 -91 701 211 
Q 384 513 384 1019 
Q 384 1609 779 1909 
Q 1175 2209 1959 2209 
L 2766 2209 
L 2766 2266 
Q 2766 2663 2505 2880 
Q 2244 3097 1772 3097 
Q 1472 3097 1187 3025 
Q 903 2953 641 2809 
L 641 3341 
Q 956 3463 1253 3523 
Q 1550 3584 1831 3584 
Q 2591 3584 2966 3190 
Q 3341 2797 3341 1997 
z
" transform="scale(0.015625)"/>
      <path id="DejaVuSans-6d" d="M 3328 2828 
Q 3544 3216 3844 3400 
Q 4144 3584 4550 3584 
Q 5097 3584 5394 3201 
Q 5691 2819 5691 2113 
L 5691 0 
L 5113 0 
L 5113 2094 
Q 5113 2597 4934 2840 
Q 4756 3084 4391 3084 
Q 3944 3084 3684 2787 
Q 3425 2491 3425 1978 
L 3425 0 
L 2847 0 
L 2847 2094 
Q 2847 2600 2669 2842 
Q 2491 3084 2119 3084 
Q 1678 3084 1418 2786 
Q 1159 2488 1159 1978 
L 1159 0 
L 581 0 
L 581 3500 
L 1159 3500 
L 1159 2956 
Q 1356 3278 1631 3431 
Q 1906 3584 2284 3584 
Q 2666 3584 2933 3390 
Q 3200 3197 3328 2828 
z
" transform="scale(0.015625)"/>
      <path id="DejaVuSans-65" d="M 3597 1894 
L 3597 1613 
L 953 1613 
Q 991 1019 1311 708 
Q 1631 397 2203 397 
Q 2534 397 2845 478 
Q 3156 559 3463 722 
L 3463 178 
Q 3153 47 2828 -22 
Q 2503 -91 2169 -91 
Q 1331 -91 842 396 
Q 353 884 353 1716 
Q 353 2575 817 3079 
Q 1281 3584 2069 3584 
Q 2775 3584 3186 3129 
Q 3597 2675 3597 1894 
z
M 3022 2063 
Q 3016 2534 2758 2815 
Q 2500 3097 2075 3097 
Q 1594 3097 1305 2825 
Q 1016 2553 972 2059 
L 3022 2063 
z
" transform="scale(0.015625)"/>
      <path id="DejaVuSans-73" d="M 2834 3397 
L 2834 2853 
Q 2591 2978 2328 3040 
Q 2066 3103 1784 3103 
Q 1356 3103 1142 2972 
Q 928 2841 928 2578 
Q 928 2378 1081 2264 
Q 1234 2150 1697 2047 
L 1894 2003 
Q 2506 1872 2764 1633 
Q 3022 1394 3022 966 
Q 3022 478 2636 193 
Q 2250 -91 1575 -91 
Q 1294 -91 989 -36 
Q 684 19 347 128 
L 347 722 
Q 666 556 975 473 
Q 1284 391 1588 391 
Q 1994 391 2212 530 
Q 2431 669 2431 922 
Q 2431 1156 2273 1281 
Q 2116 1406 1581 1522 
L 1381 1569 
Q 847 1681 609 1914 
Q 372 2147 372 2553 
Q 372 3047 722 3315 
Q 1072 3584 1716 3584 
Q 2034 3584 2315 3537 
Q 2597 3491 2834 3397 
z
" transform="scale(0.015625)"/>
      <path id="DejaVuSans-62" d="M 3116 1747 
Q 3116 2381 2855 2742 
Q 2594 3103 2138 3103 
Q 1681 3103 1420 2742 
Q 1159 2381 1159 1747 
Q 1159 1113 1420 752 
Q 1681 391 2138 391 
Q 2594 391 2855 752 
Q 3116 1113 3116 1747 
z
M 1159 2969 
Q 1341 3281 1617 3432 
Q 1894 3584 2278 3584 
Q 2916 3584 3314 3078 
Q 3713 2572 3713 1747 
Q 3713 922 3314 415 
Q 2916 -91 2278 -91 
Q 1894 -91 1617 61 
Q 1341 213 1159 525 
L 1159 0 
L 581 0 
L 581 4863 
L 1159 4863 
L 1159 2969 
z
" transform="scale(0.015625)"/>
      <path id="DejaVuSans-6f" d="M 1959 3097 
Q 1497 3097 1228 2736 
Q 959 2375 959 1747 
Q 959 1119 1226 758 
Q 1494 397 1959 397 
Q 2419 397 2687 759 
Q 2956 1122 2956 1747 
Q 2956 2369 2687 2733 
Q 2419 3097 1959 3097 
z
M 1959 3584 
Q 2709 3584 3137 3096 
Q 3566 2609 3566 1747 
Q 3566 888 3137 398 
Q 2709 -91 1959 -91 
Q 1206 -91 779 398 
Q 353 888 353 1747 
Q 353 2609 779 3096 
Q 1206 3584 1959 3584 
z
" transform="scale(0.015625)"/>
      <path id="DejaVuSans-63" d="M 3122 3366 
L 3122 2828 
Q 2878 2963 2633 3030 
Q 2388 3097 2138 3097 
Q 1578 3097 1268 2742 
Q 959 2388 959 1747 
Q 959 1106 1268 751 
Q 1578 397 2138 397 
Q 2388 397 2633 464 
Q 2878 531 3122 666 
L 3122 134 
Q 2881 22 2623 -34 
Q 2366 -91 2075 -91 
Q 1284 -91 818 406 
Q 353 903 353 1747 
Q 353 2603 823 3093 
Q 1294 3584 2113 3584 
Q 2378 3584 2631 3529 
Q 2884 3475 3122 3366 
z
" transform="scale(0.015625)"/>
      <path id="DejaVuSans-75" d="M 544 1381 
L 544 3500 
L 1119 3500 
L 1119 1403 
Q 1119 906 1312 657 
Q 1506 409 1894 409 
Q 2359 409 2629 706 
Q 2900 1003 2900 1516 
L 2900 3500 
L 3475 3500 
L 3475 0 
L 2900 0 
L 2900 538 
Q 2691 219 2414 64 
Q 2138 -91 1772 -91 
Q 1169 -91 856 284 
Q 544 659 544 1381 
z
M 1991 3584 
L 1991 3584 
z
" transform="scale(0.015625)"/>
      <path id="DejaVuSans-74" d="M 1172 4494 
L 1172 3500 
L 2356 3500 
L 2356 3053 
L 1172 3053 
L 1172 1153 
Q 1172 725 1289 603 
Q 1406 481 1766 481 
L 2356 481 
L 2356 0 
L 1766 0 
Q 1100 0 847 248 
Q 594 497 594 1153 
L 594 3053 
L 172 3053 
L 172 3500 
L 594 3500 
L 594 4494 
L 1172 4494 
z
" transform="scale(0.015625)"/>
     </defs>
     <use xlink:href="#DejaVuSans-6e"/>
     <use xlink:href="#DejaVuSans-20" x="63.378906"/>
     <use xlink:href="#DejaVuSans-66" x="95.166016"/>
     <use xlink:href="#DejaVuSans-72" x="130.371094"/>
     <use xlink:href="#DejaVuSans-61" x="171.484375"/>
     <use xlink:href="#DejaVuSans-6d" x="232.763672"/>
     <use xlink:href="#DejaVuSans-65" x="330.175781"/>
     <use xlink:href="#DejaVuSans-73" x="391.699219"/>
     <use xlink:href="#DejaVuSans-20" x="443.798828"/>
     <use xlink:href="#DejaVuSans-62" x="475.585938"/>
     <use xlink:href="#DejaVuSans-65" x="539.0625"/>
     <use xlink:href="#DejaVuSans-66" x="600.585938"/>
     <use xlink:href="#DejaVuSans-6f" x="635.791016"/>
     <use xlink:href="#DejaVuSans-72" x="696.972656"/>
     <use xlink:href="#DejaVuSans-65" x="735.835938"/>
     <use xlink:href="#DejaVuSans-20" x="797.359375"/>
     <use xlink:href="#DejaVuSans-63" x="829.146484"/>
     <use xlink:href="#DejaVuSans-75" x="884.126953"/>
     <use xlink:href="#DejaVuSans-72" x="947.505859"/>
     <use xlink:href="#DejaVuSans-72" x="986.869141"/>
     <use xlink:href="#DejaVuSans-65" x="1025.732422"/>
     <use xlink:href="#DejaVuSans-6e" x="1087.255859"/>
     <use xlink:href="#DejaVuSans-74" x="1150.634766"/>
     <use xlink:href="#DejaVuSans-20" x="1189.84375"/>
     <use xlink:href="#DejaVuSans-66" x="1221.630859"/>
     <use xlink:href="#DejaVuSans-72" x="1256.835938"/>
     <use xlink:href="#DejaVuSans-61" x="1297.949219"/>
     <use xlink:href="#DejaVuSans-6d" x="1359.228516"/>
     <use xlink:href="#DejaVuSans-65" x="1456.640625"/>
    </g>
   </g>
   <g id="patch_6">
    <path d="M 188.432342 118.065119 
Q 196.740558 124.785873 203.640947 133.303374 
L 207.137491 130.470676 
Q 209.169115 138.963889 209.927569 147.469268 
Q 202.719237 142.860392 195.482344 139.913004 
L 198.978888 137.080306 
Q 192.476044 129.053514 184.65883 122.729945 
L 188.432342 118.065119 
z
" style="fill: #62bebe; stroke: #62bebe; stroke-linecap: round"/>
   </g>
   <g id="text_2">
    <!-- $X_{past}$ -->
    <g transform="translate(116.257317 107.852354) scale(0.3 -0.3)">
     <defs>
      <path id="DejaVuSans-Oblique-58" d="M 878 4666 
L 1516 4666 
L 2316 2981 
L 3763 4666 
L 4500 4666 
L 2578 2438 
L 3738 0 
L 3103 0 
L 2163 1966 
L 459 0 
L -275 0 
L 1906 2509 
L 878 4666 
z
" transform="scale(0.015625)"/>
      <path id="DejaVuSans-Oblique-70" d="M 3175 2156 
Q 3175 2616 2975 2859 
Q 2775 3103 2400 3103 
Q 2144 3103 1911 2972 
Q 1678 2841 1497 2591 
Q 1319 2344 1212 1994 
Q 1106 1644 1106 1300 
Q 1106 863 1306 627 
Q 1506 391 1875 391 
Q 2147 391 2380 519 
Q 2613 647 2778 891 
Q 2956 1147 3065 1494 
Q 3175 1841 3175 2156 
z
M 1394 2969 
Q 1625 3272 1939 3428 
Q 2253 3584 2638 3584 
Q 3175 3584 3472 3232 
Q 3769 2881 3769 2247 
Q 3769 1728 3584 1258 
Q 3400 788 3053 416 
Q 2822 169 2531 39 
Q 2241 -91 1919 -91 
Q 1547 -91 1294 64 
Q 1041 219 916 525 
L 556 -1331 
L -19 -1331 
L 922 3500 
L 1497 3500 
L 1394 2969 
z
" transform="scale(0.015625)"/>
      <path id="DejaVuSans-Oblique-61" d="M 3438 1997 
L 3047 0 
L 2472 0 
L 2578 531 
Q 2325 219 2001 64 
Q 1678 -91 1281 -91 
Q 834 -91 548 182 
Q 263 456 263 884 
Q 263 1497 752 1853 
Q 1241 2209 2100 2209 
L 2900 2209 
L 2931 2363 
Q 2938 2388 2941 2417 
Q 2944 2447 2944 2509 
Q 2944 2788 2717 2942 
Q 2491 3097 2081 3097 
Q 1800 3097 1504 3025 
Q 1209 2953 897 2809 
L 997 3341 
Q 1322 3463 1633 3523 
Q 1944 3584 2234 3584 
Q 2853 3584 3176 3315 
Q 3500 3047 3500 2534 
Q 3500 2431 3484 2292 
Q 3469 2153 3438 1997 
z
M 2816 1759 
L 2241 1759 
Q 1534 1759 1195 1570 
Q 856 1381 856 984 
Q 856 709 1029 553 
Q 1203 397 1509 397 
Q 1978 397 2328 733 
Q 2678 1069 2791 1631 
L 2816 1759 
z
" transform="scale(0.015625)"/>
      <path id="DejaVuSans-Oblique-73" d="M 3200 3397 
L 3091 2853 
Q 2863 2978 2609 3040 
Q 2356 3103 2088 3103 
Q 1634 3103 1373 2948 
Q 1113 2794 1113 2528 
Q 1113 2219 1719 2053 
Q 1766 2041 1788 2034 
L 1972 1978 
Q 2547 1819 2739 1644 
Q 2931 1469 2931 1166 
Q 2931 609 2489 259 
Q 2047 -91 1331 -91 
Q 1053 -91 747 -37 
Q 441 16 72 128 
L 184 722 
Q 500 559 806 475 
Q 1113 391 1394 391 
Q 1816 391 2080 572 
Q 2344 753 2344 1031 
Q 2344 1331 1650 1516 
L 1591 1531 
L 1394 1581 
Q 956 1697 753 1886 
Q 550 2075 550 2369 
Q 550 2928 970 3256 
Q 1391 3584 2113 3584 
Q 2397 3584 2667 3537 
Q 2938 3491 3200 3397 
z
" transform="scale(0.015625)"/>
      <path id="DejaVuSans-Oblique-74" d="M 2706 3500 
L 2619 3053 
L 1472 3053 
L 1100 1153 
Q 1081 1047 1072 975 
Q 1063 903 1063 863 
Q 1063 663 1183 572 
Q 1303 481 1569 481 
L 2150 481 
L 2053 0 
L 1503 0 
Q 991 0 739 200 
Q 488 400 488 806 
Q 488 878 497 964 
Q 506 1050 525 1153 
L 897 3053 
L 409 3053 
L 500 3500 
L 978 3500 
L 1172 4494 
L 1747 4494 
L 1556 3500 
L 2706 3500 
z
" transform="scale(0.015625)"/>
     </defs>
     <use xlink:href="#DejaVuSans-Oblique-58" transform="translate(0 0.09375)"/>
     <use xlink:href="#DejaVuSans-Oblique-70" transform="translate(68.505859 -16.3125) scale(0.7)"/>
     <use xlink:href="#DejaVuSans-Oblique-61" transform="translate(112.939453 -16.3125) scale(0.7)"/>
     <use xlink:href="#DejaVuSans-Oblique-73" transform="translate(155.834961 -16.3125) scale(0.7)"/>
     <use xlink:href="#DejaVuSans-Oblique-74" transform="translate(192.304688 -16.3125) scale(0.7)"/>
    </g>
   </g>
   <g id="patch_7">
    <path d="M 407.839672 45.835953 
Q 488.832594 76.486469 543.502956 147.265136 
L 547.06428 144.514323 
Q 548.74138 152.822863 550.043472 161.159013 
Q 542.614669 157.15457 535.1932 153.683699 
L 538.754524 150.932887 
Q 485.121639 81.497383 405.716044 51.447566 
L 407.839672 45.835953 
z
" style="fill: #62bebe; stroke: #62bebe; stroke-linecap: round"/>
   </g>
   <g id="text_3">
    <!-- $X_{current}$ -->
    <g transform="translate(304.803659 41.781698) scale(0.3 -0.3)">
     <defs>
      <path id="DejaVuSans-Oblique-63" d="M 3431 3366 
L 3316 2797 
Q 3109 2947 2876 3022 
Q 2644 3097 2394 3097 
Q 2119 3097 1870 3000 
Q 1622 2903 1453 2725 
Q 1184 2453 1037 2087 
Q 891 1722 891 1331 
Q 891 859 1127 628 
Q 1363 397 1844 397 
Q 2081 397 2348 469 
Q 2616 541 2906 684 
L 2797 116 
Q 2547 13 2283 -39 
Q 2019 -91 1741 -91 
Q 1044 -91 669 257 
Q 294 606 294 1253 
Q 294 1797 489 2255 
Q 684 2713 1069 3078 
Q 1331 3328 1684 3456 
Q 2038 3584 2456 3584 
Q 2700 3584 2940 3529 
Q 3181 3475 3431 3366 
z
" transform="scale(0.015625)"/>
      <path id="DejaVuSans-Oblique-75" d="M 428 1388 
L 838 3500 
L 1416 3500 
L 1006 1409 
Q 975 1256 961 1147 
Q 947 1038 947 966 
Q 947 700 1109 554 
Q 1272 409 1569 409 
Q 2031 409 2368 721 
Q 2706 1034 2809 1563 
L 3194 3500 
L 3769 3500 
L 3091 0 
L 2516 0 
L 2631 550 
Q 2388 244 2052 76 
Q 1716 -91 1338 -91 
Q 878 -91 622 161 
Q 366 413 366 863 
Q 366 956 381 1097 
Q 397 1238 428 1388 
z
" transform="scale(0.015625)"/>
      <path id="DejaVuSans-Oblique-72" d="M 2853 2969 
Q 2766 3016 2653 3041 
Q 2541 3066 2413 3066 
Q 1953 3066 1609 2717 
Q 1266 2369 1153 1784 
L 800 0 
L 225 0 
L 909 3500 
L 1484 3500 
L 1375 2956 
Q 1603 3259 1920 3421 
Q 2238 3584 2597 3584 
Q 2691 3584 2781 3573 
Q 2872 3563 2963 3538 
L 2853 2969 
z
" transform="scale(0.015625)"/>
      <path id="DejaVuSans-Oblique-65" d="M 3078 2063 
Q 3088 2113 3092 2166 
Q 3097 2219 3097 2272 
Q 3097 2653 2873 2875 
Q 2650 3097 2266 3097 
Q 1838 3097 1509 2826 
Q 1181 2556 1013 2059 
L 3078 2063 
z
M 3578 1613 
L 903 1613 
Q 884 1494 878 1425 
Q 872 1356 872 1306 
Q 872 872 1139 634 
Q 1406 397 1894 397 
Q 2269 397 2603 481 
Q 2938 566 3225 728 
L 3116 159 
Q 2806 34 2476 -28 
Q 2147 -91 1806 -91 
Q 1078 -91 686 257 
Q 294 606 294 1247 
Q 294 1794 489 2264 
Q 684 2734 1063 3103 
Q 1306 3334 1642 3459 
Q 1978 3584 2356 3584 
Q 2950 3584 3301 3228 
Q 3653 2872 3653 2272 
Q 3653 2128 3634 1964 
Q 3616 1800 3578 1613 
z
" transform="scale(0.015625)"/>
      <path id="DejaVuSans-Oblique-6e" d="M 3566 2113 
L 3156 0 
L 2578 0 
L 2988 2091 
Q 3016 2238 3031 2350 
Q 3047 2463 3047 2528 
Q 3047 2791 2881 2937 
Q 2716 3084 2419 3084 
Q 1956 3084 1622 2776 
Q 1288 2469 1184 1941 
L 800 0 
L 225 0 
L 903 3500 
L 1478 3500 
L 1363 2950 
Q 1603 3253 1940 3418 
Q 2278 3584 2650 3584 
Q 3113 3584 3367 3334 
Q 3622 3084 3622 2631 
Q 3622 2519 3608 2391 
Q 3594 2263 3566 2113 
z
" transform="scale(0.015625)"/>
     </defs>
     <use xlink:href="#DejaVuSans-Oblique-58" transform="translate(0 0.09375)"/>
     <use xlink:href="#DejaVuSans-Oblique-63" transform="translate(68.505859 -16.3125) scale(0.7)"/>
     <use xlink:href="#DejaVuSans-Oblique-75" transform="translate(106.992188 -16.3125) scale(0.7)"/>
     <use xlink:href="#DejaVuSans-Oblique-72" transform="translate(151.357422 -16.3125) scale(0.7)"/>
     <use xlink:href="#DejaVuSans-Oblique-72" transform="translate(180.136719 -16.3125) scale(0.7)"/>
     <use xlink:href="#DejaVuSans-Oblique-65" transform="translate(208.916016 -16.3125) scale(0.7)"/>
     <use xlink:href="#DejaVuSans-Oblique-6e" transform="translate(251.982422 -16.3125) scale(0.7)"/>
     <use xlink:href="#DejaVuSans-Oblique-74" transform="translate(296.347656 -16.3125) scale(0.7)"/>
    </g>
   </g>
  </g>
 </g>
 <defs>
  <clipPath id="p9b2d80a42d">
   <rect x="0" y="-0" width="1116" height="339.202268"/>
  </clipPath>
 </defs>
</svg>
