<?xml version="1.0" encoding="utf-8" standalone="no"?>
<!DOCTYPE svg PUBLIC "-//W3C//DTD SVG 1.1//EN"
  "http://www.w3.org/Graphics/SVG/1.1/DTD/svg11.dtd">
<svg xmlns:xlink="http://www.w3.org/1999/xlink" width="1116pt" height="457.618798pt" viewBox="0 0 1116 457.618798" xmlns="http://www.w3.org/2000/svg" version="1.1">
 <metadata>
  <rdf:RDF xmlns:dc="http://purl.org/dc/elements/1.1/" xmlns:cc="http://creativecommons.org/ns#" xmlns:rdf="http://www.w3.org/1999/02/22-rdf-syntax-ns#">
   <cc:Work>
    <dc:type rdf:resource="http://purl.org/dc/dcmitype/StillImage"/>
    <dc:date>2023-08-23T13:44:24.827807</dc:date>
    <dc:format>image/svg+xml</dc:format>
    <dc:creator>
     <cc:Agent>
      <dc:title>Matplotlib v3.7.2, https://matplotlib.org/</dc:title>
     </cc:Agent>
    </dc:creator>
   </cc:Work>
  </rdf:RDF>
 </metadata>
 <defs>
  <style type="text/css">*{stroke-linejoin: round; stroke-linecap: butt}</style>
 </defs>
 <g id="figure_1">
  <g id="patch_1">
   <path d="M 0 457.618798
L 1116 457.618798
L 1116 -0
L 0 -0
z
" style="fill: #ffffff"/>
  </g>
  <g id="axes_1">
   <g id="patch_2">
    <path d="M 629.896643 329.166553
C 654.430505 317.726225 670.387342 290.507246 674.252847 253.504279
C 678.118352 216.501313 669.576922 172.735487 650.509709 131.845718
C 631.442497 90.955948 603.406254 56.280703 572.575639 35.456803
C 541.745023 14.632903 510.637218 9.360527 486.103357 20.800854
C 461.569495 32.241182 445.612658 59.460161 441.747153 96.463128
C 437.881648 133.466094 446.423078 177.23192 465.490291 218.12169
C 484.557503 259.011459 512.593746 293.686704 543.424361 314.510604
C 574.254977 335.334504 605.362782 340.60688 629.896643 329.166553
z
" clip-path="url(#p1f08e14279)" style="fill: #808080; opacity: 0.5; stroke: #808080; stroke-linejoin: miter"/>
   </g>
   <g id="patch_3">
    <path d="M 586.758657 236.656843
C 609.248031 226.169876 627.789131 209.612745 638.298498 190.631967
C 648.807864 171.651188 650.427452 151.796458 642.800567 135.44055
C 635.173682 119.084642 618.923025 107.562944 597.627614 103.412976
C 576.332204 99.263008 551.730716 102.823597 529.241343 113.310564
C 506.751969 123.797531 488.210869 140.354662 477.701502 159.335441
C 467.192136 178.316219 465.572548 198.17095 473.199433 214.526857
C 480.826318 230.882765 497.076975 242.404463 518.372386 246.554431
C 539.667796 250.704399 564.269284 247.14381 586.758657 236.656843
z
" clip-path="url(#p1f08e14279)" style="opacity: 0.5; stroke: #000000; stroke-linejoin: miter"/>
   </g>
   <g id="PathCollection_1">
    <defs>
     <path id="m94876f21de" d="M 0 3
C 0.795609 3 1.55874 2.683901 2.12132 2.12132
C 2.683901 1.55874 3 0.795609 3 0
C 3 -0.795609 2.683901 -1.55874 2.12132 -2.12132
C 1.55874 -2.683901 0.795609 -3 0 -3
C -0.795609 -3 -1.55874 -2.683901 -2.12132 -2.12132
C -2.683901 -1.55874 -3 -0.795609 -3 0
C -3 0.795609 -2.683901 1.55874 -2.12132 2.12132
C -1.55874 2.683901 -0.795609 3 0 3
z
" style="stroke: #ffffff"/>
    </defs>
    <g clip-path="url(#p1f08e14279)">
     <use xlink:href="#m94876f21de" x="558" y="174.983704" style="fill: #ffffff; stroke: #ffffff"/>
    </g>
   </g>
   <g id="patch_4">
    <path d="M 963.75758 123.818103
L 934.586503 137.636261
L 933.76761 130.880835
L 150.389231 225.841998
L 149.570338 219.086573
L 932.948717 124.125409
L 932.129823 117.369983
z
" clip-path="url(#p1f08e14279)" style="fill: #dca049; stroke: #dca049; stroke-linejoin: miter"/>
   </g>
   <g id="patch_5">
    <path d="M 963.980114 426.610627
L 933.358163 436.817944
L 933.358163 430.013066
L 149.979785 430.013066
L 149.979785 423.208188
L 933.358163 423.208188
L 933.358163 416.40331
z
" clip-path="url(#p1f08e14279)" style="fill: #e97586; stroke: #e97586; stroke-linejoin: miter"/>
   </g>
   <g id="patch_6">
    <path d="M 861.089541 426.610627
L 830.46759 436.817944
L 830.46759 430.013066
L 149.979785 430.013066
L 149.979785 423.208188
L 830.46759 423.208188
L 830.46759 416.40331
z
" clip-path="url(#p1f08e14279)" style="fill: #727d8b; stroke-dasharray: 3.7,1.6; stroke-dashoffset: 0; stroke: #727d8b; stroke-linejoin: miter"/>
   </g>
   <g id="line2d_1">
    <path d="M -1 152.725317
L 4.209624 147.105188
L 8.296638 143.023606
L 12.383652 139.299707
L 15.108328 137.04572
L 17.833004 134.993987
L 20.55768 133.159729
L 23.282356 131.556812
L 26.007031 130.197647
L 28.731707 129.093089
L 31.456383 128.25235
L 34.181059 127.682932
L 36.905735 127.39056
L 39.630411 127.379134
L 42.355087 127.650693
L 45.079763 128.205393
L 47.804439 129.041496
L 50.529114 130.155376
L 53.25379 131.541537
L 55.978466 133.19264
L 58.703142 135.099555
L 61.427818 137.251411
L 64.152494 139.635671
L 66.87717 142.238214
L 70.964184 146.51677
L 75.051198 151.192582
L 79.138211 156.201102
L 84.587563 163.275628
L 92.761591 174.376223
L 102.297956 187.322527
L 107.747308 194.358094
L 111.834322 199.326262
L 115.921336 203.952917
L 120.00835 208.174333
L 122.733026 210.734814
L 125.457702 213.074199
L 128.182377 215.1787
L 130.907053 217.036132
L 133.631729 218.63599
L 136.356405 219.969524
L 139.081081 221.029785
L 141.805757 221.811673
L 144.530433 222.311961
L 147.255109 222.529314
L 149.979785 222.464285
L 152.704461 222.119309
L 155.429136 221.498669
L 158.153812 220.608467
L 160.878488 219.456561
L 163.603164 218.052512
L 166.32784 216.407497
L 169.052516 214.534229
L 171.777192 212.446855
L 175.864206 208.948527
L 179.95122 205.06075
L 184.038233 200.845859
L 189.487585 194.832448
L 196.299275 186.916764
L 208.560316 172.553538
L 214.009668 166.524685
L 218.096682 162.280191
L 222.183696 158.336991
L 226.27071 154.746118
L 230.357724 151.551962
L 233.082399 149.661567
L 235.807075 147.973242
L 238.531751 146.494495
L 241.256427 145.231209
L 243.981103 144.187615
L 246.705779 143.36628
L 249.430455 142.768109
L 252.155131 142.392353
L 254.879807 142.23664
L 257.604483 142.297006
L 260.329158 142.567953
L 263.053834 143.042499
L 265.77851 143.71226
L 268.503186 144.567525
L 271.227862 145.597351
L 275.314876 147.442692
L 279.40189 149.608429
L 283.488904 152.045316
L 288.938255 155.625049
L 295.749945 160.44638
L 309.373325 170.259245
L 314.822676 173.897779
L 318.90969 176.41405
L 322.996704 178.703315
L 327.083718 180.731315
L 331.170732 182.469936
L 335.257746 183.897646
L 339.344759 184.999794
L 343.431773 185.768787
L 347.518787 186.204124
L 351.605801 186.312304
L 355.692815 186.106594
L 359.779829 185.60668
L 363.866842 184.838188
L 367.953856 183.832105
L 372.04087 182.62409
L 377.490222 180.768139
L 385.66425 177.668204
L 396.562953 173.514905
L 402.012305 171.671047
L 406.099319 170.471706
L 410.186333 169.470939
L 414.273347 168.701115
L 418.36036 168.189484
L 422.447374 167.95759
L 426.534388 168.020791
L 430.621402 168.3879
L 434.708416 169.060952
L 438.79543 170.035101
L 442.882443 171.298644
L 446.969457 172.833189
L 451.056471 174.613939
L 455.143485 176.610115
L 460.592837 179.543461
L 467.404526 183.505589
L 481.027906 191.563126
L 486.477258 194.496624
L 490.564272 196.474316
L 494.651285 198.207009
L 498.738299 199.649215
L 501.462975 200.428686
L 504.187651 201.049516
L 506.912327 201.501742
L 509.637003 201.776587
L 512.361679 201.866549
L 515.086355 201.765476
L 517.811031 201.468635
L 520.535706 200.972768
L 523.260382 200.276138
L 525.985058 199.37856
L 528.709734 198.281428
L 531.43441 196.987718
L 534.159086 195.501988
L 536.883762 193.830365
L 540.970776 190.991553
L 545.057789 187.784198
L 549.144803 184.247578
L 553.231817 180.427571
L 558.681169 174.983704
L 564.130521 169.539836
L 568.217535 165.719829
L 572.304548 162.183209
L 576.391562 158.975854
L 580.478576 156.137042
L 583.203252 154.465419
L 585.927928 152.97969
L 588.652604 151.685979
L 591.37728 150.588847
L 594.101956 149.69127
L 596.826632 148.994639
L 599.551307 148.498772
L 602.275983 148.201931
L 605.000659 148.100858
L 607.725335 148.19082
L 610.450011 148.465665
L 613.174687 148.917891
L 615.899363 149.538721
L 619.986377 150.764003
L 624.07339 152.307856
L 628.160404 154.127448
L 632.247418 156.176113
L 637.69677 159.17803
L 645.870798 164.010535
L 655.407163 169.652212
L 660.856515 172.650145
L 664.943529 174.710329
L 669.030543 176.56659
L 673.117557 178.186263
L 677.20457 179.542507
L 681.291584 180.614756
L 685.378598 181.389053
L 689.465612 181.858256
L 693.552626 182.022111
L 697.63964 181.887193
L 701.726653 181.46671
L 705.813667 180.780194
L 709.900681 179.85305
L 713.987695 178.716015
L 719.437047 176.93525
L 726.248737 174.418464
L 741.234454 168.713693
L 746.683806 166.92058
L 750.77082 165.775655
L 754.857833 164.845023
L 758.944847 164.162865
L 763.031861 163.758454
L 767.118875 163.655496
L 771.205889 163.871582
L 775.292903 164.417758
L 779.379917 165.298208
L 783.46693 166.510071
L 787.553944 168.04339
L 791.640958 169.881196
L 795.727972 171.999721
L 799.814986 174.36875
L 805.264338 177.853785
L 810.713689 181.618825
L 821.612393 189.521027
L 828.424083 194.342358
L 833.873434 197.922091
L 837.960448 200.358979
L 842.047462 202.524716
L 846.134476 204.370057
L 848.859152 205.399882
L 851.583828 206.255147
L 854.308504 206.924908
L 857.03318 207.399455
L 859.757855 207.670401
L 862.482531 207.730768
L 865.207207 207.575054
L 867.931883 207.199298
L 870.656559 206.601127
L 873.381235 205.779792
L 876.105911 204.736198
L 878.830587 203.472912
L 881.555263 201.994166
L 884.279938 200.305841
L 887.004614 198.415445
L 889.72929 196.332075
L 893.816304 192.868857
L 897.903318 189.037743
L 901.990332 184.887629
L 907.439684 178.95387
L 914.251373 171.099657
L 929.237091 153.597114
L 934.686443 147.684267
L 938.773456 143.571212
L 942.86047 139.806559
L 946.947484 136.451039
L 949.67216 134.468864
L 952.396836 132.708042
L 955.121512 131.182014
L 957.846188 129.902739
L 960.570864 128.880594
L 963.295539 128.1243
L 966.020215 127.640841
L 968.744891 127.435418
L 971.469567 127.511393
L 974.194243 127.870262
L 976.918919 128.511636
L 979.643595 129.433231
L 982.368271 130.630883
L 985.092947 132.098561
L 987.817623 133.828411
L 990.542298 135.810797
L 993.266974 138.034365
L 995.99165 140.486119
L 1000.078664 144.55935
L 1004.165678 149.057716
L 1008.252692 153.919474
L 1013.702044 160.849988
L 1020.513733 169.989692
L 1034.137113 188.49476
L 1039.586465 195.468572
L 1043.673478 200.3737
L 1047.760492 204.923982
L 1051.847506 209.056808
L 1054.572182 211.552071
L 1057.296858 213.821797
L 1060.021534 215.852647
L 1062.74621 217.632907
L 1065.470886 219.15257
L 1068.195561 220.403393
L 1070.920237 221.378956
L 1073.644913 222.074693
L 1076.369589 222.487921
L 1079.094265 222.61785
L 1081.818941 222.465579
L 1084.543617 222.034081
L 1087.268293 221.328175
L 1089.992969 220.35448
L 1092.717644 219.121362
L 1095.44232 217.638865
L 1098.166996 215.918633
L 1100.891672 213.973817
L 1103.616348 211.818974
L 1107.703362 208.227916
L 1111.790376 204.258578
L 1115.87739 199.974253
L 1117 198.749262
L 1117 198.749262
" clip-path="url(#p1f08e14279)" style="fill: none; stroke: #59b2d8; stroke-width: 5; stroke-linecap: square"/>
    <defs>
     <path id="mf72339935e" d="M 0 5
C 1.326016 5 2.597899 4.473168 3.535534 3.535534
C 4.473168 2.597899 5 1.326016 5 0
C 5 -1.326016 4.473168 -2.597899 3.535534 -3.535534
C 2.597899 -4.473168 1.326016 -5 0 -5
C -1.326016 -5 -2.597899 -4.473168 -3.535534 -3.535534
C -4.473168 -2.597899 -5 -1.326016 -5 0
C -5 1.326016 -4.473168 2.597899 -3.535534 3.535534
C -2.597899 4.473168 -1.326016 5 0 5
z
" style="stroke: #59b2d8"/>
    </defs>
    <g clip-path="url(#p1f08e14279)">
     <use xlink:href="#mf72339935e" x="-1" y="154.232602" style="fill: #59b2d8; stroke: #59b2d8"/>
     <use xlink:href="#mf72339935e" x="13.74599" y="138.148433" style="fill: #59b2d8; stroke: #59b2d8"/>
     <use xlink:href="#mf72339935e" x="47.804439" y="129.041496" style="fill: #59b2d8; stroke: #59b2d8"/>
     <use xlink:href="#mf72339935e" x="81.862887" y="159.690721" style="fill: #59b2d8; stroke: #59b2d8"/>
     <use xlink:href="#mf72339935e" x="115.921336" y="203.952917" style="fill: #59b2d8; stroke: #59b2d8"/>
     <use xlink:href="#mf72339935e" x="149.979785" y="222.464285" style="fill: #59b2d8; stroke: #59b2d8"/>
     <use xlink:href="#mf72339935e" x="184.038233" y="200.845859" style="fill: #59b2d8; stroke: #59b2d8"/>
     <use xlink:href="#mf72339935e" x="218.096682" y="162.280191" style="fill: #59b2d8; stroke: #59b2d8"/>
     <use xlink:href="#mf72339935e" x="252.155131" y="142.392353" style="fill: #59b2d8; stroke: #59b2d8"/>
     <use xlink:href="#mf72339935e" x="286.213579" y="153.794688" style="fill: #59b2d8; stroke: #59b2d8"/>
     <use xlink:href="#mf72339935e" x="320.272028" y="177.204174" style="fill: #59b2d8; stroke: #59b2d8"/>
     <use xlink:href="#mf72339935e" x="354.330477" y="186.208953" style="fill: #59b2d8; stroke: #59b2d8"/>
     <use xlink:href="#mf72339935e" x="388.388926" y="176.604688" style="fill: #59b2d8; stroke: #59b2d8"/>
     <use xlink:href="#mf72339935e" x="422.447374" y="167.95759" style="fill: #59b2d8; stroke: #59b2d8"/>
     <use xlink:href="#mf72339935e" x="456.505823" y="177.317262" style="fill: #59b2d8; stroke: #59b2d8"/>
     <use xlink:href="#mf72339935e" x="490.564272" y="196.474316" style="fill: #59b2d8; stroke: #59b2d8"/>
     <use xlink:href="#mf72339935e" x="524.62272" y="199.852417" style="fill: #59b2d8; stroke: #59b2d8"/>
     <use xlink:href="#mf72339935e" x="558.681169" y="174.983704" style="fill: #59b2d8; stroke: #59b2d8"/>
     <use xlink:href="#mf72339935e" x="592.739618" y="150.11499" style="fill: #59b2d8; stroke: #59b2d8"/>
     <use xlink:href="#mf72339935e" x="626.798066" y="153.493091" style="fill: #59b2d8; stroke: #59b2d8"/>
     <use xlink:href="#mf72339935e" x="660.856515" y="172.650145" style="fill: #59b2d8; stroke: #59b2d8"/>
     <use xlink:href="#mf72339935e" x="694.914964" y="182.009817" style="fill: #59b2d8; stroke: #59b2d8"/>
     <use xlink:href="#mf72339935e" x="728.973412" y="173.362719" style="fill: #59b2d8; stroke: #59b2d8"/>
     <use xlink:href="#mf72339935e" x="763.031861" y="163.758454" style="fill: #59b2d8; stroke: #59b2d8"/>
     <use xlink:href="#mf72339935e" x="797.09031" y="172.763233" style="fill: #59b2d8; stroke: #59b2d8"/>
     <use xlink:href="#mf72339935e" x="831.148759" y="196.172719" style="fill: #59b2d8; stroke: #59b2d8"/>
     <use xlink:href="#mf72339935e" x="865.207207" y="207.575054" style="fill: #59b2d8; stroke: #59b2d8"/>
     <use xlink:href="#mf72339935e" x="899.265656" y="187.687216" style="fill: #59b2d8; stroke: #59b2d8"/>
     <use xlink:href="#mf72339935e" x="933.324105" y="149.121548" style="fill: #59b2d8; stroke: #59b2d8"/>
     <use xlink:href="#mf72339935e" x="967.382553" y="127.503122" style="fill: #59b2d8; stroke: #59b2d8"/>
     <use xlink:href="#mf72339935e" x="1001.441002" y="146.014491" style="fill: #59b2d8; stroke: #59b2d8"/>
     <use xlink:href="#mf72339935e" x="1035.499451" y="190.276686" style="fill: #59b2d8; stroke: #59b2d8"/>
     <use xlink:href="#mf72339935e" x="1069.557899" y="220.925911" style="fill: #59b2d8; stroke: #59b2d8"/>
     <use xlink:href="#mf72339935e" x="1103.616348" y="211.818974" style="fill: #59b2d8; stroke: #59b2d8"/>
     <use xlink:href="#mf72339935e" x="1137.674797" y="174.669766" style="fill: #59b2d8; stroke: #59b2d8"/>
     <use xlink:href="#mf72339935e" x="1171.733245" y="145.287644" style="fill: #59b2d8; stroke: #59b2d8"/>
     <use xlink:href="#mf72339935e" x="1205.791694" y="146.987623" style="fill: #59b2d8; stroke: #59b2d8"/>
    </g>
   </g>
   <g id="line2d_2">
    <path d="M 149.979785 222.464285
L 149.979785 426.610627
" clip-path="url(#p1f08e14279)" style="fill: none; stroke-dasharray: 11.1,4.8; stroke-dashoffset: 0; stroke: #808080; stroke-width: 3"/>
   </g>
   <g id="line2d_3">
    <path d="M 967.382553 127.503122
L 967.382553 426.610627
" clip-path="url(#p1f08e14279)" style="fill: none; stroke-dasharray: 11.1,4.8; stroke-dashoffset: 0; stroke: #808080; stroke-width: 3"/>
   </g>
   <g id="patch_7">
    <path d="M 158.939397 125.754876
Q 167.325544 159.725712 158.027431 193.691596
L 162.367741 194.879749
Q 156.689988 201.380623 150.438281 207.146742
Q 149.677629 198.665612 147.900041 190.919237
L 152.240351 192.107391
Q 161.126156 159.647663 153.114268 127.192886
L 158.939397 125.754876
z
" style="fill: #62bebe; stroke: #62bebe; stroke-linecap: round"/>
   </g>
   <g id="text_1">
    <!-- $X_{past}$ -->
    <g transform="translate(116.257317 113.234923) scale(0.3 -0.3)">
     <defs>
      <path id="DejaVuSans-Oblique-58" d="M 878 4666
L 1516 4666
L 2316 2981
L 3763 4666
L 4500 4666
L 2578 2438
L 3738 0
L 3103 0
L 2163 1966
L 459 0
L -275 0
L 1906 2509
L 878 4666
z
" transform="scale(0.015625)"/>
      <path id="DejaVuSans-Oblique-70" d="M 3175 2156
Q 3175 2616 2975 2859
Q 2775 3103 2400 3103
Q 2144 3103 1911 2972
Q 1678 2841 1497 2591
Q 1319 2344 1212 1994
Q 1106 1644 1106 1300
Q 1106 863 1306 627
Q 1506 391 1875 391
Q 2147 391 2380 519
Q 2613 647 2778 891
Q 2956 1147 3065 1494
Q 3175 1841 3175 2156
z
M 1394 2969
Q 1625 3272 1939 3428
Q 2253 3584 2638 3584
Q 3175 3584 3472 3232
Q 3769 2881 3769 2247
Q 3769 1728 3584 1258
Q 3400 788 3053 416
Q 2822 169 2531 39
Q 2241 -91 1919 -91
Q 1547 -91 1294 64
Q 1041 219 916 525
L 556 -1331
L -19 -1331
L 922 3500
L 1497 3500
L 1394 2969
z
" transform="scale(0.015625)"/>
      <path id="DejaVuSans-Oblique-61" d="M 3438 1997
L 3047 0
L 2472 0
L 2578 531
Q 2325 219 2001 64
Q 1678 -91 1281 -91
Q 834 -91 548 182
Q 263 456 263 884
Q 263 1497 752 1853
Q 1241 2209 2100 2209
L 2900 2209
L 2931 2363
Q 2938 2388 2941 2417
Q 2944 2447 2944 2509
Q 2944 2788 2717 2942
Q 2491 3097 2081 3097
Q 1800 3097 1504 3025
Q 1209 2953 897 2809
L 997 3341
Q 1322 3463 1633 3523
Q 1944 3584 2234 3584
Q 2853 3584 3176 3315
Q 3500 3047 3500 2534
Q 3500 2431 3484 2292
Q 3469 2153 3438 1997
z
M 2816 1759
L 2241 1759
Q 1534 1759 1195 1570
Q 856 1381 856 984
Q 856 709 1029 553
Q 1203 397 1509 397
Q 1978 397 2328 733
Q 2678 1069 2791 1631
L 2816 1759
z
" transform="scale(0.015625)"/>
      <path id="DejaVuSans-Oblique-73" d="M 3200 3397
L 3091 2853
Q 2863 2978 2609 3040
Q 2356 3103 2088 3103
Q 1634 3103 1373 2948
Q 1113 2794 1113 2528
Q 1113 2219 1719 2053
Q 1766 2041 1788 2034
L 1972 1978
Q 2547 1819 2739 1644
Q 2931 1469 2931 1166
Q 2931 609 2489 259
Q 2047 -91 1331 -91
Q 1053 -91 747 -37
Q 441 16 72 128
L 184 722
Q 500 559 806 475
Q 1113 391 1394 391
Q 1816 391 2080 572
Q 2344 753 2344 1031
Q 2344 1331 1650 1516
L 1591 1531
L 1394 1581
Q 956 1697 753 1886
Q 550 2075 550 2369
Q 550 2928 970 3256
Q 1391 3584 2113 3584
Q 2397 3584 2667 3537
Q 2938 3491 3200 3397
z
" transform="scale(0.015625)"/>
      <path id="DejaVuSans-Oblique-74" d="M 2706 3500
L 2619 3053
L 1472 3053
L 1100 1153
Q 1081 1047 1072 975
Q 1063 903 1063 863
Q 1063 663 1183 572
Q 1303 481 1569 481
L 2150 481
L 2053 0
L 1503 0
Q 991 0 739 200
Q 488 400 488 806
Q 488 878 497 964
Q 506 1050 525 1153
L 897 3053
L 409 3053
L 500 3500
L 978 3500
L 1172 4494
L 1747 4494
L 1556 3500
L 2706 3500
z
" transform="scale(0.015625)"/>
     </defs>
     <use xlink:href="#DejaVuSans-Oblique-58" transform="translate(0 0.09375)"/>
     <use xlink:href="#DejaVuSans-Oblique-70" transform="translate(68.505859 -16.3125) scale(0.7)"/>
     <use xlink:href="#DejaVuSans-Oblique-61" transform="translate(112.939453 -16.3125) scale(0.7)"/>
     <use xlink:href="#DejaVuSans-Oblique-73" transform="translate(155.834961 -16.3125) scale(0.7)"/>
     <use xlink:href="#DejaVuSans-Oblique-74" transform="translate(192.304688 -16.3125) scale(0.7)"/>
    </g>
   </g>
   <g id="patch_8">
    <path d="M 407.839672 51.218522
Q 488.832594 81.869039 543.502956 152.647706
L 547.06428 149.896893
Q 548.74138 158.205432 550.043472 166.541583
Q 542.614669 162.537139 535.1932 159.066269
L 538.754524 156.315456
Q 485.121639 86.879953 405.716044 56.830136
L 407.839672 51.218522
z
" style="fill: #62bebe; stroke: #62bebe; stroke-linecap: round"/>
   </g>
   <g id="text_2">
    <!-- $X_{current}$ -->
    <g transform="translate(304.803659 47.164268) scale(0.3 -0.3)">
     <defs>
      <path id="DejaVuSans-Oblique-63" d="M 3431 3366
L 3316 2797
Q 3109 2947 2876 3022
Q 2644 3097 2394 3097
Q 2119 3097 1870 3000
Q 1622 2903 1453 2725
Q 1184 2453 1037 2087
Q 891 1722 891 1331
Q 891 859 1127 628
Q 1363 397 1844 397
Q 2081 397 2348 469
Q 2616 541 2906 684
L 2797 116
Q 2547 13 2283 -39
Q 2019 -91 1741 -91
Q 1044 -91 669 257
Q 294 606 294 1253
Q 294 1797 489 2255
Q 684 2713 1069 3078
Q 1331 3328 1684 3456
Q 2038 3584 2456 3584
Q 2700 3584 2940 3529
Q 3181 3475 3431 3366
z
" transform="scale(0.015625)"/>
      <path id="DejaVuSans-Oblique-75" d="M 428 1388
L 838 3500
L 1416 3500
L 1006 1409
Q 975 1256 961 1147
Q 947 1038 947 966
Q 947 700 1109 554
Q 1272 409 1569 409
Q 2031 409 2368 721
Q 2706 1034 2809 1563
L 3194 3500
L 3769 3500
L 3091 0
L 2516 0
L 2631 550
Q 2388 244 2052 76
Q 1716 -91 1338 -91
Q 878 -91 622 161
Q 366 413 366 863
Q 366 956 381 1097
Q 397 1238 428 1388
z
" transform="scale(0.015625)"/>
      <path id="DejaVuSans-Oblique-72" d="M 2853 2969
Q 2766 3016 2653 3041
Q 2541 3066 2413 3066
Q 1953 3066 1609 2717
Q 1266 2369 1153 1784
L 800 0
L 225 0
L 909 3500
L 1484 3500
L 1375 2956
Q 1603 3259 1920 3421
Q 2238 3584 2597 3584
Q 2691 3584 2781 3573
Q 2872 3563 2963 3538
L 2853 2969
z
" transform="scale(0.015625)"/>
      <path id="DejaVuSans-Oblique-65" d="M 3078 2063
Q 3088 2113 3092 2166
Q 3097 2219 3097 2272
Q 3097 2653 2873 2875
Q 2650 3097 2266 3097
Q 1838 3097 1509 2826
Q 1181 2556 1013 2059
L 3078 2063
z
M 3578 1613
L 903 1613
Q 884 1494 878 1425
Q 872 1356 872 1306
Q 872 872 1139 634
Q 1406 397 1894 397
Q 2269 397 2603 481
Q 2938 566 3225 728
L 3116 159
Q 2806 34 2476 -28
Q 2147 -91 1806 -91
Q 1078 -91 686 257
Q 294 606 294 1247
Q 294 1794 489 2264
Q 684 2734 1063 3103
Q 1306 3334 1642 3459
Q 1978 3584 2356 3584
Q 2950 3584 3301 3228
Q 3653 2872 3653 2272
Q 3653 2128 3634 1964
Q 3616 1800 3578 1613
z
" transform="scale(0.015625)"/>
      <path id="DejaVuSans-Oblique-6e" d="M 3566 2113
L 3156 0
L 2578 0
L 2988 2091
Q 3016 2238 3031 2350
Q 3047 2463 3047 2528
Q 3047 2791 2881 2937
Q 2716 3084 2419 3084
Q 1956 3084 1622 2776
Q 1288 2469 1184 1941
L 800 0
L 225 0
L 903 3500
L 1478 3500
L 1363 2950
Q 1603 3253 1940 3418
Q 2278 3584 2650 3584
Q 3113 3584 3367 3334
Q 3622 3084 3622 2631
Q 3622 2519 3608 2391
Q 3594 2263 3566 2113
z
" transform="scale(0.015625)"/>
     </defs>
     <use xlink:href="#DejaVuSans-Oblique-58" transform="translate(0 0.09375)"/>
     <use xlink:href="#DejaVuSans-Oblique-63" transform="translate(68.505859 -16.3125) scale(0.7)"/>
     <use xlink:href="#DejaVuSans-Oblique-75" transform="translate(106.992188 -16.3125) scale(0.7)"/>
     <use xlink:href="#DejaVuSans-Oblique-72" transform="translate(151.357422 -16.3125) scale(0.7)"/>
     <use xlink:href="#DejaVuSans-Oblique-72" transform="translate(180.136719 -16.3125) scale(0.7)"/>
     <use xlink:href="#DejaVuSans-Oblique-65" transform="translate(208.916016 -16.3125) scale(0.7)"/>
     <use xlink:href="#DejaVuSans-Oblique-6e" transform="translate(251.982422 -16.3125) scale(0.7)"/>
     <use xlink:href="#DejaVuSans-Oblique-74" transform="translate(296.347656 -16.3125) scale(0.7)"/>
    </g>
   </g>
   <g id="patch_9">
    <path d="M 963.505896 57.999736
Q 958.506353 80.825086 964.017609 103.653729
L 968.39194 102.597685
Q 966.345636 110.168792 965.564581 118.681933
Q 959.315261 112.870899 953.810837 106.117832
L 958.185167 105.061788
Q 952.349778 80.890522 957.644844 56.715962
L 963.505896 57.999736
z
" style="fill: #62bebe; stroke: #62bebe; stroke-linecap: round"/>
   </g>
   <g id="text_3">
    <!-- $X_{future}$ -->
    <g transform="translate(923.692683 47.164268) scale(0.3 -0.3)">
     <defs>
      <path id="DejaVuSans-Oblique-66" d="M 3059 4863
L 2969 4384
L 2419 4384
Q 2106 4384 1964 4261
Q 1822 4138 1753 3809
L 1691 3500
L 2638 3500
L 2553 3053
L 1606 3053
L 1013 0
L 434 0
L 1031 3053
L 481 3053
L 563 3500
L 1113 3500
L 1159 3744
Q 1278 4363 1576 4613
Q 1875 4863 2516 4863
L 3059 4863
z
" transform="scale(0.015625)"/>
     </defs>
     <use xlink:href="#DejaVuSans-Oblique-58" transform="translate(0 0.09375)"/>
     <use xlink:href="#DejaVuSans-Oblique-66" transform="translate(68.505859 -16.3125) scale(0.7)"/>
     <use xlink:href="#DejaVuSans-Oblique-75" transform="translate(93.149414 -16.3125) scale(0.7)"/>
     <use xlink:href="#DejaVuSans-Oblique-74" transform="translate(137.514648 -16.3125) scale(0.7)"/>
     <use xlink:href="#DejaVuSans-Oblique-75" transform="translate(164.960938 -16.3125) scale(0.7)"/>
     <use xlink:href="#DejaVuSans-Oblique-72" transform="translate(209.326172 -16.3125) scale(0.7)"/>
     <use xlink:href="#DejaVuSans-Oblique-65" transform="translate(238.105469 -16.3125) scale(0.7)"/>
    </g>
   </g>
  </g>
 </g>
 <defs>
  <clipPath id="p1f08e14279">
   <rect x="0" y="-0" width="1116" height="457.618798"/>
  </clipPath>
 </defs>
</svg>
