<?xml version="1.0" encoding="UTF-8" standalone="no"?>
<svg
        version="1.1"
        id="Layer_1"
        x="0px"
        y="0px"
        viewBox="0 0 116.36 122.88"
        style="enable-background:new 0 0 116.36 122.88"
        xml:space="preserve"
        sodipodi:docname="building-construction-icon.svg"
        inkscape:version="1.2.2 (b0a8486541, 2022-12-01)"
        xmlns:inkscape="http://www.inkscape.org/namespaces/inkscape"
        xmlns:sodipodi="http://sodipodi.sourceforge.net/DTD/sodipodi-0.dtd"
        xmlns="http://www.w3.org/2000/svg"
><defs
   id="defs4308" /><sodipodi:namedview
   id="namedview4306"
   pagecolor="#ffffff"
   bordercolor="#666666"
   borderopacity="1.0"
   inkscape:showpageshadow="2"
   inkscape:pageopacity="0.0"
   inkscape:pagecheckerboard="0"
   inkscape:deskcolor="#d1d1d1"
   showgrid="false"
   inkscape:zoom="8.3577476"
   inkscape:cx="50.372423"
   inkscape:cy="61.499823"
   inkscape:window-width="2560"
   inkscape:window-height="1387"
   inkscape:window-x="0"
   inkscape:window-y="26"
   inkscape:window-maximized="1"
   inkscape:current-layer="Layer_1" /><style
   type="text/css"
   id="style4299">.st0{fill-rule:evenodd;clip-rule:evenodd;}</style>
    <g
   id="g4303"><path
     class="st0"
     d="M0,99.88h15V39.37L0.3,41.64L0,22.47l15-2.39V2.88C15,1.29,16.29,0,17.88,0h27.49c1.59,0,2.88,1.29,2.88,2.88 v11.91l54.11-8.61l3.06,19.18l-6.29,0.97v5.18l11.34,12.42c0.19,0.2,0.33,0.43,0.45,0.66h3.51c0.33,0,0.6,0.27,0.6,0.6v13.6 c0,0.33-0.27,0.6-0.6,0.6H75.86c-0.33,0-0.6-0.27-0.6-0.6V45.2c0-0.33,0.27-0.6,0.6-0.6h3.63c0.13-0.22,0.3-0.43,0.5-0.62 l13.63-12.64v-4.15l-45.35,7.02v65.67H63.6v22.74H0V99.88L0,99.88z M20.77,19.16l9.92-1.58l-9.92-7.81V19.16L20.77,19.16z M38.11,16.41l4.38-0.7V5.77H24.6L38.11,16.41L38.11,16.41z M42.49,35.11l-5,0.77l5,3.94V35.11L42.49,35.11z M30.03,37.04 l-9.27,1.43v3.79h15.9L30.03,37.04L30.03,37.04z M87.32,44.6h16.37l-7.51-8.22L87.32,44.6L87.32,44.6z M27.32,87.6l15.17,11.94 V87.6H27.32L27.32,87.6z M34,99.88L20.77,89.47v10.42H34L34,99.88z M27.32,67.7l15.17,11.94V67.7H27.32L27.32,67.7z M20.77,82.08 h15.9l-15.9-12.51V82.08L20.77,82.08z M27.31,47.78l15.18,11.95V47.78H27.31L27.31,47.78z M20.77,62.17h15.9l-15.9-12.51V62.17 L20.77,62.17z M74.03,69.16c0-0.69,0.57-1.25,1.25-1.25h39.79c0.69,0,1.25,0.57,1.25,1.25c0,29.66-0.01,24.06,0.03,53.72H73.95 L74.03,69.16L74.03,69.16z M97.87,100.13h8.14c0.25,0,0.45,0.21,0.45,0.45v9.86c0,0.25-0.21,0.45-0.45,0.45h-8.14 c-0.25,0-0.45-0.21-0.45-0.45v-9.86C97.42,100.33,97.63,100.13,97.87,100.13L97.87,100.13L97.87,100.13z M84.08,100.13h8.14 c0.25,0,0.45,0.21,0.45,0.45v9.86c0,0.25-0.21,0.45-0.45,0.45h-8.14c-0.25,0-0.45-0.21-0.45-0.45v-9.86 C83.63,100.33,83.84,100.13,84.08,100.13L84.08,100.13L84.08,100.13z M97.87,81.94h8.14c0.25,0,0.45,0.21,0.45,0.45v9.86 c0,0.25-0.21,0.45-0.45,0.45h-8.14c-0.25,0-0.45-0.21-0.45-0.45v-9.86C97.42,82.15,97.63,81.94,97.87,81.94L97.87,81.94 L97.87,81.94z M84.08,81.94h8.14c0.25,0,0.45,0.21,0.45,0.45v9.86c0,0.25-0.21,0.45-0.45,0.45h-8.14c-0.25,0-0.45-0.21-0.45-0.45 v-9.86C83.63,82.15,83.84,81.94,84.08,81.94L84.08,81.94L84.08,81.94z M80.77,73.75h28.67c0.49,0,0.9,0.49,0.9,1.08v39.98 c0,0.59-0.41,1.08-0.9,1.08H80.77c-0.49,0-0.9-0.49-0.9-1.08V74.83C79.87,74.24,80.28,73.75,80.77,73.75L80.77,73.75L80.77,73.75z"
     id="path4301"
     style="fill:#4aa3c4;fill-opacity:1" /></g></svg>
