<?xml version="1.0" encoding="utf-8" standalone="no"?>
<!DOCTYPE svg PUBLIC "-//W3C//DTD SVG 1.1//EN"
  "http://www.w3.org/Graphics/SVG/1.1/DTD/svg11.dtd">
<svg xmlns:xlink="http://www.w3.org/1999/xlink" width="1130.4pt" height="770.4pt" viewBox="0 0 1130.4 770.4" xmlns="http://www.w3.org/2000/svg" version="1.1">
 <metadata>
  <rdf:RDF xmlns:dc="http://purl.org/dc/elements/1.1/" xmlns:cc="http://creativecommons.org/ns#" xmlns:rdf="http://www.w3.org/1999/02/22-rdf-syntax-ns#">
   <cc:Work>
    <dc:type rdf:resource="http://purl.org/dc/dcmitype/StillImage"/>
    <dc:date>2023-08-23T10:46:28.185046</dc:date>
    <dc:format>image/svg+xml</dc:format>
    <dc:creator>
     <cc:Agent>
      <dc:title>Matplotlib v3.7.2, https://matplotlib.org/</dc:title>
     </cc:Agent>
    </dc:creator>
   </cc:Work>
  </rdf:RDF>
 </metadata>
 <defs>
  <style type="text/css">*{stroke-linejoin: round; stroke-linecap: butt}</style>
 </defs>
 <g id="figure_1">
  <g id="patch_1">
   <path d="M 0 770.4 
L 1130.4 770.4 
L 1130.4 0 
L 0 0 
z
" style="fill: #ffffff"/>
  </g>
  <g id="axes_1">
   <g id="patch_2">
    <path d="M -802.8 -784.8 
L 259.56 -784.8 
L 334.46087 -316.669565 
L 276.011321 326.275472 
L 88.472727 401.290909 
L -802.8 246.286957 
z
" clip-path="url(#pf7446dc461)" style="fill: #59b2d8; opacity: 0.2; stroke: #59b2d8; stroke-linejoin: miter"/>
   </g>
   <g id="patch_3">
    <path d="M 276.011321 326.275472 
L 205.2 354.6 
L 205.2 25.2 
L 303.381818 25.2 
z
" clip-path="url(#pf7446dc461)" style="fill: #59b2d8; opacity: 0.4; stroke: #59b2d8; stroke-linejoin: miter"/>
   </g>
   <g id="patch_4">
    <path d="M -802.8 1591.2 
L -802.8 246.286957 
L 88.472727 401.290909 
L 285.903297 648.079121 
L 136.989474 1591.2 
z
" clip-path="url(#pf7446dc461)" style="fill: #59b2d8; opacity: 0.2; stroke: #59b2d8; stroke-linejoin: miter"/>
   </g>
   <g id="patch_5">
    <path d="M 285.903297 648.079121 
L 270.568421 745.2 
L 205.2 745.2 
L 205.2 547.2 
z
" clip-path="url(#pf7446dc461)" style="fill: #59b2d8; opacity: 0.4; stroke: #59b2d8; stroke-linejoin: miter"/>
   </g>
   <g id="patch_6">
    <path d="M 136.989474 1591.2 
L 285.903297 648.079121 
L 435.098734 526.010127 
L 702.79322 734.216949 
L 734.533333 1591.2 
z
" clip-path="url(#pf7446dc461)" style="fill: #59b2d8; opacity: 0.2; stroke: #59b2d8; stroke-linejoin: miter"/>
   </g>
   <g id="patch_7">
    <path d="M 285.903297 648.079121 
L 435.098734 526.010127 
L 702.79322 734.216949 
L 703.2 745.2 
L 270.568421 745.2 
z
" clip-path="url(#pf7446dc461)" style="fill: #59b2d8; opacity: 0.4; stroke: #59b2d8; stroke-linejoin: miter"/>
   </g>
   <g id="patch_8">
    <path d="M 276.011321 326.275472 
L 334.46087 -316.669565 
L 560.070968 315.03871 
L 452.2 389.2 
z
" clip-path="url(#pf7446dc461)" style="fill: #59b2d8; opacity: 0.2; stroke: #59b2d8; stroke-linejoin: miter"/>
   </g>
   <g id="patch_9">
    <path d="M 303.381818 25.2 
L 456.557143 25.2 
L 560.070968 315.03871 
L 452.2 389.2 
L 276.011321 326.275472 
z
" clip-path="url(#pf7446dc461)" style="fill: #59b2d8; opacity: 0.4; stroke: #59b2d8; stroke-linejoin: miter"/>
   </g>
   <g id="patch_10">
    <path d="M 452.2 389.2 
L 435.098734 526.010127 
L 285.903297 648.079121 
L 88.472727 401.290909 
L 276.011321 326.275472 
z
" clip-path="url(#pf7446dc461)" style="fill: #59b2d8; opacity: 0.2; stroke: #59b2d8; stroke-linejoin: miter"/>
   </g>
   <g id="patch_11">
    <path d="M 435.098734 526.010127 
L 285.903297 648.079121 
L 205.2 547.2 
L 205.2 354.6 
L 276.011321 326.275472 
L 452.2 389.2 
z
" clip-path="url(#pf7446dc461)" style="fill: #59b2d8; opacity: 0.4; stroke: #59b2d8; stroke-linejoin: miter"/>
   </g>
   <g id="patch_12">
    <path d="M 435.098734 526.010127 
L 452.2 389.2 
L 560.070968 315.03871 
L 613.515789 322.673684 
L 772.2 560.7 
L 702.79322 734.216949 
z
" clip-path="url(#pf7446dc461)" style="fill: #59b2d8; opacity: 0.2; stroke: #59b2d8; stroke-linejoin: miter"/>
   </g>
   <g id="patch_13">
    <path d="M 452.2 389.2 
L 560.070968 315.03871 
L 613.515789 322.673684 
L 772.2 560.7 
L 702.79322 734.216949 
L 435.098734 526.010127 
z
" clip-path="url(#pf7446dc461)" style="fill: #59b2d8; opacity: 0.4; stroke: #59b2d8; stroke-linejoin: miter"/>
   </g>
   <g id="patch_14">
    <path d="M 1100.290909 -784.8 
L 841.251724 165.010345 
L 613.515789 322.673684 
L 560.070968 315.03871 
L 334.46087 -316.669565 
L 259.56 -784.8 
z
" clip-path="url(#pf7446dc461)" style="fill: #59b2d8; opacity: 0.2; stroke: #59b2d8; stroke-linejoin: miter"/>
   </g>
   <g id="patch_15">
    <path d="M 841.251724 165.010345 
L 613.515789 322.673684 
L 560.070968 315.03871 
L 456.557143 25.2 
L 879.381818 25.2 
z
" clip-path="url(#pf7446dc461)" style="fill: #59b2d8; opacity: 0.4; stroke: #59b2d8; stroke-linejoin: miter"/>
   </g>
   <g id="patch_16">
    <path d="M 1951.2 1591.2 
L 734.533333 1591.2 
L 702.79322 734.216949 
L 772.2 560.7 
L 994.472727 449.563636 
L 1951.2 657.547826 
z
" clip-path="url(#pf7446dc461)" style="fill: #59b2d8; opacity: 0.2; stroke: #59b2d8; stroke-linejoin: miter"/>
   </g>
   <g id="patch_17">
    <path d="M 702.79322 734.216949 
L 772.2 560.7 
L 925.2 484.2 
L 925.2 745.2 
L 703.2 745.2 
z
" clip-path="url(#pf7446dc461)" style="fill: #59b2d8; opacity: 0.4; stroke: #59b2d8; stroke-linejoin: miter"/>
   </g>
   <g id="patch_18">
    <path d="M 1951.2 -784.8 
L 1951.2 657.547826 
L 994.472727 449.563636 
L 841.251724 165.010345 
L 1100.290909 -784.8 
z
" clip-path="url(#pf7446dc461)" style="fill: #59b2d8; opacity: 0.2; stroke: #59b2d8; stroke-linejoin: miter"/>
   </g>
   <g id="patch_19">
    <path d="M 841.251724 165.010345 
L 879.381818 25.2 
L 925.2 25.2 
L 925.2 320.914286 
z
" clip-path="url(#pf7446dc461)" style="fill: #59b2d8; opacity: 0.4; stroke: #59b2d8; stroke-linejoin: miter"/>
   </g>
   <g id="patch_20">
    <path d="M 841.251724 165.010345 
L 994.472727 449.563636 
L 772.2 560.7 
L 613.515789 322.673684 
z
" clip-path="url(#pf7446dc461)" style="fill: #59b2d8; opacity: 0.2; stroke: #59b2d8; stroke-linejoin: miter"/>
   </g>
   <g id="patch_21">
    <path d="M 925.2 320.914286 
L 925.2 484.2 
L 772.2 560.7 
L 613.515789 322.673684 
L 841.251724 165.010345 
z
" clip-path="url(#pf7446dc461)" style="fill: #59b2d8; opacity: 0.4; stroke: #59b2d8; stroke-linejoin: miter"/>
   </g>
   <g id="patch_22">
    <path d="M 585.555118 556.138329 
C 592.705789 555.763578 599.316399 550.66914 603.931038 541.977005 
C 608.545678 533.28487 610.787582 521.704713 610.162997 509.786929 
C 609.538413 497.869145 606.098334 486.586768 600.600398 478.424611 
C 595.102463 470.262454 587.995552 465.88692 580.844882 466.261671 
C 573.694211 466.636422 567.083601 471.73086 562.468962 480.422995 
C 557.854322 489.11513 555.612418 500.695287 556.237003 512.613071 
C 556.861587 524.530855 560.301666 535.813232 565.799602 543.975389 
C 571.297537 552.137546 578.404448 556.51308 585.555118 556.138329 
z
" clip-path="url(#pf7446dc461)" style="fill: #808080; stroke: #808080; stroke-linejoin: miter"/>
   </g>
   <g id="patch_23">
    <path d="M 584.142047 529.175332 
C 590.696829 528.83181 596.884765 526.608318 601.343036 522.994553 
C 605.801308 519.380788 608.165915 514.671799 607.916081 509.904685 
C 607.666247 505.137571 604.82237 500.701547 600.01078 497.573595 
C 595.199191 494.445643 588.812734 492.881147 582.257953 493.224668 
C 575.703171 493.56819 569.515235 495.791682 565.056964 499.405447 
C 560.598692 503.019212 558.234085 507.728201 558.483919 512.495315 
C 558.733753 517.262429 561.57763 521.698453 566.38922 524.826405 
C 571.200809 527.954357 577.587266 529.518853 584.142047 529.175332 
z
" clip-path="url(#pf7446dc461)" style="stroke: #000000; stroke-linejoin: miter"/>
   </g>
   <g id="PathCollection_1">
    <defs>
     <path id="meb9a0904ba" d="M 0 3 
C 0.795609 3 1.55874 2.683901 2.12132 2.12132 
C 2.683901 1.55874 3 0.795609 3 0 
C 3 -0.795609 2.683901 -1.55874 2.12132 -2.12132 
C 1.55874 -2.683901 0.795609 -3 0 -3 
C -0.795609 -3 -1.55874 -2.683901 -2.12132 -2.12132 
C -2.683901 -1.55874 -3 -0.795609 -3 0 
C -3 0.795609 -2.683901 1.55874 -2.12132 2.12132 
C -1.55874 2.683901 -0.795609 3 0 3 
z
" style="stroke: #ffffff"/>
    </defs>
    <g clip-path="url(#pf7446dc461)">
     <use xlink:href="#meb9a0904ba" x="583.2" y="511.2" style="fill: #ffffff; stroke: #ffffff"/>
    </g>
   </g>
   <g id="patch_24">
    <path d="M 1041.014168 285.516349 
C 1048.065868 284.272944 1054.006348 278.410848 1057.527286 269.22112 
C 1061.048224 260.031392 1061.862151 248.264332 1059.789809 236.511499 
C 1057.717468 224.758666 1052.928055 213.979626 1046.476383 206.548338 
C 1040.024712 199.117051 1032.437532 195.640246 1025.385832 196.883651 
C 1018.334132 198.127056 1012.393652 203.989152 1008.872714 213.17888 
C 1005.351776 222.368608 1004.537849 234.135668 1006.610191 245.888501 
C 1008.682532 257.641334 1013.471945 268.420374 1019.923617 275.851662 
C 1026.375288 283.282949 1033.962468 286.759754 1041.014168 285.516349 
z
" clip-path="url(#pf7446dc461)" style="fill: #808080; stroke: #808080; stroke-linejoin: miter"/>
   </g>
   <g id="patch_25">
    <path d="M 1036.325667 258.92654 
C 1042.789725 257.786752 1048.660563 254.825713 1052.645195 250.695558 
C 1056.629828 246.565403 1058.402929 241.603341 1057.573992 236.902208 
C 1056.745055 232.201074 1053.381761 228.144697 1048.224834 225.626446 
C 1043.067908 223.108194 1036.538391 222.333673 1030.074333 223.47346 
C 1023.610275 224.613248 1017.739437 227.574287 1013.754805 231.704442 
C 1009.770172 235.834597 1007.997071 240.796659 1008.826008 245.497792 
C 1009.654945 250.198926 1013.018239 254.255303 1018.175166 256.773554 
C 1023.332092 259.291806 1029.861609 260.066327 1036.325667 258.92654 
z
" clip-path="url(#pf7446dc461)" style="stroke: #000000; stroke-linejoin: miter"/>
   </g>
   <g id="PathCollection_2">
    <g clip-path="url(#pf7446dc461)">
     <use xlink:href="#meb9a0904ba" x="1033.2" y="241.2" style="fill: #ffffff; stroke: #ffffff"/>
    </g>
   </g>
   <g id="patch_26">
    <path d="M 946.339041 700.090382 
C 953.482082 699.590892 960.002776 694.381859 964.465014 685.610511 
C 968.927252 676.839164 970.966713 665.221644 970.134229 653.316575 
C 969.301746 641.411507 965.665286 630.190886 960.025739 622.125924 
C 954.386191 614.060962 947.204 609.810128 940.060959 610.309618 
C 932.917918 610.809108 926.397224 616.018141 921.934986 624.789489 
C 917.472748 633.560836 915.433287 645.178356 916.265771 657.083425 
C 917.098254 668.988493 920.734714 680.209114 926.374261 688.274076 
C 932.013809 696.339038 939.196 700.589872 946.339041 700.090382 
z
" clip-path="url(#pf7446dc461)" style="fill: #808080; stroke: #808080; stroke-linejoin: miter"/>
   </g>
   <g id="patch_27">
    <path d="M 944.455617 673.156153 
C 951.003404 672.698287 957.151593 670.367139 961.546117 666.676117 
C 965.94064 662.985095 968.222704 658.235555 967.88971 653.473527 
C 967.556717 648.7115 964.635854 644.325784 959.770407 641.282282 
C 954.90496 638.23878 948.492171 636.785981 941.944383 637.243847 
C 935.396596 637.701713 929.248407 640.032861 924.853883 643.723883 
C 920.45936 647.414905 918.177296 652.164445 918.51029 656.926473 
C 918.843283 661.6885 921.764146 666.074216 926.629593 669.117718 
C 931.49504 672.16122 937.907829 673.614019 944.455617 673.156153 
z
" clip-path="url(#pf7446dc461)" style="stroke: #000000; stroke-linejoin: miter"/>
   </g>
   <g id="PathCollection_3">
    <g clip-path="url(#pf7446dc461)">
     <use xlink:href="#meb9a0904ba" x="943.2" y="655.2" style="fill: #ffffff; stroke: #ffffff"/>
    </g>
   </g>
   <g id="patch_28">
    <path d="M 795.277992 412.028761 
C 802.411227 412.652839 809.666512 408.527998 815.445954 400.562688 
C 821.225396 392.597379 825.057128 381.441932 826.097257 369.553205 
C 827.137386 357.664479 825.300989 346.013134 820.992511 337.165246 
C 816.684034 328.317358 810.255244 322.995316 803.122008 322.371239 
C 795.988773 321.747161 788.733488 325.872002 782.954046 333.837312 
C 777.174604 341.802621 773.342872 352.958068 772.302743 364.846795 
C 771.262614 376.735521 773.099011 388.386866 777.407489 397.234754 
C 781.715966 406.082642 788.144756 411.404684 795.277992 412.028761 
z
" clip-path="url(#pf7446dc461)" style="fill: #808080; stroke: #808080; stroke-linejoin: miter"/>
   </g>
   <g id="patch_29">
    <path d="M 797.631197 385.131505 
C 804.169996 385.703575 810.607163 384.362916 815.524985 381.404792 
C 820.442808 378.446667 823.439767 374.112595 823.855819 369.357105 
C 824.27187 364.601614 822.073045 359.81297 817.743608 356.045815 
C 813.414171 352.27866 807.307603 349.840566 800.768803 349.268495 
C 794.230004 348.696425 787.792837 350.037084 782.875015 352.995208 
C 777.957192 355.953333 774.960233 360.287405 774.544181 365.042895 
C 774.12813 369.798386 776.326955 374.58703 780.656392 378.354185 
C 784.985829 382.12134 791.092397 384.559434 797.631197 385.131505 
z
" clip-path="url(#pf7446dc461)" style="stroke: #000000; stroke-linejoin: miter"/>
   </g>
   <g id="PathCollection_4">
    <g clip-path="url(#pf7446dc461)">
     <use xlink:href="#meb9a0904ba" x="799.2" y="367.2" style="fill: #ffffff; stroke: #ffffff"/>
    </g>
   </g>
   <g id="patch_30">
    <path d="M 634.060959 178.090382 
C 641.204 178.589872 648.386191 174.339038 654.025739 166.274076 
C 659.665286 158.209114 663.301746 146.988493 664.134229 135.083425 
C 664.966713 123.178356 662.927252 111.560836 658.465014 102.789489 
C 654.002776 94.018141 647.482082 88.809108 640.339041 88.309618 
C 633.196 87.810128 626.013809 92.060962 620.374261 100.125924 
C 614.734714 108.190886 611.098254 119.411507 610.265771 131.316575 
C 609.433287 143.221644 611.472748 154.839164 615.934986 163.610511 
C 620.397224 172.381859 626.917918 177.590892 634.060959 178.090382 
z
" clip-path="url(#pf7446dc461)" style="fill: #808080; stroke: #808080; stroke-linejoin: miter"/>
   </g>
   <g id="patch_31">
    <path d="M 635.944383 151.156153 
C 642.492171 151.614019 648.90496 150.16122 653.770407 147.117718 
C 658.635854 144.074216 661.556717 139.6885 661.88971 134.926473 
C 662.222704 130.164445 659.94064 125.414905 655.546117 121.723883 
C 651.151593 118.032861 645.003404 115.701713 638.455617 115.243847 
C 631.907829 114.785981 625.49504 116.23878 620.629593 119.282282 
C 615.764146 122.325784 612.843283 126.7115 612.51029 131.473527 
C 612.177296 136.235555 614.45936 140.985095 618.853883 144.676117 
C 623.248407 148.367139 629.396596 150.698287 635.944383 151.156153 
z
" clip-path="url(#pf7446dc461)" style="stroke: #000000; stroke-linejoin: miter"/>
   </g>
   <g id="PathCollection_5">
    <g clip-path="url(#pf7446dc461)">
     <use xlink:href="#meb9a0904ba" x="637.2" y="133.2" style="fill: #ffffff; stroke: #ffffff"/>
    </g>
   </g>
   <g id="patch_32">
    <path d="M 457.985358 718.193146 
C 465.144751 718.068179 471.929128 713.207551 476.844307 704.68176 
C 481.759487 696.155968 484.404167 684.661107 484.195888 672.728785 
C 483.987608 660.796463 480.943374 649.400902 475.733643 641.051842 
C 470.523912 632.702782 463.574035 628.081886 456.414642 628.206854 
C 449.255249 628.331821 442.470872 633.192449 437.555693 641.71824 
C 432.640513 650.244032 429.995833 661.738893 430.204112 673.671215 
C 430.412392 685.603537 433.456626 696.999098 438.666357 705.348158 
C 443.876088 713.697218 450.825965 718.318114 457.985358 718.193146 
z
" clip-path="url(#pf7446dc461)" style="fill: #808080; stroke: #808080; stroke-linejoin: miter"/>
   </g>
   <g id="patch_33">
    <path d="M 457.514143 691.197259 
C 464.07692 691.082705 470.338686 689.076523 474.92036 685.620551 
C 479.502034 682.164579 482.029542 677.540982 481.94623 672.768053 
C 481.862919 667.995124 479.175589 663.462552 474.476094 660.168584 
C 469.7766 656.874615 463.448634 655.088188 456.885857 655.202741 
C 450.32308 655.317295 444.061314 657.323477 439.47964 660.779449 
C 434.897966 664.235421 432.370458 668.859018 432.45377 673.631947 
C 432.537081 678.404876 435.224411 682.937448 439.923906 686.231416 
C 444.6234 689.525385 450.951366 691.311812 457.514143 691.197259 
z
" clip-path="url(#pf7446dc461)" style="stroke: #000000; stroke-linejoin: miter"/>
   </g>
   <g id="PathCollection_6">
    <g clip-path="url(#pf7446dc461)">
     <use xlink:href="#meb9a0904ba" x="457.2" y="673.2" style="fill: #ffffff; stroke: #ffffff"/>
    </g>
   </g>
   <g id="patch_34">
    <path d="M 387.555118 268.138329 
C 394.705789 267.763578 401.316399 262.66914 405.931038 253.977005 
C 410.545678 245.28487 412.787582 233.704713 412.162997 221.786929 
C 411.538413 209.869145 408.098334 198.586768 402.600398 190.424611 
C 397.102463 182.262454 389.995552 177.88692 382.844882 178.261671 
C 375.694211 178.636422 369.083601 183.73086 364.468962 192.422995 
C 359.854322 201.11513 357.612418 212.695287 358.237003 224.613071 
C 358.861587 236.530855 362.301666 247.813232 367.799602 255.975389 
C 373.297537 264.137546 380.404448 268.51308 387.555118 268.138329 
z
" clip-path="url(#pf7446dc461)" style="fill: #808080; stroke: #808080; stroke-linejoin: miter"/>
   </g>
   <g id="patch_35">
    <path d="M 386.142047 241.175332 
C 392.696829 240.83181 398.884765 238.608318 403.343036 234.994553 
C 407.801308 231.380788 410.165915 226.671799 409.916081 221.904685 
C 409.666247 217.137571 406.82237 212.701547 402.01078 209.573595 
C 397.199191 206.445643 390.812734 204.881147 384.257953 205.224668 
C 377.703171 205.56819 371.515235 207.791682 367.056964 211.405447 
C 362.598692 215.019212 360.234085 219.728201 360.483919 224.495315 
C 360.733753 229.262429 363.57763 233.698453 368.38922 236.826405 
C 373.200809 239.954357 379.587266 241.518853 386.142047 241.175332 
z
" clip-path="url(#pf7446dc461)" style="stroke: #000000; stroke-linejoin: miter"/>
   </g>
   <g id="PathCollection_7">
    <g clip-path="url(#pf7446dc461)">
     <use xlink:href="#meb9a0904ba" x="385.2" y="223.2" style="fill: #ffffff; stroke: #ffffff"/>
    </g>
   </g>
   <g id="patch_36">
    <path d="M 289.71588 519.864577 
C 296.82299 520.73722 304.21781 516.868098 310.271716 509.10934 
C 316.325623 501.350582 320.54434 490.335657 321.998746 478.490472 
C 323.453152 466.645288 322.0245 454.936952 318.027434 445.94409 
C 314.030368 436.951228 307.791231 431.408067 300.68412 430.535423 
C 293.57701 429.66278 286.18219 433.531902 280.128284 441.29066 
C 274.074377 449.049418 269.85566 460.064343 268.401254 471.909528 
C 266.946848 483.754712 268.3755 495.463048 272.372566 504.45591 
C 276.369632 513.448772 282.608769 518.991933 289.71588 519.864577 
z
" clip-path="url(#pf7446dc461)" style="fill: #808080; stroke: #808080; stroke-linejoin: miter"/>
   </g>
   <g id="patch_37">
    <path d="M 293.006352 493.065831 
C 299.521203 493.865754 306.001237 492.750565 311.0193 489.965872 
C 316.037364 487.181179 319.183755 482.95434 319.765517 478.216266 
C 320.34728 473.478193 318.316915 468.615727 314.121587 464.699772 
C 309.92626 460.783817 303.9085 458.134092 297.393648 457.334169 
C 290.878797 456.534246 284.398763 457.649435 279.3807 460.434128 
C 274.362636 463.218821 271.216245 467.44566 270.634483 472.183734 
C 270.05272 476.921807 272.083085 481.784273 276.278413 485.700228 
C 280.47374 489.616183 286.4915 492.265908 293.006352 493.065831 
z
" clip-path="url(#pf7446dc461)" style="stroke: #000000; stroke-linejoin: miter"/>
   </g>
   <g id="PathCollection_8">
    <g clip-path="url(#pf7446dc461)">
     <use xlink:href="#meb9a0904ba" x="295.2" y="475.2" style="fill: #ffffff; stroke: #ffffff"/>
    </g>
   </g>
   <g id="patch_38">
    <path d="M 193.46279 249.762063 
C 200.553588 248.765516 206.695033 243.114311 210.534543 234.05306 
C 214.374053 224.991809 215.598149 213.260324 213.937238 201.442326 
C 212.276327 189.624329 207.866014 178.684707 201.677621 171.032786 
C 195.489228 163.380865 188.028009 159.64139 180.93721 160.637937 
C 173.846412 161.634484 167.704967 167.285689 163.865457 176.34694 
C 160.025947 185.408191 158.801851 197.139676 160.462762 208.957674 
C 162.123673 220.775671 166.533986 231.715293 172.722379 239.367214 
C 178.910772 247.019135 186.371991 250.75861 193.46279 249.762063 
z
" clip-path="url(#pf7446dc461)" style="fill: #808080; stroke: #808080; stroke-linejoin: miter"/>
   </g>
   <g id="patch_39">
    <path d="M 189.705116 223.024825 
C 196.205014 222.111324 202.175614 219.356979 206.30196 215.368401 
C 210.428305 211.379824 212.373499 206.482665 211.709135 201.755466 
C 211.04477 197.028267 207.82509 192.856983 202.759191 190.160292 
C 197.693292 187.4636 191.194783 186.461674 184.694884 187.375175 
C 178.194986 188.288676 172.224386 191.043021 168.09804 195.031599 
C 163.971695 199.020176 162.026501 203.917335 162.690865 208.644534 
C 163.35523 213.371733 166.57491 217.543017 171.640809 220.239708 
C 176.706708 222.9364 183.205217 223.938326 189.705116 223.024825 
z
" clip-path="url(#pf7446dc461)" style="stroke: #000000; stroke-linejoin: miter"/>
   </g>
   <g id="PathCollection_9">
    <g clip-path="url(#pf7446dc461)">
     <use xlink:href="#meb9a0904ba" x="187.2" y="205.2" style="fill: #ffffff; stroke: #ffffff"/>
    </g>
   </g>
   <g id="patch_40">
    <path d="M 113.629523 664.172587 
C 120.785644 664.422484 127.815109 659.923585 133.169758 651.666718 
C 138.524407 643.409852 141.767057 632.069156 142.183552 620.142286 
C 142.600048 608.215417 140.156383 596.67615 135.390748 588.065876 
C 130.625113 579.455601 123.926599 574.47731 116.770477 574.227413 
C 109.614356 573.977516 102.584891 578.476415 97.230242 586.733282 
C 91.875593 594.990148 88.632943 606.330844 88.216448 618.257714 
C 87.799952 630.184583 90.243617 641.72385 95.009252 650.334124 
C 99.774887 658.944399 106.473401 663.92269 113.629523 664.172587 
z
" clip-path="url(#pf7446dc461)" style="fill: #808080; stroke: #808080; stroke-linejoin: miter"/>
   </g>
   <g id="patch_41">
    <path d="M 114.571809 637.189035 
C 121.131587 637.418107 127.489767 635.74239 132.246034 632.530941 
C 137.0023 629.319491 139.768325 624.83451 139.934923 620.063763 
C 140.101521 615.293015 137.655091 610.626011 133.13443 607.090604 
C 128.613769 603.555197 122.387969 601.440038 115.828191 601.210965 
C 109.268413 600.981893 102.910233 602.65761 98.153966 605.869059 
C 93.3977 609.080509 90.631675 613.56549 90.465077 618.336237 
C 90.298479 623.106985 92.744909 627.773989 97.26557 631.309396 
C 101.786231 634.844803 108.012031 636.959962 114.571809 637.189035 
z
" clip-path="url(#pf7446dc461)" style="stroke: #000000; stroke-linejoin: miter"/>
   </g>
   <g id="PathCollection_10">
    <g clip-path="url(#pf7446dc461)">
     <use xlink:href="#meb9a0904ba" x="115.2" y="619.2" style="fill: #ffffff; stroke: #ffffff"/>
    </g>
   </g>
   <g id="line2d_1">
    <path d="M 305.763636 -1 
L 276.011321 326.275472 
L 88.472727 401.290909 
L -1 385.730435 
" clip-path="url(#pf7446dc461)" style="fill: none; stroke: #ffffff; stroke-width: 3; stroke-linecap: square"/>
   </g>
   <g id="line2d_2">
    <path d="M -1 385.730435 
L 88.472727 401.290909 
L 285.903297 648.079121 
L 266.431579 771.4 
" clip-path="url(#pf7446dc461)" style="fill: none; stroke: #ffffff; stroke-width: 3; stroke-linecap: square"/>
   </g>
   <g id="line2d_3">
    <path d="M 266.431579 771.4 
L 285.903297 648.079121 
L 435.098734 526.010127 
L 702.79322 734.216949 
L 704.17037 771.4 
" clip-path="url(#pf7446dc461)" style="fill: none; stroke: #ffffff; stroke-width: 3; stroke-linecap: square"/>
   </g>
   <g id="line2d_4">
    <path d="M 276.011321 326.275472 
L 305.763636 -1 
M 447.2 -1 
L 560.070968 315.03871 
L 452.2 389.2 
L 276.011321 326.275472 
" clip-path="url(#pf7446dc461)" style="fill: none; stroke: #ffffff; stroke-width: 3; stroke-linecap: square"/>
   </g>
   <g id="line2d_5">
    <path d="M 452.2 389.2 
L 435.098734 526.010127 
L 285.903297 648.079121 
L 88.472727 401.290909 
L 276.011321 326.275472 
L 452.2 389.2 
" clip-path="url(#pf7446dc461)" style="fill: none; stroke: #ffffff; stroke-width: 3; stroke-linecap: square"/>
   </g>
   <g id="line2d_6">
    <path d="M 435.098734 526.010127 
L 452.2 389.2 
L 560.070968 315.03871 
L 613.515789 322.673684 
L 772.2 560.7 
L 702.79322 734.216949 
L 435.098734 526.010127 
" clip-path="url(#pf7446dc461)" style="fill: none; stroke: #ffffff; stroke-width: 3; stroke-linecap: square"/>
   </g>
   <g id="line2d_7">
    <path d="M 886.527273 -1 
L 841.251724 165.010345 
L 613.515789 322.673684 
L 560.070968 315.03871 
L 447.2 -1 
" clip-path="url(#pf7446dc461)" style="fill: none; stroke: #ffffff; stroke-width: 3; stroke-linecap: square"/>
   </g>
   <g id="line2d_8">
    <path d="M 704.17037 771.4 
L 702.79322 734.216949 
L 772.2 560.7 
L 994.472727 449.563636 
L 1131.4 479.330435 
" clip-path="url(#pf7446dc461)" style="fill: none; stroke: #ffffff; stroke-width: 3; stroke-linecap: square"/>
   </g>
   <g id="line2d_9">
    <path d="M 1131.4 479.330435 
L 994.472727 449.563636 
L 841.251724 165.010345 
L 886.527273 -1 
" clip-path="url(#pf7446dc461)" style="fill: none; stroke: #ffffff; stroke-width: 3; stroke-linecap: square"/>
   </g>
   <g id="line2d_10">
    <path d="M 841.251724 165.010345 
L 994.472727 449.563636 
L 772.2 560.7 
L 613.515789 322.673684 
L 841.251724 165.010345 
" clip-path="url(#pf7446dc461)" style="fill: none; stroke: #ffffff; stroke-width: 3; stroke-linecap: square"/>
   </g>
   <g id="line2d_11">
    <path d="M 205.2 745.2 
L 205.2 25.2 
L 925.2 25.2 
L 925.2 745.2 
L 205.2 745.2 
" clip-path="url(#pf7446dc461)" style="fill: none; stroke: #e97586; stroke-width: 5; stroke-linecap: square"/>
   </g>
  </g>
 </g>
 <defs>
  <clipPath id="pf7446dc461">
   <rect x="7.2" y="7.2" width="1116" height="756"/>
  </clipPath>
 </defs>
</svg>
