<?xml version="1.0" encoding="utf-8" standalone="no"?>
<!DOCTYPE svg PUBLIC "-//W3C//DTD SVG 1.1//EN"
  "http://www.w3.org/Graphics/SVG/1.1/DTD/svg11.dtd">
<svg xmlns:xlink="http://www.w3.org/1999/xlink" width="1409.4pt" height="718.47987pt" viewBox="0 0 1409.4 718.47987" xmlns="http://www.w3.org/2000/svg" version="1.1">
 <metadata>
  <rdf:RDF xmlns:dc="http://purl.org/dc/elements/1.1/" xmlns:cc="http://creativecommons.org/ns#" xmlns:rdf="http://www.w3.org/1999/02/22-rdf-syntax-ns#">
   <cc:Work>
    <dc:type rdf:resource="http://purl.org/dc/dcmitype/StillImage"/>
    <dc:date>2023-08-23T13:44:22.946503</dc:date>
    <dc:format>image/svg+xml</dc:format>
    <dc:creator>
     <cc:Agent>
      <dc:title>Matplotlib v3.7.2, https://matplotlib.org/</dc:title>
     </cc:Agent>
    </dc:creator>
   </cc:Work>
  </rdf:RDF>
 </metadata>
 <defs>
  <style type="text/css">*{stroke-linejoin: round; stroke-linecap: butt}</style>
 </defs>
 <g id="figure_1">
  <g id="patch_1">
   <path d="M 0 718.47987
L 1409.4 718.47987
L 1409.4 0
L 0 0
z
" style="fill: #ffffff"/>
  </g>
  <g id="axes_1">
   <g id="patch_2">
    <path d="M 266.043874 174.14664
L 143.514229 296.676285
L 20.984585 174.14664
L 143.514229 51.616996
z
" clip-path="url(#pb4fb2a9671)" style="fill: #59b2d8; opacity: 0.1; stroke: #59b2d8; stroke-linejoin: miter"/>
   </g>
   <g id="patch_3">
    <path d="M 143.514229 204.779051
C 148.388515 204.779051 153.06382 201.551427 156.510461 195.807026
C 159.957101 190.062625 161.893676 182.270451 161.893676 174.14664
C 161.893676 166.02283 159.957101 158.230656 156.510461 152.486255
C 153.06382 146.741853 148.388515 143.514229 143.514229 143.514229
C 138.639943 143.514229 133.964639 146.741853 130.517998 152.486255
C 127.071357 158.230656 125.134783 166.02283 125.134783 174.14664
C 125.134783 182.270451 127.071357 190.062625 130.517998 195.807026
C 133.964639 201.551427 138.639943 204.779051 143.514229 204.779051
z
" clip-path="url(#pb4fb2a9671)" style="fill: #808080; stroke: #808080; stroke-linejoin: miter"/>
   </g>
   <g id="patch_4">
    <path d="M 143.514229 186.399605
C 147.982325 186.399605 152.268021 185.108555 155.427441 182.810795
C 158.586862 180.513034 160.362055 177.396164 160.362055 174.14664
C 160.362055 170.897116 158.586862 167.780247 155.427441 165.482486
C 152.268021 163.184726 147.982325 161.893676 143.514229 161.893676
C 139.046134 161.893676 134.760438 163.184726 131.601017 165.482486
C 128.441596 167.780247 126.666403 170.897116 126.666403 174.14664
C 126.666403 177.396164 128.441596 180.513034 131.601017 182.810795
C 134.760438 185.108555 139.046134 186.399605 143.514229 186.399605
z
" clip-path="url(#pb4fb2a9671)" style="stroke: #000000; stroke-linejoin: miter"/>
   </g>
   <g id="PathCollection_1">
    <defs>
     <path id="me52d556af5" d="M 0 3
C 0.795609 3 1.55874 2.683901 2.12132 2.12132
C 2.683901 1.55874 3 0.795609 3 0
C 3 -0.795609 2.683901 -1.55874 2.12132 -2.12132
C 1.55874 -2.683901 0.795609 -3 0 -3
C -0.795609 -3 -1.55874 -2.683901 -2.12132 -2.12132
C -2.683901 -1.55874 -3 -0.795609 -3 0
C -3 0.795609 -2.683901 1.55874 -2.12132 2.12132
C -1.55874 2.683901 -0.795609 3 0 3
z
" style="stroke: #ffffff"/>
    </defs>
    <g clip-path="url(#pb4fb2a9671)">
     <use xlink:href="#me52d556af5" x="143.514229" y="174.14664" style="fill: #ffffff; stroke: #ffffff"/>
    </g>
   </g>
   <g id="line2d_1">
    <path d="M 143.514229 174.14664
L 143.514229 20.984585
" clip-path="url(#pb4fb2a9671)" style="fill: none; stroke-dasharray: 7.4,3.2; stroke-dashoffset: 0; stroke: #808080; stroke-width: 2"/>
   </g>
   <g id="line2d_2">
    <path d="M 143.514229 174.14664
L 296.676285 174.14664
" clip-path="url(#pb4fb2a9671)" style="fill: none; stroke-dasharray: 7.4,3.2; stroke-dashoffset: 0; stroke: #808080; stroke-width: 2"/>
   </g>
   <g id="line2d_3">
    <path d="M 266.043874 174.14664
L 143.514229 296.676285
L 20.984585 174.14664
L 143.514229 51.616996
L 266.043874 174.14664
" clip-path="url(#pb4fb2a9671)" style="fill: none; stroke: #59b2d8; stroke-width: 3; stroke-linecap: square"/>
    <defs>
     <path id="m14415f5583" d="M 0 3
C 0.795609 3 1.55874 2.683901 2.12132 2.12132
C 2.683901 1.55874 3 0.795609 3 0
C 3 -0.795609 2.683901 -1.55874 2.12132 -2.12132
C 1.55874 -2.683901 0.795609 -3 0 -3
C -0.795609 -3 -1.55874 -2.683901 -2.12132 -2.12132
C -2.683901 -1.55874 -3 -0.795609 -3 0
C -3 0.795609 -2.683901 1.55874 -2.12132 2.12132
C -1.55874 2.683901 -0.795609 3 0 3
z
" style="stroke: #59b2d8"/>
    </defs>
    <g clip-path="url(#pb4fb2a9671)">
     <use xlink:href="#m14415f5583" x="266.043874" y="174.14664" style="fill: #59b2d8; stroke: #59b2d8"/>
     <use xlink:href="#m14415f5583" x="143.514229" y="296.676285" style="fill: #59b2d8; stroke: #59b2d8"/>
     <use xlink:href="#m14415f5583" x="20.984585" y="174.14664" style="fill: #59b2d8; stroke: #59b2d8"/>
     <use xlink:href="#m14415f5583" x="143.514229" y="51.616996" style="fill: #59b2d8; stroke: #59b2d8"/>
     <use xlink:href="#m14415f5583" x="266.043874" y="174.14664" style="fill: #59b2d8; stroke: #59b2d8"/>
    </g>
   </g>
   <g id="line2d_4">
    <path d="M 143.514229 51.616996
L 266.043874 174.14664
" clip-path="url(#pb4fb2a9671)" style="fill: none; stroke: #ff0000; stroke-width: 3; stroke-linecap: square"/>
    <defs>
     <path id="m7c9a2d61a8" d="M 0 3
C 0.795609 3 1.55874 2.683901 2.12132 2.12132
C 2.683901 1.55874 3 0.795609 3 0
C 3 -0.795609 2.683901 -1.55874 2.12132 -2.12132
C 1.55874 -2.683901 0.795609 -3 0 -3
C -0.795609 -3 -1.55874 -2.683901 -2.12132 -2.12132
C -2.683901 -1.55874 -3 -0.795609 -3 0
C -3 0.795609 -2.683901 1.55874 -2.12132 2.12132
C -1.55874 2.683901 -0.795609 3 0 3
z
" style="stroke: #ff0000"/>
    </defs>
    <g clip-path="url(#pb4fb2a9671)">
     <use xlink:href="#m7c9a2d61a8" x="143.514229" y="51.616996" style="fill: #ff0000; stroke: #ff0000"/>
     <use xlink:href="#m7c9a2d61a8" x="266.043874" y="174.14664" style="fill: #ff0000; stroke: #ff0000"/>
    </g>
   </g>
   <g id="text_1">
    <!-- quad-segments = 1 -->
    <g transform="translate(19.838448 328.080651) scale(0.25 -0.25)">
     <defs>
      <path id="DejaVuSans-71" d="M 947 1747
Q 947 1113 1208 752
Q 1469 391 1925 391
Q 2381 391 2643 752
Q 2906 1113 2906 1747
Q 2906 2381 2643 2742
Q 2381 3103 1925 3103
Q 1469 3103 1208 2742
Q 947 2381 947 1747
z
M 2906 525
Q 2725 213 2448 61
Q 2172 -91 1784 -91
Q 1150 -91 751 415
Q 353 922 353 1747
Q 353 2572 751 3078
Q 1150 3584 1784 3584
Q 2172 3584 2448 3432
Q 2725 3281 2906 2969
L 2906 3500
L 3481 3500
L 3481 -1331
L 2906 -1331
L 2906 525
z
" transform="scale(0.015625)"/>
      <path id="DejaVuSans-75" d="M 544 1381
L 544 3500
L 1119 3500
L 1119 1403
Q 1119 906 1312 657
Q 1506 409 1894 409
Q 2359 409 2629 706
Q 2900 1003 2900 1516
L 2900 3500
L 3475 3500
L 3475 0
L 2900 0
L 2900 538
Q 2691 219 2414 64
Q 2138 -91 1772 -91
Q 1169 -91 856 284
Q 544 659 544 1381
z
M 1991 3584
L 1991 3584
z
" transform="scale(0.015625)"/>
      <path id="DejaVuSans-61" d="M 2194 1759
Q 1497 1759 1228 1600
Q 959 1441 959 1056
Q 959 750 1161 570
Q 1363 391 1709 391
Q 2188 391 2477 730
Q 2766 1069 2766 1631
L 2766 1759
L 2194 1759
z
M 3341 1997
L 3341 0
L 2766 0
L 2766 531
Q 2569 213 2275 61
Q 1981 -91 1556 -91
Q 1019 -91 701 211
Q 384 513 384 1019
Q 384 1609 779 1909
Q 1175 2209 1959 2209
L 2766 2209
L 2766 2266
Q 2766 2663 2505 2880
Q 2244 3097 1772 3097
Q 1472 3097 1187 3025
Q 903 2953 641 2809
L 641 3341
Q 956 3463 1253 3523
Q 1550 3584 1831 3584
Q 2591 3584 2966 3190
Q 3341 2797 3341 1997
z
" transform="scale(0.015625)"/>
      <path id="DejaVuSans-64" d="M 2906 2969
L 2906 4863
L 3481 4863
L 3481 0
L 2906 0
L 2906 525
Q 2725 213 2448 61
Q 2172 -91 1784 -91
Q 1150 -91 751 415
Q 353 922 353 1747
Q 353 2572 751 3078
Q 1150 3584 1784 3584
Q 2172 3584 2448 3432
Q 2725 3281 2906 2969
z
M 947 1747
Q 947 1113 1208 752
Q 1469 391 1925 391
Q 2381 391 2643 752
Q 2906 1113 2906 1747
Q 2906 2381 2643 2742
Q 2381 3103 1925 3103
Q 1469 3103 1208 2742
Q 947 2381 947 1747
z
" transform="scale(0.015625)"/>
      <path id="DejaVuSans-2d" d="M 313 2009
L 1997 2009
L 1997 1497
L 313 1497
L 313 2009
z
" transform="scale(0.015625)"/>
      <path id="DejaVuSans-73" d="M 2834 3397
L 2834 2853
Q 2591 2978 2328 3040
Q 2066 3103 1784 3103
Q 1356 3103 1142 2972
Q 928 2841 928 2578
Q 928 2378 1081 2264
Q 1234 2150 1697 2047
L 1894 2003
Q 2506 1872 2764 1633
Q 3022 1394 3022 966
Q 3022 478 2636 193
Q 2250 -91 1575 -91
Q 1294 -91 989 -36
Q 684 19 347 128
L 347 722
Q 666 556 975 473
Q 1284 391 1588 391
Q 1994 391 2212 530
Q 2431 669 2431 922
Q 2431 1156 2273 1281
Q 2116 1406 1581 1522
L 1381 1569
Q 847 1681 609 1914
Q 372 2147 372 2553
Q 372 3047 722 3315
Q 1072 3584 1716 3584
Q 2034 3584 2315 3537
Q 2597 3491 2834 3397
z
" transform="scale(0.015625)"/>
      <path id="DejaVuSans-65" d="M 3597 1894
L 3597 1613
L 953 1613
Q 991 1019 1311 708
Q 1631 397 2203 397
Q 2534 397 2845 478
Q 3156 559 3463 722
L 3463 178
Q 3153 47 2828 -22
Q 2503 -91 2169 -91
Q 1331 -91 842 396
Q 353 884 353 1716
Q 353 2575 817 3079
Q 1281 3584 2069 3584
Q 2775 3584 3186 3129
Q 3597 2675 3597 1894
z
M 3022 2063
Q 3016 2534 2758 2815
Q 2500 3097 2075 3097
Q 1594 3097 1305 2825
Q 1016 2553 972 2059
L 3022 2063
z
" transform="scale(0.015625)"/>
      <path id="DejaVuSans-67" d="M 2906 1791
Q 2906 2416 2648 2759
Q 2391 3103 1925 3103
Q 1463 3103 1205 2759
Q 947 2416 947 1791
Q 947 1169 1205 825
Q 1463 481 1925 481
Q 2391 481 2648 825
Q 2906 1169 2906 1791
z
M 3481 434
Q 3481 -459 3084 -895
Q 2688 -1331 1869 -1331
Q 1566 -1331 1297 -1286
Q 1028 -1241 775 -1147
L 775 -588
Q 1028 -725 1275 -790
Q 1522 -856 1778 -856
Q 2344 -856 2625 -561
Q 2906 -266 2906 331
L 2906 616
Q 2728 306 2450 153
Q 2172 0 1784 0
Q 1141 0 747 490
Q 353 981 353 1791
Q 353 2603 747 3093
Q 1141 3584 1784 3584
Q 2172 3584 2450 3431
Q 2728 3278 2906 2969
L 2906 3500
L 3481 3500
L 3481 434
z
" transform="scale(0.015625)"/>
      <path id="DejaVuSans-6d" d="M 3328 2828
Q 3544 3216 3844 3400
Q 4144 3584 4550 3584
Q 5097 3584 5394 3201
Q 5691 2819 5691 2113
L 5691 0
L 5113 0
L 5113 2094
Q 5113 2597 4934 2840
Q 4756 3084 4391 3084
Q 3944 3084 3684 2787
Q 3425 2491 3425 1978
L 3425 0
L 2847 0
L 2847 2094
Q 2847 2600 2669 2842
Q 2491 3084 2119 3084
Q 1678 3084 1418 2786
Q 1159 2488 1159 1978
L 1159 0
L 581 0
L 581 3500
L 1159 3500
L 1159 2956
Q 1356 3278 1631 3431
Q 1906 3584 2284 3584
Q 2666 3584 2933 3390
Q 3200 3197 3328 2828
z
" transform="scale(0.015625)"/>
      <path id="DejaVuSans-6e" d="M 3513 2113
L 3513 0
L 2938 0
L 2938 2094
Q 2938 2591 2744 2837
Q 2550 3084 2163 3084
Q 1697 3084 1428 2787
Q 1159 2491 1159 1978
L 1159 0
L 581 0
L 581 3500
L 1159 3500
L 1159 2956
Q 1366 3272 1645 3428
Q 1925 3584 2291 3584
Q 2894 3584 3203 3211
Q 3513 2838 3513 2113
z
" transform="scale(0.015625)"/>
      <path id="DejaVuSans-74" d="M 1172 4494
L 1172 3500
L 2356 3500
L 2356 3053
L 1172 3053
L 1172 1153
Q 1172 725 1289 603
Q 1406 481 1766 481
L 2356 481
L 2356 0
L 1766 0
Q 1100 0 847 248
Q 594 497 594 1153
L 594 3053
L 172 3053
L 172 3500
L 594 3500
L 594 4494
L 1172 4494
z
" transform="scale(0.015625)"/>
      <path id="DejaVuSans-20" transform="scale(0.015625)"/>
      <path id="DejaVuSans-3d" d="M 678 2906
L 4684 2906
L 4684 2381
L 678 2381
L 678 2906
z
M 678 1631
L 4684 1631
L 4684 1100
L 678 1100
L 678 1631
z
" transform="scale(0.015625)"/>
      <path id="DejaVuSans-31" d="M 794 531
L 1825 531
L 1825 4091
L 703 3866
L 703 4441
L 1819 4666
L 2450 4666
L 2450 531
L 3481 531
L 3481 0
L 794 0
L 794 531
z
" transform="scale(0.015625)"/>
     </defs>
     <use xlink:href="#DejaVuSans-71"/>
     <use xlink:href="#DejaVuSans-75" x="63.476562"/>
     <use xlink:href="#DejaVuSans-61" x="126.855469"/>
     <use xlink:href="#DejaVuSans-64" x="188.134766"/>
     <use xlink:href="#DejaVuSans-2d" x="251.611328"/>
     <use xlink:href="#DejaVuSans-73" x="287.695312"/>
     <use xlink:href="#DejaVuSans-65" x="339.794922"/>
     <use xlink:href="#DejaVuSans-67" x="401.318359"/>
     <use xlink:href="#DejaVuSans-6d" x="464.794922"/>
     <use xlink:href="#DejaVuSans-65" x="562.207031"/>
     <use xlink:href="#DejaVuSans-6e" x="623.730469"/>
     <use xlink:href="#DejaVuSans-74" x="687.109375"/>
     <use xlink:href="#DejaVuSans-73" x="726.318359"/>
     <use xlink:href="#DejaVuSans-20" x="778.417969"/>
     <use xlink:href="#DejaVuSans-3d" x="810.205078"/>
     <use xlink:href="#DejaVuSans-20" x="893.994141"/>
     <use xlink:href="#DejaVuSans-31" x="925.78125"/>
    </g>
   </g>
  </g>
  <g id="axes_2">
   <g id="patch_5">
    <path d="M 629.956917 174.14664
L 594.068815 260.788183
L 507.427273 296.676285
L 420.78573 260.788183
L 384.897628 174.14664
L 420.78573 87.505098
L 507.427273 51.616996
L 594.068815 87.505098
z
" clip-path="url(#pc17444dca2)" style="fill: #59b2d8; opacity: 0.1; stroke: #59b2d8; stroke-linejoin: miter"/>
   </g>
   <g id="patch_6">
    <path d="M 507.427273 204.779051
C 512.301559 204.779051 516.976863 201.551427 520.423504 195.807026
C 523.870145 190.062625 525.806719 182.270451 525.806719 174.14664
C 525.806719 166.02283 523.870145 158.230656 520.423504 152.486255
C 516.976863 146.741853 512.301559 143.514229 507.427273 143.514229
C 502.552987 143.514229 497.877682 146.741853 494.431041 152.486255
C 490.984401 158.230656 489.047826 166.02283 489.047826 174.14664
C 489.047826 182.270451 490.984401 190.062625 494.431041 195.807026
C 497.877682 201.551427 502.552987 204.779051 507.427273 204.779051
z
" clip-path="url(#pc17444dca2)" style="fill: #808080; stroke: #808080; stroke-linejoin: miter"/>
   </g>
   <g id="patch_7">
    <path d="M 507.427273 186.399605
C 511.895368 186.399605 516.181064 185.108555 519.340485 182.810795
C 522.499906 180.513034 524.275099 177.396164 524.275099 174.14664
C 524.275099 170.897116 522.499906 167.780247 519.340485 165.482486
C 516.181064 163.184726 511.895368 161.893676 507.427273 161.893676
C 502.959177 161.893676 498.673481 163.184726 495.514061 165.482486
C 492.35464 167.780247 490.579447 170.897116 490.579447 174.14664
C 490.579447 177.396164 492.35464 180.513034 495.514061 182.810795
C 498.673481 185.108555 502.959177 186.399605 507.427273 186.399605
z
" clip-path="url(#pc17444dca2)" style="stroke: #000000; stroke-linejoin: miter"/>
   </g>
   <g id="PathCollection_2">
    <g clip-path="url(#pc17444dca2)">
     <use xlink:href="#me52d556af5" x="507.427273" y="174.14664" style="fill: #ffffff; stroke: #ffffff"/>
    </g>
   </g>
   <g id="line2d_5">
    <path d="M 507.427273 174.14664
L 507.427273 20.984585
" clip-path="url(#pc17444dca2)" style="fill: none; stroke-dasharray: 7.4,3.2; stroke-dashoffset: 0; stroke: #808080; stroke-width: 2"/>
   </g>
   <g id="line2d_6">
    <path d="M 507.427273 174.14664
L 660.589328 174.14664
" clip-path="url(#pc17444dca2)" style="fill: none; stroke-dasharray: 7.4,3.2; stroke-dashoffset: 0; stroke: #808080; stroke-width: 2"/>
   </g>
   <g id="line2d_7">
    <path d="M 629.956917 174.14664
L 594.068815 260.788183
L 507.427273 296.676285
L 420.78573 260.788183
L 384.897628 174.14664
L 420.78573 87.505098
L 507.427273 51.616996
L 594.068815 87.505098
L 629.956917 174.14664
" clip-path="url(#pc17444dca2)" style="fill: none; stroke: #59b2d8; stroke-width: 3; stroke-linecap: square"/>
    <g clip-path="url(#pc17444dca2)">
     <use xlink:href="#m14415f5583" x="629.956917" y="174.14664" style="fill: #59b2d8; stroke: #59b2d8"/>
     <use xlink:href="#m14415f5583" x="594.068815" y="260.788183" style="fill: #59b2d8; stroke: #59b2d8"/>
     <use xlink:href="#m14415f5583" x="507.427273" y="296.676285" style="fill: #59b2d8; stroke: #59b2d8"/>
     <use xlink:href="#m14415f5583" x="420.78573" y="260.788183" style="fill: #59b2d8; stroke: #59b2d8"/>
     <use xlink:href="#m14415f5583" x="384.897628" y="174.14664" style="fill: #59b2d8; stroke: #59b2d8"/>
     <use xlink:href="#m14415f5583" x="420.78573" y="87.505098" style="fill: #59b2d8; stroke: #59b2d8"/>
     <use xlink:href="#m14415f5583" x="507.427273" y="51.616996" style="fill: #59b2d8; stroke: #59b2d8"/>
     <use xlink:href="#m14415f5583" x="594.068815" y="87.505098" style="fill: #59b2d8; stroke: #59b2d8"/>
     <use xlink:href="#m14415f5583" x="629.956917" y="174.14664" style="fill: #59b2d8; stroke: #59b2d8"/>
    </g>
   </g>
   <g id="line2d_8">
    <path d="M 507.427273 51.616996
L 594.068815 87.505098
L 629.956917 174.14664
" clip-path="url(#pc17444dca2)" style="fill: none; stroke: #ff0000; stroke-width: 3; stroke-linecap: square"/>
    <g clip-path="url(#pc17444dca2)">
     <use xlink:href="#m7c9a2d61a8" x="507.427273" y="51.616996" style="fill: #ff0000; stroke: #ff0000"/>
     <use xlink:href="#m7c9a2d61a8" x="594.068815" y="87.505098" style="fill: #ff0000; stroke: #ff0000"/>
     <use xlink:href="#m7c9a2d61a8" x="629.956917" y="174.14664" style="fill: #ff0000; stroke: #ff0000"/>
    </g>
   </g>
   <g id="text_2">
    <!-- quad-segments = 2 -->
    <g transform="translate(383.751491 328.080651) scale(0.25 -0.25)">
     <defs>
      <path id="DejaVuSans-32" d="M 1228 531
L 3431 531
L 3431 0
L 469 0
L 469 531
Q 828 903 1448 1529
Q 2069 2156 2228 2338
Q 2531 2678 2651 2914
Q 2772 3150 2772 3378
Q 2772 3750 2511 3984
Q 2250 4219 1831 4219
Q 1534 4219 1204 4116
Q 875 4013 500 3803
L 500 4441
Q 881 4594 1212 4672
Q 1544 4750 1819 4750
Q 2544 4750 2975 4387
Q 3406 4025 3406 3419
Q 3406 3131 3298 2873
Q 3191 2616 2906 2266
Q 2828 2175 2409 1742
Q 1991 1309 1228 531
z
" transform="scale(0.015625)"/>
     </defs>
     <use xlink:href="#DejaVuSans-71"/>
     <use xlink:href="#DejaVuSans-75" x="63.476562"/>
     <use xlink:href="#DejaVuSans-61" x="126.855469"/>
     <use xlink:href="#DejaVuSans-64" x="188.134766"/>
     <use xlink:href="#DejaVuSans-2d" x="251.611328"/>
     <use xlink:href="#DejaVuSans-73" x="287.695312"/>
     <use xlink:href="#DejaVuSans-65" x="339.794922"/>
     <use xlink:href="#DejaVuSans-67" x="401.318359"/>
     <use xlink:href="#DejaVuSans-6d" x="464.794922"/>
     <use xlink:href="#DejaVuSans-65" x="562.207031"/>
     <use xlink:href="#DejaVuSans-6e" x="623.730469"/>
     <use xlink:href="#DejaVuSans-74" x="687.109375"/>
     <use xlink:href="#DejaVuSans-73" x="726.318359"/>
     <use xlink:href="#DejaVuSans-20" x="778.417969"/>
     <use xlink:href="#DejaVuSans-3d" x="810.205078"/>
     <use xlink:href="#DejaVuSans-20" x="893.994141"/>
     <use xlink:href="#DejaVuSans-32" x="925.78125"/>
    </g>
   </g>
  </g>
  <g id="axes_3">
   <g id="patch_8">
    <path d="M 993.86996 174.14664
L 977.454101 235.411462
L 932.605138 280.260425
L 871.340316 296.676285
L 810.075494 280.260425
L 765.226532 235.411462
L 748.810672 174.14664
L 765.226532 112.881818
L 810.075494 68.032856
L 871.340316 51.616996
L 932.605138 68.032856
L 977.454101 112.881818
z
" clip-path="url(#p2ffc7b4dcf)" style="fill: #59b2d8; opacity: 0.1; stroke: #59b2d8; stroke-linejoin: miter"/>
   </g>
   <g id="patch_9">
    <path d="M 871.340316 204.779051
C 876.214602 204.779051 880.889907 201.551427 884.336548 195.807026
C 887.783188 190.062625 889.719763 182.270451 889.719763 174.14664
C 889.719763 166.02283 887.783188 158.230656 884.336548 152.486255
C 880.889907 146.741853 876.214602 143.514229 871.340316 143.514229
C 866.46603 143.514229 861.790726 146.741853 858.344085 152.486255
C 854.897444 158.230656 852.96087 166.02283 852.96087 174.14664
C 852.96087 182.270451 854.897444 190.062625 858.344085 195.807026
C 861.790726 201.551427 866.46603 204.779051 871.340316 204.779051
z
" clip-path="url(#p2ffc7b4dcf)" style="fill: #808080; stroke: #808080; stroke-linejoin: miter"/>
   </g>
   <g id="patch_10">
    <path d="M 871.340316 186.399605
C 875.808412 186.399605 880.094108 185.108555 883.253528 182.810795
C 886.412949 180.513034 888.188142 177.396164 888.188142 174.14664
C 888.188142 170.897116 886.412949 167.780247 883.253528 165.482486
C 880.094108 163.184726 875.808412 161.893676 871.340316 161.893676
C 866.87222 161.893676 862.586525 163.184726 859.427104 165.482486
C 856.267683 167.780247 854.49249 170.897116 854.49249 174.14664
C 854.49249 177.396164 856.267683 180.513034 859.427104 182.810795
C 862.586525 185.108555 866.87222 186.399605 871.340316 186.399605
z
" clip-path="url(#p2ffc7b4dcf)" style="stroke: #000000; stroke-linejoin: miter"/>
   </g>
   <g id="PathCollection_3">
    <g clip-path="url(#p2ffc7b4dcf)">
     <use xlink:href="#me52d556af5" x="871.340316" y="174.14664" style="fill: #ffffff; stroke: #ffffff"/>
    </g>
   </g>
   <g id="line2d_9">
    <path d="M 871.340316 174.14664
L 871.340316 20.984585
" clip-path="url(#p2ffc7b4dcf)" style="fill: none; stroke-dasharray: 7.4,3.2; stroke-dashoffset: 0; stroke: #808080; stroke-width: 2"/>
   </g>
   <g id="line2d_10">
    <path d="M 871.340316 174.14664
L 1024.502372 174.14664
" clip-path="url(#p2ffc7b4dcf)" style="fill: none; stroke-dasharray: 7.4,3.2; stroke-dashoffset: 0; stroke: #808080; stroke-width: 2"/>
   </g>
   <g id="line2d_11">
    <path d="M 993.86996 174.14664
L 977.454101 235.411462
L 932.605138 280.260425
L 871.340316 296.676285
L 810.075494 280.260425
L 765.226532 235.411462
L 748.810672 174.14664
L 765.226532 112.881818
L 810.075494 68.032856
L 871.340316 51.616996
L 932.605138 68.032856
L 977.454101 112.881818
L 993.86996 174.14664
" clip-path="url(#p2ffc7b4dcf)" style="fill: none; stroke: #59b2d8; stroke-width: 3; stroke-linecap: square"/>
    <g clip-path="url(#p2ffc7b4dcf)">
     <use xlink:href="#m14415f5583" x="993.86996" y="174.14664" style="fill: #59b2d8; stroke: #59b2d8"/>
     <use xlink:href="#m14415f5583" x="977.454101" y="235.411462" style="fill: #59b2d8; stroke: #59b2d8"/>
     <use xlink:href="#m14415f5583" x="932.605138" y="280.260425" style="fill: #59b2d8; stroke: #59b2d8"/>
     <use xlink:href="#m14415f5583" x="871.340316" y="296.676285" style="fill: #59b2d8; stroke: #59b2d8"/>
     <use xlink:href="#m14415f5583" x="810.075494" y="280.260425" style="fill: #59b2d8; stroke: #59b2d8"/>
     <use xlink:href="#m14415f5583" x="765.226532" y="235.411462" style="fill: #59b2d8; stroke: #59b2d8"/>
     <use xlink:href="#m14415f5583" x="748.810672" y="174.14664" style="fill: #59b2d8; stroke: #59b2d8"/>
     <use xlink:href="#m14415f5583" x="765.226532" y="112.881818" style="fill: #59b2d8; stroke: #59b2d8"/>
     <use xlink:href="#m14415f5583" x="810.075494" y="68.032856" style="fill: #59b2d8; stroke: #59b2d8"/>
     <use xlink:href="#m14415f5583" x="871.340316" y="51.616996" style="fill: #59b2d8; stroke: #59b2d8"/>
     <use xlink:href="#m14415f5583" x="932.605138" y="68.032856" style="fill: #59b2d8; stroke: #59b2d8"/>
     <use xlink:href="#m14415f5583" x="977.454101" y="112.881818" style="fill: #59b2d8; stroke: #59b2d8"/>
     <use xlink:href="#m14415f5583" x="993.86996" y="174.14664" style="fill: #59b2d8; stroke: #59b2d8"/>
    </g>
   </g>
   <g id="line2d_12">
    <path d="M 871.340316 51.616996
L 932.605138 68.032856
L 977.454101 112.881818
L 993.86996 174.14664
" clip-path="url(#p2ffc7b4dcf)" style="fill: none; stroke: #ff0000; stroke-width: 3; stroke-linecap: square"/>
    <g clip-path="url(#p2ffc7b4dcf)">
     <use xlink:href="#m7c9a2d61a8" x="871.340316" y="51.616996" style="fill: #ff0000; stroke: #ff0000"/>
     <use xlink:href="#m7c9a2d61a8" x="932.605138" y="68.032856" style="fill: #ff0000; stroke: #ff0000"/>
     <use xlink:href="#m7c9a2d61a8" x="977.454101" y="112.881818" style="fill: #ff0000; stroke: #ff0000"/>
     <use xlink:href="#m7c9a2d61a8" x="993.86996" y="174.14664" style="fill: #ff0000; stroke: #ff0000"/>
    </g>
   </g>
   <g id="text_3">
    <!-- quad-segments = 3 -->
    <g transform="translate(747.664535 328.080651) scale(0.25 -0.25)">
     <defs>
      <path id="DejaVuSans-33" d="M 2597 2516
Q 3050 2419 3304 2112
Q 3559 1806 3559 1356
Q 3559 666 3084 287
Q 2609 -91 1734 -91
Q 1441 -91 1130 -33
Q 819 25 488 141
L 488 750
Q 750 597 1062 519
Q 1375 441 1716 441
Q 2309 441 2620 675
Q 2931 909 2931 1356
Q 2931 1769 2642 2001
Q 2353 2234 1838 2234
L 1294 2234
L 1294 2753
L 1863 2753
Q 2328 2753 2575 2939
Q 2822 3125 2822 3475
Q 2822 3834 2567 4026
Q 2313 4219 1838 4219
Q 1578 4219 1281 4162
Q 984 4106 628 3988
L 628 4550
Q 988 4650 1302 4700
Q 1616 4750 1894 4750
Q 2613 4750 3031 4423
Q 3450 4097 3450 3541
Q 3450 3153 3228 2886
Q 3006 2619 2597 2516
z
" transform="scale(0.015625)"/>
     </defs>
     <use xlink:href="#DejaVuSans-71"/>
     <use xlink:href="#DejaVuSans-75" x="63.476562"/>
     <use xlink:href="#DejaVuSans-61" x="126.855469"/>
     <use xlink:href="#DejaVuSans-64" x="188.134766"/>
     <use xlink:href="#DejaVuSans-2d" x="251.611328"/>
     <use xlink:href="#DejaVuSans-73" x="287.695312"/>
     <use xlink:href="#DejaVuSans-65" x="339.794922"/>
     <use xlink:href="#DejaVuSans-67" x="401.318359"/>
     <use xlink:href="#DejaVuSans-6d" x="464.794922"/>
     <use xlink:href="#DejaVuSans-65" x="562.207031"/>
     <use xlink:href="#DejaVuSans-6e" x="623.730469"/>
     <use xlink:href="#DejaVuSans-74" x="687.109375"/>
     <use xlink:href="#DejaVuSans-73" x="726.318359"/>
     <use xlink:href="#DejaVuSans-20" x="778.417969"/>
     <use xlink:href="#DejaVuSans-3d" x="810.205078"/>
     <use xlink:href="#DejaVuSans-20" x="893.994141"/>
     <use xlink:href="#DejaVuSans-33" x="925.78125"/>
    </g>
   </g>
  </g>
  <g id="axes_4">
   <g id="patch_11">
    <path d="M 1357.783004 174.14664
L 1348.45599 221.036705
L 1321.894902 260.788183
L 1282.143425 287.349271
L 1235.25336 296.676285
L 1188.363295 287.349271
L 1148.611817 260.788183
L 1122.050729 221.036705
L 1112.723715 174.14664
L 1122.050729 127.256575
L 1148.611817 87.505098
L 1188.363295 60.94401
L 1235.25336 51.616996
L 1282.143425 60.94401
L 1321.894902 87.505098
L 1348.45599 127.256575
z
" clip-path="url(#p6824624c8c)" style="fill: #59b2d8; opacity: 0.1; stroke: #59b2d8; stroke-linejoin: miter"/>
   </g>
   <g id="patch_12">
    <path d="M 1235.25336 204.779051
C 1240.127646 204.779051 1244.80295 201.551427 1248.249591 195.807026
C 1251.696232 190.062625 1253.632806 182.270451 1253.632806 174.14664
C 1253.632806 166.02283 1251.696232 158.230656 1248.249591 152.486255
C 1244.80295 146.741853 1240.127646 143.514229 1235.25336 143.514229
C 1230.379073 143.514229 1225.703769 146.741853 1222.257128 152.486255
C 1218.810487 158.230656 1216.873913 166.02283 1216.873913 174.14664
C 1216.873913 182.270451 1218.810487 190.062625 1222.257128 195.807026
C 1225.703769 201.551427 1230.379073 204.779051 1235.25336 204.779051
z
" clip-path="url(#p6824624c8c)" style="fill: #808080; stroke: #808080; stroke-linejoin: miter"/>
   </g>
   <g id="patch_13">
    <path d="M 1235.25336 186.399605
C 1239.721455 186.399605 1244.007151 185.108555 1247.166572 182.810795
C 1250.325993 180.513034 1252.101186 177.396164 1252.101186 174.14664
C 1252.101186 170.897116 1250.325993 167.780247 1247.166572 165.482486
C 1244.007151 163.184726 1239.721455 161.893676 1235.25336 161.893676
C 1230.785264 161.893676 1226.499568 163.184726 1223.340148 165.482486
C 1220.180727 167.780247 1218.405534 170.897116 1218.405534 174.14664
C 1218.405534 177.396164 1220.180727 180.513034 1223.340148 182.810795
C 1226.499568 185.108555 1230.785264 186.399605 1235.25336 186.399605
z
" clip-path="url(#p6824624c8c)" style="stroke: #000000; stroke-linejoin: miter"/>
   </g>
   <g id="PathCollection_4">
    <g clip-path="url(#p6824624c8c)">
     <use xlink:href="#me52d556af5" x="1235.25336" y="174.14664" style="fill: #ffffff; stroke: #ffffff"/>
    </g>
   </g>
   <g id="line2d_13">
    <path d="M 1235.25336 174.14664
L 1235.25336 20.984585
" clip-path="url(#p6824624c8c)" style="fill: none; stroke-dasharray: 7.4,3.2; stroke-dashoffset: 0; stroke: #808080; stroke-width: 2"/>
   </g>
   <g id="line2d_14">
    <path d="M 1235.25336 174.14664
L 1388.415415 174.14664
" clip-path="url(#p6824624c8c)" style="fill: none; stroke-dasharray: 7.4,3.2; stroke-dashoffset: 0; stroke: #808080; stroke-width: 2"/>
   </g>
   <g id="line2d_15">
    <path d="M 1357.783004 174.14664
L 1348.45599 221.036705
L 1321.894902 260.788183
L 1282.143425 287.349271
L 1235.25336 296.676285
L 1188.363295 287.349271
L 1148.611817 260.788183
L 1122.050729 221.036705
L 1112.723715 174.14664
L 1122.050729 127.256575
L 1148.611817 87.505098
L 1188.363295 60.94401
L 1235.25336 51.616996
L 1282.143425 60.94401
L 1321.894902 87.505098
L 1348.45599 127.256575
L 1357.783004 174.14664
" clip-path="url(#p6824624c8c)" style="fill: none; stroke: #59b2d8; stroke-width: 3; stroke-linecap: square"/>
    <g clip-path="url(#p6824624c8c)">
     <use xlink:href="#m14415f5583" x="1357.783004" y="174.14664" style="fill: #59b2d8; stroke: #59b2d8"/>
     <use xlink:href="#m14415f5583" x="1348.45599" y="221.036705" style="fill: #59b2d8; stroke: #59b2d8"/>
     <use xlink:href="#m14415f5583" x="1321.894902" y="260.788183" style="fill: #59b2d8; stroke: #59b2d8"/>
     <use xlink:href="#m14415f5583" x="1282.143425" y="287.349271" style="fill: #59b2d8; stroke: #59b2d8"/>
     <use xlink:href="#m14415f5583" x="1235.25336" y="296.676285" style="fill: #59b2d8; stroke: #59b2d8"/>
     <use xlink:href="#m14415f5583" x="1188.363295" y="287.349271" style="fill: #59b2d8; stroke: #59b2d8"/>
     <use xlink:href="#m14415f5583" x="1148.611817" y="260.788183" style="fill: #59b2d8; stroke: #59b2d8"/>
     <use xlink:href="#m14415f5583" x="1122.050729" y="221.036705" style="fill: #59b2d8; stroke: #59b2d8"/>
     <use xlink:href="#m14415f5583" x="1112.723715" y="174.14664" style="fill: #59b2d8; stroke: #59b2d8"/>
     <use xlink:href="#m14415f5583" x="1122.050729" y="127.256575" style="fill: #59b2d8; stroke: #59b2d8"/>
     <use xlink:href="#m14415f5583" x="1148.611817" y="87.505098" style="fill: #59b2d8; stroke: #59b2d8"/>
     <use xlink:href="#m14415f5583" x="1188.363295" y="60.94401" style="fill: #59b2d8; stroke: #59b2d8"/>
     <use xlink:href="#m14415f5583" x="1235.25336" y="51.616996" style="fill: #59b2d8; stroke: #59b2d8"/>
     <use xlink:href="#m14415f5583" x="1282.143425" y="60.94401" style="fill: #59b2d8; stroke: #59b2d8"/>
     <use xlink:href="#m14415f5583" x="1321.894902" y="87.505098" style="fill: #59b2d8; stroke: #59b2d8"/>
     <use xlink:href="#m14415f5583" x="1348.45599" y="127.256575" style="fill: #59b2d8; stroke: #59b2d8"/>
     <use xlink:href="#m14415f5583" x="1357.783004" y="174.14664" style="fill: #59b2d8; stroke: #59b2d8"/>
    </g>
   </g>
   <g id="line2d_16">
    <path d="M 1235.25336 51.616996
L 1282.143425 60.94401
L 1321.894902 87.505098
L 1348.45599 127.256575
L 1357.783004 174.14664
" clip-path="url(#p6824624c8c)" style="fill: none; stroke: #ff0000; stroke-width: 3; stroke-linecap: square"/>
    <g clip-path="url(#p6824624c8c)">
     <use xlink:href="#m7c9a2d61a8" x="1235.25336" y="51.616996" style="fill: #ff0000; stroke: #ff0000"/>
     <use xlink:href="#m7c9a2d61a8" x="1282.143425" y="60.94401" style="fill: #ff0000; stroke: #ff0000"/>
     <use xlink:href="#m7c9a2d61a8" x="1321.894902" y="87.505098" style="fill: #ff0000; stroke: #ff0000"/>
     <use xlink:href="#m7c9a2d61a8" x="1348.45599" y="127.256575" style="fill: #ff0000; stroke: #ff0000"/>
     <use xlink:href="#m7c9a2d61a8" x="1357.783004" y="174.14664" style="fill: #ff0000; stroke: #ff0000"/>
    </g>
   </g>
   <g id="text_4">
    <!-- quad-segments = 4 -->
    <g transform="translate(1111.577578 328.080651) scale(0.25 -0.25)">
     <defs>
      <path id="DejaVuSans-34" d="M 2419 4116
L 825 1625
L 2419 1625
L 2419 4116
z
M 2253 4666
L 3047 4666
L 3047 1625
L 3713 1625
L 3713 1100
L 3047 1100
L 3047 0
L 2419 0
L 2419 1100
L 313 1100
L 313 1709
L 2253 4666
z
" transform="scale(0.015625)"/>
     </defs>
     <use xlink:href="#DejaVuSans-71"/>
     <use xlink:href="#DejaVuSans-75" x="63.476562"/>
     <use xlink:href="#DejaVuSans-61" x="126.855469"/>
     <use xlink:href="#DejaVuSans-64" x="188.134766"/>
     <use xlink:href="#DejaVuSans-2d" x="251.611328"/>
     <use xlink:href="#DejaVuSans-73" x="287.695312"/>
     <use xlink:href="#DejaVuSans-65" x="339.794922"/>
     <use xlink:href="#DejaVuSans-67" x="401.318359"/>
     <use xlink:href="#DejaVuSans-6d" x="464.794922"/>
     <use xlink:href="#DejaVuSans-65" x="562.207031"/>
     <use xlink:href="#DejaVuSans-6e" x="623.730469"/>
     <use xlink:href="#DejaVuSans-74" x="687.109375"/>
     <use xlink:href="#DejaVuSans-73" x="726.318359"/>
     <use xlink:href="#DejaVuSans-20" x="778.417969"/>
     <use xlink:href="#DejaVuSans-3d" x="810.205078"/>
     <use xlink:href="#DejaVuSans-20" x="893.994141"/>
     <use xlink:href="#DejaVuSans-34" x="925.78125"/>
    </g>
   </g>
  </g>
  <g id="axes_5">
   <g id="patch_14">
    <path d="M 266.043874 552.14664
L 260.046846 590.010383
L 242.642794 624.167758
L 215.535347 651.275205
L 181.377972 668.679257
L 143.514229 674.676285
L 105.650487 668.679257
L 71.493111 651.275205
L 44.385665 624.167758
L 26.981613 590.010383
L 20.984585 552.14664
L 26.981613 514.282898
L 44.385665 480.125522
L 71.493111 453.018076
L 105.650487 435.614024
L 143.514229 429.616996
L 181.377972 435.614024
L 215.535347 453.018076
L 242.642794 480.125522
L 260.046846 514.282898
z
" clip-path="url(#p44975d106d)" style="fill: #59b2d8; opacity: 0.1; stroke: #59b2d8; stroke-linejoin: miter"/>
   </g>
   <g id="patch_15">
    <path d="M 143.514229 582.779051
C 148.388515 582.779051 153.06382 579.551427 156.510461 573.807026
C 159.957101 568.062625 161.893676 560.270451 161.893676 552.14664
C 161.893676 544.02283 159.957101 536.230656 156.510461 530.486255
C 153.06382 524.741853 148.388515 521.514229 143.514229 521.514229
C 138.639943 521.514229 133.964639 524.741853 130.517998 530.486255
C 127.071357 536.230656 125.134783 544.02283 125.134783 552.14664
C 125.134783 560.270451 127.071357 568.062625 130.517998 573.807026
C 133.964639 579.551427 138.639943 582.779051 143.514229 582.779051
z
" clip-path="url(#p44975d106d)" style="fill: #808080; stroke: #808080; stroke-linejoin: miter"/>
   </g>
   <g id="patch_16">
    <path d="M 143.514229 564.399605
C 147.982325 564.399605 152.268021 563.108555 155.427441 560.810795
C 158.586862 558.513034 160.362055 555.396164 160.362055 552.14664
C 160.362055 548.897116 158.586862 545.780247 155.427441 543.482486
C 152.268021 541.184726 147.982325 539.893676 143.514229 539.893676
C 139.046134 539.893676 134.760438 541.184726 131.601017 543.482486
C 128.441596 545.780247 126.666403 548.897116 126.666403 552.14664
C 126.666403 555.396164 128.441596 558.513034 131.601017 560.810795
C 134.760438 563.108555 139.046134 564.399605 143.514229 564.399605
z
" clip-path="url(#p44975d106d)" style="stroke: #000000; stroke-linejoin: miter"/>
   </g>
   <g id="PathCollection_5">
    <g clip-path="url(#p44975d106d)">
     <use xlink:href="#me52d556af5" x="143.514229" y="552.14664" style="fill: #ffffff; stroke: #ffffff"/>
    </g>
   </g>
   <g id="line2d_17">
    <path d="M 143.514229 552.14664
L 143.514229 398.984585
" clip-path="url(#p44975d106d)" style="fill: none; stroke-dasharray: 7.4,3.2; stroke-dashoffset: 0; stroke: #808080; stroke-width: 2"/>
   </g>
   <g id="line2d_18">
    <path d="M 143.514229 552.14664
L 296.676285 552.14664
" clip-path="url(#p44975d106d)" style="fill: none; stroke-dasharray: 7.4,3.2; stroke-dashoffset: 0; stroke: #808080; stroke-width: 2"/>
   </g>
   <g id="line2d_19">
    <path d="M 266.043874 552.14664
L 260.046846 590.010383
L 242.642794 624.167758
L 215.535347 651.275205
L 181.377972 668.679257
L 143.514229 674.676285
L 105.650487 668.679257
L 71.493111 651.275205
L 44.385665 624.167758
L 26.981613 590.010383
L 20.984585 552.14664
L 26.981613 514.282898
L 44.385665 480.125522
L 71.493111 453.018076
L 105.650487 435.614024
L 143.514229 429.616996
L 181.377972 435.614024
L 215.535347 453.018076
L 242.642794 480.125522
L 260.046846 514.282898
L 266.043874 552.14664
" clip-path="url(#p44975d106d)" style="fill: none; stroke: #59b2d8; stroke-width: 3; stroke-linecap: square"/>
    <g clip-path="url(#p44975d106d)">
     <use xlink:href="#m14415f5583" x="266.043874" y="552.14664" style="fill: #59b2d8; stroke: #59b2d8"/>
     <use xlink:href="#m14415f5583" x="260.046846" y="590.010383" style="fill: #59b2d8; stroke: #59b2d8"/>
     <use xlink:href="#m14415f5583" x="242.642794" y="624.167758" style="fill: #59b2d8; stroke: #59b2d8"/>
     <use xlink:href="#m14415f5583" x="215.535347" y="651.275205" style="fill: #59b2d8; stroke: #59b2d8"/>
     <use xlink:href="#m14415f5583" x="181.377972" y="668.679257" style="fill: #59b2d8; stroke: #59b2d8"/>
     <use xlink:href="#m14415f5583" x="143.514229" y="674.676285" style="fill: #59b2d8; stroke: #59b2d8"/>
     <use xlink:href="#m14415f5583" x="105.650487" y="668.679257" style="fill: #59b2d8; stroke: #59b2d8"/>
     <use xlink:href="#m14415f5583" x="71.493111" y="651.275205" style="fill: #59b2d8; stroke: #59b2d8"/>
     <use xlink:href="#m14415f5583" x="44.385665" y="624.167758" style="fill: #59b2d8; stroke: #59b2d8"/>
     <use xlink:href="#m14415f5583" x="26.981613" y="590.010383" style="fill: #59b2d8; stroke: #59b2d8"/>
     <use xlink:href="#m14415f5583" x="20.984585" y="552.14664" style="fill: #59b2d8; stroke: #59b2d8"/>
     <use xlink:href="#m14415f5583" x="26.981613" y="514.282898" style="fill: #59b2d8; stroke: #59b2d8"/>
     <use xlink:href="#m14415f5583" x="44.385665" y="480.125522" style="fill: #59b2d8; stroke: #59b2d8"/>
     <use xlink:href="#m14415f5583" x="71.493111" y="453.018076" style="fill: #59b2d8; stroke: #59b2d8"/>
     <use xlink:href="#m14415f5583" x="105.650487" y="435.614024" style="fill: #59b2d8; stroke: #59b2d8"/>
     <use xlink:href="#m14415f5583" x="143.514229" y="429.616996" style="fill: #59b2d8; stroke: #59b2d8"/>
     <use xlink:href="#m14415f5583" x="181.377972" y="435.614024" style="fill: #59b2d8; stroke: #59b2d8"/>
     <use xlink:href="#m14415f5583" x="215.535347" y="453.018076" style="fill: #59b2d8; stroke: #59b2d8"/>
     <use xlink:href="#m14415f5583" x="242.642794" y="480.125522" style="fill: #59b2d8; stroke: #59b2d8"/>
     <use xlink:href="#m14415f5583" x="260.046846" y="514.282898" style="fill: #59b2d8; stroke: #59b2d8"/>
     <use xlink:href="#m14415f5583" x="266.043874" y="552.14664" style="fill: #59b2d8; stroke: #59b2d8"/>
    </g>
   </g>
   <g id="line2d_20">
    <path d="M 143.514229 429.616996
L 181.377972 435.614024
L 215.535347 453.018076
L 242.642794 480.125522
L 260.046846 514.282898
L 266.043874 552.14664
" clip-path="url(#p44975d106d)" style="fill: none; stroke: #ff0000; stroke-width: 3; stroke-linecap: square"/>
    <g clip-path="url(#p44975d106d)">
     <use xlink:href="#m7c9a2d61a8" x="143.514229" y="429.616996" style="fill: #ff0000; stroke: #ff0000"/>
     <use xlink:href="#m7c9a2d61a8" x="181.377972" y="435.614024" style="fill: #ff0000; stroke: #ff0000"/>
     <use xlink:href="#m7c9a2d61a8" x="215.535347" y="453.018076" style="fill: #ff0000; stroke: #ff0000"/>
     <use xlink:href="#m7c9a2d61a8" x="242.642794" y="480.125522" style="fill: #ff0000; stroke: #ff0000"/>
     <use xlink:href="#m7c9a2d61a8" x="260.046846" y="514.282898" style="fill: #ff0000; stroke: #ff0000"/>
     <use xlink:href="#m7c9a2d61a8" x="266.043874" y="552.14664" style="fill: #ff0000; stroke: #ff0000"/>
    </g>
   </g>
   <g id="text_5">
    <!-- quad-segments = 5 -->
    <g transform="translate(19.838448 706.080651) scale(0.25 -0.25)">
     <defs>
      <path id="DejaVuSans-35" d="M 691 4666
L 3169 4666
L 3169 4134
L 1269 4134
L 1269 2991
Q 1406 3038 1543 3061
Q 1681 3084 1819 3084
Q 2600 3084 3056 2656
Q 3513 2228 3513 1497
Q 3513 744 3044 326
Q 2575 -91 1722 -91
Q 1428 -91 1123 -41
Q 819 9 494 109
L 494 744
Q 775 591 1075 516
Q 1375 441 1709 441
Q 2250 441 2565 725
Q 2881 1009 2881 1497
Q 2881 1984 2565 2268
Q 2250 2553 1709 2553
Q 1456 2553 1204 2497
Q 953 2441 691 2322
L 691 4666
z
" transform="scale(0.015625)"/>
     </defs>
     <use xlink:href="#DejaVuSans-71"/>
     <use xlink:href="#DejaVuSans-75" x="63.476562"/>
     <use xlink:href="#DejaVuSans-61" x="126.855469"/>
     <use xlink:href="#DejaVuSans-64" x="188.134766"/>
     <use xlink:href="#DejaVuSans-2d" x="251.611328"/>
     <use xlink:href="#DejaVuSans-73" x="287.695312"/>
     <use xlink:href="#DejaVuSans-65" x="339.794922"/>
     <use xlink:href="#DejaVuSans-67" x="401.318359"/>
     <use xlink:href="#DejaVuSans-6d" x="464.794922"/>
     <use xlink:href="#DejaVuSans-65" x="562.207031"/>
     <use xlink:href="#DejaVuSans-6e" x="623.730469"/>
     <use xlink:href="#DejaVuSans-74" x="687.109375"/>
     <use xlink:href="#DejaVuSans-73" x="726.318359"/>
     <use xlink:href="#DejaVuSans-20" x="778.417969"/>
     <use xlink:href="#DejaVuSans-3d" x="810.205078"/>
     <use xlink:href="#DejaVuSans-20" x="893.994141"/>
     <use xlink:href="#DejaVuSans-35" x="925.78125"/>
    </g>
   </g>
  </g>
  <g id="axes_6">
   <g id="patch_17">
    <path d="M 629.956917 552.14664
L 625.781821 583.859646
L 613.541057 613.411462
L 594.068815 638.788183
L 568.692095 658.260425
L 539.140278 670.501188
L 507.427273 674.676285
L 475.714267 670.501188
L 446.162451 658.260425
L 420.78573 638.788183
L 401.313488 613.411462
L 389.072725 583.859646
L 384.897628 552.14664
L 389.072725 520.433635
L 401.313488 490.881818
L 420.78573 465.505098
L 446.162451 446.032856
L 475.714267 433.792092
L 507.427273 429.616996
L 539.140278 433.792092
L 568.692095 446.032856
L 594.068815 465.505098
L 613.541057 490.881818
L 625.781821 520.433635
z
" clip-path="url(#peb257232ec)" style="fill: #59b2d8; opacity: 0.1; stroke: #59b2d8; stroke-linejoin: miter"/>
   </g>
   <g id="patch_18">
    <path d="M 507.427273 582.779051
C 512.301559 582.779051 516.976863 579.551427 520.423504 573.807026
C 523.870145 568.062625 525.806719 560.270451 525.806719 552.14664
C 525.806719 544.02283 523.870145 536.230656 520.423504 530.486255
C 516.976863 524.741853 512.301559 521.514229 507.427273 521.514229
C 502.552987 521.514229 497.877682 524.741853 494.431041 530.486255
C 490.984401 536.230656 489.047826 544.02283 489.047826 552.14664
C 489.047826 560.270451 490.984401 568.062625 494.431041 573.807026
C 497.877682 579.551427 502.552987 582.779051 507.427273 582.779051
z
" clip-path="url(#peb257232ec)" style="fill: #808080; stroke: #808080; stroke-linejoin: miter"/>
   </g>
   <g id="patch_19">
    <path d="M 507.427273 564.399605
C 511.895368 564.399605 516.181064 563.108555 519.340485 560.810795
C 522.499906 558.513034 524.275099 555.396164 524.275099 552.14664
C 524.275099 548.897116 522.499906 545.780247 519.340485 543.482486
C 516.181064 541.184726 511.895368 539.893676 507.427273 539.893676
C 502.959177 539.893676 498.673481 541.184726 495.514061 543.482486
C 492.35464 545.780247 490.579447 548.897116 490.579447 552.14664
C 490.579447 555.396164 492.35464 558.513034 495.514061 560.810795
C 498.673481 563.108555 502.959177 564.399605 507.427273 564.399605
z
" clip-path="url(#peb257232ec)" style="stroke: #000000; stroke-linejoin: miter"/>
   </g>
   <g id="PathCollection_6">
    <g clip-path="url(#peb257232ec)">
     <use xlink:href="#me52d556af5" x="507.427273" y="552.14664" style="fill: #ffffff; stroke: #ffffff"/>
    </g>
   </g>
   <g id="line2d_21">
    <path d="M 507.427273 552.14664
L 507.427273 398.984585
" clip-path="url(#peb257232ec)" style="fill: none; stroke-dasharray: 7.4,3.2; stroke-dashoffset: 0; stroke: #808080; stroke-width: 2"/>
   </g>
   <g id="line2d_22">
    <path d="M 507.427273 552.14664
L 660.589328 552.14664
" clip-path="url(#peb257232ec)" style="fill: none; stroke-dasharray: 7.4,3.2; stroke-dashoffset: 0; stroke: #808080; stroke-width: 2"/>
   </g>
   <g id="line2d_23">
    <path d="M 629.956917 552.14664
L 625.781821 583.859646
L 613.541057 613.411462
L 594.068815 638.788183
L 568.692095 658.260425
L 539.140278 670.501188
L 507.427273 674.676285
L 475.714267 670.501188
L 446.162451 658.260425
L 420.78573 638.788183
L 401.313488 613.411462
L 389.072725 583.859646
L 384.897628 552.14664
L 389.072725 520.433635
L 401.313488 490.881818
L 420.78573 465.505098
L 446.162451 446.032856
L 475.714267 433.792092
L 507.427273 429.616996
L 539.140278 433.792092
L 568.692095 446.032856
L 594.068815 465.505098
L 613.541057 490.881818
L 625.781821 520.433635
L 629.956917 552.14664
" clip-path="url(#peb257232ec)" style="fill: none; stroke: #59b2d8; stroke-width: 3; stroke-linecap: square"/>
    <g clip-path="url(#peb257232ec)">
     <use xlink:href="#m14415f5583" x="629.956917" y="552.14664" style="fill: #59b2d8; stroke: #59b2d8"/>
     <use xlink:href="#m14415f5583" x="625.781821" y="583.859646" style="fill: #59b2d8; stroke: #59b2d8"/>
     <use xlink:href="#m14415f5583" x="613.541057" y="613.411462" style="fill: #59b2d8; stroke: #59b2d8"/>
     <use xlink:href="#m14415f5583" x="594.068815" y="638.788183" style="fill: #59b2d8; stroke: #59b2d8"/>
     <use xlink:href="#m14415f5583" x="568.692095" y="658.260425" style="fill: #59b2d8; stroke: #59b2d8"/>
     <use xlink:href="#m14415f5583" x="539.140278" y="670.501188" style="fill: #59b2d8; stroke: #59b2d8"/>
     <use xlink:href="#m14415f5583" x="507.427273" y="674.676285" style="fill: #59b2d8; stroke: #59b2d8"/>
     <use xlink:href="#m14415f5583" x="475.714267" y="670.501188" style="fill: #59b2d8; stroke: #59b2d8"/>
     <use xlink:href="#m14415f5583" x="446.162451" y="658.260425" style="fill: #59b2d8; stroke: #59b2d8"/>
     <use xlink:href="#m14415f5583" x="420.78573" y="638.788183" style="fill: #59b2d8; stroke: #59b2d8"/>
     <use xlink:href="#m14415f5583" x="401.313488" y="613.411462" style="fill: #59b2d8; stroke: #59b2d8"/>
     <use xlink:href="#m14415f5583" x="389.072725" y="583.859646" style="fill: #59b2d8; stroke: #59b2d8"/>
     <use xlink:href="#m14415f5583" x="384.897628" y="552.14664" style="fill: #59b2d8; stroke: #59b2d8"/>
     <use xlink:href="#m14415f5583" x="389.072725" y="520.433635" style="fill: #59b2d8; stroke: #59b2d8"/>
     <use xlink:href="#m14415f5583" x="401.313488" y="490.881818" style="fill: #59b2d8; stroke: #59b2d8"/>
     <use xlink:href="#m14415f5583" x="420.78573" y="465.505098" style="fill: #59b2d8; stroke: #59b2d8"/>
     <use xlink:href="#m14415f5583" x="446.162451" y="446.032856" style="fill: #59b2d8; stroke: #59b2d8"/>
     <use xlink:href="#m14415f5583" x="475.714267" y="433.792092" style="fill: #59b2d8; stroke: #59b2d8"/>
     <use xlink:href="#m14415f5583" x="507.427273" y="429.616996" style="fill: #59b2d8; stroke: #59b2d8"/>
     <use xlink:href="#m14415f5583" x="539.140278" y="433.792092" style="fill: #59b2d8; stroke: #59b2d8"/>
     <use xlink:href="#m14415f5583" x="568.692095" y="446.032856" style="fill: #59b2d8; stroke: #59b2d8"/>
     <use xlink:href="#m14415f5583" x="594.068815" y="465.505098" style="fill: #59b2d8; stroke: #59b2d8"/>
     <use xlink:href="#m14415f5583" x="613.541057" y="490.881818" style="fill: #59b2d8; stroke: #59b2d8"/>
     <use xlink:href="#m14415f5583" x="625.781821" y="520.433635" style="fill: #59b2d8; stroke: #59b2d8"/>
     <use xlink:href="#m14415f5583" x="629.956917" y="552.14664" style="fill: #59b2d8; stroke: #59b2d8"/>
    </g>
   </g>
   <g id="line2d_24">
    <path d="M 507.427273 429.616996
L 539.140278 433.792092
L 568.692095 446.032856
L 594.068815 465.505098
L 613.541057 490.881818
L 625.781821 520.433635
L 629.956917 552.14664
" clip-path="url(#peb257232ec)" style="fill: none; stroke: #ff0000; stroke-width: 3; stroke-linecap: square"/>
    <g clip-path="url(#peb257232ec)">
     <use xlink:href="#m7c9a2d61a8" x="507.427273" y="429.616996" style="fill: #ff0000; stroke: #ff0000"/>
     <use xlink:href="#m7c9a2d61a8" x="539.140278" y="433.792092" style="fill: #ff0000; stroke: #ff0000"/>
     <use xlink:href="#m7c9a2d61a8" x="568.692095" y="446.032856" style="fill: #ff0000; stroke: #ff0000"/>
     <use xlink:href="#m7c9a2d61a8" x="594.068815" y="465.505098" style="fill: #ff0000; stroke: #ff0000"/>
     <use xlink:href="#m7c9a2d61a8" x="613.541057" y="490.881818" style="fill: #ff0000; stroke: #ff0000"/>
     <use xlink:href="#m7c9a2d61a8" x="625.781821" y="520.433635" style="fill: #ff0000; stroke: #ff0000"/>
     <use xlink:href="#m7c9a2d61a8" x="629.956917" y="552.14664" style="fill: #ff0000; stroke: #ff0000"/>
    </g>
   </g>
   <g id="text_6">
    <!-- quad-segments = 6 -->
    <g transform="translate(383.751491 706.080651) scale(0.25 -0.25)">
     <defs>
      <path id="DejaVuSans-36" d="M 2113 2584
Q 1688 2584 1439 2293
Q 1191 2003 1191 1497
Q 1191 994 1439 701
Q 1688 409 2113 409
Q 2538 409 2786 701
Q 3034 994 3034 1497
Q 3034 2003 2786 2293
Q 2538 2584 2113 2584
z
M 3366 4563
L 3366 3988
Q 3128 4100 2886 4159
Q 2644 4219 2406 4219
Q 1781 4219 1451 3797
Q 1122 3375 1075 2522
Q 1259 2794 1537 2939
Q 1816 3084 2150 3084
Q 2853 3084 3261 2657
Q 3669 2231 3669 1497
Q 3669 778 3244 343
Q 2819 -91 2113 -91
Q 1303 -91 875 529
Q 447 1150 447 2328
Q 447 3434 972 4092
Q 1497 4750 2381 4750
Q 2619 4750 2861 4703
Q 3103 4656 3366 4563
z
" transform="scale(0.015625)"/>
     </defs>
     <use xlink:href="#DejaVuSans-71"/>
     <use xlink:href="#DejaVuSans-75" x="63.476562"/>
     <use xlink:href="#DejaVuSans-61" x="126.855469"/>
     <use xlink:href="#DejaVuSans-64" x="188.134766"/>
     <use xlink:href="#DejaVuSans-2d" x="251.611328"/>
     <use xlink:href="#DejaVuSans-73" x="287.695312"/>
     <use xlink:href="#DejaVuSans-65" x="339.794922"/>
     <use xlink:href="#DejaVuSans-67" x="401.318359"/>
     <use xlink:href="#DejaVuSans-6d" x="464.794922"/>
     <use xlink:href="#DejaVuSans-65" x="562.207031"/>
     <use xlink:href="#DejaVuSans-6e" x="623.730469"/>
     <use xlink:href="#DejaVuSans-74" x="687.109375"/>
     <use xlink:href="#DejaVuSans-73" x="726.318359"/>
     <use xlink:href="#DejaVuSans-20" x="778.417969"/>
     <use xlink:href="#DejaVuSans-3d" x="810.205078"/>
     <use xlink:href="#DejaVuSans-20" x="893.994141"/>
     <use xlink:href="#DejaVuSans-36" x="925.78125"/>
    </g>
   </g>
  </g>
  <g id="axes_7">
   <g id="patch_20">
    <path d="M 993.86996 552.14664
L 990.797886 579.412051
L 981.735711 605.310261
L 967.13785 628.542624
L 947.7363 647.944174
L 924.503936 662.542035
L 898.605727 671.604211
L 871.340316 674.676285
L 844.074905 671.604211
L 818.176696 662.542035
L 794.944333 647.944174
L 775.542783 628.542624
L 760.944921 605.310261
L 751.882746 579.412051
L 748.810672 552.14664
L 751.882746 524.881229
L 760.944921 498.98302
L 775.542783 475.750657
L 794.944333 456.349107
L 818.176696 441.751245
L 844.074905 432.68907
L 871.340316 429.616996
L 898.605727 432.68907
L 924.503936 441.751245
L 947.7363 456.349107
L 967.13785 475.750657
L 981.735711 498.98302
L 990.797886 524.881229
z
" clip-path="url(#pf95b6e7511)" style="fill: #59b2d8; opacity: 0.1; stroke: #59b2d8; stroke-linejoin: miter"/>
   </g>
   <g id="patch_21">
    <path d="M 871.340316 582.779051
C 876.214602 582.779051 880.889907 579.551427 884.336548 573.807026
C 887.783188 568.062625 889.719763 560.270451 889.719763 552.14664
C 889.719763 544.02283 887.783188 536.230656 884.336548 530.486255
C 880.889907 524.741853 876.214602 521.514229 871.340316 521.514229
C 866.46603 521.514229 861.790726 524.741853 858.344085 530.486255
C 854.897444 536.230656 852.96087 544.02283 852.96087 552.14664
C 852.96087 560.270451 854.897444 568.062625 858.344085 573.807026
C 861.790726 579.551427 866.46603 582.779051 871.340316 582.779051
z
" clip-path="url(#pf95b6e7511)" style="fill: #808080; stroke: #808080; stroke-linejoin: miter"/>
   </g>
   <g id="patch_22">
    <path d="M 871.340316 564.399605
C 875.808412 564.399605 880.094108 563.108555 883.253528 560.810795
C 886.412949 558.513034 888.188142 555.396164 888.188142 552.14664
C 888.188142 548.897116 886.412949 545.780247 883.253528 543.482486
C 880.094108 541.184726 875.808412 539.893676 871.340316 539.893676
C 866.87222 539.893676 862.586525 541.184726 859.427104 543.482486
C 856.267683 545.780247 854.49249 548.897116 854.49249 552.14664
C 854.49249 555.396164 856.267683 558.513034 859.427104 560.810795
C 862.586525 563.108555 866.87222 564.399605 871.340316 564.399605
z
" clip-path="url(#pf95b6e7511)" style="stroke: #000000; stroke-linejoin: miter"/>
   </g>
   <g id="PathCollection_7">
    <g clip-path="url(#pf95b6e7511)">
     <use xlink:href="#me52d556af5" x="871.340316" y="552.14664" style="fill: #ffffff; stroke: #ffffff"/>
    </g>
   </g>
   <g id="line2d_25">
    <path d="M 871.340316 552.14664
L 871.340316 398.984585
" clip-path="url(#pf95b6e7511)" style="fill: none; stroke-dasharray: 7.4,3.2; stroke-dashoffset: 0; stroke: #808080; stroke-width: 2"/>
   </g>
   <g id="line2d_26">
    <path d="M 871.340316 552.14664
L 1024.502372 552.14664
" clip-path="url(#pf95b6e7511)" style="fill: none; stroke-dasharray: 7.4,3.2; stroke-dashoffset: 0; stroke: #808080; stroke-width: 2"/>
   </g>
   <g id="line2d_27">
    <path d="M 993.86996 552.14664
L 990.797886 579.412051
L 981.735711 605.310261
L 967.13785 628.542624
L 947.7363 647.944174
L 924.503936 662.542035
L 898.605727 671.604211
L 871.340316 674.676285
L 844.074905 671.604211
L 818.176696 662.542035
L 794.944333 647.944174
L 775.542783 628.542624
L 760.944921 605.310261
L 751.882746 579.412051
L 748.810672 552.14664
L 751.882746 524.881229
L 760.944921 498.98302
L 775.542783 475.750657
L 794.944333 456.349107
L 818.176696 441.751245
L 844.074905 432.68907
L 871.340316 429.616996
L 898.605727 432.68907
L 924.503936 441.751245
L 947.7363 456.349107
L 967.13785 475.750657
L 981.735711 498.98302
L 990.797886 524.881229
L 993.86996 552.14664
" clip-path="url(#pf95b6e7511)" style="fill: none; stroke: #59b2d8; stroke-width: 3; stroke-linecap: square"/>
    <g clip-path="url(#pf95b6e7511)">
     <use xlink:href="#m14415f5583" x="993.86996" y="552.14664" style="fill: #59b2d8; stroke: #59b2d8"/>
     <use xlink:href="#m14415f5583" x="990.797886" y="579.412051" style="fill: #59b2d8; stroke: #59b2d8"/>
     <use xlink:href="#m14415f5583" x="981.735711" y="605.310261" style="fill: #59b2d8; stroke: #59b2d8"/>
     <use xlink:href="#m14415f5583" x="967.13785" y="628.542624" style="fill: #59b2d8; stroke: #59b2d8"/>
     <use xlink:href="#m14415f5583" x="947.7363" y="647.944174" style="fill: #59b2d8; stroke: #59b2d8"/>
     <use xlink:href="#m14415f5583" x="924.503936" y="662.542035" style="fill: #59b2d8; stroke: #59b2d8"/>
     <use xlink:href="#m14415f5583" x="898.605727" y="671.604211" style="fill: #59b2d8; stroke: #59b2d8"/>
     <use xlink:href="#m14415f5583" x="871.340316" y="674.676285" style="fill: #59b2d8; stroke: #59b2d8"/>
     <use xlink:href="#m14415f5583" x="844.074905" y="671.604211" style="fill: #59b2d8; stroke: #59b2d8"/>
     <use xlink:href="#m14415f5583" x="818.176696" y="662.542035" style="fill: #59b2d8; stroke: #59b2d8"/>
     <use xlink:href="#m14415f5583" x="794.944333" y="647.944174" style="fill: #59b2d8; stroke: #59b2d8"/>
     <use xlink:href="#m14415f5583" x="775.542783" y="628.542624" style="fill: #59b2d8; stroke: #59b2d8"/>
     <use xlink:href="#m14415f5583" x="760.944921" y="605.310261" style="fill: #59b2d8; stroke: #59b2d8"/>
     <use xlink:href="#m14415f5583" x="751.882746" y="579.412051" style="fill: #59b2d8; stroke: #59b2d8"/>
     <use xlink:href="#m14415f5583" x="748.810672" y="552.14664" style="fill: #59b2d8; stroke: #59b2d8"/>
     <use xlink:href="#m14415f5583" x="751.882746" y="524.881229" style="fill: #59b2d8; stroke: #59b2d8"/>
     <use xlink:href="#m14415f5583" x="760.944921" y="498.98302" style="fill: #59b2d8; stroke: #59b2d8"/>
     <use xlink:href="#m14415f5583" x="775.542783" y="475.750657" style="fill: #59b2d8; stroke: #59b2d8"/>
     <use xlink:href="#m14415f5583" x="794.944333" y="456.349107" style="fill: #59b2d8; stroke: #59b2d8"/>
     <use xlink:href="#m14415f5583" x="818.176696" y="441.751245" style="fill: #59b2d8; stroke: #59b2d8"/>
     <use xlink:href="#m14415f5583" x="844.074905" y="432.68907" style="fill: #59b2d8; stroke: #59b2d8"/>
     <use xlink:href="#m14415f5583" x="871.340316" y="429.616996" style="fill: #59b2d8; stroke: #59b2d8"/>
     <use xlink:href="#m14415f5583" x="898.605727" y="432.68907" style="fill: #59b2d8; stroke: #59b2d8"/>
     <use xlink:href="#m14415f5583" x="924.503936" y="441.751245" style="fill: #59b2d8; stroke: #59b2d8"/>
     <use xlink:href="#m14415f5583" x="947.7363" y="456.349107" style="fill: #59b2d8; stroke: #59b2d8"/>
     <use xlink:href="#m14415f5583" x="967.13785" y="475.750657" style="fill: #59b2d8; stroke: #59b2d8"/>
     <use xlink:href="#m14415f5583" x="981.735711" y="498.98302" style="fill: #59b2d8; stroke: #59b2d8"/>
     <use xlink:href="#m14415f5583" x="990.797886" y="524.881229" style="fill: #59b2d8; stroke: #59b2d8"/>
     <use xlink:href="#m14415f5583" x="993.86996" y="552.14664" style="fill: #59b2d8; stroke: #59b2d8"/>
    </g>
   </g>
   <g id="line2d_28">
    <path d="M 871.340316 429.616996
L 898.605727 432.68907
L 924.503936 441.751245
L 947.7363 456.349107
L 967.13785 475.750657
L 981.735711 498.98302
L 990.797886 524.881229
L 993.86996 552.14664
" clip-path="url(#pf95b6e7511)" style="fill: none; stroke: #ff0000; stroke-width: 3; stroke-linecap: square"/>
    <g clip-path="url(#pf95b6e7511)">
     <use xlink:href="#m7c9a2d61a8" x="871.340316" y="429.616996" style="fill: #ff0000; stroke: #ff0000"/>
     <use xlink:href="#m7c9a2d61a8" x="898.605727" y="432.68907" style="fill: #ff0000; stroke: #ff0000"/>
     <use xlink:href="#m7c9a2d61a8" x="924.503936" y="441.751245" style="fill: #ff0000; stroke: #ff0000"/>
     <use xlink:href="#m7c9a2d61a8" x="947.7363" y="456.349107" style="fill: #ff0000; stroke: #ff0000"/>
     <use xlink:href="#m7c9a2d61a8" x="967.13785" y="475.750657" style="fill: #ff0000; stroke: #ff0000"/>
     <use xlink:href="#m7c9a2d61a8" x="981.735711" y="498.98302" style="fill: #ff0000; stroke: #ff0000"/>
     <use xlink:href="#m7c9a2d61a8" x="990.797886" y="524.881229" style="fill: #ff0000; stroke: #ff0000"/>
     <use xlink:href="#m7c9a2d61a8" x="993.86996" y="552.14664" style="fill: #ff0000; stroke: #ff0000"/>
    </g>
   </g>
   <g id="text_7">
    <!-- quad-segments = 7 -->
    <g transform="translate(747.664535 706.080651) scale(0.25 -0.25)">
     <defs>
      <path id="DejaVuSans-37" d="M 525 4666
L 3525 4666
L 3525 4397
L 1831 0
L 1172 0
L 2766 4134
L 525 4134
L 525 4666
z
" transform="scale(0.015625)"/>
     </defs>
     <use xlink:href="#DejaVuSans-71"/>
     <use xlink:href="#DejaVuSans-75" x="63.476562"/>
     <use xlink:href="#DejaVuSans-61" x="126.855469"/>
     <use xlink:href="#DejaVuSans-64" x="188.134766"/>
     <use xlink:href="#DejaVuSans-2d" x="251.611328"/>
     <use xlink:href="#DejaVuSans-73" x="287.695312"/>
     <use xlink:href="#DejaVuSans-65" x="339.794922"/>
     <use xlink:href="#DejaVuSans-67" x="401.318359"/>
     <use xlink:href="#DejaVuSans-6d" x="464.794922"/>
     <use xlink:href="#DejaVuSans-65" x="562.207031"/>
     <use xlink:href="#DejaVuSans-6e" x="623.730469"/>
     <use xlink:href="#DejaVuSans-74" x="687.109375"/>
     <use xlink:href="#DejaVuSans-73" x="726.318359"/>
     <use xlink:href="#DejaVuSans-20" x="778.417969"/>
     <use xlink:href="#DejaVuSans-3d" x="810.205078"/>
     <use xlink:href="#DejaVuSans-20" x="893.994141"/>
     <use xlink:href="#DejaVuSans-37" x="925.78125"/>
    </g>
   </g>
  </g>
  <g id="axes_8">
   <g id="patch_23">
    <path d="M 1357.783004 552.14664
L 1355.428631 576.050988
L 1348.45599 599.036705
L 1337.133035 620.220463
L 1321.894902 638.788183
L 1303.327183 654.026316
L 1282.143425 665.349271
L 1259.157707 672.321912
L 1235.25336 674.676285
L 1211.349012 672.321912
L 1188.363295 665.349271
L 1167.179537 654.026316
L 1148.611817 638.788183
L 1133.373684 620.220463
L 1122.050729 599.036705
L 1115.078088 576.050988
L 1112.723715 552.14664
L 1115.078088 528.242293
L 1122.050729 505.256575
L 1133.373684 484.072817
L 1148.611817 465.505098
L 1167.179537 450.266965
L 1188.363295 438.94401
L 1211.349012 431.971369
L 1235.25336 429.616996
L 1259.157707 431.971369
L 1282.143425 438.94401
L 1303.327183 450.266965
L 1321.894902 465.505098
L 1337.133035 484.072817
L 1348.45599 505.256575
L 1355.428631 528.242293
z
" clip-path="url(#p7b7e0be5ac)" style="fill: #59b2d8; opacity: 0.1; stroke: #59b2d8; stroke-linejoin: miter"/>
   </g>
   <g id="patch_24">
    <path d="M 1235.25336 582.779051
C 1240.127646 582.779051 1244.80295 579.551427 1248.249591 573.807026
C 1251.696232 568.062625 1253.632806 560.270451 1253.632806 552.14664
C 1253.632806 544.02283 1251.696232 536.230656 1248.249591 530.486255
C 1244.80295 524.741853 1240.127646 521.514229 1235.25336 521.514229
C 1230.379073 521.514229 1225.703769 524.741853 1222.257128 530.486255
C 1218.810487 536.230656 1216.873913 544.02283 1216.873913 552.14664
C 1216.873913 560.270451 1218.810487 568.062625 1222.257128 573.807026
C 1225.703769 579.551427 1230.379073 582.779051 1235.25336 582.779051
z
" clip-path="url(#p7b7e0be5ac)" style="fill: #808080; stroke: #808080; stroke-linejoin: miter"/>
   </g>
   <g id="patch_25">
    <path d="M 1235.25336 564.399605
C 1239.721455 564.399605 1244.007151 563.108555 1247.166572 560.810795
C 1250.325993 558.513034 1252.101186 555.396164 1252.101186 552.14664
C 1252.101186 548.897116 1250.325993 545.780247 1247.166572 543.482486
C 1244.007151 541.184726 1239.721455 539.893676 1235.25336 539.893676
C 1230.785264 539.893676 1226.499568 541.184726 1223.340148 543.482486
C 1220.180727 545.780247 1218.405534 548.897116 1218.405534 552.14664
C 1218.405534 555.396164 1220.180727 558.513034 1223.340148 560.810795
C 1226.499568 563.108555 1230.785264 564.399605 1235.25336 564.399605
z
" clip-path="url(#p7b7e0be5ac)" style="stroke: #000000; stroke-linejoin: miter"/>
   </g>
   <g id="PathCollection_8">
    <g clip-path="url(#p7b7e0be5ac)">
     <use xlink:href="#me52d556af5" x="1235.25336" y="552.14664" style="fill: #ffffff; stroke: #ffffff"/>
    </g>
   </g>
   <g id="line2d_29">
    <path d="M 1235.25336 552.14664
L 1235.25336 398.984585
" clip-path="url(#p7b7e0be5ac)" style="fill: none; stroke-dasharray: 7.4,3.2; stroke-dashoffset: 0; stroke: #808080; stroke-width: 2"/>
   </g>
   <g id="line2d_30">
    <path d="M 1235.25336 552.14664
L 1388.415415 552.14664
" clip-path="url(#p7b7e0be5ac)" style="fill: none; stroke-dasharray: 7.4,3.2; stroke-dashoffset: 0; stroke: #808080; stroke-width: 2"/>
   </g>
   <g id="line2d_31">
    <path d="M 1357.783004 552.14664
L 1355.428631 576.050988
L 1348.45599 599.036705
L 1337.133035 620.220463
L 1321.894902 638.788183
L 1303.327183 654.026316
L 1282.143425 665.349271
L 1259.157707 672.321912
L 1235.25336 674.676285
L 1211.349012 672.321912
L 1188.363295 665.349271
L 1167.179537 654.026316
L 1148.611817 638.788183
L 1133.373684 620.220463
L 1122.050729 599.036705
L 1115.078088 576.050988
L 1112.723715 552.14664
L 1115.078088 528.242293
L 1122.050729 505.256575
L 1133.373684 484.072817
L 1148.611817 465.505098
L 1167.179537 450.266965
L 1188.363295 438.94401
L 1211.349012 431.971369
L 1235.25336 429.616996
L 1259.157707 431.971369
L 1282.143425 438.94401
L 1303.327183 450.266965
L 1321.894902 465.505098
L 1337.133035 484.072817
L 1348.45599 505.256575
L 1355.428631 528.242293
L 1357.783004 552.14664
" clip-path="url(#p7b7e0be5ac)" style="fill: none; stroke: #59b2d8; stroke-width: 3; stroke-linecap: square"/>
    <g clip-path="url(#p7b7e0be5ac)">
     <use xlink:href="#m14415f5583" x="1357.783004" y="552.14664" style="fill: #59b2d8; stroke: #59b2d8"/>
     <use xlink:href="#m14415f5583" x="1355.428631" y="576.050988" style="fill: #59b2d8; stroke: #59b2d8"/>
     <use xlink:href="#m14415f5583" x="1348.45599" y="599.036705" style="fill: #59b2d8; stroke: #59b2d8"/>
     <use xlink:href="#m14415f5583" x="1337.133035" y="620.220463" style="fill: #59b2d8; stroke: #59b2d8"/>
     <use xlink:href="#m14415f5583" x="1321.894902" y="638.788183" style="fill: #59b2d8; stroke: #59b2d8"/>
     <use xlink:href="#m14415f5583" x="1303.327183" y="654.026316" style="fill: #59b2d8; stroke: #59b2d8"/>
     <use xlink:href="#m14415f5583" x="1282.143425" y="665.349271" style="fill: #59b2d8; stroke: #59b2d8"/>
     <use xlink:href="#m14415f5583" x="1259.157707" y="672.321912" style="fill: #59b2d8; stroke: #59b2d8"/>
     <use xlink:href="#m14415f5583" x="1235.25336" y="674.676285" style="fill: #59b2d8; stroke: #59b2d8"/>
     <use xlink:href="#m14415f5583" x="1211.349012" y="672.321912" style="fill: #59b2d8; stroke: #59b2d8"/>
     <use xlink:href="#m14415f5583" x="1188.363295" y="665.349271" style="fill: #59b2d8; stroke: #59b2d8"/>
     <use xlink:href="#m14415f5583" x="1167.179537" y="654.026316" style="fill: #59b2d8; stroke: #59b2d8"/>
     <use xlink:href="#m14415f5583" x="1148.611817" y="638.788183" style="fill: #59b2d8; stroke: #59b2d8"/>
     <use xlink:href="#m14415f5583" x="1133.373684" y="620.220463" style="fill: #59b2d8; stroke: #59b2d8"/>
     <use xlink:href="#m14415f5583" x="1122.050729" y="599.036705" style="fill: #59b2d8; stroke: #59b2d8"/>
     <use xlink:href="#m14415f5583" x="1115.078088" y="576.050988" style="fill: #59b2d8; stroke: #59b2d8"/>
     <use xlink:href="#m14415f5583" x="1112.723715" y="552.14664" style="fill: #59b2d8; stroke: #59b2d8"/>
     <use xlink:href="#m14415f5583" x="1115.078088" y="528.242293" style="fill: #59b2d8; stroke: #59b2d8"/>
     <use xlink:href="#m14415f5583" x="1122.050729" y="505.256575" style="fill: #59b2d8; stroke: #59b2d8"/>
     <use xlink:href="#m14415f5583" x="1133.373684" y="484.072817" style="fill: #59b2d8; stroke: #59b2d8"/>
     <use xlink:href="#m14415f5583" x="1148.611817" y="465.505098" style="fill: #59b2d8; stroke: #59b2d8"/>
     <use xlink:href="#m14415f5583" x="1167.179537" y="450.266965" style="fill: #59b2d8; stroke: #59b2d8"/>
     <use xlink:href="#m14415f5583" x="1188.363295" y="438.94401" style="fill: #59b2d8; stroke: #59b2d8"/>
     <use xlink:href="#m14415f5583" x="1211.349012" y="431.971369" style="fill: #59b2d8; stroke: #59b2d8"/>
     <use xlink:href="#m14415f5583" x="1235.25336" y="429.616996" style="fill: #59b2d8; stroke: #59b2d8"/>
     <use xlink:href="#m14415f5583" x="1259.157707" y="431.971369" style="fill: #59b2d8; stroke: #59b2d8"/>
     <use xlink:href="#m14415f5583" x="1282.143425" y="438.94401" style="fill: #59b2d8; stroke: #59b2d8"/>
     <use xlink:href="#m14415f5583" x="1303.327183" y="450.266965" style="fill: #59b2d8; stroke: #59b2d8"/>
     <use xlink:href="#m14415f5583" x="1321.894902" y="465.505098" style="fill: #59b2d8; stroke: #59b2d8"/>
     <use xlink:href="#m14415f5583" x="1337.133035" y="484.072817" style="fill: #59b2d8; stroke: #59b2d8"/>
     <use xlink:href="#m14415f5583" x="1348.45599" y="505.256575" style="fill: #59b2d8; stroke: #59b2d8"/>
     <use xlink:href="#m14415f5583" x="1355.428631" y="528.242293" style="fill: #59b2d8; stroke: #59b2d8"/>
     <use xlink:href="#m14415f5583" x="1357.783004" y="552.14664" style="fill: #59b2d8; stroke: #59b2d8"/>
    </g>
   </g>
   <g id="line2d_32">
    <path d="M 1235.25336 429.616996
L 1259.157707 431.971369
L 1282.143425 438.94401
L 1303.327183 450.266965
L 1321.894902 465.505098
L 1337.133035 484.072817
L 1348.45599 505.256575
L 1355.428631 528.242293
L 1357.783004 552.14664
" clip-path="url(#p7b7e0be5ac)" style="fill: none; stroke: #ff0000; stroke-width: 3; stroke-linecap: square"/>
    <g clip-path="url(#p7b7e0be5ac)">
     <use xlink:href="#m7c9a2d61a8" x="1235.25336" y="429.616996" style="fill: #ff0000; stroke: #ff0000"/>
     <use xlink:href="#m7c9a2d61a8" x="1259.157707" y="431.971369" style="fill: #ff0000; stroke: #ff0000"/>
     <use xlink:href="#m7c9a2d61a8" x="1282.143425" y="438.94401" style="fill: #ff0000; stroke: #ff0000"/>
     <use xlink:href="#m7c9a2d61a8" x="1303.327183" y="450.266965" style="fill: #ff0000; stroke: #ff0000"/>
     <use xlink:href="#m7c9a2d61a8" x="1321.894902" y="465.505098" style="fill: #ff0000; stroke: #ff0000"/>
     <use xlink:href="#m7c9a2d61a8" x="1337.133035" y="484.072817" style="fill: #ff0000; stroke: #ff0000"/>
     <use xlink:href="#m7c9a2d61a8" x="1348.45599" y="505.256575" style="fill: #ff0000; stroke: #ff0000"/>
     <use xlink:href="#m7c9a2d61a8" x="1355.428631" y="528.242293" style="fill: #ff0000; stroke: #ff0000"/>
     <use xlink:href="#m7c9a2d61a8" x="1357.783004" y="552.14664" style="fill: #ff0000; stroke: #ff0000"/>
    </g>
   </g>
   <g id="text_8">
    <!-- quad-segments = 8 -->
    <g transform="translate(1111.577578 706.080651) scale(0.25 -0.25)">
     <defs>
      <path id="DejaVuSans-38" d="M 2034 2216
Q 1584 2216 1326 1975
Q 1069 1734 1069 1313
Q 1069 891 1326 650
Q 1584 409 2034 409
Q 2484 409 2743 651
Q 3003 894 3003 1313
Q 3003 1734 2745 1975
Q 2488 2216 2034 2216
z
M 1403 2484
Q 997 2584 770 2862
Q 544 3141 544 3541
Q 544 4100 942 4425
Q 1341 4750 2034 4750
Q 2731 4750 3128 4425
Q 3525 4100 3525 3541
Q 3525 3141 3298 2862
Q 3072 2584 2669 2484
Q 3125 2378 3379 2068
Q 3634 1759 3634 1313
Q 3634 634 3220 271
Q 2806 -91 2034 -91
Q 1263 -91 848 271
Q 434 634 434 1313
Q 434 1759 690 2068
Q 947 2378 1403 2484
z
M 1172 3481
Q 1172 3119 1398 2916
Q 1625 2713 2034 2713
Q 2441 2713 2670 2916
Q 2900 3119 2900 3481
Q 2900 3844 2670 4047
Q 2441 4250 2034 4250
Q 1625 4250 1398 4047
Q 1172 3844 1172 3481
z
" transform="scale(0.015625)"/>
     </defs>
     <use xlink:href="#DejaVuSans-71"/>
     <use xlink:href="#DejaVuSans-75" x="63.476562"/>
     <use xlink:href="#DejaVuSans-61" x="126.855469"/>
     <use xlink:href="#DejaVuSans-64" x="188.134766"/>
     <use xlink:href="#DejaVuSans-2d" x="251.611328"/>
     <use xlink:href="#DejaVuSans-73" x="287.695312"/>
     <use xlink:href="#DejaVuSans-65" x="339.794922"/>
     <use xlink:href="#DejaVuSans-67" x="401.318359"/>
     <use xlink:href="#DejaVuSans-6d" x="464.794922"/>
     <use xlink:href="#DejaVuSans-65" x="562.207031"/>
     <use xlink:href="#DejaVuSans-6e" x="623.730469"/>
     <use xlink:href="#DejaVuSans-74" x="687.109375"/>
     <use xlink:href="#DejaVuSans-73" x="726.318359"/>
     <use xlink:href="#DejaVuSans-20" x="778.417969"/>
     <use xlink:href="#DejaVuSans-3d" x="810.205078"/>
     <use xlink:href="#DejaVuSans-20" x="893.994141"/>
     <use xlink:href="#DejaVuSans-38" x="925.78125"/>
    </g>
   </g>
  </g>
 </g>
 <defs>
  <clipPath id="pb4fb2a9671">
   <rect x="7.2" y="7.2" width="303.26087" height="303.26087"/>
  </clipPath>
  <clipPath id="pc17444dca2">
   <rect x="371.113043" y="7.2" width="303.26087" height="303.26087"/>
  </clipPath>
  <clipPath id="p2ffc7b4dcf">
   <rect x="735.026087" y="7.2" width="303.26087" height="303.26087"/>
  </clipPath>
  <clipPath id="p6824624c8c">
   <rect x="1098.93913" y="7.2" width="303.26087" height="303.26087"/>
  </clipPath>
  <clipPath id="p44975d106d">
   <rect x="7.2" y="385.2" width="303.26087" height="303.26087"/>
  </clipPath>
  <clipPath id="peb257232ec">
   <rect x="371.113043" y="385.2" width="303.26087" height="303.26087"/>
  </clipPath>
  <clipPath id="pf95b6e7511">
   <rect x="735.026087" y="385.2" width="303.26087" height="303.26087"/>
  </clipPath>
  <clipPath id="p7b7e0be5ac">
   <rect x="1098.93913" y="385.2" width="303.26087" height="303.26087"/>
  </clipPath>
 </defs>
</svg>
