<?xml version="1.0" encoding="utf-8" standalone="no"?>
<!DOCTYPE svg PUBLIC "-//W3C//DTD SVG 1.1//EN"
  "http://www.w3.org/Graphics/SVG/1.1/DTD/svg11.dtd">
<svg xmlns:xlink="http://www.w3.org/1999/xlink" width="900pt" height="360pt" viewBox="0 0 900 360" xmlns="http://www.w3.org/2000/svg" version="1.1">
 <metadata>
  <rdf:RDF xmlns:dc="http://purl.org/dc/elements/1.1/" xmlns:cc="http://creativecommons.org/ns#" xmlns:rdf="http://www.w3.org/1999/02/22-rdf-syntax-ns#">
   <cc:Work>
    <dc:type rdf:resource="http://purl.org/dc/dcmitype/StillImage"/>
    <dc:date>2023-11-13T11:27:44.541783</dc:date>
    <dc:format>image/svg+xml</dc:format>
    <dc:creator>
     <cc:Agent>
      <dc:title>Matplotlib v3.7.2, https://matplotlib.org/</dc:title>
     </cc:Agent>
    </dc:creator>
   </cc:Work>
  </rdf:RDF>
 </metadata>
 <defs>
  <style type="text/css">*{stroke-linejoin: round; stroke-linecap: butt}</style>
 </defs>
 <g id="figure_1">
  <g id="patch_1">
   <path d="M 0 360 
L 900 360 
L 900 0 
L 0 0 
z
" style="fill: #ffffff"/>
  </g>
  <g id="axes_1">
   <g id="patch_2">
    <path d="M 614.695004 248.15902 
L 656.559514 244.912063 
L 657.628998 258.36379 
L 641.989068 297.089256 
L 613.725492 297.089256 
L 611.176228 252.574773 
z
" clip-path="url(#p5ecab78904)" style="fill: #ffffff"/>
   </g>
   <g id="patch_3">
    <path d="M 706.685797 105.367046 
L 720.772677 102.684693 
L 721.223446 102.980249 
L 721.626711 141.755674 
L 699.277455 143.319865 
L 694.794757 141.266998 
L 692.287459 129.508697 
z
" clip-path="url(#p5ecab78904)" style="fill: #ffffff"/>
   </g>
   <g id="patch_4">
    <path d="M 721.223446 102.980249 
L 774.162091 107.909722 
L 776.763792 117.619402 
L 727.099809 144.382224 
L 721.626711 141.755674 
z
" clip-path="url(#p5ecab78904)" style="fill: #ffffff"/>
   </g>
   <g id="patch_5">
    <path d="M 685.612113 91.672015 
L 706.685797 105.367046 
L 692.287459 129.508697 
L 668.165529 110.862357 
L 666.830417 101.704319 
z
" clip-path="url(#p5ecab78904)" style="fill: #ffffff"/>
   </g>
   <g id="patch_6">
    <path d="M 668.165529 110.862357 
L 692.287459 129.508697 
L 694.794757 141.266998 
L 676.528306 151.347981 
L 663.835289 148.755896 
L 656.892989 129.485015 
z
" clip-path="url(#p5ecab78904)" style="fill: #ffffff"/>
   </g>
   <g id="patch_7">
    <path d="M 633.914151 96.682857 
L 660.594082 97.706013 
L 666.830417 101.704319 
L 668.165529 110.862357 
L 656.892989 129.485015 
L 632.153605 127.320433 
L 629.447457 98.75417 
z
" clip-path="url(#p5ecab78904)" style="fill: #ffffff"/>
   </g>
   <g id="patch_8">
    <path d="M 656.892989 129.485015 
L 663.835289 148.755896 
L 649.33502 159.067802 
L 622.750025 144.037035 
L 622.627439 141.064486 
L 632.153605 127.320433 
z
" clip-path="url(#p5ecab78904)" style="fill: #ffffff"/>
   </g>
   <g id="patch_9">
    <path d="M 608.297251 88.261551 
L 616.637032 94.993762 
L 600.167194 126.745798 
L 581.28261 127.71743 
L 572.855511 118.916395 
L 570.620038 109.19239 
z
" clip-path="url(#p5ecab78904)" style="fill: #ffffff"/>
   </g>
   <g id="patch_10">
    <path d="M 144.204545 129.988832 
L 193.526679 126.932699 
L 203.343344 138.011061 
L 200.022199 157.553494 
L 144.204545 158.830686 
z
" clip-path="url(#p5ecab78904)" style="fill: #ffffff"/>
   </g>
   <g id="patch_11">
    <path d="M 600.167194 126.745798 
L 622.627439 141.064486 
L 622.750025 144.037035 
L 615.99703 153.814726 
L 581.825673 156.579772 
L 581.28261 127.71743 
z
" clip-path="url(#p5ecab78904)" style="fill: #ffffff"/>
   </g>
   <g id="patch_12">
    <path d="M 572.855511 118.916395 
L 581.28261 127.71743 
L 581.825673 156.579772 
L 578.100999 162.557417 
L 563.748209 167.230917 
L 551.721256 162.99432 
L 547.424756 139.222221 
z
" clip-path="url(#p5ecab78904)" style="fill: #ffffff"/>
   </g>
   <g id="patch_13">
    <path d="M 237.258293 167.071374 
L 229.40657 174.282131 
L 217.618899 164.898408 
L 230.605664 137.89244 
L 238.437507 139.249233 
z
" clip-path="url(#p5ecab78904)" style="fill: #ffffff"/>
   </g>
   <g id="patch_14">
    <path d="M 202.494947 160.753623 
L 200.022199 157.553494 
L 203.343344 138.011061 
L 222.296327 132.337509 
L 230.605664 137.89244 
L 217.618899 164.898408 
z
" clip-path="url(#p5ecab78904)" style="fill: #ffffff"/>
   </g>
   <g id="patch_15">
    <path d="M 564.855654 103.473771 
L 570.620038 109.19239 
L 572.855511 118.916395 
L 547.424756 139.222221 
L 527.387931 129.429736 
L 533.802268 103.54159 
z
" clip-path="url(#p5ecab78904)" style="fill: #ffffff"/>
   </g>
   <g id="patch_16">
    <path d="M 227.283781 229.823059 
L 231.290896 248.562109 
L 227.139134 251.29112 
L 201.761187 252.757379 
L 182.512005 235.372274 
L 193.640136 214.002787 
L 214.599521 209.632667 
z
" clip-path="url(#p5ecab78904)" style="fill: #ffffff"/>
   </g>
   <g id="patch_17">
    <path d="M 295.499972 209.504503 
L 268.772569 233.380461 
L 259.075114 201.510861 
L 259.49627 197.427082 
L 284.866075 196.805157 
z
" clip-path="url(#p5ecab78904)" style="fill: #ffffff"/>
   </g>
   <g id="patch_18">
    <path d="M 237.258293 167.071374 
L 238.437507 139.249233 
L 242.180468 138.090919 
L 270.027276 147.151226 
L 274.281656 152.608765 
L 274.214029 152.862399 
L 267.248061 160.970497 
z
" clip-path="url(#p5ecab78904)" style="fill: #ffffff"/>
   </g>
   <g id="patch_19">
    <path d="M 268.414612 235.758175 
L 248.924163 251.67947 
L 247.518048 252.181653 
L 231.290896 248.562109 
L 227.283781 229.823059 
L 259.075114 201.510861 
L 268.772569 233.380461 
z
" clip-path="url(#p5ecab78904)" style="fill: #ffffff"/>
   </g>
   <g id="patch_20">
    <path d="M 304.854892 208.652211 
L 301.286195 211.341565 
L 295.499972 209.504503 
L 284.866075 196.805157 
L 291.453324 181.71131 
L 311.582624 178.889487 
L 315.551496 189.946477 
z
" clip-path="url(#p5ecab78904)" style="fill: #ffffff"/>
   </g>
   <g id="patch_21">
    <path d="M 629.447457 98.75417 
L 632.153605 127.320433 
L 622.627439 141.064486 
L 600.167194 126.745798 
L 616.637032 94.993762 
z
" clip-path="url(#p5ecab78904)" style="fill: #ffffff"/>
   </g>
   <g id="patch_22">
    <path d="M 304.854892 208.652211 
L 315.551496 189.946477 
L 330.864748 195.442517 
L 332.345955 202.107949 
L 325.521363 210.165435 
z
" clip-path="url(#p5ecab78904)" style="fill: #ffffff"/>
   </g>
   <g id="patch_23">
    <path d="M 144.204545 105.697063 
L 144.204545 66.510744 
L 205.668332 66.510744 
L 205.808502 96.241954 
L 203.190638 98.683251 
z
" clip-path="url(#p5ecab78904)" style="fill: #ffffff"/>
   </g>
   <g id="patch_24">
    <path d="M 773.052086 234.722924 
L 778.295455 239.966293 
L 778.295455 297.089256 
L 709.483497 297.089256 
L 713.336733 258.440379 
z
" clip-path="url(#p5ecab78904)" style="fill: #ffffff"/>
   </g>
   <g id="patch_25">
    <path d="M 304.795058 220.873424 
L 301.286195 211.341565 
L 304.854892 208.652211 
L 325.521363 210.165435 
L 328.62677 227.575252 
L 323.057838 230.848193 
z
" clip-path="url(#p5ecab78904)" style="fill: #ffffff"/>
   </g>
   <g id="patch_26">
    <path d="M 502.719687 132.328849 
L 497.888726 128.7875 
L 498.71442 107.983827 
L 524.980416 93.698831 
L 533.802268 103.54159 
L 527.387931 129.429736 
L 521.849772 132.668675 
z
" clip-path="url(#p5ecab78904)" style="fill: #ffffff"/>
   </g>
   <g id="patch_27">
    <path d="M 328.62677 227.575252 
L 325.521363 210.165435 
L 332.345955 202.107949 
L 347.6184 212.08179 
L 346.428047 226.981771 
z
" clip-path="url(#p5ecab78904)" style="fill: #ffffff"/>
   </g>
   <g id="patch_28">
    <path d="M 223.670421 107.719676 
L 205.808502 96.241954 
L 205.668332 66.510744 
L 243.44573 66.510744 
L 249.576812 103.546577 
z
" clip-path="url(#p5ecab78904)" style="fill: #ffffff"/>
   </g>
   <g id="patch_29">
    <path d="M 344.472043 165.951914 
L 350.65743 158.151834 
L 372.746243 166.304261 
L 368.620929 199.744356 
L 359.154843 200.495924 
L 343.551182 182.452733 
z
" clip-path="url(#p5ecab78904)" style="fill: #ffffff"/>
   </g>
   <g id="patch_30">
    <path d="M 315.551496 189.946477 
L 311.582624 178.889487 
L 315.212203 171.310514 
L 344.472043 165.951914 
L 343.551182 182.452733 
L 330.864748 195.442517 
z
" clip-path="url(#p5ecab78904)" style="fill: #ffffff"/>
   </g>
   <g id="patch_31">
    <path d="M 461.01071 106.743236 
L 479.401956 91.337957 
L 498.71442 107.983827 
L 497.888726 128.7875 
L 481.584091 131.237495 
L 463.481197 116.150705 
z
" clip-path="url(#p5ecab78904)" style="fill: #ffffff"/>
   </g>
   <g id="patch_32">
    <path d="M 330.864748 195.442517 
L 343.551182 182.452733 
L 359.154843 200.495924 
L 347.6184 212.08179 
L 332.345955 202.107949 
z
" clip-path="url(#p5ecab78904)" style="fill: #ffffff"/>
   </g>
   <g id="patch_33">
    <path d="M 368.620929 199.744356 
L 372.746243 166.304261 
L 390.084207 163.431666 
L 390.877408 164.085253 
L 398.627475 195.222782 
L 373.240565 202.951798 
z
" clip-path="url(#p5ecab78904)" style="fill: #ffffff"/>
   </g>
   <g id="patch_34">
    <path d="M 656.559514 244.912063 
L 659.518668 241.314901 
L 664.53256 240.336812 
L 711.774104 256.294757 
L 713.336733 258.440379 
L 709.541904 296.503428 
L 708.956076 297.089256 
L 703.539446 297.089256 
L 657.628998 258.36379 
z
" clip-path="url(#p5ecab78904)" style="fill: #ffffff"/>
   </g>
   <g id="patch_35">
    <path d="M 703.539446 297.089256 
L 641.989068 297.089256 
L 657.628998 258.36379 
z
" clip-path="url(#p5ecab78904)" style="fill: #ffffff"/>
   </g>
   <g id="patch_36">
    <path d="M 368.620929 199.744356 
L 373.240565 202.951798 
L 377.771235 227.92179 
L 346.770361 227.362022 
L 346.428047 226.981771 
L 347.6184 212.08179 
L 359.154843 200.495924 
z
" clip-path="url(#p5ecab78904)" style="fill: #ffffff"/>
   </g>
   <g id="patch_37">
    <path d="M 398.627475 195.222782 
L 390.877408 164.085253 
L 422.906232 166.161625 
L 426.147724 188.463647 
L 403.690856 198.704818 
z
" clip-path="url(#p5ecab78904)" style="fill: #ffffff"/>
   </g>
   <g id="patch_38">
    <path d="M 481.584091 131.237495 
L 468.19819 159.513617 
L 467.861548 159.659769 
L 449.836659 136.475555 
L 463.481197 116.150705 
z
" clip-path="url(#p5ecab78904)" style="fill: #ffffff"/>
   </g>
   <g id="patch_39">
    <path d="M 611.176228 252.574773 
L 613.725492 297.089256 
L 563.230369 297.089256 
L 563.310633 273.341805 
L 581.626549 249.460053 
z
" clip-path="url(#p5ecab78904)" style="fill: #ffffff"/>
   </g>
   <g id="patch_40">
    <path d="M 467.906763 205.170731 
L 447.223425 221.768175 
L 435.394334 210.377153 
L 435.241844 193.791593 
L 447.473424 189.787315 
z
" clip-path="url(#p5ecab78904)" style="fill: #ffffff"/>
   </g>
   <g id="patch_41">
    <path d="M 498.917436 166.061651 
L 502.719687 132.328849 
L 521.849772 132.668675 
L 524.679369 165.482518 
L 499.966829 167.225651 
z
" clip-path="url(#p5ecab78904)" style="fill: #ffffff"/>
   </g>
   <g id="patch_42">
    <path d="M 502.719687 132.328849 
L 498.917436 166.061651 
L 468.19819 159.513617 
L 481.584091 131.237495 
L 497.888726 128.7875 
z
" clip-path="url(#p5ecab78904)" style="fill: #ffffff"/>
   </g>
   <g id="patch_43">
    <path d="M 447.467302 235.888167 
L 444.399362 238.264601 
L 411.372105 228.397319 
L 408.41299 224.487387 
L 435.394334 210.377153 
L 447.223425 221.768175 
z
" clip-path="url(#p5ecab78904)" style="fill: #ffffff"/>
   </g>
   <g id="patch_44">
    <path d="M 427.523308 111.151569 
L 427.800366 109.016194 
L 440.036182 99.266104 
L 461.01071 106.743236 
L 463.481197 116.150705 
L 449.836659 136.475555 
L 441.951742 136.966785 
z
" clip-path="url(#p5ecab78904)" style="fill: #ffffff"/>
   </g>
   <g id="patch_45">
    <path d="M 377.771235 227.92179 
L 373.240565 202.951798 
L 398.627475 195.222782 
L 403.690856 198.704818 
L 407.763171 224.16725 
L 383.19087 233.296346 
z
" clip-path="url(#p5ecab78904)" style="fill: #ffffff"/>
   </g>
   <g id="patch_46">
    <path d="M 479.220523 197.22553 
L 472.904382 205.157652 
L 467.906763 205.170731 
L 447.473424 189.787315 
L 457.628993 167.163267 
L 464.484192 163.987386 
z
" clip-path="url(#p5ecab78904)" style="fill: #ffffff"/>
   </g>
   <g id="patch_47">
    <path d="M 540.620876 249.876832 
L 563.310633 273.341805 
L 563.230369 297.089256 
L 529.333008 297.089256 
L 521.275988 267.272635 
z
" clip-path="url(#p5ecab78904)" style="fill: #ffffff"/>
   </g>
   <g id="patch_48">
    <path d="M 347.880746 106.858126 
L 326.616706 88.738485 
L 326.727249 66.510744 
L 363.821525 66.510744 
L 360.261885 101.327284 
z
" clip-path="url(#p5ecab78904)" style="fill: #ffffff"/>
   </g>
   <g id="patch_49">
    <path d="M 571.374751 232.514567 
L 581.626549 249.460053 
L 563.310633 273.341805 
L 540.620876 249.876832 
L 540.656131 246.249989 
L 551.180807 229.145173 
z
" clip-path="url(#p5ecab78904)" style="fill: #ffffff"/>
   </g>
   <g id="patch_50">
    <path d="M 390.084207 163.431666 
L 372.746243 166.304261 
L 350.65743 158.151834 
L 350.327663 156.797912 
L 355.902534 141.408098 
L 374.965974 129.500705 
L 394.817484 136.010435 
L 395.090018 136.378455 
z
" clip-path="url(#p5ecab78904)" style="fill: #ffffff"/>
   </g>
   <g id="patch_51">
    <path d="M 447.473424 189.787315 
L 435.241844 193.791593 
L 426.147724 188.463647 
L 422.906232 166.161625 
L 429.175461 159.485687 
L 457.628993 167.163267 
z
" clip-path="url(#p5ecab78904)" style="fill: #ffffff"/>
   </g>
   <g id="patch_52">
    <path d="M 435.394334 210.377153 
L 408.41299 224.487387 
L 407.763171 224.16725 
L 403.690856 198.704818 
L 426.147724 188.463647 
L 435.241844 193.791593 
z
" clip-path="url(#p5ecab78904)" style="fill: #ffffff"/>
   </g>
   <g id="patch_53">
    <path d="M 422.906232 166.161625 
L 390.877408 164.085253 
L 390.084207 163.431666 
L 395.090018 136.378455 
L 412.742785 134.151782 
L 429.101855 149.173487 
L 429.175461 159.485687 
z
" clip-path="url(#p5ecab78904)" style="fill: #ffffff"/>
   </g>
   <g id="patch_54">
    <path d="M 471.573337 297.089256 
L 505.138294 259.644963 
L 521.275988 267.272635 
L 529.333008 297.089256 
z
" clip-path="url(#p5ecab78904)" style="fill: #ffffff"/>
   </g>
   <g id="patch_55">
    <path d="M 395.090018 136.378455 
L 394.817484 136.010435 
L 395.806625 101.174399 
L 397.981649 99.082739 
L 427.800366 109.016194 
L 427.523308 111.151569 
L 412.742785 134.151782 
z
" clip-path="url(#p5ecab78904)" style="fill: #ffffff"/>
   </g>
   <g id="patch_56">
    <path d="M 464.484192 163.987386 
L 457.628993 167.163267 
L 429.175461 159.485687 
L 429.101855 149.173487 
L 441.951742 136.966785 
L 449.836659 136.475555 
L 467.861548 159.659769 
z
" clip-path="url(#p5ecab78904)" style="fill: #ffffff"/>
   </g>
   <g id="patch_57">
    <path d="M 411.372105 228.397319 
L 415.286183 255.22954 
L 399.812592 260.039973 
L 381.400495 243.320515 
L 383.19087 233.296346 
L 407.763171 224.16725 
L 408.41299 224.487387 
z
" clip-path="url(#p5ecab78904)" style="fill: #ffffff"/>
   </g>
   <g id="patch_58">
    <path d="M 485.906504 234.77614 
L 473.029655 242.867299 
L 447.467302 235.888167 
L 447.223425 221.768175 
L 467.906763 205.170731 
L 472.904382 205.157652 
z
" clip-path="url(#p5ecab78904)" style="fill: #ffffff"/>
   </g>
   <g id="patch_59">
    <path d="M 374.965974 129.500705 
L 355.902534 141.408098 
L 345.815821 111.320387 
L 347.880746 106.858126 
L 360.261885 101.327284 
L 367.552913 104.772507 
z
" clip-path="url(#p5ecab78904)" style="fill: #ffffff"/>
   </g>
   <g id="patch_60">
    <path d="M 498.917436 166.061651 
L 499.966829 167.225651 
L 497.517181 191.147238 
L 479.220523 197.22553 
L 464.484192 163.987386 
L 467.861548 159.659769 
L 468.19819 159.513617 
z
" clip-path="url(#p5ecab78904)" style="fill: #ffffff"/>
   </g>
   <g id="patch_61">
    <path d="M 367.552913 104.772507 
L 395.806625 101.174399 
L 394.817484 136.010435 
L 374.965974 129.500705 
z
" clip-path="url(#p5ecab78904)" style="fill: #ffffff"/>
   </g>
   <g id="patch_62">
    <path d="M 506.622923 228.270562 
L 505.157113 230.985415 
L 497.695081 236.385996 
L 485.906504 234.77614 
L 472.904382 205.157652 
L 479.220523 197.22553 
L 497.517181 191.147238 
L 505.081405 196.942224 
z
" clip-path="url(#p5ecab78904)" style="fill: #ffffff"/>
   </g>
   <g id="patch_63">
    <path d="M 471.573337 297.089256 
L 469.320076 297.089256 
L 465.557134 285.616444 
L 473.029655 242.867299 
L 485.906504 234.77614 
L 497.695081 236.385996 
L 505.138294 259.644963 
z
" clip-path="url(#p5ecab78904)" style="fill: #ffffff"/>
   </g>
   <g id="patch_64">
    <path d="M 542.590267 210.053701 
L 551.180807 229.145173 
L 540.656131 246.249989 
L 505.157113 230.985415 
L 506.622923 228.270562 
z
" clip-path="url(#p5ecab78904)" style="fill: #ffffff"/>
   </g>
   <g id="patch_65">
    <path d="M 411.372105 228.397319 
L 444.399362 238.264601 
L 436.318491 258.486467 
L 425.127852 261.139278 
L 415.286183 255.22954 
z
" clip-path="url(#p5ecab78904)" style="fill: #ffffff"/>
   </g>
   <g id="patch_66">
    <path d="M 530.769184 193.739269 
L 505.081405 196.942224 
L 497.517181 191.147238 
L 499.966829 167.225651 
L 524.679369 165.482518 
L 533.421939 170.494864 
z
" clip-path="url(#p5ecab78904)" style="fill: #ffffff"/>
   </g>
   <g id="patch_67">
    <path d="M 542.675617 208.969442 
L 542.590267 210.053701 
L 506.622923 228.270562 
L 505.081405 196.942224 
L 530.769184 193.739269 
z
" clip-path="url(#p5ecab78904)" style="fill: #ffffff"/>
   </g>
   <g id="patch_68">
    <path d="M 281.008113 101.064286 
L 267.982149 107.405815 
L 249.592285 103.557877 
L 249.576812 103.546577 
L 243.44573 66.510744 
L 286.152981 66.510744 
L 285.997225 93.796553 
z
" clip-path="url(#p5ecab78904)" style="fill: #ffffff"/>
   </g>
   <g id="patch_69">
    <path d="M 563.748209 167.230917 
L 562.87086 195.950129 
L 542.675617 208.969442 
L 530.769184 193.739269 
L 533.421939 170.494864 
L 551.721256 162.99432 
z
" clip-path="url(#p5ecab78904)" style="fill: #ffffff"/>
   </g>
   <g id="patch_70">
    <path d="M 473.029655 242.867299 
L 465.557134 285.616444 
L 436.318491 258.486467 
L 444.399362 238.264601 
L 447.467302 235.888167 
z
" clip-path="url(#p5ecab78904)" style="fill: #ffffff"/>
   </g>
   <g id="patch_71">
    <path d="M 540.620876 249.876832 
L 521.275988 267.272635 
L 505.138294 259.644963 
L 497.695081 236.385996 
L 505.157113 230.985415 
L 540.656131 246.249989 
z
" clip-path="url(#p5ecab78904)" style="fill: #ffffff"/>
   </g>
   <g id="patch_72">
    <path d="M 381.400495 243.320515 
L 368.445423 256.766441 
L 348.564892 253.863457 
L 346.770361 227.362022 
L 377.771235 227.92179 
L 383.19087 233.296346 
z
" clip-path="url(#p5ecab78904)" style="fill: #ffffff"/>
   </g>
   <g id="patch_73">
    <path d="M 398.950037 66.510744 
L 435.270429 66.510744 
L 440.036182 99.266104 
L 427.800366 109.016194 
L 397.981649 99.082739 
z
" clip-path="url(#p5ecab78904)" style="fill: #ffffff"/>
   </g>
   <g id="patch_74">
    <path d="M 368.445423 256.766441 
L 381.400495 243.320515 
L 399.812592 260.039973 
L 393.37804 281.73497 
L 371.063045 266.277879 
z
" clip-path="url(#p5ecab78904)" style="fill: #ffffff"/>
   </g>
   <g id="patch_75">
    <path d="M 436.318491 258.486467 
L 465.557134 285.616444 
L 469.320076 297.089256 
L 414.769473 297.089256 
L 425.127852 261.139278 
z
" clip-path="url(#p5ecab78904)" style="fill: #ffffff"/>
   </g>
   <g id="patch_76">
    <path d="M 435.270429 66.510744 
L 484.416088 66.510744 
L 479.401956 91.337957 
L 461.01071 106.743236 
L 440.036182 99.266104 
z
" clip-path="url(#p5ecab78904)" style="fill: #ffffff"/>
   </g>
   <g id="patch_77">
    <path d="M 399.812592 260.039973 
L 415.286183 255.22954 
L 425.127852 261.139278 
L 414.769473 297.089256 
L 398.340181 297.089256 
L 393.37804 281.73497 
z
" clip-path="url(#p5ecab78904)" style="fill: #ffffff"/>
   </g>
   <g id="patch_78">
    <path d="M 325.955123 139.542333 
L 323.085282 125.305528 
L 345.815821 111.320387 
L 355.902534 141.408098 
L 350.327663 156.797912 
z
" clip-path="url(#p5ecab78904)" style="fill: #ffffff"/>
   </g>
   <g id="patch_79">
    <path d="M 318.012785 255.647901 
L 323.057838 230.848193 
L 328.62677 227.575252 
L 346.428047 226.981771 
L 346.770361 227.362022 
L 348.564892 253.863457 
L 344.410289 256.885218 
z
" clip-path="url(#p5ecab78904)" style="fill: #ffffff"/>
   </g>
   <g id="patch_80">
    <path d="M 298.68296 126.349135 
L 316.659787 121.868264 
L 323.085282 125.305528 
L 325.955123 139.542333 
L 306.295707 153.998291 
L 288.590509 147.689587 
z
" clip-path="url(#p5ecab78904)" style="fill: #ffffff"/>
   </g>
   <g id="patch_81">
    <path d="M 611.308371 216.742929 
L 583.739994 215.099512 
L 577.604823 202.047503 
L 594.642578 183.204242 
L 611.923284 187.551626 
L 612.338955 215.10433 
z
" clip-path="url(#p5ecab78904)" style="fill: #ffffff"/>
   </g>
   <g id="patch_82">
    <path d="M 542.675617 208.969442 
L 562.87086 195.950129 
L 577.604823 202.047503 
L 583.739994 215.099512 
L 571.374751 232.514567 
L 551.180807 229.145173 
L 542.590267 210.053701 
z
" clip-path="url(#p5ecab78904)" style="fill: #ffffff"/>
   </g>
   <g id="patch_83">
    <path d="M 325.955123 139.542333 
L 350.327663 156.797912 
L 350.65743 158.151834 
L 344.472043 165.951914 
L 315.212203 171.310514 
L 306.295707 153.998291 
z
" clip-path="url(#p5ecab78904)" style="fill: #ffffff"/>
   </g>
   <g id="patch_84">
    <path d="M 312.366785 99.496808 
L 285.997225 93.796553 
L 286.152981 66.510744 
L 326.727249 66.510744 
L 326.616706 88.738485 
z
" clip-path="url(#p5ecab78904)" style="fill: #ffffff"/>
   </g>
   <g id="patch_85">
    <path d="M 270.027276 147.151226 
L 267.982149 107.405815 
L 281.008113 101.064286 
L 298.68296 126.349135 
L 288.590509 147.689587 
L 274.281656 152.608765 
z
" clip-path="url(#p5ecab78904)" style="fill: #ffffff"/>
   </g>
   <g id="patch_86">
    <path d="M 498.71442 107.983827 
L 479.401956 91.337957 
L 484.416088 66.510744 
L 520.392722 66.510744 
L 524.980416 93.698831 
z
" clip-path="url(#p5ecab78904)" style="fill: #ffffff"/>
   </g>
   <g id="patch_87">
    <path d="M 318.012785 255.647901 
L 306.231302 263.391503 
L 293.224788 245.105857 
L 304.795058 220.873424 
L 323.057838 230.848193 
z
" clip-path="url(#p5ecab78904)" style="fill: #ffffff"/>
   </g>
   <g id="patch_88">
    <path d="M 614.695004 248.15902 
L 611.176228 252.574773 
L 581.626549 249.460053 
L 571.374751 232.514567 
L 583.739994 215.099512 
L 611.308371 216.742929 
z
" clip-path="url(#p5ecab78904)" style="fill: #ffffff"/>
   </g>
   <g id="patch_89">
    <path d="M 291.453324 181.71131 
L 274.214029 152.862399 
L 274.281656 152.608765 
L 288.590509 147.689587 
L 306.295707 153.998291 
L 315.212203 171.310514 
L 311.582624 178.889487 
z
" clip-path="url(#p5ecab78904)" style="fill: #ffffff"/>
   </g>
   <g id="patch_90">
    <path d="M 306.231302 263.391503 
L 318.012785 255.647901 
L 344.410289 256.885218 
L 344.725345 297.089256 
L 302.048818 297.089256 
L 301.268458 281.186996 
z
" clip-path="url(#p5ecab78904)" style="fill: #ffffff"/>
   </g>
   <g id="patch_91">
    <path d="M 622.750025 144.037035 
L 649.33502 159.067802 
L 647.441519 179.760552 
L 640.270357 182.88182 
L 617.766755 182.276691 
L 615.99703 153.814726 
z
" clip-path="url(#p5ecab78904)" style="fill: #ffffff"/>
   </g>
   <g id="patch_92">
    <path d="M 640.270357 182.88182 
L 638.621786 212.395394 
L 612.338955 215.10433 
L 611.923284 187.551626 
L 617.766755 182.276691 
z
" clip-path="url(#p5ecab78904)" style="fill: #ffffff"/>
   </g>
   <g id="patch_93">
    <path d="M 301.286195 211.341565 
L 304.795058 220.873424 
L 293.224788 245.105857 
L 268.414612 235.758175 
L 268.772569 233.380461 
L 295.499972 209.504503 
z
" clip-path="url(#p5ecab78904)" style="fill: #ffffff"/>
   </g>
   <g id="patch_94">
    <path d="M 651.612614 219.462102 
L 659.518668 241.314901 
L 656.559514 244.912063 
L 614.695004 248.15902 
L 611.308371 216.742929 
L 612.338955 215.10433 
L 638.621786 212.395394 
z
" clip-path="url(#p5ecab78904)" style="fill: #ffffff"/>
   </g>
   <g id="patch_95">
    <path d="M 393.37804 281.73497 
L 398.340181 297.089256 
L 353.25164 297.089256 
L 371.063045 266.277879 
z
" clip-path="url(#p5ecab78904)" style="fill: #ffffff"/>
   </g>
   <g id="patch_96">
    <path d="M 259.49627 197.427082 
L 259.018476 196.752295 
L 267.248061 160.970497 
L 274.214029 152.862399 
L 291.453324 181.71131 
L 284.866075 196.805157 
z
" clip-path="url(#p5ecab78904)" style="fill: #ffffff"/>
   </g>
   <g id="patch_97">
    <path d="M 533.802268 103.54159 
L 524.980416 93.698831 
L 520.392722 66.510744 
L 565.533454 66.510744 
L 564.855654 103.473771 
z
" clip-path="url(#p5ecab78904)" style="fill: #ffffff"/>
   </g>
   <g id="patch_98">
    <path d="M 312.366785 99.496808 
L 316.659787 121.868264 
L 298.68296 126.349135 
L 281.008113 101.064286 
L 285.997225 93.796553 
z
" clip-path="url(#p5ecab78904)" style="fill: #ffffff"/>
   </g>
   <g id="patch_99">
    <path d="M 638.621786 212.395394 
L 640.270357 182.88182 
L 647.441519 179.760552 
L 667.576641 190.741107 
L 651.612614 219.462102 
z
" clip-path="url(#p5ecab78904)" style="fill: #ffffff"/>
   </g>
   <g id="patch_100">
    <path d="M 570.620038 109.19239 
L 564.855654 103.473771 
L 565.533454 66.510744 
L 602.48269 66.510744 
L 608.297251 88.261551 
z
" clip-path="url(#p5ecab78904)" style="fill: #ffffff"/>
   </g>
   <g id="patch_101">
    <path d="M 667.576641 190.741107 
L 647.441519 179.760552 
L 649.33502 159.067802 
L 663.835289 148.755896 
L 676.528306 151.347981 
L 680.58748 185.129284 
L 676.931963 189.835606 
z
" clip-path="url(#p5ecab78904)" style="fill: #ffffff"/>
   </g>
   <g id="patch_102">
    <path d="M 629.447457 98.75417 
L 616.637032 94.993762 
L 608.297251 88.261551 
L 602.48269 66.510744 
L 640.881966 66.510744 
L 633.914151 96.682857 
z
" clip-path="url(#p5ecab78904)" style="fill: #ffffff"/>
   </g>
   <g id="patch_103">
    <path d="M 267.248061 160.970497 
L 259.018476 196.752295 
L 230.800347 187.455168 
L 229.40657 174.282131 
L 237.258293 167.071374 
z
" clip-path="url(#p5ecab78904)" style="fill: #ffffff"/>
   </g>
   <g id="patch_104">
    <path d="M 664.53256 240.336812 
L 659.518668 241.314901 
L 651.612614 219.462102 
L 667.576641 190.741107 
L 676.931963 189.835606 
L 688.950223 211.430648 
z
" clip-path="url(#p5ecab78904)" style="fill: #ffffff"/>
   </g>
   <g id="patch_105">
    <path d="M 715.088451 181.789122 
L 721.681223 195.466373 
L 721.89438 205.439145 
L 708.611509 217.129647 
L 688.950223 211.430648 
L 676.931963 189.835606 
L 680.58748 185.129284 
L 704.84147 177.935856 
z
" clip-path="url(#p5ecab78904)" style="fill: #ffffff"/>
   </g>
   <g id="patch_106">
    <path d="M 256.499884 297.089256 
L 216.470758 297.089256 
L 227.139134 251.29112 
L 231.290896 248.562109 
L 247.518048 252.181653 
z
" clip-path="url(#p5ecab78904)" style="fill: #ffffff"/>
   </g>
   <g id="patch_107">
    <path d="M 348.564892 253.863457 
L 368.445423 256.766441 
L 371.063045 266.277879 
L 353.25164 297.089256 
L 344.725345 297.089256 
L 344.410289 256.885218 
z
" clip-path="url(#p5ecab78904)" style="fill: #ffffff"/>
   </g>
   <g id="patch_108">
    <path d="M 223.670421 107.719676 
L 249.576812 103.546577 
L 249.592285 103.557877 
L 242.180468 138.090919 
L 238.437507 139.249233 
L 230.605664 137.89244 
L 222.296327 132.337509 
z
" clip-path="url(#p5ecab78904)" style="fill: #ffffff"/>
   </g>
   <g id="patch_109">
    <path d="M 633.914151 96.682857 
L 640.881966 66.510744 
L 660.863013 66.510744 
L 660.594082 97.706013 
z
" clip-path="url(#p5ecab78904)" style="fill: #ffffff"/>
   </g>
   <g id="patch_110">
    <path d="M 270.027276 147.151226 
L 242.180468 138.090919 
L 249.592285 103.557877 
L 267.982149 107.405815 
z
" clip-path="url(#p5ecab78904)" style="fill: #ffffff"/>
   </g>
   <g id="patch_111">
    <path d="M 248.924163 251.67947 
L 268.414612 235.758175 
L 293.224788 245.105857 
L 306.231302 263.391503 
L 301.268458 281.186996 
z
" clip-path="url(#p5ecab78904)" style="fill: #ffffff"/>
   </g>
   <g id="patch_112">
    <path d="M 694.794757 141.266998 
L 699.277455 143.319865 
L 704.84147 177.935856 
L 680.58748 185.129284 
L 676.528306 151.347981 
z
" clip-path="url(#p5ecab78904)" style="fill: #ffffff"/>
   </g>
   <g id="patch_113">
    <path d="M 217.618899 164.898408 
L 229.40657 174.282131 
L 230.800347 187.455168 
L 217.360689 200.913302 
L 196.643147 181.513088 
L 202.494947 160.753623 
z
" clip-path="url(#p5ecab78904)" style="fill: #ffffff"/>
   </g>
   <g id="patch_114">
    <path d="M 688.950223 211.430648 
L 708.611509 217.129647 
L 711.774104 256.294757 
L 664.53256 240.336812 
z
" clip-path="url(#p5ecab78904)" style="fill: #ffffff"/>
   </g>
   <g id="patch_115">
    <path d="M 214.599521 209.632667 
L 193.640136 214.002787 
L 171.479846 191.949085 
L 196.643147 181.513088 
L 217.360689 200.913302 
z
" clip-path="url(#p5ecab78904)" style="fill: #ffffff"/>
   </g>
   <g id="patch_116">
    <path d="M 704.84147 177.935856 
L 699.277455 143.319865 
L 721.626711 141.755674 
L 727.099809 144.382224 
L 731.83609 161.181251 
L 715.088451 181.789122 
z
" clip-path="url(#p5ecab78904)" style="fill: #ffffff"/>
   </g>
   <g id="patch_117">
    <path d="M 692.587434 66.510744 
L 718.549612 66.510744 
L 720.772677 102.684693 
L 706.685797 105.367046 
L 685.612113 91.672015 
z
" clip-path="url(#p5ecab78904)" style="fill: #ffffff"/>
   </g>
   <g id="patch_118">
    <path d="M 170.252525 297.089256 
L 201.761187 252.757379 
L 227.139134 251.29112 
L 216.470758 297.089256 
z
" clip-path="url(#p5ecab78904)" style="fill: #ffffff"/>
   </g>
   <g id="patch_119">
    <path d="M 721.681223 195.466373 
L 762.759878 175.535707 
L 778.295455 177.349119 
L 778.295455 222.392213 
L 773.257181 227.430487 
L 721.89438 205.439145 
z
" clip-path="url(#p5ecab78904)" style="fill: #ffffff"/>
   </g>
   <g id="patch_120">
    <path d="M 666.830417 101.704319 
L 660.594082 97.706013 
L 660.863013 66.510744 
L 692.587434 66.510744 
L 685.612113 91.672015 
z
" clip-path="url(#p5ecab78904)" style="fill: #ffffff"/>
   </g>
   <g id="patch_121">
    <path d="M 721.89438 205.439145 
L 774.725043 228.058962 
L 772.926024 234.772993 
L 713.336733 258.440379 
L 711.774104 256.294757 
L 708.611509 217.129647 
z
" clip-path="url(#p5ecab78904)" style="fill: #ffffff"/>
   </g>
   <g id="patch_122">
    <path d="M 202.494947 160.753623 
L 196.643147 181.513088 
L 171.479846 191.949085 
L 144.204545 184.300907 
L 144.204545 158.830686 
L 200.022199 157.553494 
z
" clip-path="url(#p5ecab78904)" style="fill: #ffffff"/>
   </g>
   <g id="patch_123">
    <path d="M 720.772677 102.684693 
L 718.549612 66.510744 
L 776.636971 66.510744 
L 778.295455 72.700288 
L 778.295455 98.03001 
L 775.612017 108.044735 
L 721.223446 102.980249 
z
" clip-path="url(#p5ecab78904)" style="fill: #ffffff"/>
   </g>
   <g id="patch_124">
    <path d="M 193.526679 126.932699 
L 144.204545 129.988832 
L 144.204545 105.697063 
L 203.190638 98.683251 
z
" clip-path="url(#p5ecab78904)" style="fill: #ffffff"/>
   </g>
   <g id="patch_125">
    <path d="M 222.296327 132.337509 
L 203.343344 138.011061 
L 193.526679 126.932699 
L 203.190638 98.683251 
L 205.808502 96.241954 
L 223.670421 107.719676 
z
" clip-path="url(#p5ecab78904)" style="fill: #ffffff"/>
   </g>
   <g id="patch_126">
    <path d="M 193.640136 214.002787 
L 182.512005 235.372274 
L 144.204545 240.820643 
L 144.204545 184.300907 
L 171.479846 191.949085 
z
" clip-path="url(#p5ecab78904)" style="fill: #ffffff"/>
   </g>
   <g id="patch_127">
    <path d="M 731.83609 161.181251 
L 727.099809 144.382224 
L 776.487992 117.768025 
L 778.295455 119.575488 
L 778.295455 177.349119 
L 762.759878 175.535707 
z
" clip-path="url(#p5ecab78904)" style="fill: #ffffff"/>
   </g>
   <g id="patch_128">
    <path d="M 578.100999 162.557417 
L 581.825673 156.579772 
L 615.99703 153.814726 
L 617.766755 182.276691 
L 611.923284 187.551626 
L 594.642578 183.204242 
z
" clip-path="url(#p5ecab78904)" style="fill: #ffffff"/>
   </g>
   <g id="patch_129">
    <path d="M 721.681223 195.466373 
L 715.088451 181.789122 
L 731.83609 161.181251 
L 762.759878 175.535707 
z
" clip-path="url(#p5ecab78904)" style="fill: #ffffff"/>
   </g>
   <g id="patch_130">
    <path d="M 360.261885 101.327284 
L 363.821525 66.510744 
L 398.950037 66.510744 
L 397.981649 99.082739 
L 395.806625 101.174399 
L 367.552913 104.772507 
z
" clip-path="url(#p5ecab78904)" style="fill: #ffffff"/>
   </g>
   <g id="patch_131">
    <path d="M 160.405716 297.089256 
L 157.08005 296.198147 
L 144.204545 283.322642 
L 144.204545 240.820643 
L 182.512005 235.372274 
L 201.761187 252.757379 
L 170.252525 297.089256 
z
" clip-path="url(#p5ecab78904)" style="fill: #ffffff"/>
   </g>
   <g id="patch_132">
    <path d="M 527.387931 129.429736 
L 547.424756 139.222221 
L 551.721256 162.99432 
L 533.421939 170.494864 
L 524.679369 165.482518 
L 521.849772 132.668675 
z
" clip-path="url(#p5ecab78904)" style="fill: #ffffff"/>
   </g>
   <g id="patch_133">
    <path d="M 248.924163 251.67947 
L 301.268458 281.186996 
L 302.048818 297.089256 
L 256.499884 297.089256 
L 247.518048 252.181653 
z
" clip-path="url(#p5ecab78904)" style="fill: #ffffff"/>
   </g>
   <g id="patch_134">
    <path d="M 412.742785 134.151782 
L 427.523308 111.151569 
L 441.951742 136.966785 
L 429.101855 149.173487 
z
" clip-path="url(#p5ecab78904)" style="fill: #ffffff"/>
   </g>
   <g id="patch_135">
    <path d="M 577.604823 202.047503 
L 562.87086 195.950129 
L 563.748209 167.230917 
L 578.100999 162.557417 
L 594.642578 183.204242 
z
" clip-path="url(#p5ecab78904)" style="fill: #ffffff"/>
   </g>
   <g id="patch_136">
    <path d="M 345.815821 111.320387 
L 323.085282 125.305528 
L 316.659787 121.868264 
L 312.366785 99.496808 
L 326.616706 88.738485 
L 347.880746 106.858126 
z
" clip-path="url(#p5ecab78904)" style="fill: #ffffff"/>
   </g>
   <g id="patch_137">
    <path d="M 230.800347 187.455168 
L 259.018476 196.752295 
L 259.49627 197.427082 
L 259.075114 201.510861 
L 227.283781 229.823059 
L 214.599521 209.632667 
L 217.360689 200.913302 
z
" clip-path="url(#p5ecab78904)" style="fill: #ffffff"/>
   </g>
   <g id="line2d_1">
    <path d="M 614.695004 248.15902 
L 656.559514 244.912063 
L 657.628998 258.36379 
L 641.989068 297.089256 
L 613.725492 297.089256 
L 611.176228 252.574773 
L 614.695004 248.15902 
" clip-path="url(#p5ecab78904)" style="fill: none; stroke: #727d8b; stroke-width: 1.5; stroke-linecap: square"/>
   </g>
   <g id="line2d_2">
    <path d="M 706.685797 105.367046 
L 720.772677 102.684693 
L 721.223446 102.980249 
L 721.626711 141.755674 
L 699.277455 143.319865 
L 694.794757 141.266998 
L 692.287459 129.508697 
L 706.685797 105.367046 
" clip-path="url(#p5ecab78904)" style="fill: none; stroke: #727d8b; stroke-width: 1.5; stroke-linecap: square"/>
   </g>
   <g id="line2d_3">
    <path d="M 721.223446 102.980249 
L 774.162091 107.909722 
L 776.763792 117.619402 
L 727.099809 144.382224 
L 721.626711 141.755674 
L 721.223446 102.980249 
" clip-path="url(#p5ecab78904)" style="fill: none; stroke: #727d8b; stroke-width: 1.5; stroke-linecap: square"/>
   </g>
   <g id="line2d_4">
    <path d="M 685.612113 91.672015 
L 706.685797 105.367046 
L 692.287459 129.508697 
L 668.165529 110.862357 
L 666.830417 101.704319 
L 685.612113 91.672015 
" clip-path="url(#p5ecab78904)" style="fill: none; stroke: #727d8b; stroke-width: 1.5; stroke-linecap: square"/>
   </g>
   <g id="line2d_5">
    <path d="M 668.165529 110.862357 
L 692.287459 129.508697 
L 694.794757 141.266998 
L 676.528306 151.347981 
L 663.835289 148.755896 
L 656.892989 129.485015 
L 668.165529 110.862357 
" clip-path="url(#p5ecab78904)" style="fill: none; stroke: #727d8b; stroke-width: 1.5; stroke-linecap: square"/>
   </g>
   <g id="line2d_6">
    <path d="M 633.914151 96.682857 
L 660.594082 97.706013 
L 666.830417 101.704319 
L 668.165529 110.862357 
L 656.892989 129.485015 
L 632.153605 127.320433 
L 629.447457 98.75417 
L 633.914151 96.682857 
" clip-path="url(#p5ecab78904)" style="fill: none; stroke: #727d8b; stroke-width: 1.5; stroke-linecap: square"/>
   </g>
   <g id="line2d_7">
    <path d="M 656.892989 129.485015 
L 663.835289 148.755896 
L 649.33502 159.067802 
L 622.750025 144.037035 
L 622.627439 141.064486 
L 632.153605 127.320433 
L 656.892989 129.485015 
" clip-path="url(#p5ecab78904)" style="fill: none; stroke: #727d8b; stroke-width: 1.5; stroke-linecap: square"/>
   </g>
   <g id="line2d_8">
    <path d="M 608.297251 88.261551 
L 616.637032 94.993762 
L 600.167194 126.745798 
L 581.28261 127.71743 
L 572.855511 118.916395 
L 570.620038 109.19239 
L 608.297251 88.261551 
" clip-path="url(#p5ecab78904)" style="fill: none; stroke: #727d8b; stroke-width: 1.5; stroke-linecap: square"/>
   </g>
   <g id="line2d_9">
    <path d="M 144.204545 129.988832 
L 193.526679 126.932699 
L 203.343344 138.011061 
L 200.022199 157.553494 
L 144.204545 158.830686 
L 144.204545 129.988832 
" clip-path="url(#p5ecab78904)" style="fill: none; stroke: #727d8b; stroke-width: 1.5; stroke-linecap: square"/>
   </g>
   <g id="line2d_10">
    <path d="M 600.167194 126.745798 
L 622.627439 141.064486 
L 622.750025 144.037035 
L 615.99703 153.814726 
L 581.825673 156.579772 
L 581.28261 127.71743 
L 600.167194 126.745798 
" clip-path="url(#p5ecab78904)" style="fill: none; stroke: #727d8b; stroke-width: 1.5; stroke-linecap: square"/>
   </g>
   <g id="line2d_11">
    <path d="M 572.855511 118.916395 
L 581.28261 127.71743 
L 581.825673 156.579772 
L 578.100999 162.557417 
L 563.748209 167.230917 
L 551.721256 162.99432 
L 547.424756 139.222221 
L 572.855511 118.916395 
" clip-path="url(#p5ecab78904)" style="fill: none; stroke: #727d8b; stroke-width: 1.5; stroke-linecap: square"/>
   </g>
   <g id="line2d_12">
    <path d="M 237.258293 167.071374 
L 229.40657 174.282131 
L 217.618899 164.898408 
L 230.605664 137.89244 
L 238.437507 139.249233 
L 237.258293 167.071374 
" clip-path="url(#p5ecab78904)" style="fill: none; stroke: #727d8b; stroke-width: 1.5; stroke-linecap: square"/>
   </g>
   <g id="line2d_13">
    <path d="M 202.494947 160.753623 
L 200.022199 157.553494 
L 203.343344 138.011061 
L 222.296327 132.337509 
L 230.605664 137.89244 
L 217.618899 164.898408 
L 202.494947 160.753623 
" clip-path="url(#p5ecab78904)" style="fill: none; stroke: #727d8b; stroke-width: 1.5; stroke-linecap: square"/>
   </g>
   <g id="line2d_14">
    <path d="M 564.855654 103.473771 
L 570.620038 109.19239 
L 572.855511 118.916395 
L 547.424756 139.222221 
L 527.387931 129.429736 
L 533.802268 103.54159 
L 564.855654 103.473771 
" clip-path="url(#p5ecab78904)" style="fill: none; stroke: #727d8b; stroke-width: 1.5; stroke-linecap: square"/>
   </g>
   <g id="line2d_15">
    <path d="M 227.283781 229.823059 
L 231.290896 248.562109 
L 227.139134 251.29112 
L 201.761187 252.757379 
L 182.512005 235.372274 
L 193.640136 214.002787 
L 214.599521 209.632667 
L 227.283781 229.823059 
" clip-path="url(#p5ecab78904)" style="fill: none; stroke: #727d8b; stroke-width: 1.5; stroke-linecap: square"/>
   </g>
   <g id="line2d_16">
    <path d="M 295.499972 209.504503 
L 268.772569 233.380461 
L 259.075114 201.510861 
L 259.49627 197.427082 
L 284.866075 196.805157 
L 295.499972 209.504503 
" clip-path="url(#p5ecab78904)" style="fill: none; stroke: #727d8b; stroke-width: 1.5; stroke-linecap: square"/>
   </g>
   <g id="line2d_17">
    <path d="M 237.258293 167.071374 
L 238.437507 139.249233 
L 242.180468 138.090919 
L 270.027276 147.151226 
L 274.281656 152.608765 
L 274.214029 152.862399 
L 267.248061 160.970497 
L 237.258293 167.071374 
" clip-path="url(#p5ecab78904)" style="fill: none; stroke: #727d8b; stroke-width: 1.5; stroke-linecap: square"/>
   </g>
   <g id="line2d_18">
    <path d="M 268.414612 235.758175 
L 248.924163 251.67947 
L 247.518048 252.181653 
L 231.290896 248.562109 
L 227.283781 229.823059 
L 259.075114 201.510861 
L 268.772569 233.380461 
L 268.414612 235.758175 
" clip-path="url(#p5ecab78904)" style="fill: none; stroke: #727d8b; stroke-width: 1.5; stroke-linecap: square"/>
   </g>
   <g id="line2d_19">
    <path d="M 304.854892 208.652211 
L 301.286195 211.341565 
L 295.499972 209.504503 
L 284.866075 196.805157 
L 291.453324 181.71131 
L 311.582624 178.889487 
L 315.551496 189.946477 
L 304.854892 208.652211 
" clip-path="url(#p5ecab78904)" style="fill: none; stroke: #727d8b; stroke-width: 1.5; stroke-linecap: square"/>
   </g>
   <g id="line2d_20">
    <path d="M 629.447457 98.75417 
L 632.153605 127.320433 
L 622.627439 141.064486 
L 600.167194 126.745798 
L 616.637032 94.993762 
L 629.447457 98.75417 
" clip-path="url(#p5ecab78904)" style="fill: none; stroke: #727d8b; stroke-width: 1.5; stroke-linecap: square"/>
   </g>
   <g id="line2d_21">
    <path d="M 304.854892 208.652211 
L 315.551496 189.946477 
L 330.864748 195.442517 
L 332.345955 202.107949 
L 325.521363 210.165435 
L 304.854892 208.652211 
" clip-path="url(#p5ecab78904)" style="fill: none; stroke: #727d8b; stroke-width: 1.5; stroke-linecap: square"/>
   </g>
   <g id="line2d_22">
    <path d="M 144.204545 105.697063 
L 144.204545 66.510744 
L 205.668332 66.510744 
L 205.808502 96.241954 
L 203.190638 98.683251 
L 144.204545 105.697063 
" clip-path="url(#p5ecab78904)" style="fill: none; stroke: #727d8b; stroke-width: 1.5; stroke-linecap: square"/>
   </g>
   <g id="line2d_23">
    <path d="M 773.052086 234.722924 
L 778.295455 239.966293 
L 778.295455 297.089256 
L 709.483497 297.089256 
L 713.336733 258.440379 
L 773.052086 234.722924 
" clip-path="url(#p5ecab78904)" style="fill: none; stroke: #727d8b; stroke-width: 1.5; stroke-linecap: square"/>
   </g>
   <g id="line2d_24">
    <path d="M 304.795058 220.873424 
L 301.286195 211.341565 
L 304.854892 208.652211 
L 325.521363 210.165435 
L 328.62677 227.575252 
L 323.057838 230.848193 
L 304.795058 220.873424 
" clip-path="url(#p5ecab78904)" style="fill: none; stroke: #727d8b; stroke-width: 1.5; stroke-linecap: square"/>
   </g>
   <g id="line2d_25">
    <path d="M 502.719687 132.328849 
L 497.888726 128.7875 
L 498.71442 107.983827 
L 524.980416 93.698831 
L 533.802268 103.54159 
L 527.387931 129.429736 
L 521.849772 132.668675 
L 502.719687 132.328849 
" clip-path="url(#p5ecab78904)" style="fill: none; stroke: #727d8b; stroke-width: 1.5; stroke-linecap: square"/>
   </g>
   <g id="line2d_26">
    <path d="M 328.62677 227.575252 
L 325.521363 210.165435 
L 332.345955 202.107949 
L 347.6184 212.08179 
L 346.428047 226.981771 
L 328.62677 227.575252 
" clip-path="url(#p5ecab78904)" style="fill: none; stroke: #727d8b; stroke-width: 1.5; stroke-linecap: square"/>
   </g>
   <g id="line2d_27">
    <path d="M 223.670421 107.719676 
L 205.808502 96.241954 
L 205.668332 66.510744 
L 243.44573 66.510744 
L 249.576812 103.546577 
L 223.670421 107.719676 
" clip-path="url(#p5ecab78904)" style="fill: none; stroke: #727d8b; stroke-width: 1.5; stroke-linecap: square"/>
   </g>
   <g id="line2d_28">
    <path d="M 344.472043 165.951914 
L 350.65743 158.151834 
L 372.746243 166.304261 
L 368.620929 199.744356 
L 359.154843 200.495924 
L 343.551182 182.452733 
L 344.472043 165.951914 
" clip-path="url(#p5ecab78904)" style="fill: none; stroke: #727d8b; stroke-width: 1.5; stroke-linecap: square"/>
   </g>
   <g id="line2d_29">
    <path d="M 315.551496 189.946477 
L 311.582624 178.889487 
L 315.212203 171.310514 
L 344.472043 165.951914 
L 343.551182 182.452733 
L 330.864748 195.442517 
L 315.551496 189.946477 
" clip-path="url(#p5ecab78904)" style="fill: none; stroke: #727d8b; stroke-width: 1.5; stroke-linecap: square"/>
   </g>
   <g id="line2d_30">
    <path d="M 461.01071 106.743236 
L 479.401956 91.337957 
L 498.71442 107.983827 
L 497.888726 128.7875 
L 481.584091 131.237495 
L 463.481197 116.150705 
L 461.01071 106.743236 
" clip-path="url(#p5ecab78904)" style="fill: none; stroke: #727d8b; stroke-width: 1.5; stroke-linecap: square"/>
   </g>
   <g id="line2d_31">
    <path d="M 330.864748 195.442517 
L 343.551182 182.452733 
L 359.154843 200.495924 
L 347.6184 212.08179 
L 332.345955 202.107949 
L 330.864748 195.442517 
" clip-path="url(#p5ecab78904)" style="fill: none; stroke: #727d8b; stroke-width: 1.5; stroke-linecap: square"/>
   </g>
   <g id="line2d_32">
    <path d="M 368.620929 199.744356 
L 372.746243 166.304261 
L 390.084207 163.431666 
L 390.877408 164.085253 
L 398.627475 195.222782 
L 373.240565 202.951798 
L 368.620929 199.744356 
" clip-path="url(#p5ecab78904)" style="fill: none; stroke: #727d8b; stroke-width: 1.5; stroke-linecap: square"/>
   </g>
   <g id="line2d_33">
    <path d="M 656.559514 244.912063 
L 659.518668 241.314901 
L 664.53256 240.336812 
L 711.774104 256.294757 
L 713.336733 258.440379 
L 709.541904 296.503428 
L 708.956076 297.089256 
L 703.539446 297.089256 
L 657.628998 258.36379 
L 656.559514 244.912063 
" clip-path="url(#p5ecab78904)" style="fill: none; stroke: #727d8b; stroke-width: 1.5; stroke-linecap: square"/>
   </g>
   <g id="line2d_34">
    <path d="M 703.539446 297.089256 
L 641.989068 297.089256 
L 657.628998 258.36379 
L 703.539446 297.089256 
" clip-path="url(#p5ecab78904)" style="fill: none; stroke: #727d8b; stroke-width: 1.5; stroke-linecap: square"/>
   </g>
   <g id="line2d_35">
    <path d="M 368.620929 199.744356 
L 373.240565 202.951798 
L 377.771235 227.92179 
L 346.770361 227.362022 
L 346.428047 226.981771 
L 347.6184 212.08179 
L 359.154843 200.495924 
L 368.620929 199.744356 
" clip-path="url(#p5ecab78904)" style="fill: none; stroke: #727d8b; stroke-width: 1.5; stroke-linecap: square"/>
   </g>
   <g id="line2d_36">
    <path d="M 398.627475 195.222782 
L 390.877408 164.085253 
L 422.906232 166.161625 
L 426.147724 188.463647 
L 403.690856 198.704818 
L 398.627475 195.222782 
" clip-path="url(#p5ecab78904)" style="fill: none; stroke: #727d8b; stroke-width: 1.5; stroke-linecap: square"/>
   </g>
   <g id="line2d_37">
    <path d="M 481.584091 131.237495 
L 468.19819 159.513617 
L 467.861548 159.659769 
L 449.836659 136.475555 
L 463.481197 116.150705 
L 481.584091 131.237495 
" clip-path="url(#p5ecab78904)" style="fill: none; stroke: #727d8b; stroke-width: 1.5; stroke-linecap: square"/>
   </g>
   <g id="line2d_38">
    <path d="M 611.176228 252.574773 
L 613.725492 297.089256 
L 563.230369 297.089256 
L 563.310633 273.341805 
L 581.626549 249.460053 
L 611.176228 252.574773 
" clip-path="url(#p5ecab78904)" style="fill: none; stroke: #727d8b; stroke-width: 1.5; stroke-linecap: square"/>
   </g>
   <g id="line2d_39">
    <path d="M 467.906763 205.170731 
L 447.223425 221.768175 
L 435.394334 210.377153 
L 435.241844 193.791593 
L 447.473424 189.787315 
L 467.906763 205.170731 
" clip-path="url(#p5ecab78904)" style="fill: none; stroke: #727d8b; stroke-width: 1.5; stroke-linecap: square"/>
   </g>
   <g id="line2d_40">
    <path d="M 498.917436 166.061651 
L 502.719687 132.328849 
L 521.849772 132.668675 
L 524.679369 165.482518 
L 499.966829 167.225651 
L 498.917436 166.061651 
" clip-path="url(#p5ecab78904)" style="fill: none; stroke: #727d8b; stroke-width: 1.5; stroke-linecap: square"/>
   </g>
   <g id="line2d_41">
    <path d="M 502.719687 132.328849 
L 498.917436 166.061651 
L 468.19819 159.513617 
L 481.584091 131.237495 
L 497.888726 128.7875 
L 502.719687 132.328849 
" clip-path="url(#p5ecab78904)" style="fill: none; stroke: #727d8b; stroke-width: 1.5; stroke-linecap: square"/>
   </g>
   <g id="line2d_42">
    <path d="M 447.467302 235.888167 
L 444.399362 238.264601 
L 411.372105 228.397319 
L 408.41299 224.487387 
L 435.394334 210.377153 
L 447.223425 221.768175 
L 447.467302 235.888167 
" clip-path="url(#p5ecab78904)" style="fill: none; stroke: #727d8b; stroke-width: 1.5; stroke-linecap: square"/>
   </g>
   <g id="line2d_43">
    <path d="M 427.523308 111.151569 
L 427.800366 109.016194 
L 440.036182 99.266104 
L 461.01071 106.743236 
L 463.481197 116.150705 
L 449.836659 136.475555 
L 441.951742 136.966785 
L 427.523308 111.151569 
" clip-path="url(#p5ecab78904)" style="fill: none; stroke: #727d8b; stroke-width: 1.5; stroke-linecap: square"/>
   </g>
   <g id="line2d_44">
    <path d="M 377.771235 227.92179 
L 373.240565 202.951798 
L 398.627475 195.222782 
L 403.690856 198.704818 
L 407.763171 224.16725 
L 383.19087 233.296346 
L 377.771235 227.92179 
" clip-path="url(#p5ecab78904)" style="fill: none; stroke: #727d8b; stroke-width: 1.5; stroke-linecap: square"/>
   </g>
   <g id="line2d_45">
    <path d="M 479.220523 197.22553 
L 472.904382 205.157652 
L 467.906763 205.170731 
L 447.473424 189.787315 
L 457.628993 167.163267 
L 464.484192 163.987386 
L 479.220523 197.22553 
" clip-path="url(#p5ecab78904)" style="fill: none; stroke: #727d8b; stroke-width: 1.5; stroke-linecap: square"/>
   </g>
   <g id="line2d_46">
    <path d="M 540.620876 249.876832 
L 563.310633 273.341805 
L 563.230369 297.089256 
L 529.333008 297.089256 
L 521.275988 267.272635 
L 540.620876 249.876832 
" clip-path="url(#p5ecab78904)" style="fill: none; stroke: #727d8b; stroke-width: 1.5; stroke-linecap: square"/>
   </g>
   <g id="line2d_47">
    <path d="M 347.880746 106.858126 
L 326.616706 88.738485 
L 326.727249 66.510744 
L 363.821525 66.510744 
L 360.261885 101.327284 
L 347.880746 106.858126 
" clip-path="url(#p5ecab78904)" style="fill: none; stroke: #727d8b; stroke-width: 1.5; stroke-linecap: square"/>
   </g>
   <g id="line2d_48">
    <path d="M 571.374751 232.514567 
L 581.626549 249.460053 
L 563.310633 273.341805 
L 540.620876 249.876832 
L 540.656131 246.249989 
L 551.180807 229.145173 
L 571.374751 232.514567 
" clip-path="url(#p5ecab78904)" style="fill: none; stroke: #727d8b; stroke-width: 1.5; stroke-linecap: square"/>
   </g>
   <g id="line2d_49">
    <path d="M 390.084207 163.431666 
L 372.746243 166.304261 
L 350.65743 158.151834 
L 350.327663 156.797912 
L 355.902534 141.408098 
L 374.965974 129.500705 
L 394.817484 136.010435 
L 395.090018 136.378455 
L 390.084207 163.431666 
" clip-path="url(#p5ecab78904)" style="fill: none; stroke: #727d8b; stroke-width: 1.5; stroke-linecap: square"/>
   </g>
   <g id="line2d_50">
    <path d="M 447.473424 189.787315 
L 435.241844 193.791593 
L 426.147724 188.463647 
L 422.906232 166.161625 
L 429.175461 159.485687 
L 457.628993 167.163267 
L 447.473424 189.787315 
" clip-path="url(#p5ecab78904)" style="fill: none; stroke: #727d8b; stroke-width: 1.5; stroke-linecap: square"/>
   </g>
   <g id="line2d_51">
    <path d="M 435.394334 210.377153 
L 408.41299 224.487387 
L 407.763171 224.16725 
L 403.690856 198.704818 
L 426.147724 188.463647 
L 435.241844 193.791593 
L 435.394334 210.377153 
" clip-path="url(#p5ecab78904)" style="fill: none; stroke: #727d8b; stroke-width: 1.5; stroke-linecap: square"/>
   </g>
   <g id="line2d_52">
    <path d="M 422.906232 166.161625 
L 390.877408 164.085253 
L 390.084207 163.431666 
L 395.090018 136.378455 
L 412.742785 134.151782 
L 429.101855 149.173487 
L 429.175461 159.485687 
L 422.906232 166.161625 
" clip-path="url(#p5ecab78904)" style="fill: none; stroke: #727d8b; stroke-width: 1.5; stroke-linecap: square"/>
   </g>
   <g id="line2d_53">
    <path d="M 471.573337 297.089256 
L 505.138294 259.644963 
L 521.275988 267.272635 
L 529.333008 297.089256 
L 471.573337 297.089256 
" clip-path="url(#p5ecab78904)" style="fill: none; stroke: #727d8b; stroke-width: 1.5; stroke-linecap: square"/>
   </g>
   <g id="line2d_54">
    <path d="M 395.090018 136.378455 
L 394.817484 136.010435 
L 395.806625 101.174399 
L 397.981649 99.082739 
L 427.800366 109.016194 
L 427.523308 111.151569 
L 412.742785 134.151782 
L 395.090018 136.378455 
" clip-path="url(#p5ecab78904)" style="fill: none; stroke: #727d8b; stroke-width: 1.5; stroke-linecap: square"/>
   </g>
   <g id="line2d_55">
    <path d="M 464.484192 163.987386 
L 457.628993 167.163267 
L 429.175461 159.485687 
L 429.101855 149.173487 
L 441.951742 136.966785 
L 449.836659 136.475555 
L 467.861548 159.659769 
L 464.484192 163.987386 
" clip-path="url(#p5ecab78904)" style="fill: none; stroke: #727d8b; stroke-width: 1.5; stroke-linecap: square"/>
   </g>
   <g id="line2d_56">
    <path d="M 411.372105 228.397319 
L 415.286183 255.22954 
L 399.812592 260.039973 
L 381.400495 243.320515 
L 383.19087 233.296346 
L 407.763171 224.16725 
L 408.41299 224.487387 
L 411.372105 228.397319 
" clip-path="url(#p5ecab78904)" style="fill: none; stroke: #727d8b; stroke-width: 1.5; stroke-linecap: square"/>
   </g>
   <g id="line2d_57">
    <path d="M 485.906504 234.77614 
L 473.029655 242.867299 
L 447.467302 235.888167 
L 447.223425 221.768175 
L 467.906763 205.170731 
L 472.904382 205.157652 
L 485.906504 234.77614 
" clip-path="url(#p5ecab78904)" style="fill: none; stroke: #727d8b; stroke-width: 1.5; stroke-linecap: square"/>
   </g>
   <g id="line2d_58">
    <path d="M 374.965974 129.500705 
L 355.902534 141.408098 
L 345.815821 111.320387 
L 347.880746 106.858126 
L 360.261885 101.327284 
L 367.552913 104.772507 
L 374.965974 129.500705 
" clip-path="url(#p5ecab78904)" style="fill: none; stroke: #727d8b; stroke-width: 1.5; stroke-linecap: square"/>
   </g>
   <g id="line2d_59">
    <path d="M 498.917436 166.061651 
L 499.966829 167.225651 
L 497.517181 191.147238 
L 479.220523 197.22553 
L 464.484192 163.987386 
L 467.861548 159.659769 
L 468.19819 159.513617 
L 498.917436 166.061651 
" clip-path="url(#p5ecab78904)" style="fill: none; stroke: #727d8b; stroke-width: 1.5; stroke-linecap: square"/>
   </g>
   <g id="line2d_60">
    <path d="M 367.552913 104.772507 
L 395.806625 101.174399 
L 394.817484 136.010435 
L 374.965974 129.500705 
L 367.552913 104.772507 
" clip-path="url(#p5ecab78904)" style="fill: none; stroke: #727d8b; stroke-width: 1.5; stroke-linecap: square"/>
   </g>
   <g id="line2d_61">
    <path d="M 506.622923 228.270562 
L 505.157113 230.985415 
L 497.695081 236.385996 
L 485.906504 234.77614 
L 472.904382 205.157652 
L 479.220523 197.22553 
L 497.517181 191.147238 
L 505.081405 196.942224 
L 506.622923 228.270562 
" clip-path="url(#p5ecab78904)" style="fill: none; stroke: #727d8b; stroke-width: 1.5; stroke-linecap: square"/>
   </g>
   <g id="line2d_62">
    <path d="M 471.573337 297.089256 
L 469.320076 297.089256 
L 465.557134 285.616444 
L 473.029655 242.867299 
L 485.906504 234.77614 
L 497.695081 236.385996 
L 505.138294 259.644963 
L 471.573337 297.089256 
" clip-path="url(#p5ecab78904)" style="fill: none; stroke: #727d8b; stroke-width: 1.5; stroke-linecap: square"/>
   </g>
   <g id="line2d_63">
    <path d="M 542.590267 210.053701 
L 551.180807 229.145173 
L 540.656131 246.249989 
L 505.157113 230.985415 
L 506.622923 228.270562 
L 542.590267 210.053701 
" clip-path="url(#p5ecab78904)" style="fill: none; stroke: #727d8b; stroke-width: 1.5; stroke-linecap: square"/>
   </g>
   <g id="line2d_64">
    <path d="M 411.372105 228.397319 
L 444.399362 238.264601 
L 436.318491 258.486467 
L 425.127852 261.139278 
L 415.286183 255.22954 
L 411.372105 228.397319 
" clip-path="url(#p5ecab78904)" style="fill: none; stroke: #727d8b; stroke-width: 1.5; stroke-linecap: square"/>
   </g>
   <g id="line2d_65">
    <path d="M 530.769184 193.739269 
L 505.081405 196.942224 
L 497.517181 191.147238 
L 499.966829 167.225651 
L 524.679369 165.482518 
L 533.421939 170.494864 
L 530.769184 193.739269 
" clip-path="url(#p5ecab78904)" style="fill: none; stroke: #727d8b; stroke-width: 1.5; stroke-linecap: square"/>
   </g>
   <g id="line2d_66">
    <path d="M 542.675617 208.969442 
L 542.590267 210.053701 
L 506.622923 228.270562 
L 505.081405 196.942224 
L 530.769184 193.739269 
L 542.675617 208.969442 
" clip-path="url(#p5ecab78904)" style="fill: none; stroke: #727d8b; stroke-width: 1.5; stroke-linecap: square"/>
   </g>
   <g id="line2d_67">
    <path d="M 281.008113 101.064286 
L 267.982149 107.405815 
L 249.592285 103.557877 
L 249.576812 103.546577 
L 243.44573 66.510744 
L 286.152981 66.510744 
L 285.997225 93.796553 
L 281.008113 101.064286 
" clip-path="url(#p5ecab78904)" style="fill: none; stroke: #727d8b; stroke-width: 1.5; stroke-linecap: square"/>
   </g>
   <g id="line2d_68">
    <path d="M 563.748209 167.230917 
L 562.87086 195.950129 
L 542.675617 208.969442 
L 530.769184 193.739269 
L 533.421939 170.494864 
L 551.721256 162.99432 
L 563.748209 167.230917 
" clip-path="url(#p5ecab78904)" style="fill: none; stroke: #727d8b; stroke-width: 1.5; stroke-linecap: square"/>
   </g>
   <g id="line2d_69">
    <path d="M 473.029655 242.867299 
L 465.557134 285.616444 
L 436.318491 258.486467 
L 444.399362 238.264601 
L 447.467302 235.888167 
L 473.029655 242.867299 
" clip-path="url(#p5ecab78904)" style="fill: none; stroke: #727d8b; stroke-width: 1.5; stroke-linecap: square"/>
   </g>
   <g id="line2d_70">
    <path d="M 540.620876 249.876832 
L 521.275988 267.272635 
L 505.138294 259.644963 
L 497.695081 236.385996 
L 505.157113 230.985415 
L 540.656131 246.249989 
L 540.620876 249.876832 
" clip-path="url(#p5ecab78904)" style="fill: none; stroke: #727d8b; stroke-width: 1.5; stroke-linecap: square"/>
   </g>
   <g id="line2d_71">
    <path d="M 381.400495 243.320515 
L 368.445423 256.766441 
L 348.564892 253.863457 
L 346.770361 227.362022 
L 377.771235 227.92179 
L 383.19087 233.296346 
L 381.400495 243.320515 
" clip-path="url(#p5ecab78904)" style="fill: none; stroke: #727d8b; stroke-width: 1.5; stroke-linecap: square"/>
   </g>
   <g id="line2d_72">
    <path d="M 398.950037 66.510744 
L 435.270429 66.510744 
L 440.036182 99.266104 
L 427.800366 109.016194 
L 397.981649 99.082739 
L 398.950037 66.510744 
" clip-path="url(#p5ecab78904)" style="fill: none; stroke: #727d8b; stroke-width: 1.5; stroke-linecap: square"/>
   </g>
   <g id="line2d_73">
    <path d="M 368.445423 256.766441 
L 381.400495 243.320515 
L 399.812592 260.039973 
L 393.37804 281.73497 
L 371.063045 266.277879 
L 368.445423 256.766441 
" clip-path="url(#p5ecab78904)" style="fill: none; stroke: #727d8b; stroke-width: 1.5; stroke-linecap: square"/>
   </g>
   <g id="line2d_74">
    <path d="M 436.318491 258.486467 
L 465.557134 285.616444 
L 469.320076 297.089256 
L 414.769473 297.089256 
L 425.127852 261.139278 
L 436.318491 258.486467 
" clip-path="url(#p5ecab78904)" style="fill: none; stroke: #727d8b; stroke-width: 1.5; stroke-linecap: square"/>
   </g>
   <g id="line2d_75">
    <path d="M 435.270429 66.510744 
L 484.416088 66.510744 
L 479.401956 91.337957 
L 461.01071 106.743236 
L 440.036182 99.266104 
L 435.270429 66.510744 
" clip-path="url(#p5ecab78904)" style="fill: none; stroke: #727d8b; stroke-width: 1.5; stroke-linecap: square"/>
   </g>
   <g id="line2d_76">
    <path d="M 399.812592 260.039973 
L 415.286183 255.22954 
L 425.127852 261.139278 
L 414.769473 297.089256 
L 398.340181 297.089256 
L 393.37804 281.73497 
L 399.812592 260.039973 
" clip-path="url(#p5ecab78904)" style="fill: none; stroke: #727d8b; stroke-width: 1.5; stroke-linecap: square"/>
   </g>
   <g id="line2d_77">
    <path d="M 325.955123 139.542333 
L 323.085282 125.305528 
L 345.815821 111.320387 
L 355.902534 141.408098 
L 350.327663 156.797912 
L 325.955123 139.542333 
" clip-path="url(#p5ecab78904)" style="fill: none; stroke: #727d8b; stroke-width: 1.5; stroke-linecap: square"/>
   </g>
   <g id="line2d_78">
    <path d="M 318.012785 255.647901 
L 323.057838 230.848193 
L 328.62677 227.575252 
L 346.428047 226.981771 
L 346.770361 227.362022 
L 348.564892 253.863457 
L 344.410289 256.885218 
L 318.012785 255.647901 
" clip-path="url(#p5ecab78904)" style="fill: none; stroke: #727d8b; stroke-width: 1.5; stroke-linecap: square"/>
   </g>
   <g id="line2d_79">
    <path d="M 298.68296 126.349135 
L 316.659787 121.868264 
L 323.085282 125.305528 
L 325.955123 139.542333 
L 306.295707 153.998291 
L 288.590509 147.689587 
L 298.68296 126.349135 
" clip-path="url(#p5ecab78904)" style="fill: none; stroke: #727d8b; stroke-width: 1.5; stroke-linecap: square"/>
   </g>
   <g id="line2d_80">
    <path d="M 611.308371 216.742929 
L 583.739994 215.099512 
L 577.604823 202.047503 
L 594.642578 183.204242 
L 611.923284 187.551626 
L 612.338955 215.10433 
L 611.308371 216.742929 
" clip-path="url(#p5ecab78904)" style="fill: none; stroke: #727d8b; stroke-width: 1.5; stroke-linecap: square"/>
   </g>
   <g id="line2d_81">
    <path d="M 542.675617 208.969442 
L 562.87086 195.950129 
L 577.604823 202.047503 
L 583.739994 215.099512 
L 571.374751 232.514567 
L 551.180807 229.145173 
L 542.590267 210.053701 
L 542.675617 208.969442 
" clip-path="url(#p5ecab78904)" style="fill: none; stroke: #727d8b; stroke-width: 1.5; stroke-linecap: square"/>
   </g>
   <g id="line2d_82">
    <path d="M 325.955123 139.542333 
L 350.327663 156.797912 
L 350.65743 158.151834 
L 344.472043 165.951914 
L 315.212203 171.310514 
L 306.295707 153.998291 
L 325.955123 139.542333 
" clip-path="url(#p5ecab78904)" style="fill: none; stroke: #727d8b; stroke-width: 1.5; stroke-linecap: square"/>
   </g>
   <g id="line2d_83">
    <path d="M 312.366785 99.496808 
L 285.997225 93.796553 
L 286.152981 66.510744 
L 326.727249 66.510744 
L 326.616706 88.738485 
L 312.366785 99.496808 
" clip-path="url(#p5ecab78904)" style="fill: none; stroke: #727d8b; stroke-width: 1.5; stroke-linecap: square"/>
   </g>
   <g id="line2d_84">
    <path d="M 270.027276 147.151226 
L 267.982149 107.405815 
L 281.008113 101.064286 
L 298.68296 126.349135 
L 288.590509 147.689587 
L 274.281656 152.608765 
L 270.027276 147.151226 
" clip-path="url(#p5ecab78904)" style="fill: none; stroke: #727d8b; stroke-width: 1.5; stroke-linecap: square"/>
   </g>
   <g id="line2d_85">
    <path d="M 498.71442 107.983827 
L 479.401956 91.337957 
L 484.416088 66.510744 
L 520.392722 66.510744 
L 524.980416 93.698831 
L 498.71442 107.983827 
" clip-path="url(#p5ecab78904)" style="fill: none; stroke: #727d8b; stroke-width: 1.5; stroke-linecap: square"/>
   </g>
   <g id="line2d_86">
    <path d="M 318.012785 255.647901 
L 306.231302 263.391503 
L 293.224788 245.105857 
L 304.795058 220.873424 
L 323.057838 230.848193 
L 318.012785 255.647901 
" clip-path="url(#p5ecab78904)" style="fill: none; stroke: #727d8b; stroke-width: 1.5; stroke-linecap: square"/>
   </g>
   <g id="line2d_87">
    <path d="M 614.695004 248.15902 
L 611.176228 252.574773 
L 581.626549 249.460053 
L 571.374751 232.514567 
L 583.739994 215.099512 
L 611.308371 216.742929 
L 614.695004 248.15902 
" clip-path="url(#p5ecab78904)" style="fill: none; stroke: #727d8b; stroke-width: 1.5; stroke-linecap: square"/>
   </g>
   <g id="line2d_88">
    <path d="M 291.453324 181.71131 
L 274.214029 152.862399 
L 274.281656 152.608765 
L 288.590509 147.689587 
L 306.295707 153.998291 
L 315.212203 171.310514 
L 311.582624 178.889487 
L 291.453324 181.71131 
" clip-path="url(#p5ecab78904)" style="fill: none; stroke: #727d8b; stroke-width: 1.5; stroke-linecap: square"/>
   </g>
   <g id="line2d_89">
    <path d="M 306.231302 263.391503 
L 318.012785 255.647901 
L 344.410289 256.885218 
L 344.725345 297.089256 
L 302.048818 297.089256 
L 301.268458 281.186996 
L 306.231302 263.391503 
" clip-path="url(#p5ecab78904)" style="fill: none; stroke: #727d8b; stroke-width: 1.5; stroke-linecap: square"/>
   </g>
   <g id="line2d_90">
    <path d="M 622.750025 144.037035 
L 649.33502 159.067802 
L 647.441519 179.760552 
L 640.270357 182.88182 
L 617.766755 182.276691 
L 615.99703 153.814726 
L 622.750025 144.037035 
" clip-path="url(#p5ecab78904)" style="fill: none; stroke: #727d8b; stroke-width: 1.5; stroke-linecap: square"/>
   </g>
   <g id="line2d_91">
    <path d="M 640.270357 182.88182 
L 638.621786 212.395394 
L 612.338955 215.10433 
L 611.923284 187.551626 
L 617.766755 182.276691 
L 640.270357 182.88182 
" clip-path="url(#p5ecab78904)" style="fill: none; stroke: #727d8b; stroke-width: 1.5; stroke-linecap: square"/>
   </g>
   <g id="line2d_92">
    <path d="M 301.286195 211.341565 
L 304.795058 220.873424 
L 293.224788 245.105857 
L 268.414612 235.758175 
L 268.772569 233.380461 
L 295.499972 209.504503 
L 301.286195 211.341565 
" clip-path="url(#p5ecab78904)" style="fill: none; stroke: #727d8b; stroke-width: 1.5; stroke-linecap: square"/>
   </g>
   <g id="line2d_93">
    <path d="M 651.612614 219.462102 
L 659.518668 241.314901 
L 656.559514 244.912063 
L 614.695004 248.15902 
L 611.308371 216.742929 
L 612.338955 215.10433 
L 638.621786 212.395394 
L 651.612614 219.462102 
" clip-path="url(#p5ecab78904)" style="fill: none; stroke: #727d8b; stroke-width: 1.5; stroke-linecap: square"/>
   </g>
   <g id="line2d_94">
    <path d="M 393.37804 281.73497 
L 398.340181 297.089256 
L 353.25164 297.089256 
L 371.063045 266.277879 
L 393.37804 281.73497 
" clip-path="url(#p5ecab78904)" style="fill: none; stroke: #727d8b; stroke-width: 1.5; stroke-linecap: square"/>
   </g>
   <g id="line2d_95">
    <path d="M 259.49627 197.427082 
L 259.018476 196.752295 
L 267.248061 160.970497 
L 274.214029 152.862399 
L 291.453324 181.71131 
L 284.866075 196.805157 
L 259.49627 197.427082 
" clip-path="url(#p5ecab78904)" style="fill: none; stroke: #727d8b; stroke-width: 1.5; stroke-linecap: square"/>
   </g>
   <g id="line2d_96">
    <path d="M 533.802268 103.54159 
L 524.980416 93.698831 
L 520.392722 66.510744 
L 565.533454 66.510744 
L 564.855654 103.473771 
L 533.802268 103.54159 
" clip-path="url(#p5ecab78904)" style="fill: none; stroke: #727d8b; stroke-width: 1.5; stroke-linecap: square"/>
   </g>
   <g id="line2d_97">
    <path d="M 312.366785 99.496808 
L 316.659787 121.868264 
L 298.68296 126.349135 
L 281.008113 101.064286 
L 285.997225 93.796553 
L 312.366785 99.496808 
" clip-path="url(#p5ecab78904)" style="fill: none; stroke: #727d8b; stroke-width: 1.5; stroke-linecap: square"/>
   </g>
   <g id="line2d_98">
    <path d="M 638.621786 212.395394 
L 640.270357 182.88182 
L 647.441519 179.760552 
L 667.576641 190.741107 
L 651.612614 219.462102 
L 638.621786 212.395394 
" clip-path="url(#p5ecab78904)" style="fill: none; stroke: #727d8b; stroke-width: 1.5; stroke-linecap: square"/>
   </g>
   <g id="line2d_99">
    <path d="M 570.620038 109.19239 
L 564.855654 103.473771 
L 565.533454 66.510744 
L 602.48269 66.510744 
L 608.297251 88.261551 
L 570.620038 109.19239 
" clip-path="url(#p5ecab78904)" style="fill: none; stroke: #727d8b; stroke-width: 1.5; stroke-linecap: square"/>
   </g>
   <g id="line2d_100">
    <path d="M 667.576641 190.741107 
L 647.441519 179.760552 
L 649.33502 159.067802 
L 663.835289 148.755896 
L 676.528306 151.347981 
L 680.58748 185.129284 
L 676.931963 189.835606 
L 667.576641 190.741107 
" clip-path="url(#p5ecab78904)" style="fill: none; stroke: #727d8b; stroke-width: 1.5; stroke-linecap: square"/>
   </g>
   <g id="line2d_101">
    <path d="M 629.447457 98.75417 
L 616.637032 94.993762 
L 608.297251 88.261551 
L 602.48269 66.510744 
L 640.881966 66.510744 
L 633.914151 96.682857 
L 629.447457 98.75417 
" clip-path="url(#p5ecab78904)" style="fill: none; stroke: #727d8b; stroke-width: 1.5; stroke-linecap: square"/>
   </g>
   <g id="line2d_102">
    <path d="M 267.248061 160.970497 
L 259.018476 196.752295 
L 230.800347 187.455168 
L 229.40657 174.282131 
L 237.258293 167.071374 
L 267.248061 160.970497 
" clip-path="url(#p5ecab78904)" style="fill: none; stroke: #727d8b; stroke-width: 1.5; stroke-linecap: square"/>
   </g>
   <g id="line2d_103">
    <path d="M 664.53256 240.336812 
L 659.518668 241.314901 
L 651.612614 219.462102 
L 667.576641 190.741107 
L 676.931963 189.835606 
L 688.950223 211.430648 
L 664.53256 240.336812 
" clip-path="url(#p5ecab78904)" style="fill: none; stroke: #727d8b; stroke-width: 1.5; stroke-linecap: square"/>
   </g>
   <g id="line2d_104">
    <path d="M 715.088451 181.789122 
L 721.681223 195.466373 
L 721.89438 205.439145 
L 708.611509 217.129647 
L 688.950223 211.430648 
L 676.931963 189.835606 
L 680.58748 185.129284 
L 704.84147 177.935856 
L 715.088451 181.789122 
" clip-path="url(#p5ecab78904)" style="fill: none; stroke: #727d8b; stroke-width: 1.5; stroke-linecap: square"/>
   </g>
   <g id="line2d_105">
    <path d="M 256.499884 297.089256 
L 216.470758 297.089256 
L 227.139134 251.29112 
L 231.290896 248.562109 
L 247.518048 252.181653 
L 256.499884 297.089256 
" clip-path="url(#p5ecab78904)" style="fill: none; stroke: #727d8b; stroke-width: 1.5; stroke-linecap: square"/>
   </g>
   <g id="line2d_106">
    <path d="M 348.564892 253.863457 
L 368.445423 256.766441 
L 371.063045 266.277879 
L 353.25164 297.089256 
L 344.725345 297.089256 
L 344.410289 256.885218 
L 348.564892 253.863457 
" clip-path="url(#p5ecab78904)" style="fill: none; stroke: #727d8b; stroke-width: 1.5; stroke-linecap: square"/>
   </g>
   <g id="line2d_107">
    <path d="M 223.670421 107.719676 
L 249.576812 103.546577 
L 249.592285 103.557877 
L 242.180468 138.090919 
L 238.437507 139.249233 
L 230.605664 137.89244 
L 222.296327 132.337509 
L 223.670421 107.719676 
" clip-path="url(#p5ecab78904)" style="fill: none; stroke: #727d8b; stroke-width: 1.5; stroke-linecap: square"/>
   </g>
   <g id="line2d_108">
    <path d="M 633.914151 96.682857 
L 640.881966 66.510744 
L 660.863013 66.510744 
L 660.594082 97.706013 
L 633.914151 96.682857 
" clip-path="url(#p5ecab78904)" style="fill: none; stroke: #727d8b; stroke-width: 1.5; stroke-linecap: square"/>
   </g>
   <g id="line2d_109">
    <path d="M 270.027276 147.151226 
L 242.180468 138.090919 
L 249.592285 103.557877 
L 267.982149 107.405815 
L 270.027276 147.151226 
" clip-path="url(#p5ecab78904)" style="fill: none; stroke: #727d8b; stroke-width: 1.5; stroke-linecap: square"/>
   </g>
   <g id="line2d_110">
    <path d="M 248.924163 251.67947 
L 268.414612 235.758175 
L 293.224788 245.105857 
L 306.231302 263.391503 
L 301.268458 281.186996 
L 248.924163 251.67947 
" clip-path="url(#p5ecab78904)" style="fill: none; stroke: #727d8b; stroke-width: 1.5; stroke-linecap: square"/>
   </g>
   <g id="line2d_111">
    <path d="M 694.794757 141.266998 
L 699.277455 143.319865 
L 704.84147 177.935856 
L 680.58748 185.129284 
L 676.528306 151.347981 
L 694.794757 141.266998 
" clip-path="url(#p5ecab78904)" style="fill: none; stroke: #727d8b; stroke-width: 1.5; stroke-linecap: square"/>
   </g>
   <g id="line2d_112">
    <path d="M 217.618899 164.898408 
L 229.40657 174.282131 
L 230.800347 187.455168 
L 217.360689 200.913302 
L 196.643147 181.513088 
L 202.494947 160.753623 
L 217.618899 164.898408 
" clip-path="url(#p5ecab78904)" style="fill: none; stroke: #727d8b; stroke-width: 1.5; stroke-linecap: square"/>
   </g>
   <g id="line2d_113">
    <path d="M 688.950223 211.430648 
L 708.611509 217.129647 
L 711.774104 256.294757 
L 664.53256 240.336812 
L 688.950223 211.430648 
" clip-path="url(#p5ecab78904)" style="fill: none; stroke: #727d8b; stroke-width: 1.5; stroke-linecap: square"/>
   </g>
   <g id="line2d_114">
    <path d="M 214.599521 209.632667 
L 193.640136 214.002787 
L 171.479846 191.949085 
L 196.643147 181.513088 
L 217.360689 200.913302 
L 214.599521 209.632667 
" clip-path="url(#p5ecab78904)" style="fill: none; stroke: #727d8b; stroke-width: 1.5; stroke-linecap: square"/>
   </g>
   <g id="line2d_115">
    <path d="M 704.84147 177.935856 
L 699.277455 143.319865 
L 721.626711 141.755674 
L 727.099809 144.382224 
L 731.83609 161.181251 
L 715.088451 181.789122 
L 704.84147 177.935856 
" clip-path="url(#p5ecab78904)" style="fill: none; stroke: #727d8b; stroke-width: 1.5; stroke-linecap: square"/>
   </g>
   <g id="line2d_116">
    <path d="M 692.587434 66.510744 
L 718.549612 66.510744 
L 720.772677 102.684693 
L 706.685797 105.367046 
L 685.612113 91.672015 
L 692.587434 66.510744 
" clip-path="url(#p5ecab78904)" style="fill: none; stroke: #727d8b; stroke-width: 1.5; stroke-linecap: square"/>
   </g>
   <g id="line2d_117">
    <path d="M 170.252525 297.089256 
L 201.761187 252.757379 
L 227.139134 251.29112 
L 216.470758 297.089256 
L 170.252525 297.089256 
" clip-path="url(#p5ecab78904)" style="fill: none; stroke: #727d8b; stroke-width: 1.5; stroke-linecap: square"/>
   </g>
   <g id="line2d_118">
    <path d="M 721.681223 195.466373 
L 762.759878 175.535707 
L 778.295455 177.349119 
L 778.295455 222.392213 
L 773.257181 227.430487 
L 721.89438 205.439145 
L 721.681223 195.466373 
" clip-path="url(#p5ecab78904)" style="fill: none; stroke: #727d8b; stroke-width: 1.5; stroke-linecap: square"/>
   </g>
   <g id="line2d_119">
    <path d="M 666.830417 101.704319 
L 660.594082 97.706013 
L 660.863013 66.510744 
L 692.587434 66.510744 
L 685.612113 91.672015 
L 666.830417 101.704319 
" clip-path="url(#p5ecab78904)" style="fill: none; stroke: #727d8b; stroke-width: 1.5; stroke-linecap: square"/>
   </g>
   <g id="line2d_120">
    <path d="M 721.89438 205.439145 
L 774.725043 228.058962 
L 772.926024 234.772993 
L 713.336733 258.440379 
L 711.774104 256.294757 
L 708.611509 217.129647 
L 721.89438 205.439145 
" clip-path="url(#p5ecab78904)" style="fill: none; stroke: #727d8b; stroke-width: 1.5; stroke-linecap: square"/>
   </g>
   <g id="line2d_121">
    <path d="M 202.494947 160.753623 
L 196.643147 181.513088 
L 171.479846 191.949085 
L 144.204545 184.300907 
L 144.204545 158.830686 
L 200.022199 157.553494 
L 202.494947 160.753623 
" clip-path="url(#p5ecab78904)" style="fill: none; stroke: #727d8b; stroke-width: 1.5; stroke-linecap: square"/>
   </g>
   <g id="line2d_122">
    <path d="M 720.772677 102.684693 
L 718.549612 66.510744 
L 776.636971 66.510744 
L 778.295455 72.700288 
L 778.295455 98.03001 
L 775.612017 108.044735 
L 721.223446 102.980249 
L 720.772677 102.684693 
" clip-path="url(#p5ecab78904)" style="fill: none; stroke: #727d8b; stroke-width: 1.5; stroke-linecap: square"/>
   </g>
   <g id="line2d_123">
    <path d="M 193.526679 126.932699 
L 144.204545 129.988832 
L 144.204545 105.697063 
L 203.190638 98.683251 
L 193.526679 126.932699 
" clip-path="url(#p5ecab78904)" style="fill: none; stroke: #727d8b; stroke-width: 1.5; stroke-linecap: square"/>
   </g>
   <g id="line2d_124">
    <path d="M 222.296327 132.337509 
L 203.343344 138.011061 
L 193.526679 126.932699 
L 203.190638 98.683251 
L 205.808502 96.241954 
L 223.670421 107.719676 
L 222.296327 132.337509 
" clip-path="url(#p5ecab78904)" style="fill: none; stroke: #727d8b; stroke-width: 1.5; stroke-linecap: square"/>
   </g>
   <g id="line2d_125">
    <path d="M 193.640136 214.002787 
L 182.512005 235.372274 
L 144.204545 240.820643 
L 144.204545 184.300907 
L 171.479846 191.949085 
L 193.640136 214.002787 
" clip-path="url(#p5ecab78904)" style="fill: none; stroke: #727d8b; stroke-width: 1.5; stroke-linecap: square"/>
   </g>
   <g id="line2d_126">
    <path d="M 731.83609 161.181251 
L 727.099809 144.382224 
L 776.487992 117.768025 
L 778.295455 119.575488 
L 778.295455 177.349119 
L 762.759878 175.535707 
L 731.83609 161.181251 
" clip-path="url(#p5ecab78904)" style="fill: none; stroke: #727d8b; stroke-width: 1.5; stroke-linecap: square"/>
   </g>
   <g id="line2d_127">
    <path d="M 578.100999 162.557417 
L 581.825673 156.579772 
L 615.99703 153.814726 
L 617.766755 182.276691 
L 611.923284 187.551626 
L 594.642578 183.204242 
L 578.100999 162.557417 
" clip-path="url(#p5ecab78904)" style="fill: none; stroke: #727d8b; stroke-width: 1.5; stroke-linecap: square"/>
   </g>
   <g id="line2d_128">
    <path d="M 721.681223 195.466373 
L 715.088451 181.789122 
L 731.83609 161.181251 
L 762.759878 175.535707 
L 721.681223 195.466373 
" clip-path="url(#p5ecab78904)" style="fill: none; stroke: #727d8b; stroke-width: 1.5; stroke-linecap: square"/>
   </g>
   <g id="line2d_129">
    <path d="M 360.261885 101.327284 
L 363.821525 66.510744 
L 398.950037 66.510744 
L 397.981649 99.082739 
L 395.806625 101.174399 
L 367.552913 104.772507 
L 360.261885 101.327284 
" clip-path="url(#p5ecab78904)" style="fill: none; stroke: #727d8b; stroke-width: 1.5; stroke-linecap: square"/>
   </g>
   <g id="line2d_130">
    <path d="M 160.405716 297.089256 
L 157.08005 296.198147 
L 144.204545 283.322642 
L 144.204545 240.820643 
L 182.512005 235.372274 
L 201.761187 252.757379 
L 170.252525 297.089256 
L 160.405716 297.089256 
" clip-path="url(#p5ecab78904)" style="fill: none; stroke: #727d8b; stroke-width: 1.5; stroke-linecap: square"/>
   </g>
   <g id="line2d_131">
    <path d="M 527.387931 129.429736 
L 547.424756 139.222221 
L 551.721256 162.99432 
L 533.421939 170.494864 
L 524.679369 165.482518 
L 521.849772 132.668675 
L 527.387931 129.429736 
" clip-path="url(#p5ecab78904)" style="fill: none; stroke: #727d8b; stroke-width: 1.5; stroke-linecap: square"/>
   </g>
   <g id="line2d_132">
    <path d="M 248.924163 251.67947 
L 301.268458 281.186996 
L 302.048818 297.089256 
L 256.499884 297.089256 
L 247.518048 252.181653 
L 248.924163 251.67947 
" clip-path="url(#p5ecab78904)" style="fill: none; stroke: #727d8b; stroke-width: 1.5; stroke-linecap: square"/>
   </g>
   <g id="line2d_133">
    <path d="M 412.742785 134.151782 
L 427.523308 111.151569 
L 441.951742 136.966785 
L 429.101855 149.173487 
L 412.742785 134.151782 
" clip-path="url(#p5ecab78904)" style="fill: none; stroke: #727d8b; stroke-width: 1.5; stroke-linecap: square"/>
   </g>
   <g id="line2d_134">
    <path d="M 577.604823 202.047503 
L 562.87086 195.950129 
L 563.748209 167.230917 
L 578.100999 162.557417 
L 594.642578 183.204242 
L 577.604823 202.047503 
" clip-path="url(#p5ecab78904)" style="fill: none; stroke: #727d8b; stroke-width: 1.5; stroke-linecap: square"/>
   </g>
   <g id="line2d_135">
    <path d="M 345.815821 111.320387 
L 323.085282 125.305528 
L 316.659787 121.868264 
L 312.366785 99.496808 
L 326.616706 88.738485 
L 347.880746 106.858126 
L 345.815821 111.320387 
" clip-path="url(#p5ecab78904)" style="fill: none; stroke: #727d8b; stroke-width: 1.5; stroke-linecap: square"/>
   </g>
   <g id="line2d_136">
    <path d="M 230.800347 187.455168 
L 259.018476 196.752295 
L 259.49627 197.427082 
L 259.075114 201.510861 
L 227.283781 229.823059 
L 214.599521 209.632667 
L 217.360689 200.913302 
L 230.800347 187.455168 
" clip-path="url(#p5ecab78904)" style="fill: none; stroke: #727d8b; stroke-width: 1.5; stroke-linecap: square"/>
   </g>
   <g id="line2d_137">
    <path d="M 490.072314 297.089256 
L 490.072314 66.510744 
" clip-path="url(#p5ecab78904)" style="fill: none; stroke: #59b2d8; stroke-width: 2; stroke-linecap: square"/>
   </g>
   <g id="line2d_138">
    <path d="M 461.01071 106.743236 
L 479.401956 91.337957 
L 498.71442 107.983827 
L 497.888726 128.7875 
L 481.584091 131.237495 
L 463.481197 116.150705 
L 461.01071 106.743236 
" clip-path="url(#p5ecab78904)" style="fill: none; stroke: #ffa500; stroke-width: 1.5; stroke-linecap: square"/>
   </g>
   <g id="line2d_139">
    <path d="M 502.719687 132.328849 
L 498.917436 166.061651 
L 468.19819 159.513617 
L 481.584091 131.237495 
L 497.888726 128.7875 
L 502.719687 132.328849 
" clip-path="url(#p5ecab78904)" style="fill: none; stroke: #ffa500; stroke-width: 1.5; stroke-linecap: square"/>
   </g>
   <g id="line2d_140">
    <path d="M 471.573337 297.089256 
L 505.138294 259.644963 
L 521.275988 267.272635 
L 529.333008 297.089256 
L 471.573337 297.089256 
" clip-path="url(#p5ecab78904)" style="fill: none; stroke: #ffa500; stroke-width: 1.5; stroke-linecap: square"/>
   </g>
   <g id="line2d_141">
    <path d="M 498.917436 166.061651 
L 499.966829 167.225651 
L 497.517181 191.147238 
L 479.220523 197.22553 
L 464.484192 163.987386 
L 467.861548 159.659769 
L 468.19819 159.513617 
L 498.917436 166.061651 
" clip-path="url(#p5ecab78904)" style="fill: none; stroke: #ffa500; stroke-width: 1.5; stroke-linecap: square"/>
   </g>
   <g id="line2d_142">
    <path d="M 506.622923 228.270562 
L 505.157113 230.985415 
L 497.695081 236.385996 
L 485.906504 234.77614 
L 472.904382 205.157652 
L 479.220523 197.22553 
L 497.517181 191.147238 
L 505.081405 196.942224 
L 506.622923 228.270562 
" clip-path="url(#p5ecab78904)" style="fill: none; stroke: #ffa500; stroke-width: 1.5; stroke-linecap: square"/>
   </g>
   <g id="line2d_143">
    <path d="M 471.573337 297.089256 
L 469.320076 297.089256 
L 465.557134 285.616444 
L 473.029655 242.867299 
L 485.906504 234.77614 
L 497.695081 236.385996 
L 505.138294 259.644963 
L 471.573337 297.089256 
" clip-path="url(#p5ecab78904)" style="fill: none; stroke: #ffa500; stroke-width: 1.5; stroke-linecap: square"/>
   </g>
   <g id="line2d_144">
    <path d="M 498.71442 107.983827 
L 479.401956 91.337957 
L 484.416088 66.510744 
L 520.392722 66.510744 
L 524.980416 93.698831 
L 498.71442 107.983827 
" clip-path="url(#p5ecab78904)" style="fill: none; stroke: #ffa500; stroke-width: 1.5; stroke-linecap: square"/>
   </g>
  </g>
 </g>
 <defs>
  <clipPath id="p5ecab78904">
   <rect x="112.5" y="54.981818" width="697.5" height="253.636364"/>
  </clipPath>
 </defs>
</svg>
