<svg xmlns="http://www.w3.org/2000/svg" version="1.1" width="64" height="64"
	 viewBox="0 0 256 256" xml:space="preserve">

<defs>
</defs>
<g style="stroke: none; stroke-width: 0; stroke-dasharray: none; stroke-linecap: butt; stroke-linejoin: miter; stroke-miterlimit: 10; fill: none; fill-rule: nonzero; opacity: 1;" transform="translate(1.4065934065934016 1.4065934065934016) scale(2.81 2.81)" >
	<path d="M 67.474 38.278 H 22.526 c -1.917 0 -3.477 1.56 -3.477 3.477 v 8.34 v 23.8 c 0 1.917 1.56 3.477 3.477 3.477 h 44.947 c 1.917 0 3.477 -1.56 3.477 -3.477 v -23.8 v -8.34 C 70.95 39.838 69.391 38.278 67.474 38.278 z M 21.049 41.755 c 0 -0.814 0.663 -1.477 1.477 -1.477 h 44.947 c 0.814 0 1.477 0.663 1.477 1.477 v 7.34 H 21.049 V 41.755 z M 67.474 75.372 H 22.526 c -0.814 0 -1.477 -0.662 -1.477 -1.477 v -22.8 H 68.95 v 22.8 C 68.95 74.71 68.288 75.372 67.474 75.372 z" style="stroke: none; stroke-width: 1; stroke-dasharray: none; stroke-linecap: butt; stroke-linejoin: miter; stroke-miterlimit: 10; fill: rgb(74,163,196); fill-rule: nonzero; opacity: 1;" transform=" matrix(1 0 0 1 0 0) " stroke-linecap="round" />
	<path d="M 35.478 54.216 h -1.986 c -2.41 0 -4.371 1.961 -4.371 4.372 v 12.266 c 0 0.553 0.448 1 1 1 s 1 -0.447 1 -1 v -6.819 h 6.729 v 6.819 c 0 0.553 0.448 1 1 1 s 1 -0.447 1 -1 V 58.588 C 39.85 56.177 37.889 54.216 35.478 54.216 z M 31.121 62.034 v -3.446 c 0 -1.308 1.063 -2.372 2.371 -2.372 h 1.986 c 1.308 0 2.372 1.064 2.372 2.372 v 3.446 H 31.121 z" style="stroke: none; stroke-width: 1; stroke-dasharray: none; stroke-linecap: butt; stroke-linejoin: miter; stroke-miterlimit: 10; fill: rgb(74,163,196); fill-rule: nonzero; opacity: 1;" transform=" matrix(1 0 0 1 0 0) " stroke-linecap="round" />
	<path d="M 50.822 54.216 h -5.383 c -0.552 0 -1 0.447 -1 1 v 7.818 v 7.819 c 0 0.553 0.448 1 1 1 s 1 -0.447 1 -1 v -6.819 h 4.383 c 2.199 0 3.989 -1.79 3.989 -3.989 v -1.839 C 54.812 56.006 53.021 54.216 50.822 54.216 z M 52.812 60.045 c 0 1.097 -0.893 1.989 -1.989 1.989 h -4.383 v -5.818 h 4.383 c 1.097 0 1.989 0.893 1.989 1.99 V 60.045 z" style="stroke: none; stroke-width: 1; stroke-dasharray: none; stroke-linecap: butt; stroke-linejoin: miter; stroke-miterlimit: 10; fill: rgb(74,163,196); fill-rule: nonzero; opacity: 1;" transform=" matrix(1 0 0 1 0 0) " stroke-linecap="round" />
	<path d="M 59.879 54.216 c -0.553 0 -1 0.447 -1 1 v 15.638 c 0 0.553 0.447 1 1 1 s 1 -0.447 1 -1 V 55.216 C 60.879 54.663 60.432 54.216 59.879 54.216 z" style="stroke: none; stroke-width: 1; stroke-dasharray: none; stroke-linecap: butt; stroke-linejoin: miter; stroke-miterlimit: 10; fill: rgb(74,163,196); fill-rule: nonzero; opacity: 1;" transform=" matrix(1 0 0 1 0 0) " stroke-linecap="round" />
	<path d="M 25.12 43.687 h -0.457 c -0.552 0 -1 0.448 -1 1 s 0.448 1 1 1 h 0.457 c 0.552 0 1 -0.448 1 -1 S 25.672 43.687 25.12 43.687 z" style="stroke: none; stroke-width: 1; stroke-dasharray: none; stroke-linecap: butt; stroke-linejoin: miter; stroke-miterlimit: 10; fill: rgb(74,163,196); fill-rule: nonzero; opacity: 1;" transform=" matrix(1 0 0 1 0 0) " stroke-linecap="round" />
	<path d="M 30.223 43.687 h -0.457 c -0.552 0 -1 0.448 -1 1 s 0.448 1 1 1 h 0.457 c 0.552 0 1 -0.448 1 -1 S 30.775 43.687 30.223 43.687 z" style="stroke: none; stroke-width: 1; stroke-dasharray: none; stroke-linecap: butt; stroke-linejoin: miter; stroke-miterlimit: 10; fill: rgb(74,163,196); fill-rule: nonzero; opacity: 1;" transform=" matrix(1 0 0 1 0 0) " stroke-linecap="round" />
	<path d="M 35.327 43.687 H 34.87 c -0.552 0 -1 0.448 -1 1 s 0.448 1 1 1 h 0.457 c 0.552 0 1 -0.448 1 -1 S 35.879 43.687 35.327 43.687 z" style="stroke: none; stroke-width: 1; stroke-dasharray: none; stroke-linecap: butt; stroke-linejoin: miter; stroke-miterlimit: 10; fill: rgb(74,163,196); fill-rule: nonzero; opacity: 1;" transform=" matrix(1 0 0 1 0 0) " stroke-linecap="round" />
	<path d="M 65.337 43.687 H 53.174 c -0.553 0 -1 0.448 -1 1 s 0.447 1 1 1 h 12.163 c 0.553 0 1 -0.448 1 -1 S 65.89 43.687 65.337 43.687 z" style="stroke: none; stroke-width: 1; stroke-dasharray: none; stroke-linecap: butt; stroke-linejoin: miter; stroke-miterlimit: 10; fill: rgb(74,163,196); fill-rule: nonzero; opacity: 1;" transform=" matrix(1 0 0 1 0 0) " stroke-linecap="round" />
	<path d="M 83.556 40.132 c 0.037 -0.566 0.055 -1.099 0.055 -1.615 c 0 -14.275 -11.613 -25.889 -25.889 -25.889 c -8.053 0 -15.666 3.78 -20.555 10.158 c -2.89 -1.769 -6.187 -2.699 -9.596 -2.699 c -10.162 0 -18.43 8.268 -18.43 18.43 c 0 0.063 0.001 0.125 0.003 0.187 C 3.644 40.895 0 46.218 0 52.183 c 0 8.006 6.514 14.52 14.542 14.52 c 0.552 0 0.989 -0.447 0.989 -1 s -0.459 -1 -1.011 -1 C 7.616 64.702 2 59.086 2 52.183 c 0 -5.364 3.418 -10.126 8.505 -11.849 c 0.423 -0.144 0.7 -0.55 0.678 -0.996 l -0.02 -0.316 c -0.011 -0.167 -0.023 -0.334 -0.023 -0.504 c 0 -9.06 7.37 -16.43 16.43 -16.43 c 3.327 0 6.535 0.994 9.277 2.875 c 0.449 0.31 1.066 0.199 1.381 -0.246 c 4.481 -6.317 11.768 -10.088 19.494 -10.088 c 13.172 0 23.889 10.717 23.889 23.889 c 0 0.639 -0.03 1.311 -0.093 2.051 c -0.032 0.377 0.151 0.74 0.475 0.938 C 85.754 43.806 88 47.797 88 52.183 c 0 6.903 -5.616 12.52 -12.52 12.52 h -0.021 c -0.553 0 -0.989 0.447 -0.989 1 s 0.458 1 1.011 1 c 8.006 0 14.52 -6.514 14.52 -14.52 C 90 47.301 87.603 42.841 83.556 40.132 z" style="stroke: none; stroke-width: 1; stroke-dasharray: none; stroke-linecap: butt; stroke-linejoin: miter; stroke-miterlimit: 10; fill: rgb(74,163,196); fill-rule: nonzero; opacity: 1;" transform=" matrix(1 0 0 1 0 0) " stroke-linecap="round" />
</g>
</svg>