<?xml version="1.0" encoding="UTF-8" standalone="no"?>
<svg
   version="1.1"
   width="80"
   height="80"
   viewBox="0 0 320 320"
   xml:space="preserve"
   id="svg1148"
   sodipodi:docname="api_reference.svg"
   inkscape:version="1.3 (0e150ed6c4, 2023-07-21)"
   inkscape:export-filename="api_reference.png"
   inkscape:export-xdpi="96"
   inkscape:export-ydpi="96"
   xmlns:inkscape="http://www.inkscape.org/namespaces/inkscape"
   xmlns:sodipodi="http://sodipodi.sourceforge.net/DTD/sodipodi-0.dtd"
   xmlns="http://www.w3.org/2000/svg"
   xmlns:svg="http://www.w3.org/2000/svg"><sodipodi:namedview
   id="namedview1150"
   pagecolor="#ffffff"
   bordercolor="#666666"
   borderopacity="1.0"
   inkscape:showpageshadow="2"
   inkscape:pageopacity="0.0"
   inkscape:pagecheckerboard="0"
   inkscape:deskcolor="#d1d1d1"
   showgrid="false"
   inkscape:zoom="16.046875"
   inkscape:cx="27.88705"
   inkscape:cy="32"
   inkscape:window-width="2556"
   inkscape:window-height="1381"
   inkscape:window-x="0"
   inkscape:window-y="0"
   inkscape:window-maximized="1"
   inkscape:current-layer="svg1148" />&#10;&#10;<defs
   id="defs1126">&#10;</defs>&#10;<g
   style="opacity:1;fill:none;fill-rule:nonzero;stroke:none;stroke-width:0;stroke-linecap:butt;stroke-linejoin:miter;stroke-miterlimit:10;stroke-dasharray:none"
   transform="matrix(2.81,0,0,2.81,33.548595,33.55)"
   id="g1146">&#10;	<path
   d="M 67.474,38.278 H 22.526 c -1.917,0 -3.477,1.56 -3.477,3.477 v 8.34 23.8 c 0,1.917 1.56,3.477 3.477,3.477 h 44.947 c 1.917,0 3.477,-1.56 3.477,-3.477 v -23.8 -8.34 c 0,-1.917 -1.559,-3.477 -3.476,-3.477 z m -46.425,3.477 c 0,-0.814 0.663,-1.477 1.477,-1.477 h 44.947 c 0.814,0 1.477,0.663 1.477,1.477 v 7.34 H 21.049 Z M 67.474,75.372 H 22.526 c -0.814,0 -1.477,-0.662 -1.477,-1.477 v -22.8 H 68.95 v 22.8 c 0,0.815 -0.662,1.477 -1.476,1.477 z"
   style="opacity:1;fill:#4aa3c4;fill-rule:nonzero;stroke:none;stroke-width:1;stroke-linecap:butt;stroke-linejoin:miter;stroke-miterlimit:10;stroke-dasharray:none"
   stroke-linecap="round"
   id="path1128" />&#10;	<path
   d="m 35.478,54.216 h -1.986 c -2.41,0 -4.371,1.961 -4.371,4.372 v 12.266 c 0,0.553 0.448,1 1,1 0.552,0 1,-0.447 1,-1 v -6.819 h 6.729 v 6.819 c 0,0.553 0.448,1 1,1 0.552,0 1,-0.447 1,-1 V 58.588 c 0,-2.411 -1.961,-4.372 -4.372,-4.372 z m -4.357,7.818 v -3.446 c 0,-1.308 1.063,-2.372 2.371,-2.372 h 1.986 c 1.308,0 2.372,1.064 2.372,2.372 v 3.446 z"
   style="opacity:1;fill:#4aa3c4;fill-rule:nonzero;stroke:none;stroke-width:1;stroke-linecap:butt;stroke-linejoin:miter;stroke-miterlimit:10;stroke-dasharray:none"
   stroke-linecap="round"
   id="path1130" />&#10;	<path
   d="m 50.822,54.216 h -5.383 c -0.552,0 -1,0.447 -1,1 v 7.818 7.819 c 0,0.553 0.448,1 1,1 0.552,0 1,-0.447 1,-1 v -6.819 h 4.383 c 2.199,0 3.989,-1.79 3.989,-3.989 v -1.839 c 10e-4,-2.2 -1.79,-3.99 -3.989,-3.99 z m 1.99,5.829 c 0,1.097 -0.893,1.989 -1.989,1.989 H 46.44 v -5.818 h 4.383 c 1.097,0 1.989,0.893 1.989,1.99 z"
   style="opacity:1;fill:#4aa3c4;fill-rule:nonzero;stroke:none;stroke-width:1;stroke-linecap:butt;stroke-linejoin:miter;stroke-miterlimit:10;stroke-dasharray:none"
   stroke-linecap="round"
   id="path1132" />&#10;	<path
   d="m 59.879,54.216 c -0.553,0 -1,0.447 -1,1 v 15.638 c 0,0.553 0.447,1 1,1 0.553,0 1,-0.447 1,-1 V 55.216 c 0,-0.553 -0.447,-1 -1,-1 z"
   style="opacity:1;fill:#4aa3c4;fill-rule:nonzero;stroke:none;stroke-width:1;stroke-linecap:butt;stroke-linejoin:miter;stroke-miterlimit:10;stroke-dasharray:none"
   stroke-linecap="round"
   id="path1134" />&#10;	<path
   d="m 25.12,43.687 h -0.457 c -0.552,0 -1,0.448 -1,1 0,0.552 0.448,1 1,1 h 0.457 c 0.552,0 1,-0.448 1,-1 0,-0.552 -0.448,-1 -1,-1 z"
   style="opacity:1;fill:#4aa3c4;fill-rule:nonzero;stroke:none;stroke-width:1;stroke-linecap:butt;stroke-linejoin:miter;stroke-miterlimit:10;stroke-dasharray:none"
   stroke-linecap="round"
   id="path1136" />&#10;	<path
   d="m 30.223,43.687 h -0.457 c -0.552,0 -1,0.448 -1,1 0,0.552 0.448,1 1,1 h 0.457 c 0.552,0 1,-0.448 1,-1 0,-0.552 -0.448,-1 -1,-1 z"
   style="opacity:1;fill:#4aa3c4;fill-rule:nonzero;stroke:none;stroke-width:1;stroke-linecap:butt;stroke-linejoin:miter;stroke-miterlimit:10;stroke-dasharray:none"
   stroke-linecap="round"
   id="path1138" />&#10;	<path
   d="M 35.327,43.687 H 34.87 c -0.552,0 -1,0.448 -1,1 0,0.552 0.448,1 1,1 h 0.457 c 0.552,0 1,-0.448 1,-1 0,-0.552 -0.448,-1 -1,-1 z"
   style="opacity:1;fill:#4aa3c4;fill-rule:nonzero;stroke:none;stroke-width:1;stroke-linecap:butt;stroke-linejoin:miter;stroke-miterlimit:10;stroke-dasharray:none"
   stroke-linecap="round"
   id="path1140" />&#10;	<path
   d="M 65.337,43.687 H 53.174 c -0.553,0 -1,0.448 -1,1 0,0.552 0.447,1 1,1 h 12.163 c 0.553,0 1,-0.448 1,-1 0,-0.552 -0.447,-1 -1,-1 z"
   style="opacity:1;fill:#4aa3c4;fill-rule:nonzero;stroke:none;stroke-width:1;stroke-linecap:butt;stroke-linejoin:miter;stroke-miterlimit:10;stroke-dasharray:none"
   stroke-linecap="round"
   id="path1142" />&#10;	<path
   d="m 83.556,40.132 c 0.037,-0.566 0.055,-1.099 0.055,-1.615 0,-14.275 -11.613,-25.889 -25.889,-25.889 -8.053,0 -15.666,3.78 -20.555,10.158 -2.89,-1.769 -6.187,-2.699 -9.596,-2.699 -10.162,0 -18.43,8.268 -18.43,18.43 0,0.063 10e-4,0.125 0.003,0.187 C 3.644,40.895 0,46.218 0,52.183 c 0,8.006 6.514,14.52 14.542,14.52 0.552,0 0.989,-0.447 0.989,-1 0,-0.553 -0.459,-1 -1.011,-1 C 7.616,64.702 2,59.086 2,52.183 2,46.819 5.418,42.057 10.505,40.334 c 0.423,-0.144 0.7,-0.55 0.678,-0.996 l -0.02,-0.316 c -0.011,-0.167 -0.023,-0.334 -0.023,-0.504 0,-9.06 7.37,-16.43 16.43,-16.43 3.327,0 6.535,0.994 9.277,2.875 0.449,0.31 1.066,0.199 1.381,-0.246 4.481,-6.317 11.768,-10.088 19.494,-10.088 13.172,0 23.889,10.717 23.889,23.889 0,0.639 -0.03,1.311 -0.093,2.051 -0.032,0.377 0.151,0.74 0.475,0.938 3.761,2.299 6.007,6.29 6.007,10.676 0,6.903 -5.616,12.52 -12.52,12.52 h -0.021 c -0.553,0 -0.989,0.447 -0.989,1 0,0.553 0.458,1 1.011,1 8.006,0 14.52,-6.514 14.52,-14.52 C 90,47.301 87.603,42.841 83.556,40.132 Z"
   style="opacity:1;fill:#4aa3c4;fill-rule:nonzero;stroke:none;stroke-width:1;stroke-linecap:butt;stroke-linejoin:miter;stroke-miterlimit:10;stroke-dasharray:none"
   stroke-linecap="round"
   id="path1144" />&#10;</g>&#10;</svg>
