<?xml version="1.0" encoding="UTF-8" standalone="no"?>
<svg
   version="1.1"
   width="80"
   height="80"
   viewBox="0 0 320 320"
   xml:space="preserve"
   id="svg923"
   sodipodi:docname="developer_guide.svg"
   inkscape:version="1.3 (0e150ed6c4, 2023-07-21)"
   inkscape:export-filename="developer_guide.png"
   inkscape:export-xdpi="96"
   inkscape:export-ydpi="96"
   xmlns:inkscape="http://www.inkscape.org/namespaces/inkscape"
   xmlns:sodipodi="http://sodipodi.sourceforge.net/DTD/sodipodi-0.dtd"
   xmlns="http://www.w3.org/2000/svg"
   xmlns:svg="http://www.w3.org/2000/svg"><sodipodi:namedview
   id="namedview925"
   pagecolor="#ffffff"
   bordercolor="#666666"
   borderopacity="1.0"
   inkscape:showpageshadow="2"
   inkscape:pageopacity="0.0"
   inkscape:pagecheckerboard="0"
   inkscape:deskcolor="#d1d1d1"
   showgrid="false"
   inkscape:zoom="16.046875"
   inkscape:cx="27.949367"
   inkscape:cy="31.937683"
   inkscape:window-width="2556"
   inkscape:window-height="1381"
   inkscape:window-x="0"
   inkscape:window-y="0"
   inkscape:window-maximized="1"
   inkscape:current-layer="svg923" />&#10;&#10;<defs
   id="defs905">&#10;</defs>&#10;<g
   style="opacity:1;fill:none;fill-rule:nonzero;stroke:none;stroke-width:0;stroke-linecap:butt;stroke-linejoin:miter;stroke-miterlimit:10;stroke-dasharray:none"
   transform="matrix(2.81,0,0,2.81,33.551403,33.55)"
   id="g921">&#10;	<path
   d="M 83.018,78.406 H 6.982 C 3.132,78.406 0,75.274 0,71.424 V 18.576 c 0,-3.85 3.132,-6.982 6.982,-6.982 h 76.035 c 3.851,0 6.982,3.132 6.982,6.982 v 52.848 c 0.001,3.85 -3.131,6.982 -6.981,6.982 z M 6.982,13.594 C 4.235,13.594 2,15.829 2,18.576 v 52.848 c 0,2.747 2.235,4.982 4.982,4.982 h 76.035 c 2.747,0 4.982,-2.235 4.982,-4.982 V 18.576 c 0,-2.748 -2.235,-4.982 -4.982,-4.982 H 6.982 Z"
   style="opacity:1;fill:#4aa3c4;fill-rule:nonzero;stroke:none;stroke-width:1;stroke-linecap:butt;stroke-linejoin:miter;stroke-miterlimit:10;stroke-dasharray:none"
   stroke-linecap="round"
   id="path907" />&#10;	<path
   d="M 89,34.186 H 1 c -0.552,0 -1,-0.448 -1,-1 v -14.61 c 0,-3.85 3.132,-6.982 6.982,-6.982 h 76.035 c 3.851,0 6.982,3.132 6.982,6.982 V 33.185 C 90,33.738 89.553,34.186 89,34.186 Z m -87,-2 h 86 v -13.61 c 0,-2.747 -2.235,-4.982 -4.982,-4.982 H 6.982 C 4.235,13.594 2,15.829 2,18.576 Z"
   style="opacity:1;fill:#4aa3c4;fill-rule:nonzero;stroke:none;stroke-width:1;stroke-linecap:butt;stroke-linejoin:miter;stroke-miterlimit:10;stroke-dasharray:none"
   stroke-linecap="round"
   id="path909" />&#10;	<path
   d="M 60.832,27.618 H 11.168 c -2.607,0 -4.728,-2.121 -4.728,-4.728 0,-2.607 2.121,-4.728 4.728,-4.728 h 49.664 c 2.606,0 4.728,2.121 4.728,4.728 0,2.607 -2.122,4.728 -4.728,4.728 z M 11.168,20.162 c -1.504,0 -2.728,1.224 -2.728,2.728 0,1.504 1.224,2.728 2.728,2.728 h 49.664 c 1.504,0 2.728,-1.224 2.728,-2.728 0,-1.504 -1.224,-2.728 -2.728,-2.728 z"
   style="opacity:1;fill:#4aa3c4;fill-rule:nonzero;stroke:none;stroke-width:1;stroke-linecap:butt;stroke-linejoin:miter;stroke-miterlimit:10;stroke-dasharray:none"
   stroke-linecap="round"
   id="path911" />&#10;	<path
   d="m 78.832,27.618 h -3.664 c -2.606,0 -4.728,-2.121 -4.728,-4.728 0,-2.607 2.121,-4.728 4.728,-4.728 h 3.664 c 2.606,0 4.728,2.121 4.728,4.728 0,2.607 -2.122,4.728 -4.728,4.728 z m -3.664,-7.456 c -1.504,0 -2.728,1.224 -2.728,2.728 0,1.504 1.224,2.728 2.728,2.728 h 3.664 c 1.504,0 2.728,-1.224 2.728,-2.728 0,-1.504 -1.224,-2.728 -2.728,-2.728 z"
   style="opacity:1;fill:#4aa3c4;fill-rule:nonzero;stroke:none;stroke-width:1;stroke-linecap:butt;stroke-linejoin:miter;stroke-miterlimit:10;stroke-dasharray:none"
   stroke-linecap="round"
   id="path913" />&#10;	<path
   d="m 35.649,62.602 c -0.208,0 -0.417,-0.064 -0.597,-0.198 l -8.676,-6.477 c -0.253,-0.189 -0.402,-0.486 -0.402,-0.802 0,-0.316 0.149,-0.612 0.402,-0.802 l 8.676,-6.476 c 0.444,-0.329 1.07,-0.238 1.399,0.203 0.331,0.443 0.239,1.069 -0.203,1.4 l -7.602,5.674 7.602,5.675 c 0.443,0.331 0.534,0.957 0.203,1.4 -0.196,0.264 -0.497,0.403 -0.802,0.403 z"
   style="opacity:1;fill:#4aa3c4;fill-rule:nonzero;stroke:none;stroke-width:1;stroke-linecap:butt;stroke-linejoin:miter;stroke-miterlimit:10;stroke-dasharray:none"
   stroke-linecap="round"
   id="path915" />&#10;	<path
   d="m 54.351,62.602 c -0.305,0 -0.606,-0.139 -0.803,-0.401 -0.33,-0.443 -0.239,-1.069 0.203,-1.4 l 7.604,-5.675 -7.603,-5.674 c -0.443,-0.331 -0.534,-0.957 -0.204,-1.399 0.33,-0.443 0.959,-0.534 1.399,-0.204 l 8.677,6.476 c 0.253,0.189 0.402,0.486 0.402,0.802 0,0.316 -0.149,0.612 -0.401,0.802 l -8.677,6.477 c -0.179,0.131 -0.389,0.196 -0.597,0.196 z"
   style="opacity:1;fill:#4aa3c4;fill-rule:nonzero;stroke:none;stroke-width:1;stroke-linecap:butt;stroke-linejoin:miter;stroke-miterlimit:10;stroke-dasharray:none"
   stroke-linecap="round"
   id="path917" />&#10;	<path
   d="m 40.871,66.5 c -0.122,0 -0.245,-0.022 -0.365,-0.069 -0.514,-0.202 -0.767,-0.782 -0.565,-1.297 l 8.157,-20.749 c 0.203,-0.515 0.784,-0.767 1.297,-0.565 0.514,0.202 0.767,0.783 0.564,1.296 l -8.157,20.75 C 41.647,66.26 41.27,66.5 40.871,66.5 Z"
   style="opacity:1;fill:#4aa3c4;fill-rule:nonzero;stroke:none;stroke-width:1;stroke-linecap:butt;stroke-linejoin:miter;stroke-miterlimit:10;stroke-dasharray:none"
   stroke-linecap="round"
   id="path919" />&#10;</g>&#10;</svg>
