<svg xmlns="http://www.w3.org/2000/svg" version="1.1" width="64" height="64"
	 viewBox="0 0 256 256" xml:space="preserve">

<defs>
</defs>
<g style="stroke: none; stroke-width: 0; stroke-dasharray: none; stroke-linecap: butt; stroke-linejoin: miter; stroke-miterlimit: 10; fill: none; fill-rule: nonzero; opacity: 1;" transform="translate(1.4065934065934016 1.4065934065934016) scale(2.81 2.81)" >
	<path d="M 83.018 78.406 H 6.982 C 3.132 78.406 0 75.274 0 71.424 V 18.576 c 0 -3.85 3.132 -6.982 6.982 -6.982 h 76.035 c 3.851 0 6.982 3.132 6.982 6.982 v 52.848 C 90 75.274 86.868 78.406 83.018 78.406 z M 6.982 13.594 C 4.235 13.594 2 15.829 2 18.576 v 52.848 c 0 2.747 2.235 4.982 4.982 4.982 h 76.035 c 2.747 0 4.982 -2.235 4.982 -4.982 V 18.576 c 0 -2.748 -2.235 -4.982 -4.982 -4.982 H 6.982 z" style="stroke: none; stroke-width: 1; stroke-dasharray: none; stroke-linecap: butt; stroke-linejoin: miter; stroke-miterlimit: 10; fill: rgb(74,163,196); fill-rule: nonzero; opacity: 1;" transform=" matrix(1 0 0 1 0 0) " stroke-linecap="round" />
	<path d="M 89 34.186 H 1 c -0.552 0 -1 -0.448 -1 -1 V 18.576 c 0 -3.85 3.132 -6.982 6.982 -6.982 h 76.035 c 3.851 0 6.982 3.132 6.982 6.982 v 14.609 C 90 33.738 89.553 34.186 89 34.186 z M 2 32.186 h 86 V 18.576 c 0 -2.747 -2.235 -4.982 -4.982 -4.982 H 6.982 C 4.235 13.594 2 15.829 2 18.576 V 32.186 z" style="stroke: none; stroke-width: 1; stroke-dasharray: none; stroke-linecap: butt; stroke-linejoin: miter; stroke-miterlimit: 10; fill: rgb(74,163,196); fill-rule: nonzero; opacity: 1;" transform=" matrix(1 0 0 1 0 0) " stroke-linecap="round" />
	<path d="M 60.832 27.618 H 11.168 c -2.607 0 -4.728 -2.121 -4.728 -4.728 s 2.121 -4.728 4.728 -4.728 h 49.664 c 2.606 0 4.728 2.121 4.728 4.728 S 63.438 27.618 60.832 27.618 z M 11.168 20.162 c -1.504 0 -2.728 1.224 -2.728 2.728 s 1.224 2.728 2.728 2.728 h 49.664 c 1.504 0 2.728 -1.224 2.728 -2.728 s -1.224 -2.728 -2.728 -2.728 H 11.168 z" style="stroke: none; stroke-width: 1; stroke-dasharray: none; stroke-linecap: butt; stroke-linejoin: miter; stroke-miterlimit: 10; fill: rgb(74,163,196); fill-rule: nonzero; opacity: 1;" transform=" matrix(1 0 0 1 0 0) " stroke-linecap="round" />
	<path d="M 78.832 27.618 h -3.664 c -2.606 0 -4.728 -2.121 -4.728 -4.728 s 2.121 -4.728 4.728 -4.728 h 3.664 c 2.606 0 4.728 2.121 4.728 4.728 S 81.438 27.618 78.832 27.618 z M 75.168 20.162 c -1.504 0 -2.728 1.224 -2.728 2.728 s 1.224 2.728 2.728 2.728 h 3.664 c 1.504 0 2.728 -1.224 2.728 -2.728 s -1.224 -2.728 -2.728 -2.728 H 75.168 z" style="stroke: none; stroke-width: 1; stroke-dasharray: none; stroke-linecap: butt; stroke-linejoin: miter; stroke-miterlimit: 10; fill: rgb(74,163,196); fill-rule: nonzero; opacity: 1;" transform=" matrix(1 0 0 1 0 0) " stroke-linecap="round" />
	<path d="M 35.649 62.602 c -0.208 0 -0.417 -0.064 -0.597 -0.198 l -8.676 -6.477 c -0.253 -0.189 -0.402 -0.486 -0.402 -0.802 s 0.149 -0.612 0.402 -0.802 l 8.676 -6.476 c 0.444 -0.329 1.07 -0.238 1.399 0.203 c 0.331 0.443 0.239 1.069 -0.203 1.4 l -7.602 5.674 l 7.602 5.675 c 0.443 0.331 0.534 0.957 0.203 1.4 C 36.255 62.463 35.954 62.602 35.649 62.602 z" style="stroke: none; stroke-width: 1; stroke-dasharray: none; stroke-linecap: butt; stroke-linejoin: miter; stroke-miterlimit: 10; fill: rgb(74,163,196); fill-rule: nonzero; opacity: 1;" transform=" matrix(1 0 0 1 0 0) " stroke-linecap="round" />
	<path d="M 54.351 62.602 c -0.305 0 -0.606 -0.139 -0.803 -0.401 c -0.33 -0.443 -0.239 -1.069 0.203 -1.4 l 7.604 -5.675 l -7.603 -5.674 c -0.443 -0.331 -0.534 -0.957 -0.204 -1.399 c 0.33 -0.443 0.959 -0.534 1.399 -0.204 l 8.677 6.476 c 0.253 0.189 0.402 0.486 0.402 0.802 s -0.149 0.612 -0.401 0.802 l -8.677 6.477 C 54.769 62.537 54.559 62.602 54.351 62.602 z" style="stroke: none; stroke-width: 1; stroke-dasharray: none; stroke-linecap: butt; stroke-linejoin: miter; stroke-miterlimit: 10; fill: rgb(74,163,196); fill-rule: nonzero; opacity: 1;" transform=" matrix(1 0 0 1 0 0) " stroke-linecap="round" />
	<path d="M 40.871 66.5 c -0.122 0 -0.245 -0.022 -0.365 -0.069 c -0.514 -0.202 -0.767 -0.782 -0.565 -1.297 l 8.157 -20.749 c 0.203 -0.515 0.784 -0.767 1.297 -0.565 c 0.514 0.202 0.767 0.783 0.564 1.296 l -8.157 20.75 C 41.647 66.26 41.27 66.5 40.871 66.5 z" style="stroke: none; stroke-width: 1; stroke-dasharray: none; stroke-linecap: butt; stroke-linejoin: miter; stroke-miterlimit: 10; fill: rgb(74,163,196); fill-rule: nonzero; opacity: 1;" transform=" matrix(1 0 0 1 0 0) " stroke-linecap="round" />
</g>
</svg>